M48
; DRILL file {KiCad (5.1.5)-3} date 01/30/22 10:55:32
; FORMAT={-:-/ absolute / inch / decimal}
; #@! TF.CreationDate,2022-01-30T10:55:32+01:00
; #@! TF.GenerationSoftware,Kicad,Pcbnew,(5.1.5)-3
; #@! TF.FileFunction,Plated,1,2,PTH
FMAT,2
INCH
T1C0.0157
T2C0.0394
T3C0.1181
T4C0.1260
%
G90
G05
T1
X1.5354Y-6.6831
X1.8701Y-6.6831
X2.9921Y-6.6831
X3.2776Y-5.0886
X3.3465Y-6.6831
X3.4052Y-5.063
T2
X3.345Y-3.525
X3.345Y-3.625
X3.345Y-3.725
X3.345Y-3.825
X3.345Y-3.925
X3.345Y-4.025
X1.51Y-3.625
X1.51Y-3.725
X1.51Y-3.825
X1.51Y-3.925
X1.51Y-4.025
X1.815Y-4.025
X1.815Y-4.625
X1.915Y-4.025
X1.915Y-4.625
X2.015Y-4.025
X2.015Y-4.625
X2.115Y-4.025
X2.115Y-4.625
X2.215Y-4.025
X2.215Y-4.625
X2.315Y-4.025
X2.315Y-4.625
X2.415Y-4.025
X2.415Y-4.625
X2.515Y-4.025
X2.515Y-4.625
X2.615Y-4.025
X2.615Y-4.625
X2.715Y-4.025
X2.715Y-4.625
X2.815Y-4.025
X2.815Y-4.625
X2.915Y-4.025
X2.915Y-4.625
X3.015Y-4.025
X3.015Y-4.625
X3.115Y-4.025
X3.115Y-4.625
X1.715Y-4.97
X1.715Y-5.07
X1.815Y-4.97
X1.815Y-5.07
X1.915Y-4.97
X1.915Y-5.07
X2.015Y-4.97
X2.015Y-5.07
X2.115Y-4.97
X2.115Y-5.07
X2.215Y-4.97
X2.215Y-5.07
X2.315Y-4.97
X2.315Y-5.07
X2.415Y-4.97
X2.415Y-5.07
X2.515Y-4.97
X2.515Y-5.07
X2.615Y-4.97
X2.615Y-5.07
X2.715Y-4.97
X2.715Y-5.07
X2.815Y-4.97
X2.815Y-5.07
X2.915Y-4.97
X2.915Y-5.07
X3.015Y-4.97
X3.015Y-5.07
X3.115Y-4.97
X3.115Y-5.07
X3.215Y-4.97
X3.215Y-5.07
T3
X1.9488Y-2.9518
X2.9724Y-2.9518
T4
X2.0472Y-5.374
X2.874Y-5.374
T0
M30
