G04 #@! TF.GenerationSoftware,KiCad,Pcbnew,(5.1.5)-3*
G04 #@! TF.CreationDate,2022-01-30T10:55:24+01:00*
G04 #@! TF.ProjectId,pcb,7063622e-6b69-4636-9164-5f7063625858,rev?*
G04 #@! TF.SameCoordinates,Original*
G04 #@! TF.FileFunction,Paste,Bot*
G04 #@! TF.FilePolarity,Positive*
%FSLAX46Y46*%
G04 Gerber Fmt 4.6, Leading zero omitted, Abs format (unit mm)*
G04 Created by KiCad (PCBNEW (5.1.5)-3) date 2022-01-30 10:55:24*
%MOMM*%
%LPD*%
G04 APERTURE LIST*
%ADD10R,4.500000X3.000000*%
%ADD11R,0.800000X3.000000*%
%ADD12R,1.500000X5.500000*%
%ADD13R,1.000000X5.000000*%
G04 APERTURE END LIST*
D10*
X49500000Y-62225000D03*
X75500000Y-62225000D03*
D11*
X46750000Y-82600000D03*
X42250000Y-82600000D03*
X43750000Y-82600000D03*
X45250000Y-82600000D03*
X48250000Y-82600000D03*
X39250000Y-82600000D03*
X40750000Y-82600000D03*
X51250000Y-82600000D03*
X49750000Y-82600000D03*
X54250000Y-82600000D03*
X55750000Y-82600000D03*
X52750000Y-82600000D03*
X61750000Y-82600000D03*
X57250000Y-82600000D03*
X58750000Y-82600000D03*
X60250000Y-82600000D03*
X63250000Y-82600000D03*
X66250000Y-82600000D03*
X64750000Y-82600000D03*
X69250000Y-82600000D03*
X70750000Y-82600000D03*
X67750000Y-82600000D03*
X73750000Y-82600000D03*
X72250000Y-82600000D03*
X76750000Y-82600000D03*
X78250000Y-82600000D03*
X75250000Y-82600000D03*
X81250000Y-82600000D03*
X79750000Y-82600000D03*
X82750000Y-82600000D03*
X84250000Y-82600000D03*
X85750000Y-82600000D03*
D12*
X86000000Y-173250000D03*
D13*
X84250000Y-173000000D03*
X82750000Y-173000000D03*
X79750000Y-173000000D03*
X81250000Y-173000000D03*
X75250000Y-173000000D03*
X73750000Y-173000000D03*
X76750000Y-173000000D03*
X78250000Y-173000000D03*
X63250000Y-173000000D03*
X69250000Y-173000000D03*
X67750000Y-173000000D03*
X64750000Y-173000000D03*
X70750000Y-173000000D03*
X66250000Y-173000000D03*
X61750000Y-173000000D03*
X72250000Y-173000000D03*
X51250000Y-173000000D03*
X52750000Y-173000000D03*
X57250000Y-173000000D03*
X48250000Y-173000000D03*
X49750000Y-173000000D03*
X54250000Y-173000000D03*
X60250000Y-173000000D03*
X58750000Y-173000000D03*
X55750000Y-173000000D03*
X45250000Y-173000000D03*
X43750000Y-173000000D03*
X46750000Y-173000000D03*
X42250000Y-173000000D03*
X40750000Y-173000000D03*
D12*
X39000000Y-173250000D03*
M02*
