G04 #@! TF.GenerationSoftware,KiCad,Pcbnew,(5.1.5)-3*
G04 #@! TF.CreationDate,2022-01-30T10:55:24+01:00*
G04 #@! TF.ProjectId,pcb,7063622e-6b69-4636-9164-5f7063625858,rev?*
G04 #@! TF.SameCoordinates,Original*
G04 #@! TF.FileFunction,Legend,Top*
G04 #@! TF.FilePolarity,Positive*
%FSLAX46Y46*%
G04 Gerber Fmt 4.6, Leading zero omitted, Abs format (unit mm)*
G04 Created by KiCad (PCBNEW (5.1.5)-3) date 2022-01-30 10:55:24*
%MOMM*%
%LPD*%
G04 APERTURE LIST*
%ADD10C,0.120000*%
%ADD11C,0.150000*%
G04 APERTURE END LIST*
D10*
X80391000Y-114935000D02*
X80391000Y-113411000D01*
X80391000Y-104775000D02*
X80391000Y-106299000D01*
X44831000Y-104775000D02*
X44831000Y-114935000D01*
X81153000Y-106299000D02*
X76073000Y-106299000D01*
X81153000Y-113411000D02*
X81153000Y-106299000D01*
X81153000Y-113411000D02*
X76073000Y-113411000D01*
X76073000Y-106299000D02*
X76073000Y-113411000D01*
X41210000Y-127786252D02*
X41210000Y-127263748D01*
X39790000Y-127786252D02*
X39790000Y-127263748D01*
X85710000Y-127786252D02*
X85710000Y-127263748D01*
X84290000Y-127786252D02*
X84290000Y-127263748D01*
D11*
X46372428Y-115456642D02*
X45772428Y-115456642D01*
X46058142Y-115456642D02*
X46058142Y-115113785D01*
X46372428Y-115113785D02*
X45772428Y-115113785D01*
X46372428Y-114799500D02*
X46372428Y-114685214D01*
X46343857Y-114628071D01*
X46315285Y-114599500D01*
X46229571Y-114542357D01*
X46115285Y-114513785D01*
X45886714Y-114513785D01*
X45829571Y-114542357D01*
X45801000Y-114570928D01*
X45772428Y-114628071D01*
X45772428Y-114742357D01*
X45801000Y-114799500D01*
X45829571Y-114828071D01*
X45886714Y-114856642D01*
X46029571Y-114856642D01*
X46086714Y-114828071D01*
X46115285Y-114799500D01*
X46143857Y-114742357D01*
X46143857Y-114628071D01*
X46115285Y-114570928D01*
X46086714Y-114542357D01*
X46029571Y-114513785D01*
X53935285Y-115113785D02*
X53963857Y-115142357D01*
X53992428Y-115228071D01*
X53992428Y-115285214D01*
X53963857Y-115370928D01*
X53906714Y-115428071D01*
X53849571Y-115456642D01*
X53735285Y-115485214D01*
X53649571Y-115485214D01*
X53535285Y-115456642D01*
X53478142Y-115428071D01*
X53421000Y-115370928D01*
X53392428Y-115285214D01*
X53392428Y-115228071D01*
X53421000Y-115142357D01*
X53449571Y-115113785D01*
X53992428Y-114828071D02*
X53992428Y-114713785D01*
X53963857Y-114656642D01*
X53935285Y-114628071D01*
X53849571Y-114570928D01*
X53735285Y-114542357D01*
X53506714Y-114542357D01*
X53449571Y-114570928D01*
X53421000Y-114599500D01*
X53392428Y-114656642D01*
X53392428Y-114770928D01*
X53421000Y-114828071D01*
X53449571Y-114856642D01*
X53506714Y-114885214D01*
X53649571Y-114885214D01*
X53706714Y-114856642D01*
X53735285Y-114828071D01*
X53763857Y-114770928D01*
X53763857Y-114656642D01*
X53735285Y-114599500D01*
X53706714Y-114570928D01*
X53649571Y-114542357D01*
X48912428Y-115456642D02*
X48312428Y-115456642D01*
X48312428Y-115313785D01*
X48341000Y-115228071D01*
X48398142Y-115170928D01*
X48455285Y-115142357D01*
X48569571Y-115113785D01*
X48655285Y-115113785D01*
X48769571Y-115142357D01*
X48826714Y-115170928D01*
X48883857Y-115228071D01*
X48912428Y-115313785D01*
X48912428Y-115456642D01*
X48912428Y-114828071D02*
X48912428Y-114713785D01*
X48883857Y-114656642D01*
X48855285Y-114628071D01*
X48769571Y-114570928D01*
X48655285Y-114542357D01*
X48426714Y-114542357D01*
X48369571Y-114570928D01*
X48341000Y-114599500D01*
X48312428Y-114656642D01*
X48312428Y-114770928D01*
X48341000Y-114828071D01*
X48369571Y-114856642D01*
X48426714Y-114885214D01*
X48569571Y-114885214D01*
X48626714Y-114856642D01*
X48655285Y-114828071D01*
X48683857Y-114770928D01*
X48683857Y-114656642D01*
X48655285Y-114599500D01*
X48626714Y-114570928D01*
X48569571Y-114542357D01*
X66521000Y-115485214D02*
X66521000Y-115199500D01*
X66692428Y-115542357D02*
X66092428Y-115342357D01*
X66692428Y-115142357D01*
X66092428Y-114999500D02*
X66092428Y-114599500D01*
X66692428Y-114856642D01*
X58758142Y-115256642D02*
X58786714Y-115170928D01*
X58815285Y-115142357D01*
X58872428Y-115113785D01*
X58958142Y-115113785D01*
X59015285Y-115142357D01*
X59043857Y-115170928D01*
X59072428Y-115228071D01*
X59072428Y-115456642D01*
X58472428Y-115456642D01*
X58472428Y-115256642D01*
X58501000Y-115199500D01*
X58529571Y-115170928D01*
X58586714Y-115142357D01*
X58643857Y-115142357D01*
X58701000Y-115170928D01*
X58729571Y-115199500D01*
X58758142Y-115256642D01*
X58758142Y-115456642D01*
X58729571Y-114770928D02*
X58701000Y-114828071D01*
X58672428Y-114856642D01*
X58615285Y-114885214D01*
X58586714Y-114885214D01*
X58529571Y-114856642D01*
X58501000Y-114828071D01*
X58472428Y-114770928D01*
X58472428Y-114656642D01*
X58501000Y-114599500D01*
X58529571Y-114570928D01*
X58586714Y-114542357D01*
X58615285Y-114542357D01*
X58672428Y-114570928D01*
X58701000Y-114599500D01*
X58729571Y-114656642D01*
X58729571Y-114770928D01*
X58758142Y-114828071D01*
X58786714Y-114856642D01*
X58843857Y-114885214D01*
X58958142Y-114885214D01*
X59015285Y-114856642D01*
X59043857Y-114828071D01*
X59072428Y-114770928D01*
X59072428Y-114656642D01*
X59043857Y-114599500D01*
X59015285Y-114570928D01*
X58958142Y-114542357D01*
X58843857Y-114542357D01*
X58786714Y-114570928D01*
X58758142Y-114599500D01*
X58729571Y-114656642D01*
X56361000Y-115485214D02*
X56361000Y-115199500D01*
X56532428Y-115542357D02*
X55932428Y-115342357D01*
X56532428Y-115142357D01*
X56532428Y-114913785D02*
X56532428Y-114799500D01*
X56503857Y-114742357D01*
X56475285Y-114713785D01*
X56389571Y-114656642D01*
X56275285Y-114628071D01*
X56046714Y-114628071D01*
X55989571Y-114656642D01*
X55961000Y-114685214D01*
X55932428Y-114742357D01*
X55932428Y-114856642D01*
X55961000Y-114913785D01*
X55989571Y-114942357D01*
X56046714Y-114970928D01*
X56189571Y-114970928D01*
X56246714Y-114942357D01*
X56275285Y-114913785D01*
X56303857Y-114856642D01*
X56303857Y-114742357D01*
X56275285Y-114685214D01*
X56246714Y-114656642D01*
X56189571Y-114628071D01*
X71601000Y-115485214D02*
X71601000Y-115199500D01*
X71772428Y-115542357D02*
X71172428Y-115342357D01*
X71772428Y-115142357D01*
X71172428Y-114685214D02*
X71172428Y-114799500D01*
X71201000Y-114856642D01*
X71229571Y-114885214D01*
X71315285Y-114942357D01*
X71429571Y-114970928D01*
X71658142Y-114970928D01*
X71715285Y-114942357D01*
X71743857Y-114913785D01*
X71772428Y-114856642D01*
X71772428Y-114742357D01*
X71743857Y-114685214D01*
X71715285Y-114656642D01*
X71658142Y-114628071D01*
X71515285Y-114628071D01*
X71458142Y-114656642D01*
X71429571Y-114685214D01*
X71401000Y-114742357D01*
X71401000Y-114856642D01*
X71429571Y-114913785D01*
X71458142Y-114942357D01*
X71515285Y-114970928D01*
X63838142Y-115256642D02*
X63866714Y-115170928D01*
X63895285Y-115142357D01*
X63952428Y-115113785D01*
X64038142Y-115113785D01*
X64095285Y-115142357D01*
X64123857Y-115170928D01*
X64152428Y-115228071D01*
X64152428Y-115456642D01*
X63552428Y-115456642D01*
X63552428Y-115256642D01*
X63581000Y-115199500D01*
X63609571Y-115170928D01*
X63666714Y-115142357D01*
X63723857Y-115142357D01*
X63781000Y-115170928D01*
X63809571Y-115199500D01*
X63838142Y-115256642D01*
X63838142Y-115456642D01*
X63552428Y-114913785D02*
X63552428Y-114513785D01*
X64152428Y-114770928D01*
X61441000Y-115485214D02*
X61441000Y-115199500D01*
X61612428Y-115542357D02*
X61012428Y-115342357D01*
X61612428Y-115142357D01*
X61269571Y-114856642D02*
X61241000Y-114913785D01*
X61212428Y-114942357D01*
X61155285Y-114970928D01*
X61126714Y-114970928D01*
X61069571Y-114942357D01*
X61041000Y-114913785D01*
X61012428Y-114856642D01*
X61012428Y-114742357D01*
X61041000Y-114685214D01*
X61069571Y-114656642D01*
X61126714Y-114628071D01*
X61155285Y-114628071D01*
X61212428Y-114656642D01*
X61241000Y-114685214D01*
X61269571Y-114742357D01*
X61269571Y-114856642D01*
X61298142Y-114913785D01*
X61326714Y-114942357D01*
X61383857Y-114970928D01*
X61498142Y-114970928D01*
X61555285Y-114942357D01*
X61583857Y-114913785D01*
X61612428Y-114856642D01*
X61612428Y-114742357D01*
X61583857Y-114685214D01*
X61555285Y-114656642D01*
X61498142Y-114628071D01*
X61383857Y-114628071D01*
X61326714Y-114656642D01*
X61298142Y-114685214D01*
X61269571Y-114742357D01*
X68918142Y-115256642D02*
X68946714Y-115170928D01*
X68975285Y-115142357D01*
X69032428Y-115113785D01*
X69118142Y-115113785D01*
X69175285Y-115142357D01*
X69203857Y-115170928D01*
X69232428Y-115228071D01*
X69232428Y-115456642D01*
X68632428Y-115456642D01*
X68632428Y-115256642D01*
X68661000Y-115199500D01*
X68689571Y-115170928D01*
X68746714Y-115142357D01*
X68803857Y-115142357D01*
X68861000Y-115170928D01*
X68889571Y-115199500D01*
X68918142Y-115256642D01*
X68918142Y-115456642D01*
X68632428Y-114599500D02*
X68632428Y-114713785D01*
X68661000Y-114770928D01*
X68689571Y-114799500D01*
X68775285Y-114856642D01*
X68889571Y-114885214D01*
X69118142Y-114885214D01*
X69175285Y-114856642D01*
X69203857Y-114828071D01*
X69232428Y-114770928D01*
X69232428Y-114656642D01*
X69203857Y-114599500D01*
X69175285Y-114570928D01*
X69118142Y-114542357D01*
X68975285Y-114542357D01*
X68918142Y-114570928D01*
X68889571Y-114599500D01*
X68861000Y-114656642D01*
X68861000Y-114770928D01*
X68889571Y-114828071D01*
X68918142Y-114856642D01*
X68975285Y-114885214D01*
X51452428Y-115456642D02*
X50852428Y-115456642D01*
X50852428Y-115313785D01*
X50881000Y-115228071D01*
X50938142Y-115170928D01*
X50995285Y-115142357D01*
X51109571Y-115113785D01*
X51195285Y-115113785D01*
X51309571Y-115142357D01*
X51366714Y-115170928D01*
X51423857Y-115228071D01*
X51452428Y-115313785D01*
X51452428Y-115456642D01*
X51109571Y-114770928D02*
X51081000Y-114828071D01*
X51052428Y-114856642D01*
X50995285Y-114885214D01*
X50966714Y-114885214D01*
X50909571Y-114856642D01*
X50881000Y-114828071D01*
X50852428Y-114770928D01*
X50852428Y-114656642D01*
X50881000Y-114599500D01*
X50909571Y-114570928D01*
X50966714Y-114542357D01*
X50995285Y-114542357D01*
X51052428Y-114570928D01*
X51081000Y-114599500D01*
X51109571Y-114656642D01*
X51109571Y-114770928D01*
X51138142Y-114828071D01*
X51166714Y-114856642D01*
X51223857Y-114885214D01*
X51338142Y-114885214D01*
X51395285Y-114856642D01*
X51423857Y-114828071D01*
X51452428Y-114770928D01*
X51452428Y-114656642D01*
X51423857Y-114599500D01*
X51395285Y-114570928D01*
X51338142Y-114542357D01*
X51223857Y-114542357D01*
X51166714Y-114570928D01*
X51138142Y-114599500D01*
X51109571Y-114656642D01*
X53421000Y-104824785D02*
X53392428Y-104881928D01*
X53392428Y-104967642D01*
X53421000Y-105053357D01*
X53478142Y-105110500D01*
X53535285Y-105139071D01*
X53649571Y-105167642D01*
X53735285Y-105167642D01*
X53849571Y-105139071D01*
X53906714Y-105110500D01*
X53963857Y-105053357D01*
X53992428Y-104967642D01*
X53992428Y-104910500D01*
X53963857Y-104824785D01*
X53935285Y-104796214D01*
X53735285Y-104796214D01*
X53735285Y-104910500D01*
X53449571Y-104567642D02*
X53421000Y-104539071D01*
X53392428Y-104481928D01*
X53392428Y-104339071D01*
X53421000Y-104281928D01*
X53449571Y-104253357D01*
X53506714Y-104224785D01*
X53563857Y-104224785D01*
X53649571Y-104253357D01*
X53992428Y-104596214D01*
X53992428Y-104224785D01*
X69175285Y-104796214D02*
X69203857Y-104824785D01*
X69232428Y-104910500D01*
X69232428Y-104967642D01*
X69203857Y-105053357D01*
X69146714Y-105110500D01*
X69089571Y-105139071D01*
X68975285Y-105167642D01*
X68889571Y-105167642D01*
X68775285Y-105139071D01*
X68718142Y-105110500D01*
X68661000Y-105053357D01*
X68632428Y-104967642D01*
X68632428Y-104910500D01*
X68661000Y-104824785D01*
X68689571Y-104796214D01*
X68689571Y-104567642D02*
X68661000Y-104539071D01*
X68632428Y-104481928D01*
X68632428Y-104339071D01*
X68661000Y-104281928D01*
X68689571Y-104253357D01*
X68746714Y-104224785D01*
X68803857Y-104224785D01*
X68889571Y-104253357D01*
X69232428Y-104596214D01*
X69232428Y-104224785D01*
X46372428Y-105167642D02*
X45772428Y-105167642D01*
X46058142Y-105167642D02*
X46058142Y-104824785D01*
X46372428Y-104824785D02*
X45772428Y-104824785D01*
X45829571Y-104567642D02*
X45801000Y-104539071D01*
X45772428Y-104481928D01*
X45772428Y-104339071D01*
X45801000Y-104281928D01*
X45829571Y-104253357D01*
X45886714Y-104224785D01*
X45943857Y-104224785D01*
X46029571Y-104253357D01*
X46372428Y-104596214D01*
X46372428Y-104224785D01*
X74141000Y-105081928D02*
X74141000Y-104796214D01*
X74312428Y-105139071D02*
X73712428Y-104939071D01*
X74312428Y-104739071D01*
X74312428Y-104224785D02*
X74312428Y-104567642D01*
X74312428Y-104396214D02*
X73712428Y-104396214D01*
X73798142Y-104453357D01*
X73855285Y-104510500D01*
X73883857Y-104567642D01*
X58758142Y-105081928D02*
X58758142Y-104881928D01*
X59072428Y-104796214D02*
X59072428Y-105081928D01*
X58472428Y-105081928D01*
X58472428Y-104796214D01*
X58529571Y-104567642D02*
X58501000Y-104539071D01*
X58472428Y-104481928D01*
X58472428Y-104339071D01*
X58501000Y-104281928D01*
X58529571Y-104253357D01*
X58586714Y-104224785D01*
X58643857Y-104224785D01*
X58729571Y-104253357D01*
X59072428Y-104596214D01*
X59072428Y-104224785D01*
X71458142Y-104939071D02*
X71486714Y-104853357D01*
X71515285Y-104824785D01*
X71572428Y-104796214D01*
X71658142Y-104796214D01*
X71715285Y-104824785D01*
X71743857Y-104853357D01*
X71772428Y-104910500D01*
X71772428Y-105139071D01*
X71172428Y-105139071D01*
X71172428Y-104939071D01*
X71201000Y-104881928D01*
X71229571Y-104853357D01*
X71286714Y-104824785D01*
X71343857Y-104824785D01*
X71401000Y-104853357D01*
X71429571Y-104881928D01*
X71458142Y-104939071D01*
X71458142Y-105139071D01*
X71772428Y-104224785D02*
X71772428Y-104567642D01*
X71772428Y-104396214D02*
X71172428Y-104396214D01*
X71258142Y-104453357D01*
X71315285Y-104510500D01*
X71343857Y-104567642D01*
X51452428Y-105167642D02*
X50852428Y-105167642D01*
X51138142Y-105167642D02*
X51138142Y-104824785D01*
X51452428Y-104824785D02*
X50852428Y-104824785D01*
X51452428Y-104224785D02*
X51452428Y-104567642D01*
X51452428Y-104396214D02*
X50852428Y-104396214D01*
X50938142Y-104453357D01*
X50995285Y-104510500D01*
X51023857Y-104567642D01*
X66635285Y-104796214D02*
X66663857Y-104824785D01*
X66692428Y-104910500D01*
X66692428Y-104967642D01*
X66663857Y-105053357D01*
X66606714Y-105110500D01*
X66549571Y-105139071D01*
X66435285Y-105167642D01*
X66349571Y-105167642D01*
X66235285Y-105139071D01*
X66178142Y-105110500D01*
X66121000Y-105053357D01*
X66092428Y-104967642D01*
X66092428Y-104910500D01*
X66121000Y-104824785D01*
X66149571Y-104796214D01*
X66692428Y-104224785D02*
X66692428Y-104567642D01*
X66692428Y-104396214D02*
X66092428Y-104396214D01*
X66178142Y-104453357D01*
X66235285Y-104510500D01*
X66263857Y-104567642D01*
X56218142Y-105081928D02*
X56218142Y-104881928D01*
X56532428Y-104796214D02*
X56532428Y-105081928D01*
X55932428Y-105081928D01*
X55932428Y-104796214D01*
X56532428Y-104224785D02*
X56532428Y-104567642D01*
X56532428Y-104396214D02*
X55932428Y-104396214D01*
X56018142Y-104453357D01*
X56075285Y-104510500D01*
X56103857Y-104567642D01*
X76681000Y-105081928D02*
X76681000Y-104796214D01*
X76852428Y-105139071D02*
X76252428Y-104939071D01*
X76852428Y-104739071D01*
X76309571Y-104567642D02*
X76281000Y-104539071D01*
X76252428Y-104481928D01*
X76252428Y-104339071D01*
X76281000Y-104281928D01*
X76309571Y-104253357D01*
X76366714Y-104224785D01*
X76423857Y-104224785D01*
X76509571Y-104253357D01*
X76852428Y-104596214D01*
X76852428Y-104224785D01*
X64152428Y-105139071D02*
X63552428Y-105139071D01*
X63552428Y-104996214D01*
X63581000Y-104910500D01*
X63638142Y-104853357D01*
X63695285Y-104824785D01*
X63809571Y-104796214D01*
X63895285Y-104796214D01*
X64009571Y-104824785D01*
X64066714Y-104853357D01*
X64123857Y-104910500D01*
X64152428Y-104996214D01*
X64152428Y-105139071D01*
X63609571Y-104567642D02*
X63581000Y-104539071D01*
X63552428Y-104481928D01*
X63552428Y-104339071D01*
X63581000Y-104281928D01*
X63609571Y-104253357D01*
X63666714Y-104224785D01*
X63723857Y-104224785D01*
X63809571Y-104253357D01*
X64152428Y-104596214D01*
X64152428Y-104224785D01*
X48312428Y-104824785D02*
X48741000Y-104824785D01*
X48826714Y-104853357D01*
X48883857Y-104910500D01*
X48912428Y-104996214D01*
X48912428Y-105053357D01*
X48912428Y-104224785D02*
X48912428Y-104567642D01*
X48912428Y-104396214D02*
X48312428Y-104396214D01*
X48398142Y-104453357D01*
X48455285Y-104510500D01*
X48483857Y-104567642D01*
X61612428Y-105139071D02*
X61012428Y-105139071D01*
X61012428Y-104996214D01*
X61041000Y-104910500D01*
X61098142Y-104853357D01*
X61155285Y-104824785D01*
X61269571Y-104796214D01*
X61355285Y-104796214D01*
X61469571Y-104824785D01*
X61526714Y-104853357D01*
X61583857Y-104910500D01*
X61612428Y-104996214D01*
X61612428Y-105139071D01*
X61612428Y-104224785D02*
X61612428Y-104567642D01*
X61612428Y-104396214D02*
X61012428Y-104396214D01*
X61098142Y-104453357D01*
X61155285Y-104510500D01*
X61183857Y-104567642D01*
X73712428Y-121521928D02*
X74312428Y-121321928D01*
X73712428Y-121121928D01*
X73712428Y-120807642D02*
X73712428Y-120693357D01*
X73741000Y-120636214D01*
X73798142Y-120579071D01*
X73912428Y-120550500D01*
X74112428Y-120550500D01*
X74226714Y-120579071D01*
X74283857Y-120636214D01*
X74312428Y-120693357D01*
X74312428Y-120807642D01*
X74283857Y-120864785D01*
X74226714Y-120921928D01*
X74112428Y-120950500D01*
X73912428Y-120950500D01*
X73798142Y-120921928D01*
X73741000Y-120864785D01*
X73712428Y-120807642D01*
X73712428Y-120293357D02*
X74198142Y-120293357D01*
X74255285Y-120264785D01*
X74283857Y-120236214D01*
X74312428Y-120179071D01*
X74312428Y-120064785D01*
X74283857Y-120007642D01*
X74255285Y-119979071D01*
X74198142Y-119950500D01*
X73712428Y-119950500D01*
X73712428Y-119750500D02*
X73712428Y-119407642D01*
X74312428Y-119579071D02*
X73712428Y-119579071D01*
X70874000Y-120636214D02*
X70874000Y-119950500D01*
X71172428Y-120550500D02*
X71772428Y-120407642D01*
X71343857Y-120293357D01*
X71772428Y-120179071D01*
X71172428Y-120036214D01*
X70874000Y-119950500D02*
X70874000Y-119350500D01*
X71772428Y-119464785D02*
X71486714Y-119664785D01*
X71772428Y-119807642D02*
X71172428Y-119807642D01*
X71172428Y-119579071D01*
X71201000Y-119521928D01*
X71229571Y-119493357D01*
X71286714Y-119464785D01*
X71372428Y-119464785D01*
X71429571Y-119493357D01*
X71458142Y-119521928D01*
X71486714Y-119579071D01*
X71486714Y-119807642D01*
X68334000Y-120550500D02*
X68334000Y-119950500D01*
X69232428Y-120064785D02*
X68946714Y-120264785D01*
X69232428Y-120407642D02*
X68632428Y-120407642D01*
X68632428Y-120179071D01*
X68661000Y-120121928D01*
X68689571Y-120093357D01*
X68746714Y-120064785D01*
X68832428Y-120064785D01*
X68889571Y-120093357D01*
X68918142Y-120121928D01*
X68946714Y-120179071D01*
X68946714Y-120407642D01*
X68334000Y-119950500D02*
X68334000Y-119350500D01*
X69232428Y-119807642D02*
X68632428Y-119807642D01*
X68632428Y-119664785D01*
X68661000Y-119579071D01*
X68718142Y-119521928D01*
X68775285Y-119493357D01*
X68889571Y-119464785D01*
X68975285Y-119464785D01*
X69089571Y-119493357D01*
X69146714Y-119521928D01*
X69203857Y-119579071D01*
X69232428Y-119664785D01*
X69232428Y-119807642D01*
X78792428Y-120721928D02*
X79392428Y-120521928D01*
X78792428Y-120321928D01*
X79392428Y-120121928D02*
X78792428Y-120121928D01*
X79392428Y-119836214D02*
X78792428Y-119836214D01*
X79392428Y-119493357D01*
X78792428Y-119493357D01*
X76281000Y-120721928D02*
X76252428Y-120779071D01*
X76252428Y-120864785D01*
X76281000Y-120950500D01*
X76338142Y-121007642D01*
X76395285Y-121036214D01*
X76509571Y-121064785D01*
X76595285Y-121064785D01*
X76709571Y-121036214D01*
X76766714Y-121007642D01*
X76823857Y-120950500D01*
X76852428Y-120864785D01*
X76852428Y-120807642D01*
X76823857Y-120721928D01*
X76795285Y-120693357D01*
X76595285Y-120693357D01*
X76595285Y-120807642D01*
X76852428Y-120436214D02*
X76252428Y-120436214D01*
X76852428Y-120093357D01*
X76252428Y-120093357D01*
X76852428Y-119807642D02*
X76252428Y-119807642D01*
X76252428Y-119664785D01*
X76281000Y-119579071D01*
X76338142Y-119521928D01*
X76395285Y-119493357D01*
X76509571Y-119464785D01*
X76595285Y-119464785D01*
X76709571Y-119493357D01*
X76766714Y-119521928D01*
X76823857Y-119579071D01*
X76852428Y-119664785D01*
X76852428Y-119807642D01*
X56361000Y-120921928D02*
X56361000Y-120636214D01*
X56532428Y-120979071D02*
X55932428Y-120779071D01*
X56532428Y-120579071D01*
X56532428Y-120379071D02*
X55932428Y-120379071D01*
X55932428Y-120236214D01*
X55961000Y-120150500D01*
X56018142Y-120093357D01*
X56075285Y-120064785D01*
X56189571Y-120036214D01*
X56275285Y-120036214D01*
X56389571Y-120064785D01*
X56446714Y-120093357D01*
X56503857Y-120150500D01*
X56532428Y-120236214D01*
X56532428Y-120379071D01*
X55932428Y-119836214D02*
X55932428Y-119436214D01*
X56532428Y-119693357D01*
X65794000Y-120521928D02*
X65794000Y-119921928D01*
X66635285Y-120036214D02*
X66663857Y-120064785D01*
X66692428Y-120150500D01*
X66692428Y-120207642D01*
X66663857Y-120293357D01*
X66606714Y-120350500D01*
X66549571Y-120379071D01*
X66435285Y-120407642D01*
X66349571Y-120407642D01*
X66235285Y-120379071D01*
X66178142Y-120350500D01*
X66121000Y-120293357D01*
X66092428Y-120207642D01*
X66092428Y-120150500D01*
X66121000Y-120064785D01*
X66149571Y-120036214D01*
X65794000Y-119921928D02*
X65794000Y-119350500D01*
X66663857Y-119807642D02*
X66692428Y-119721928D01*
X66692428Y-119579071D01*
X66663857Y-119521928D01*
X66635285Y-119493357D01*
X66578142Y-119464785D01*
X66521000Y-119464785D01*
X66463857Y-119493357D01*
X66435285Y-119521928D01*
X66406714Y-119579071D01*
X66378142Y-119693357D01*
X66349571Y-119750500D01*
X66321000Y-119779071D01*
X66263857Y-119807642D01*
X66206714Y-119807642D01*
X66149571Y-119779071D01*
X66121000Y-119750500D01*
X66092428Y-119693357D01*
X66092428Y-119550500D01*
X66121000Y-119464785D01*
X58901000Y-120921928D02*
X58901000Y-120636214D01*
X59072428Y-120979071D02*
X58472428Y-120779071D01*
X59072428Y-120579071D01*
X59072428Y-120379071D02*
X58472428Y-120379071D01*
X58472428Y-120236214D01*
X58501000Y-120150500D01*
X58558142Y-120093357D01*
X58615285Y-120064785D01*
X58729571Y-120036214D01*
X58815285Y-120036214D01*
X58929571Y-120064785D01*
X58986714Y-120093357D01*
X59043857Y-120150500D01*
X59072428Y-120236214D01*
X59072428Y-120379071D01*
X58472428Y-119493357D02*
X58472428Y-119779071D01*
X58758142Y-119807642D01*
X58729571Y-119779071D01*
X58701000Y-119721928D01*
X58701000Y-119579071D01*
X58729571Y-119521928D01*
X58758142Y-119493357D01*
X58815285Y-119464785D01*
X58958142Y-119464785D01*
X59015285Y-119493357D01*
X59043857Y-119521928D01*
X59072428Y-119579071D01*
X59072428Y-119721928D01*
X59043857Y-119779071D01*
X59015285Y-119807642D01*
X46201000Y-121493357D02*
X46201000Y-121207642D01*
X46372428Y-121550500D02*
X45772428Y-121350500D01*
X46372428Y-121150500D01*
X46372428Y-120950500D02*
X45772428Y-120950500D01*
X45772428Y-120807642D01*
X45801000Y-120721928D01*
X45858142Y-120664785D01*
X45915285Y-120636214D01*
X46029571Y-120607642D01*
X46115285Y-120607642D01*
X46229571Y-120636214D01*
X46286714Y-120664785D01*
X46343857Y-120721928D01*
X46372428Y-120807642D01*
X46372428Y-120950500D01*
X46372428Y-120036214D02*
X46372428Y-120379071D01*
X46372428Y-120207642D02*
X45772428Y-120207642D01*
X45858142Y-120264785D01*
X45915285Y-120321928D01*
X45943857Y-120379071D01*
X45772428Y-119493357D02*
X45772428Y-119779071D01*
X46058142Y-119807642D01*
X46029571Y-119779071D01*
X46001000Y-119721928D01*
X46001000Y-119579071D01*
X46029571Y-119521928D01*
X46058142Y-119493357D01*
X46115285Y-119464785D01*
X46258142Y-119464785D01*
X46315285Y-119493357D01*
X46343857Y-119521928D01*
X46372428Y-119579071D01*
X46372428Y-119721928D01*
X46343857Y-119779071D01*
X46315285Y-119807642D01*
X61441000Y-120921928D02*
X61441000Y-120636214D01*
X61612428Y-120979071D02*
X61012428Y-120779071D01*
X61612428Y-120579071D01*
X61612428Y-120379071D02*
X61012428Y-120379071D01*
X61012428Y-120236214D01*
X61041000Y-120150500D01*
X61098142Y-120093357D01*
X61155285Y-120064785D01*
X61269571Y-120036214D01*
X61355285Y-120036214D01*
X61469571Y-120064785D01*
X61526714Y-120093357D01*
X61583857Y-120150500D01*
X61612428Y-120236214D01*
X61612428Y-120379071D01*
X61012428Y-119836214D02*
X61012428Y-119464785D01*
X61241000Y-119664785D01*
X61241000Y-119579071D01*
X61269571Y-119521928D01*
X61298142Y-119493357D01*
X61355285Y-119464785D01*
X61498142Y-119464785D01*
X61555285Y-119493357D01*
X61583857Y-119521928D01*
X61612428Y-119579071D01*
X61612428Y-119750500D01*
X61583857Y-119807642D01*
X61555285Y-119836214D01*
X53821000Y-120921928D02*
X53821000Y-120636214D01*
X53992428Y-120979071D02*
X53392428Y-120779071D01*
X53992428Y-120579071D01*
X53992428Y-120379071D02*
X53392428Y-120379071D01*
X53392428Y-120236214D01*
X53421000Y-120150500D01*
X53478142Y-120093357D01*
X53535285Y-120064785D01*
X53649571Y-120036214D01*
X53735285Y-120036214D01*
X53849571Y-120064785D01*
X53906714Y-120093357D01*
X53963857Y-120150500D01*
X53992428Y-120236214D01*
X53992428Y-120379071D01*
X53992428Y-119750500D02*
X53992428Y-119636214D01*
X53963857Y-119579071D01*
X53935285Y-119550500D01*
X53849571Y-119493357D01*
X53735285Y-119464785D01*
X53506714Y-119464785D01*
X53449571Y-119493357D01*
X53421000Y-119521928D01*
X53392428Y-119579071D01*
X53392428Y-119693357D01*
X53421000Y-119750500D01*
X53449571Y-119779071D01*
X53506714Y-119807642D01*
X53649571Y-119807642D01*
X53706714Y-119779071D01*
X53735285Y-119750500D01*
X53763857Y-119693357D01*
X53763857Y-119579071D01*
X53735285Y-119521928D01*
X53706714Y-119493357D01*
X53649571Y-119464785D01*
X51281000Y-121493357D02*
X51281000Y-121207642D01*
X51452428Y-121550500D02*
X50852428Y-121350500D01*
X51452428Y-121150500D01*
X51452428Y-120950500D02*
X50852428Y-120950500D01*
X50852428Y-120807642D01*
X50881000Y-120721928D01*
X50938142Y-120664785D01*
X50995285Y-120636214D01*
X51109571Y-120607642D01*
X51195285Y-120607642D01*
X51309571Y-120636214D01*
X51366714Y-120664785D01*
X51423857Y-120721928D01*
X51452428Y-120807642D01*
X51452428Y-120950500D01*
X51452428Y-120036214D02*
X51452428Y-120379071D01*
X51452428Y-120207642D02*
X50852428Y-120207642D01*
X50938142Y-120264785D01*
X50995285Y-120321928D01*
X51023857Y-120379071D01*
X51452428Y-119464785D02*
X51452428Y-119807642D01*
X51452428Y-119636214D02*
X50852428Y-119636214D01*
X50938142Y-119693357D01*
X50995285Y-119750500D01*
X51023857Y-119807642D01*
X48741000Y-121493357D02*
X48741000Y-121207642D01*
X48912428Y-121550500D02*
X48312428Y-121350500D01*
X48912428Y-121150500D01*
X48912428Y-120950500D02*
X48312428Y-120950500D01*
X48312428Y-120807642D01*
X48341000Y-120721928D01*
X48398142Y-120664785D01*
X48455285Y-120636214D01*
X48569571Y-120607642D01*
X48655285Y-120607642D01*
X48769571Y-120636214D01*
X48826714Y-120664785D01*
X48883857Y-120721928D01*
X48912428Y-120807642D01*
X48912428Y-120950500D01*
X48912428Y-120036214D02*
X48912428Y-120379071D01*
X48912428Y-120207642D02*
X48312428Y-120207642D01*
X48398142Y-120264785D01*
X48455285Y-120321928D01*
X48483857Y-120379071D01*
X48312428Y-119836214D02*
X48312428Y-119464785D01*
X48541000Y-119664785D01*
X48541000Y-119579071D01*
X48569571Y-119521928D01*
X48598142Y-119493357D01*
X48655285Y-119464785D01*
X48798142Y-119464785D01*
X48855285Y-119493357D01*
X48883857Y-119521928D01*
X48912428Y-119579071D01*
X48912428Y-119750500D01*
X48883857Y-119807642D01*
X48855285Y-119836214D01*
X63981000Y-120921928D02*
X63981000Y-120636214D01*
X64152428Y-120979071D02*
X63552428Y-120779071D01*
X64152428Y-120579071D01*
X64152428Y-120379071D02*
X63552428Y-120379071D01*
X63552428Y-120236214D01*
X63581000Y-120150500D01*
X63638142Y-120093357D01*
X63695285Y-120064785D01*
X63809571Y-120036214D01*
X63895285Y-120036214D01*
X64009571Y-120064785D01*
X64066714Y-120093357D01*
X64123857Y-120150500D01*
X64152428Y-120236214D01*
X64152428Y-120379071D01*
X64152428Y-119464785D02*
X64152428Y-119807642D01*
X64152428Y-119636214D02*
X63552428Y-119636214D01*
X63638142Y-119693357D01*
X63695285Y-119750500D01*
X63723857Y-119807642D01*
X68918142Y-100216642D02*
X68918142Y-100016642D01*
X69232428Y-99930928D02*
X69232428Y-100216642D01*
X68632428Y-100216642D01*
X68632428Y-99930928D01*
X68632428Y-99730928D02*
X69232428Y-99330928D01*
X68632428Y-99330928D02*
X69232428Y-99730928D01*
X68632428Y-99188071D02*
X68632428Y-98845214D01*
X69232428Y-99016642D02*
X68632428Y-99016642D01*
X68632428Y-98702357D02*
X68632428Y-98330928D01*
X68861000Y-98530928D01*
X68861000Y-98445214D01*
X68889571Y-98388071D01*
X68918142Y-98359500D01*
X68975285Y-98330928D01*
X69118142Y-98330928D01*
X69175285Y-98359500D01*
X69203857Y-98388071D01*
X69232428Y-98445214D01*
X69232428Y-98616642D01*
X69203857Y-98673785D01*
X69175285Y-98702357D01*
X78821000Y-99902357D02*
X78792428Y-99959500D01*
X78792428Y-100045214D01*
X78821000Y-100130928D01*
X78878142Y-100188071D01*
X78935285Y-100216642D01*
X79049571Y-100245214D01*
X79135285Y-100245214D01*
X79249571Y-100216642D01*
X79306714Y-100188071D01*
X79363857Y-100130928D01*
X79392428Y-100045214D01*
X79392428Y-99988071D01*
X79363857Y-99902357D01*
X79335285Y-99873785D01*
X79135285Y-99873785D01*
X79135285Y-99988071D01*
X79392428Y-99616642D02*
X78792428Y-99616642D01*
X79392428Y-99273785D01*
X78792428Y-99273785D01*
X79392428Y-98988071D02*
X78792428Y-98988071D01*
X78792428Y-98845214D01*
X78821000Y-98759500D01*
X78878142Y-98702357D01*
X78935285Y-98673785D01*
X79049571Y-98645214D01*
X79135285Y-98645214D01*
X79249571Y-98673785D01*
X79306714Y-98702357D01*
X79363857Y-98759500D01*
X79392428Y-98845214D01*
X79392428Y-98988071D01*
X76538142Y-100216642D02*
X76538142Y-100016642D01*
X76852428Y-99930928D02*
X76852428Y-100216642D01*
X76252428Y-100216642D01*
X76252428Y-99930928D01*
X76252428Y-99730928D02*
X76852428Y-99330928D01*
X76252428Y-99330928D02*
X76852428Y-99730928D01*
X76252428Y-99188071D02*
X76252428Y-98845214D01*
X76852428Y-99016642D02*
X76252428Y-99016642D01*
X76252428Y-98530928D02*
X76252428Y-98473785D01*
X76281000Y-98416642D01*
X76309571Y-98388071D01*
X76366714Y-98359500D01*
X76481000Y-98330928D01*
X76623857Y-98330928D01*
X76738142Y-98359500D01*
X76795285Y-98388071D01*
X76823857Y-98416642D01*
X76852428Y-98473785D01*
X76852428Y-98530928D01*
X76823857Y-98588071D01*
X76795285Y-98616642D01*
X76738142Y-98645214D01*
X76623857Y-98673785D01*
X76481000Y-98673785D01*
X76366714Y-98645214D01*
X76309571Y-98616642D01*
X76281000Y-98588071D01*
X76252428Y-98530928D01*
X73998142Y-100216642D02*
X73998142Y-100016642D01*
X74312428Y-99930928D02*
X74312428Y-100216642D01*
X73712428Y-100216642D01*
X73712428Y-99930928D01*
X73712428Y-99730928D02*
X74312428Y-99330928D01*
X73712428Y-99330928D02*
X74312428Y-99730928D01*
X73712428Y-99188071D02*
X73712428Y-98845214D01*
X74312428Y-99016642D02*
X73712428Y-99016642D01*
X74312428Y-98330928D02*
X74312428Y-98673785D01*
X74312428Y-98502357D02*
X73712428Y-98502357D01*
X73798142Y-98559500D01*
X73855285Y-98616642D01*
X73883857Y-98673785D01*
X71458142Y-100216642D02*
X71458142Y-100016642D01*
X71772428Y-99930928D02*
X71772428Y-100216642D01*
X71172428Y-100216642D01*
X71172428Y-99930928D01*
X71172428Y-99730928D02*
X71772428Y-99330928D01*
X71172428Y-99330928D02*
X71772428Y-99730928D01*
X71172428Y-99188071D02*
X71172428Y-98845214D01*
X71772428Y-99016642D02*
X71172428Y-99016642D01*
X71229571Y-98673785D02*
X71201000Y-98645214D01*
X71172428Y-98588071D01*
X71172428Y-98445214D01*
X71201000Y-98388071D01*
X71229571Y-98359500D01*
X71286714Y-98330928D01*
X71343857Y-98330928D01*
X71429571Y-98359500D01*
X71772428Y-98702357D01*
X71772428Y-98330928D01*
X66378142Y-100216642D02*
X66378142Y-100016642D01*
X66692428Y-99930928D02*
X66692428Y-100216642D01*
X66092428Y-100216642D01*
X66092428Y-99930928D01*
X66092428Y-99730928D02*
X66692428Y-99330928D01*
X66092428Y-99330928D02*
X66692428Y-99730928D01*
X66092428Y-99188071D02*
X66092428Y-98845214D01*
X66692428Y-99016642D02*
X66092428Y-99016642D01*
X66292428Y-98388071D02*
X66692428Y-98388071D01*
X66063857Y-98530928D02*
X66492428Y-98673785D01*
X66492428Y-98302357D01*
X63981000Y-100245214D02*
X63981000Y-99959500D01*
X64152428Y-100302357D02*
X63552428Y-100102357D01*
X64152428Y-99902357D01*
X64152428Y-99702357D02*
X63552428Y-99702357D01*
X63552428Y-99559500D01*
X63581000Y-99473785D01*
X63638142Y-99416642D01*
X63695285Y-99388071D01*
X63809571Y-99359500D01*
X63895285Y-99359500D01*
X64009571Y-99388071D01*
X64066714Y-99416642D01*
X64123857Y-99473785D01*
X64152428Y-99559500D01*
X64152428Y-99702357D01*
X63552428Y-98988071D02*
X63552428Y-98930928D01*
X63581000Y-98873785D01*
X63609571Y-98845214D01*
X63666714Y-98816642D01*
X63781000Y-98788071D01*
X63923857Y-98788071D01*
X64038142Y-98816642D01*
X64095285Y-98845214D01*
X64123857Y-98873785D01*
X64152428Y-98930928D01*
X64152428Y-98988071D01*
X64123857Y-99045214D01*
X64095285Y-99073785D01*
X64038142Y-99102357D01*
X63923857Y-99130928D01*
X63781000Y-99130928D01*
X63666714Y-99102357D01*
X63609571Y-99073785D01*
X63581000Y-99045214D01*
X63552428Y-98988071D01*
X56361000Y-100245214D02*
X56361000Y-99959500D01*
X56532428Y-100302357D02*
X55932428Y-100102357D01*
X56532428Y-99902357D01*
X56532428Y-99702357D02*
X55932428Y-99702357D01*
X55932428Y-99559500D01*
X55961000Y-99473785D01*
X56018142Y-99416642D01*
X56075285Y-99388071D01*
X56189571Y-99359500D01*
X56275285Y-99359500D01*
X56389571Y-99388071D01*
X56446714Y-99416642D01*
X56503857Y-99473785D01*
X56532428Y-99559500D01*
X56532428Y-99702357D01*
X55932428Y-98845214D02*
X55932428Y-98959500D01*
X55961000Y-99016642D01*
X55989571Y-99045214D01*
X56075285Y-99102357D01*
X56189571Y-99130928D01*
X56418142Y-99130928D01*
X56475285Y-99102357D01*
X56503857Y-99073785D01*
X56532428Y-99016642D01*
X56532428Y-98902357D01*
X56503857Y-98845214D01*
X56475285Y-98816642D01*
X56418142Y-98788071D01*
X56275285Y-98788071D01*
X56218142Y-98816642D01*
X56189571Y-98845214D01*
X56161000Y-98902357D01*
X56161000Y-99016642D01*
X56189571Y-99073785D01*
X56218142Y-99102357D01*
X56275285Y-99130928D01*
X58901000Y-100245214D02*
X58901000Y-99959500D01*
X59072428Y-100302357D02*
X58472428Y-100102357D01*
X59072428Y-99902357D01*
X59072428Y-99702357D02*
X58472428Y-99702357D01*
X58472428Y-99559500D01*
X58501000Y-99473785D01*
X58558142Y-99416642D01*
X58615285Y-99388071D01*
X58729571Y-99359500D01*
X58815285Y-99359500D01*
X58929571Y-99388071D01*
X58986714Y-99416642D01*
X59043857Y-99473785D01*
X59072428Y-99559500D01*
X59072428Y-99702357D01*
X58672428Y-98845214D02*
X59072428Y-98845214D01*
X58443857Y-98988071D02*
X58872428Y-99130928D01*
X58872428Y-98759500D01*
X48741000Y-100245214D02*
X48741000Y-99959500D01*
X48912428Y-100302357D02*
X48312428Y-100102357D01*
X48912428Y-99902357D01*
X48912428Y-99702357D02*
X48312428Y-99702357D01*
X48312428Y-99559500D01*
X48341000Y-99473785D01*
X48398142Y-99416642D01*
X48455285Y-99388071D01*
X48569571Y-99359500D01*
X48655285Y-99359500D01*
X48769571Y-99388071D01*
X48826714Y-99416642D01*
X48883857Y-99473785D01*
X48912428Y-99559500D01*
X48912428Y-99702357D01*
X48912428Y-98788071D02*
X48912428Y-99130928D01*
X48912428Y-98959500D02*
X48312428Y-98959500D01*
X48398142Y-99016642D01*
X48455285Y-99073785D01*
X48483857Y-99130928D01*
X48369571Y-98559500D02*
X48341000Y-98530928D01*
X48312428Y-98473785D01*
X48312428Y-98330928D01*
X48341000Y-98273785D01*
X48369571Y-98245214D01*
X48426714Y-98216642D01*
X48483857Y-98216642D01*
X48569571Y-98245214D01*
X48912428Y-98588071D01*
X48912428Y-98216642D01*
X61441000Y-100245214D02*
X61441000Y-99959500D01*
X61612428Y-100302357D02*
X61012428Y-100102357D01*
X61612428Y-99902357D01*
X61612428Y-99702357D02*
X61012428Y-99702357D01*
X61012428Y-99559500D01*
X61041000Y-99473785D01*
X61098142Y-99416642D01*
X61155285Y-99388071D01*
X61269571Y-99359500D01*
X61355285Y-99359500D01*
X61469571Y-99388071D01*
X61526714Y-99416642D01*
X61583857Y-99473785D01*
X61612428Y-99559500D01*
X61612428Y-99702357D01*
X61069571Y-99130928D02*
X61041000Y-99102357D01*
X61012428Y-99045214D01*
X61012428Y-98902357D01*
X61041000Y-98845214D01*
X61069571Y-98816642D01*
X61126714Y-98788071D01*
X61183857Y-98788071D01*
X61269571Y-98816642D01*
X61612428Y-99159500D01*
X61612428Y-98788071D01*
X51281000Y-100245214D02*
X51281000Y-99959500D01*
X51452428Y-100302357D02*
X50852428Y-100102357D01*
X51452428Y-99902357D01*
X51452428Y-99702357D02*
X50852428Y-99702357D01*
X50852428Y-99559500D01*
X50881000Y-99473785D01*
X50938142Y-99416642D01*
X50995285Y-99388071D01*
X51109571Y-99359500D01*
X51195285Y-99359500D01*
X51309571Y-99388071D01*
X51366714Y-99416642D01*
X51423857Y-99473785D01*
X51452428Y-99559500D01*
X51452428Y-99702357D01*
X51452428Y-98788071D02*
X51452428Y-99130928D01*
X51452428Y-98959500D02*
X50852428Y-98959500D01*
X50938142Y-99016642D01*
X50995285Y-99073785D01*
X51023857Y-99130928D01*
X50852428Y-98416642D02*
X50852428Y-98359500D01*
X50881000Y-98302357D01*
X50909571Y-98273785D01*
X50966714Y-98245214D01*
X51081000Y-98216642D01*
X51223857Y-98216642D01*
X51338142Y-98245214D01*
X51395285Y-98273785D01*
X51423857Y-98302357D01*
X51452428Y-98359500D01*
X51452428Y-98416642D01*
X51423857Y-98473785D01*
X51395285Y-98502357D01*
X51338142Y-98530928D01*
X51223857Y-98559500D01*
X51081000Y-98559500D01*
X50966714Y-98530928D01*
X50909571Y-98502357D01*
X50881000Y-98473785D01*
X50852428Y-98416642D01*
X53821000Y-100245214D02*
X53821000Y-99959500D01*
X53992428Y-100302357D02*
X53392428Y-100102357D01*
X53992428Y-99902357D01*
X53992428Y-99702357D02*
X53392428Y-99702357D01*
X53392428Y-99559500D01*
X53421000Y-99473785D01*
X53478142Y-99416642D01*
X53535285Y-99388071D01*
X53649571Y-99359500D01*
X53735285Y-99359500D01*
X53849571Y-99388071D01*
X53906714Y-99416642D01*
X53963857Y-99473785D01*
X53992428Y-99559500D01*
X53992428Y-99702357D01*
X53649571Y-99016642D02*
X53621000Y-99073785D01*
X53592428Y-99102357D01*
X53535285Y-99130928D01*
X53506714Y-99130928D01*
X53449571Y-99102357D01*
X53421000Y-99073785D01*
X53392428Y-99016642D01*
X53392428Y-98902357D01*
X53421000Y-98845214D01*
X53449571Y-98816642D01*
X53506714Y-98788071D01*
X53535285Y-98788071D01*
X53592428Y-98816642D01*
X53621000Y-98845214D01*
X53649571Y-98902357D01*
X53649571Y-99016642D01*
X53678142Y-99073785D01*
X53706714Y-99102357D01*
X53763857Y-99130928D01*
X53878142Y-99130928D01*
X53935285Y-99102357D01*
X53963857Y-99073785D01*
X53992428Y-99016642D01*
X53992428Y-98902357D01*
X53963857Y-98845214D01*
X53935285Y-98816642D01*
X53878142Y-98788071D01*
X53763857Y-98788071D01*
X53706714Y-98816642D01*
X53678142Y-98845214D01*
X53649571Y-98902357D01*
X46201000Y-100245214D02*
X46201000Y-99959500D01*
X46372428Y-100302357D02*
X45772428Y-100102357D01*
X46372428Y-99902357D01*
X46372428Y-99702357D02*
X45772428Y-99702357D01*
X45772428Y-99559500D01*
X45801000Y-99473785D01*
X45858142Y-99416642D01*
X45915285Y-99388071D01*
X46029571Y-99359500D01*
X46115285Y-99359500D01*
X46229571Y-99388071D01*
X46286714Y-99416642D01*
X46343857Y-99473785D01*
X46372428Y-99559500D01*
X46372428Y-99702357D01*
X46372428Y-98788071D02*
X46372428Y-99130928D01*
X46372428Y-98959500D02*
X45772428Y-98959500D01*
X45858142Y-99016642D01*
X45915285Y-99073785D01*
X45943857Y-99130928D01*
X45972428Y-98273785D02*
X46372428Y-98273785D01*
X45743857Y-98416642D02*
X46172428Y-98559500D01*
X46172428Y-98188071D01*
X81932428Y-132024928D02*
X81332428Y-132024928D01*
X81332428Y-131796357D01*
X81361000Y-131739214D01*
X81389571Y-131710642D01*
X81446714Y-131682071D01*
X81532428Y-131682071D01*
X81589571Y-131710642D01*
X81618142Y-131739214D01*
X81646714Y-131796357D01*
X81646714Y-132024928D01*
X81932428Y-131424928D02*
X81332428Y-131424928D01*
X81618142Y-131424928D02*
X81618142Y-131082071D01*
X81932428Y-131082071D02*
X81332428Y-131082071D01*
X81932428Y-130796357D02*
X81332428Y-130796357D01*
X58901000Y-132796357D02*
X58901000Y-132510642D01*
X59072428Y-132853500D02*
X58472428Y-132653500D01*
X59072428Y-132453500D01*
X59072428Y-132253500D02*
X58472428Y-132253500D01*
X58472428Y-132110642D01*
X58501000Y-132024928D01*
X58558142Y-131967785D01*
X58615285Y-131939214D01*
X58729571Y-131910642D01*
X58815285Y-131910642D01*
X58929571Y-131939214D01*
X58986714Y-131967785D01*
X59043857Y-132024928D01*
X59072428Y-132110642D01*
X59072428Y-132253500D01*
X59072428Y-131339214D02*
X59072428Y-131682071D01*
X59072428Y-131510642D02*
X58472428Y-131510642D01*
X58558142Y-131567785D01*
X58615285Y-131624928D01*
X58643857Y-131682071D01*
X58672428Y-130824928D02*
X59072428Y-130824928D01*
X58443857Y-130967785D02*
X58872428Y-131110642D01*
X58872428Y-130739214D01*
X74141000Y-132224928D02*
X74141000Y-131939214D01*
X74312428Y-132282071D02*
X73712428Y-132082071D01*
X74312428Y-131882071D01*
X74312428Y-131682071D02*
X73712428Y-131682071D01*
X73712428Y-131539214D01*
X73741000Y-131453500D01*
X73798142Y-131396357D01*
X73855285Y-131367785D01*
X73969571Y-131339214D01*
X74055285Y-131339214D01*
X74169571Y-131367785D01*
X74226714Y-131396357D01*
X74283857Y-131453500D01*
X74312428Y-131539214D01*
X74312428Y-131682071D01*
X73769571Y-131110642D02*
X73741000Y-131082071D01*
X73712428Y-131024928D01*
X73712428Y-130882071D01*
X73741000Y-130824928D01*
X73769571Y-130796357D01*
X73826714Y-130767785D01*
X73883857Y-130767785D01*
X73969571Y-130796357D01*
X74312428Y-131139214D01*
X74312428Y-130767785D01*
X71601000Y-132224928D02*
X71601000Y-131939214D01*
X71772428Y-132282071D02*
X71172428Y-132082071D01*
X71772428Y-131882071D01*
X71772428Y-131682071D02*
X71172428Y-131682071D01*
X71172428Y-131539214D01*
X71201000Y-131453500D01*
X71258142Y-131396357D01*
X71315285Y-131367785D01*
X71429571Y-131339214D01*
X71515285Y-131339214D01*
X71629571Y-131367785D01*
X71686714Y-131396357D01*
X71743857Y-131453500D01*
X71772428Y-131539214D01*
X71772428Y-131682071D01*
X71372428Y-130824928D02*
X71772428Y-130824928D01*
X71143857Y-130967785D02*
X71572428Y-131110642D01*
X71572428Y-130739214D01*
X76681000Y-132224928D02*
X76681000Y-131939214D01*
X76852428Y-132282071D02*
X76252428Y-132082071D01*
X76852428Y-131882071D01*
X76852428Y-131682071D02*
X76252428Y-131682071D01*
X76252428Y-131539214D01*
X76281000Y-131453500D01*
X76338142Y-131396357D01*
X76395285Y-131367785D01*
X76509571Y-131339214D01*
X76595285Y-131339214D01*
X76709571Y-131367785D01*
X76766714Y-131396357D01*
X76823857Y-131453500D01*
X76852428Y-131539214D01*
X76852428Y-131682071D01*
X76252428Y-130967785D02*
X76252428Y-130910642D01*
X76281000Y-130853500D01*
X76309571Y-130824928D01*
X76366714Y-130796357D01*
X76481000Y-130767785D01*
X76623857Y-130767785D01*
X76738142Y-130796357D01*
X76795285Y-130824928D01*
X76823857Y-130853500D01*
X76852428Y-130910642D01*
X76852428Y-130967785D01*
X76823857Y-131024928D01*
X76795285Y-131053500D01*
X76738142Y-131082071D01*
X76623857Y-131110642D01*
X76481000Y-131110642D01*
X76366714Y-131082071D01*
X76309571Y-131053500D01*
X76281000Y-131024928D01*
X76252428Y-130967785D01*
X78494000Y-131853500D02*
X78494000Y-131253500D01*
X79392428Y-131367785D02*
X79106714Y-131567785D01*
X79392428Y-131710642D02*
X78792428Y-131710642D01*
X78792428Y-131482071D01*
X78821000Y-131424928D01*
X78849571Y-131396357D01*
X78906714Y-131367785D01*
X78992428Y-131367785D01*
X79049571Y-131396357D01*
X79078142Y-131424928D01*
X79106714Y-131482071D01*
X79106714Y-131710642D01*
X78494000Y-131253500D02*
X78494000Y-130653500D01*
X79392428Y-131110642D02*
X78792428Y-131110642D01*
X78792428Y-130967785D01*
X78821000Y-130882071D01*
X78878142Y-130824928D01*
X78935285Y-130796357D01*
X79049571Y-130767785D01*
X79135285Y-130767785D01*
X79249571Y-130796357D01*
X79306714Y-130824928D01*
X79363857Y-130882071D01*
X79392428Y-130967785D01*
X79392428Y-131110642D01*
X45474000Y-132396357D02*
X45474000Y-131796357D01*
X46315285Y-131910642D02*
X46343857Y-131939214D01*
X46372428Y-132024928D01*
X46372428Y-132082071D01*
X46343857Y-132167785D01*
X46286714Y-132224928D01*
X46229571Y-132253500D01*
X46115285Y-132282071D01*
X46029571Y-132282071D01*
X45915285Y-132253500D01*
X45858142Y-132224928D01*
X45801000Y-132167785D01*
X45772428Y-132082071D01*
X45772428Y-132024928D01*
X45801000Y-131939214D01*
X45829571Y-131910642D01*
X45474000Y-131796357D02*
X45474000Y-131224928D01*
X46343857Y-131682071D02*
X46372428Y-131596357D01*
X46372428Y-131453500D01*
X46343857Y-131396357D01*
X46315285Y-131367785D01*
X46258142Y-131339214D01*
X46201000Y-131339214D01*
X46143857Y-131367785D01*
X46115285Y-131396357D01*
X46086714Y-131453500D01*
X46058142Y-131567785D01*
X46029571Y-131624928D01*
X46001000Y-131653500D01*
X45943857Y-131682071D01*
X45886714Y-131682071D01*
X45829571Y-131653500D01*
X45801000Y-131624928D01*
X45772428Y-131567785D01*
X45772428Y-131424928D01*
X45801000Y-131339214D01*
X45474000Y-131224928D02*
X45474000Y-130653500D01*
X45829571Y-131110642D02*
X45801000Y-131082071D01*
X45772428Y-131024928D01*
X45772428Y-130882071D01*
X45801000Y-130824928D01*
X45829571Y-130796357D01*
X45886714Y-130767785D01*
X45943857Y-130767785D01*
X46029571Y-130796357D01*
X46372428Y-131139214D01*
X46372428Y-130767785D01*
X63981000Y-132796357D02*
X63981000Y-132510642D01*
X64152428Y-132853500D02*
X63552428Y-132653500D01*
X64152428Y-132453500D01*
X64152428Y-132253500D02*
X63552428Y-132253500D01*
X63552428Y-132110642D01*
X63581000Y-132024928D01*
X63638142Y-131967785D01*
X63695285Y-131939214D01*
X63809571Y-131910642D01*
X63895285Y-131910642D01*
X64009571Y-131939214D01*
X64066714Y-131967785D01*
X64123857Y-132024928D01*
X64152428Y-132110642D01*
X64152428Y-132253500D01*
X64152428Y-131339214D02*
X64152428Y-131682071D01*
X64152428Y-131510642D02*
X63552428Y-131510642D01*
X63638142Y-131567785D01*
X63695285Y-131624928D01*
X63723857Y-131682071D01*
X63552428Y-130967785D02*
X63552428Y-130910642D01*
X63581000Y-130853500D01*
X63609571Y-130824928D01*
X63666714Y-130796357D01*
X63781000Y-130767785D01*
X63923857Y-130767785D01*
X64038142Y-130796357D01*
X64095285Y-130824928D01*
X64123857Y-130853500D01*
X64152428Y-130910642D01*
X64152428Y-130967785D01*
X64123857Y-131024928D01*
X64095285Y-131053500D01*
X64038142Y-131082071D01*
X63923857Y-131110642D01*
X63781000Y-131110642D01*
X63666714Y-131082071D01*
X63609571Y-131053500D01*
X63581000Y-131024928D01*
X63552428Y-130967785D01*
X43261000Y-132024928D02*
X43232428Y-132082071D01*
X43232428Y-132167785D01*
X43261000Y-132253500D01*
X43318142Y-132310642D01*
X43375285Y-132339214D01*
X43489571Y-132367785D01*
X43575285Y-132367785D01*
X43689571Y-132339214D01*
X43746714Y-132310642D01*
X43803857Y-132253500D01*
X43832428Y-132167785D01*
X43832428Y-132110642D01*
X43803857Y-132024928D01*
X43775285Y-131996357D01*
X43575285Y-131996357D01*
X43575285Y-132110642D01*
X43832428Y-131739214D02*
X43232428Y-131739214D01*
X43832428Y-131396357D01*
X43232428Y-131396357D01*
X43832428Y-131110642D02*
X43232428Y-131110642D01*
X43232428Y-130967785D01*
X43261000Y-130882071D01*
X43318142Y-130824928D01*
X43375285Y-130796357D01*
X43489571Y-130767785D01*
X43575285Y-130767785D01*
X43689571Y-130796357D01*
X43746714Y-130824928D01*
X43803857Y-130882071D01*
X43832428Y-130967785D01*
X43832428Y-131110642D01*
X48741000Y-132196357D02*
X48741000Y-131910642D01*
X48912428Y-132253500D02*
X48312428Y-132053500D01*
X48912428Y-131853500D01*
X48369571Y-131682071D02*
X48341000Y-131653500D01*
X48312428Y-131596357D01*
X48312428Y-131453500D01*
X48341000Y-131396357D01*
X48369571Y-131367785D01*
X48426714Y-131339214D01*
X48483857Y-131339214D01*
X48569571Y-131367785D01*
X48912428Y-131710642D01*
X48912428Y-131339214D01*
X48369571Y-131110642D02*
X48341000Y-131082071D01*
X48312428Y-131024928D01*
X48312428Y-130882071D01*
X48341000Y-130824928D01*
X48369571Y-130796357D01*
X48426714Y-130767785D01*
X48483857Y-130767785D01*
X48569571Y-130796357D01*
X48912428Y-131139214D01*
X48912428Y-130767785D01*
X69061000Y-132224928D02*
X69061000Y-131939214D01*
X69232428Y-132282071D02*
X68632428Y-132082071D01*
X69232428Y-131882071D01*
X69232428Y-131682071D02*
X68632428Y-131682071D01*
X68632428Y-131539214D01*
X68661000Y-131453500D01*
X68718142Y-131396357D01*
X68775285Y-131367785D01*
X68889571Y-131339214D01*
X68975285Y-131339214D01*
X69089571Y-131367785D01*
X69146714Y-131396357D01*
X69203857Y-131453500D01*
X69232428Y-131539214D01*
X69232428Y-131682071D01*
X68632428Y-130824928D02*
X68632428Y-130939214D01*
X68661000Y-130996357D01*
X68689571Y-131024928D01*
X68775285Y-131082071D01*
X68889571Y-131110642D01*
X69118142Y-131110642D01*
X69175285Y-131082071D01*
X69203857Y-131053500D01*
X69232428Y-130996357D01*
X69232428Y-130882071D01*
X69203857Y-130824928D01*
X69175285Y-130796357D01*
X69118142Y-130767785D01*
X68975285Y-130767785D01*
X68918142Y-130796357D01*
X68889571Y-130824928D01*
X68861000Y-130882071D01*
X68861000Y-130996357D01*
X68889571Y-131053500D01*
X68918142Y-131082071D01*
X68975285Y-131110642D01*
X61441000Y-132796357D02*
X61441000Y-132510642D01*
X61612428Y-132853500D02*
X61012428Y-132653500D01*
X61612428Y-132453500D01*
X61612428Y-132253500D02*
X61012428Y-132253500D01*
X61012428Y-132110642D01*
X61041000Y-132024928D01*
X61098142Y-131967785D01*
X61155285Y-131939214D01*
X61269571Y-131910642D01*
X61355285Y-131910642D01*
X61469571Y-131939214D01*
X61526714Y-131967785D01*
X61583857Y-132024928D01*
X61612428Y-132110642D01*
X61612428Y-132253500D01*
X61612428Y-131339214D02*
X61612428Y-131682071D01*
X61612428Y-131510642D02*
X61012428Y-131510642D01*
X61098142Y-131567785D01*
X61155285Y-131624928D01*
X61183857Y-131682071D01*
X61069571Y-131110642D02*
X61041000Y-131082071D01*
X61012428Y-131024928D01*
X61012428Y-130882071D01*
X61041000Y-130824928D01*
X61069571Y-130796357D01*
X61126714Y-130767785D01*
X61183857Y-130767785D01*
X61269571Y-130796357D01*
X61612428Y-131139214D01*
X61612428Y-130767785D01*
X56361000Y-132196357D02*
X56361000Y-131910642D01*
X56532428Y-132253500D02*
X55932428Y-132053500D01*
X56532428Y-131853500D01*
X56532428Y-131339214D02*
X56532428Y-131682071D01*
X56532428Y-131510642D02*
X55932428Y-131510642D01*
X56018142Y-131567785D01*
X56075285Y-131624928D01*
X56103857Y-131682071D01*
X55932428Y-130824928D02*
X55932428Y-130939214D01*
X55961000Y-130996357D01*
X55989571Y-131024928D01*
X56075285Y-131082071D01*
X56189571Y-131110642D01*
X56418142Y-131110642D01*
X56475285Y-131082071D01*
X56503857Y-131053500D01*
X56532428Y-130996357D01*
X56532428Y-130882071D01*
X56503857Y-130824928D01*
X56475285Y-130796357D01*
X56418142Y-130767785D01*
X56275285Y-130767785D01*
X56218142Y-130796357D01*
X56189571Y-130824928D01*
X56161000Y-130882071D01*
X56161000Y-130996357D01*
X56189571Y-131053500D01*
X56218142Y-131082071D01*
X56275285Y-131110642D01*
X51281000Y-132196357D02*
X51281000Y-131910642D01*
X51452428Y-132253500D02*
X50852428Y-132053500D01*
X51452428Y-131853500D01*
X50909571Y-131682071D02*
X50881000Y-131653500D01*
X50852428Y-131596357D01*
X50852428Y-131453500D01*
X50881000Y-131396357D01*
X50909571Y-131367785D01*
X50966714Y-131339214D01*
X51023857Y-131339214D01*
X51109571Y-131367785D01*
X51452428Y-131710642D01*
X51452428Y-131339214D01*
X50852428Y-130967785D02*
X50852428Y-130910642D01*
X50881000Y-130853500D01*
X50909571Y-130824928D01*
X50966714Y-130796357D01*
X51081000Y-130767785D01*
X51223857Y-130767785D01*
X51338142Y-130796357D01*
X51395285Y-130824928D01*
X51423857Y-130853500D01*
X51452428Y-130910642D01*
X51452428Y-130967785D01*
X51423857Y-131024928D01*
X51395285Y-131053500D01*
X51338142Y-131082071D01*
X51223857Y-131110642D01*
X51081000Y-131110642D01*
X50966714Y-131082071D01*
X50909571Y-131053500D01*
X50881000Y-131024928D01*
X50852428Y-130967785D01*
X66521000Y-132224928D02*
X66521000Y-131939214D01*
X66692428Y-132282071D02*
X66092428Y-132082071D01*
X66692428Y-131882071D01*
X66692428Y-131682071D02*
X66092428Y-131682071D01*
X66092428Y-131539214D01*
X66121000Y-131453500D01*
X66178142Y-131396357D01*
X66235285Y-131367785D01*
X66349571Y-131339214D01*
X66435285Y-131339214D01*
X66549571Y-131367785D01*
X66606714Y-131396357D01*
X66663857Y-131453500D01*
X66692428Y-131539214D01*
X66692428Y-131682071D01*
X66349571Y-130996357D02*
X66321000Y-131053500D01*
X66292428Y-131082071D01*
X66235285Y-131110642D01*
X66206714Y-131110642D01*
X66149571Y-131082071D01*
X66121000Y-131053500D01*
X66092428Y-130996357D01*
X66092428Y-130882071D01*
X66121000Y-130824928D01*
X66149571Y-130796357D01*
X66206714Y-130767785D01*
X66235285Y-130767785D01*
X66292428Y-130796357D01*
X66321000Y-130824928D01*
X66349571Y-130882071D01*
X66349571Y-130996357D01*
X66378142Y-131053500D01*
X66406714Y-131082071D01*
X66463857Y-131110642D01*
X66578142Y-131110642D01*
X66635285Y-131082071D01*
X66663857Y-131053500D01*
X66692428Y-130996357D01*
X66692428Y-130882071D01*
X66663857Y-130824928D01*
X66635285Y-130796357D01*
X66578142Y-130767785D01*
X66463857Y-130767785D01*
X66406714Y-130796357D01*
X66378142Y-130824928D01*
X66349571Y-130882071D01*
X53821000Y-132196357D02*
X53821000Y-131910642D01*
X53992428Y-132253500D02*
X53392428Y-132053500D01*
X53992428Y-131853500D01*
X53992428Y-131339214D02*
X53992428Y-131682071D01*
X53992428Y-131510642D02*
X53392428Y-131510642D01*
X53478142Y-131567785D01*
X53535285Y-131624928D01*
X53563857Y-131682071D01*
X53649571Y-130996357D02*
X53621000Y-131053500D01*
X53592428Y-131082071D01*
X53535285Y-131110642D01*
X53506714Y-131110642D01*
X53449571Y-131082071D01*
X53421000Y-131053500D01*
X53392428Y-130996357D01*
X53392428Y-130882071D01*
X53421000Y-130824928D01*
X53449571Y-130796357D01*
X53506714Y-130767785D01*
X53535285Y-130767785D01*
X53592428Y-130796357D01*
X53621000Y-130824928D01*
X53649571Y-130882071D01*
X53649571Y-130996357D01*
X53678142Y-131053500D01*
X53706714Y-131082071D01*
X53763857Y-131110642D01*
X53878142Y-131110642D01*
X53935285Y-131082071D01*
X53963857Y-131053500D01*
X53992428Y-130996357D01*
X53992428Y-130882071D01*
X53963857Y-130824928D01*
X53935285Y-130796357D01*
X53878142Y-130767785D01*
X53763857Y-130767785D01*
X53706714Y-130796357D01*
X53678142Y-130824928D01*
X53649571Y-130882071D01*
X66521000Y-124248214D02*
X66521000Y-123962500D01*
X66692428Y-124305357D02*
X66092428Y-124105357D01*
X66692428Y-123905357D01*
X66692428Y-123705357D02*
X66092428Y-123705357D01*
X66092428Y-123562500D01*
X66121000Y-123476785D01*
X66178142Y-123419642D01*
X66235285Y-123391071D01*
X66349571Y-123362500D01*
X66435285Y-123362500D01*
X66549571Y-123391071D01*
X66606714Y-123419642D01*
X66663857Y-123476785D01*
X66692428Y-123562500D01*
X66692428Y-123705357D01*
X66092428Y-123162500D02*
X66092428Y-122762500D01*
X66692428Y-123019642D01*
X69061000Y-124248214D02*
X69061000Y-123962500D01*
X69232428Y-124305357D02*
X68632428Y-124105357D01*
X69232428Y-123905357D01*
X69232428Y-123705357D02*
X68632428Y-123705357D01*
X68632428Y-123562500D01*
X68661000Y-123476785D01*
X68718142Y-123419642D01*
X68775285Y-123391071D01*
X68889571Y-123362500D01*
X68975285Y-123362500D01*
X69089571Y-123391071D01*
X69146714Y-123419642D01*
X69203857Y-123476785D01*
X69232428Y-123562500D01*
X69232428Y-123705357D01*
X68632428Y-122819642D02*
X68632428Y-123105357D01*
X68918142Y-123133928D01*
X68889571Y-123105357D01*
X68861000Y-123048214D01*
X68861000Y-122905357D01*
X68889571Y-122848214D01*
X68918142Y-122819642D01*
X68975285Y-122791071D01*
X69118142Y-122791071D01*
X69175285Y-122819642D01*
X69203857Y-122848214D01*
X69232428Y-122905357D01*
X69232428Y-123048214D01*
X69203857Y-123105357D01*
X69175285Y-123133928D01*
X56361000Y-124248214D02*
X56361000Y-123962500D01*
X56532428Y-124305357D02*
X55932428Y-124105357D01*
X56532428Y-123905357D01*
X56532428Y-123705357D02*
X55932428Y-123705357D01*
X55932428Y-123562500D01*
X55961000Y-123476785D01*
X56018142Y-123419642D01*
X56075285Y-123391071D01*
X56189571Y-123362500D01*
X56275285Y-123362500D01*
X56389571Y-123391071D01*
X56446714Y-123419642D01*
X56503857Y-123476785D01*
X56532428Y-123562500D01*
X56532428Y-123705357D01*
X56532428Y-122791071D02*
X56532428Y-123133928D01*
X56532428Y-122962500D02*
X55932428Y-122962500D01*
X56018142Y-123019642D01*
X56075285Y-123076785D01*
X56103857Y-123133928D01*
X55932428Y-122248214D02*
X55932428Y-122533928D01*
X56218142Y-122562500D01*
X56189571Y-122533928D01*
X56161000Y-122476785D01*
X56161000Y-122333928D01*
X56189571Y-122276785D01*
X56218142Y-122248214D01*
X56275285Y-122219642D01*
X56418142Y-122219642D01*
X56475285Y-122248214D01*
X56503857Y-122276785D01*
X56532428Y-122333928D01*
X56532428Y-122476785D01*
X56503857Y-122533928D01*
X56475285Y-122562500D01*
X78494000Y-124362500D02*
X78494000Y-123676785D01*
X78792428Y-124276785D02*
X79392428Y-124133928D01*
X78963857Y-124019642D01*
X79392428Y-123905357D01*
X78792428Y-123762500D01*
X78494000Y-123676785D02*
X78494000Y-123076785D01*
X79392428Y-123191071D02*
X79106714Y-123391071D01*
X79392428Y-123533928D02*
X78792428Y-123533928D01*
X78792428Y-123305357D01*
X78821000Y-123248214D01*
X78849571Y-123219642D01*
X78906714Y-123191071D01*
X78992428Y-123191071D01*
X79049571Y-123219642D01*
X79078142Y-123248214D01*
X79106714Y-123305357D01*
X79106714Y-123533928D01*
X53821000Y-124248214D02*
X53821000Y-123962500D01*
X53992428Y-124305357D02*
X53392428Y-124105357D01*
X53992428Y-123905357D01*
X53992428Y-123391071D02*
X53992428Y-123733928D01*
X53992428Y-123562500D02*
X53392428Y-123562500D01*
X53478142Y-123619642D01*
X53535285Y-123676785D01*
X53563857Y-123733928D01*
X53392428Y-123191071D02*
X53392428Y-122791071D01*
X53992428Y-123048214D01*
X63981000Y-124248214D02*
X63981000Y-123962500D01*
X64152428Y-124305357D02*
X63552428Y-124105357D01*
X64152428Y-123905357D01*
X64152428Y-123705357D02*
X63552428Y-123705357D01*
X63552428Y-123562500D01*
X63581000Y-123476785D01*
X63638142Y-123419642D01*
X63695285Y-123391071D01*
X63809571Y-123362500D01*
X63895285Y-123362500D01*
X64009571Y-123391071D01*
X64066714Y-123419642D01*
X64123857Y-123476785D01*
X64152428Y-123562500D01*
X64152428Y-123705357D01*
X64152428Y-123076785D02*
X64152428Y-122962500D01*
X64123857Y-122905357D01*
X64095285Y-122876785D01*
X64009571Y-122819642D01*
X63895285Y-122791071D01*
X63666714Y-122791071D01*
X63609571Y-122819642D01*
X63581000Y-122848214D01*
X63552428Y-122905357D01*
X63552428Y-123019642D01*
X63581000Y-123076785D01*
X63609571Y-123105357D01*
X63666714Y-123133928D01*
X63809571Y-123133928D01*
X63866714Y-123105357D01*
X63895285Y-123076785D01*
X63923857Y-123019642D01*
X63923857Y-122905357D01*
X63895285Y-122848214D01*
X63866714Y-122819642D01*
X63809571Y-122791071D01*
X51281000Y-124248214D02*
X51281000Y-123962500D01*
X51452428Y-124305357D02*
X50852428Y-124105357D01*
X51452428Y-123905357D01*
X51452428Y-123391071D02*
X51452428Y-123733928D01*
X51452428Y-123562500D02*
X50852428Y-123562500D01*
X50938142Y-123619642D01*
X50995285Y-123676785D01*
X51023857Y-123733928D01*
X51452428Y-123105357D02*
X51452428Y-122991071D01*
X51423857Y-122933928D01*
X51395285Y-122905357D01*
X51309571Y-122848214D01*
X51195285Y-122819642D01*
X50966714Y-122819642D01*
X50909571Y-122848214D01*
X50881000Y-122876785D01*
X50852428Y-122933928D01*
X50852428Y-123048214D01*
X50881000Y-123105357D01*
X50909571Y-123133928D01*
X50966714Y-123162500D01*
X51109571Y-123162500D01*
X51166714Y-123133928D01*
X51195285Y-123105357D01*
X51223857Y-123048214D01*
X51223857Y-122933928D01*
X51195285Y-122876785D01*
X51166714Y-122848214D01*
X51109571Y-122819642D01*
X48741000Y-124248214D02*
X48741000Y-123962500D01*
X48912428Y-124305357D02*
X48312428Y-124105357D01*
X48912428Y-123905357D01*
X48369571Y-123733928D02*
X48341000Y-123705357D01*
X48312428Y-123648214D01*
X48312428Y-123505357D01*
X48341000Y-123448214D01*
X48369571Y-123419642D01*
X48426714Y-123391071D01*
X48483857Y-123391071D01*
X48569571Y-123419642D01*
X48912428Y-123762500D01*
X48912428Y-123391071D01*
X48912428Y-122819642D02*
X48912428Y-123162500D01*
X48912428Y-122991071D02*
X48312428Y-122991071D01*
X48398142Y-123048214D01*
X48455285Y-123105357D01*
X48483857Y-123162500D01*
X74141000Y-124248214D02*
X74141000Y-123962500D01*
X74312428Y-124305357D02*
X73712428Y-124105357D01*
X74312428Y-123905357D01*
X74312428Y-123705357D02*
X73712428Y-123705357D01*
X73712428Y-123562500D01*
X73741000Y-123476785D01*
X73798142Y-123419642D01*
X73855285Y-123391071D01*
X73969571Y-123362500D01*
X74055285Y-123362500D01*
X74169571Y-123391071D01*
X74226714Y-123419642D01*
X74283857Y-123476785D01*
X74312428Y-123562500D01*
X74312428Y-123705357D01*
X74312428Y-122791071D02*
X74312428Y-123133928D01*
X74312428Y-122962500D02*
X73712428Y-122962500D01*
X73798142Y-123019642D01*
X73855285Y-123076785D01*
X73883857Y-123133928D01*
X75954000Y-124362500D02*
X75954000Y-123762500D01*
X76795285Y-123876785D02*
X76823857Y-123905357D01*
X76852428Y-123991071D01*
X76852428Y-124048214D01*
X76823857Y-124133928D01*
X76766714Y-124191071D01*
X76709571Y-124219642D01*
X76595285Y-124248214D01*
X76509571Y-124248214D01*
X76395285Y-124219642D01*
X76338142Y-124191071D01*
X76281000Y-124133928D01*
X76252428Y-124048214D01*
X76252428Y-123991071D01*
X76281000Y-123905357D01*
X76309571Y-123876785D01*
X75954000Y-123762500D02*
X75954000Y-123191071D01*
X76823857Y-123648214D02*
X76852428Y-123562500D01*
X76852428Y-123419642D01*
X76823857Y-123362500D01*
X76795285Y-123333928D01*
X76738142Y-123305357D01*
X76681000Y-123305357D01*
X76623857Y-123333928D01*
X76595285Y-123362500D01*
X76566714Y-123419642D01*
X76538142Y-123533928D01*
X76509571Y-123591071D01*
X76481000Y-123619642D01*
X76423857Y-123648214D01*
X76366714Y-123648214D01*
X76309571Y-123619642D01*
X76281000Y-123591071D01*
X76252428Y-123533928D01*
X76252428Y-123391071D01*
X76281000Y-123305357D01*
X61441000Y-124248214D02*
X61441000Y-123962500D01*
X61612428Y-124305357D02*
X61012428Y-124105357D01*
X61612428Y-123905357D01*
X61612428Y-123705357D02*
X61012428Y-123705357D01*
X61012428Y-123562500D01*
X61041000Y-123476785D01*
X61098142Y-123419642D01*
X61155285Y-123391071D01*
X61269571Y-123362500D01*
X61355285Y-123362500D01*
X61469571Y-123391071D01*
X61526714Y-123419642D01*
X61583857Y-123476785D01*
X61612428Y-123562500D01*
X61612428Y-123705357D01*
X61612428Y-122791071D02*
X61612428Y-123133928D01*
X61612428Y-122962500D02*
X61012428Y-122962500D01*
X61098142Y-123019642D01*
X61155285Y-123076785D01*
X61183857Y-123133928D01*
X61612428Y-122219642D02*
X61612428Y-122562500D01*
X61612428Y-122391071D02*
X61012428Y-122391071D01*
X61098142Y-122448214D01*
X61155285Y-122505357D01*
X61183857Y-122562500D01*
X46201000Y-124248214D02*
X46201000Y-123962500D01*
X46372428Y-124305357D02*
X45772428Y-124105357D01*
X46372428Y-123905357D01*
X45829571Y-123733928D02*
X45801000Y-123705357D01*
X45772428Y-123648214D01*
X45772428Y-123505357D01*
X45801000Y-123448214D01*
X45829571Y-123419642D01*
X45886714Y-123391071D01*
X45943857Y-123391071D01*
X46029571Y-123419642D01*
X46372428Y-123762500D01*
X46372428Y-123391071D01*
X45772428Y-123191071D02*
X45772428Y-122819642D01*
X46001000Y-123019642D01*
X46001000Y-122933928D01*
X46029571Y-122876785D01*
X46058142Y-122848214D01*
X46115285Y-122819642D01*
X46258142Y-122819642D01*
X46315285Y-122848214D01*
X46343857Y-122876785D01*
X46372428Y-122933928D01*
X46372428Y-123105357D01*
X46343857Y-123162500D01*
X46315285Y-123191071D01*
X58901000Y-124248214D02*
X58901000Y-123962500D01*
X59072428Y-124305357D02*
X58472428Y-124105357D01*
X59072428Y-123905357D01*
X59072428Y-123705357D02*
X58472428Y-123705357D01*
X58472428Y-123562500D01*
X58501000Y-123476785D01*
X58558142Y-123419642D01*
X58615285Y-123391071D01*
X58729571Y-123362500D01*
X58815285Y-123362500D01*
X58929571Y-123391071D01*
X58986714Y-123419642D01*
X59043857Y-123476785D01*
X59072428Y-123562500D01*
X59072428Y-123705357D01*
X59072428Y-122791071D02*
X59072428Y-123133928D01*
X59072428Y-122962500D02*
X58472428Y-122962500D01*
X58558142Y-123019642D01*
X58615285Y-123076785D01*
X58643857Y-123133928D01*
X58472428Y-122591071D02*
X58472428Y-122219642D01*
X58701000Y-122419642D01*
X58701000Y-122333928D01*
X58729571Y-122276785D01*
X58758142Y-122248214D01*
X58815285Y-122219642D01*
X58958142Y-122219642D01*
X59015285Y-122248214D01*
X59043857Y-122276785D01*
X59072428Y-122333928D01*
X59072428Y-122505357D01*
X59043857Y-122562500D01*
X59015285Y-122591071D01*
X81332428Y-124305357D02*
X81932428Y-124105357D01*
X81332428Y-123905357D01*
X81875285Y-123362500D02*
X81903857Y-123391071D01*
X81932428Y-123476785D01*
X81932428Y-123533928D01*
X81903857Y-123619642D01*
X81846714Y-123676785D01*
X81789571Y-123705357D01*
X81675285Y-123733928D01*
X81589571Y-123733928D01*
X81475285Y-123705357D01*
X81418142Y-123676785D01*
X81361000Y-123619642D01*
X81332428Y-123533928D01*
X81332428Y-123476785D01*
X81361000Y-123391071D01*
X81389571Y-123362500D01*
X81875285Y-122762500D02*
X81903857Y-122791071D01*
X81932428Y-122876785D01*
X81932428Y-122933928D01*
X81903857Y-123019642D01*
X81846714Y-123076785D01*
X81789571Y-123105357D01*
X81675285Y-123133928D01*
X81589571Y-123133928D01*
X81475285Y-123105357D01*
X81418142Y-123076785D01*
X81361000Y-123019642D01*
X81332428Y-122933928D01*
X81332428Y-122876785D01*
X81361000Y-122791071D01*
X81389571Y-122762500D01*
X81989571Y-122648214D02*
X81989571Y-122191071D01*
X81361000Y-121733928D02*
X81332428Y-121791071D01*
X81332428Y-121876785D01*
X81361000Y-121962500D01*
X81418142Y-122019642D01*
X81475285Y-122048214D01*
X81589571Y-122076785D01*
X81675285Y-122076785D01*
X81789571Y-122048214D01*
X81846714Y-122019642D01*
X81903857Y-121962500D01*
X81932428Y-121876785D01*
X81932428Y-121819642D01*
X81903857Y-121733928D01*
X81875285Y-121705357D01*
X81675285Y-121705357D01*
X81675285Y-121819642D01*
X81618142Y-121248214D02*
X81646714Y-121162500D01*
X81675285Y-121133928D01*
X81732428Y-121105357D01*
X81818142Y-121105357D01*
X81875285Y-121133928D01*
X81903857Y-121162500D01*
X81932428Y-121219642D01*
X81932428Y-121448214D01*
X81332428Y-121448214D01*
X81332428Y-121248214D01*
X81361000Y-121191071D01*
X81389571Y-121162500D01*
X81446714Y-121133928D01*
X81503857Y-121133928D01*
X81561000Y-121162500D01*
X81589571Y-121191071D01*
X81618142Y-121248214D01*
X81618142Y-121448214D01*
X81761000Y-120876785D02*
X81761000Y-120591071D01*
X81932428Y-120933928D02*
X81332428Y-120733928D01*
X81932428Y-120533928D01*
X71601000Y-124248214D02*
X71601000Y-123962500D01*
X71772428Y-124305357D02*
X71172428Y-124105357D01*
X71772428Y-123905357D01*
X71772428Y-123705357D02*
X71172428Y-123705357D01*
X71172428Y-123562500D01*
X71201000Y-123476785D01*
X71258142Y-123419642D01*
X71315285Y-123391071D01*
X71429571Y-123362500D01*
X71515285Y-123362500D01*
X71629571Y-123391071D01*
X71686714Y-123419642D01*
X71743857Y-123476785D01*
X71772428Y-123562500D01*
X71772428Y-123705357D01*
X71172428Y-123162500D02*
X71172428Y-122791071D01*
X71401000Y-122991071D01*
X71401000Y-122905357D01*
X71429571Y-122848214D01*
X71458142Y-122819642D01*
X71515285Y-122791071D01*
X71658142Y-122791071D01*
X71715285Y-122819642D01*
X71743857Y-122848214D01*
X71772428Y-122905357D01*
X71772428Y-123076785D01*
X71743857Y-123133928D01*
X71715285Y-123162500D01*
X42934000Y-124362500D02*
X42934000Y-123762500D01*
X43832428Y-123876785D02*
X43546714Y-124076785D01*
X43832428Y-124219642D02*
X43232428Y-124219642D01*
X43232428Y-123991071D01*
X43261000Y-123933928D01*
X43289571Y-123905357D01*
X43346714Y-123876785D01*
X43432428Y-123876785D01*
X43489571Y-123905357D01*
X43518142Y-123933928D01*
X43546714Y-123991071D01*
X43546714Y-124219642D01*
X42934000Y-123762500D02*
X42934000Y-123219642D01*
X43518142Y-123619642D02*
X43518142Y-123419642D01*
X43832428Y-123333928D02*
X43832428Y-123619642D01*
X43232428Y-123619642D01*
X43232428Y-123333928D01*
X42934000Y-123219642D02*
X42934000Y-122591071D01*
X43889571Y-122676785D02*
X43861000Y-122733928D01*
X43803857Y-122791071D01*
X43718142Y-122876785D01*
X43689571Y-122933928D01*
X43689571Y-122991071D01*
X43832428Y-122962500D02*
X43803857Y-123019642D01*
X43746714Y-123076785D01*
X43632428Y-123105357D01*
X43432428Y-123105357D01*
X43318142Y-123076785D01*
X43261000Y-123019642D01*
X43232428Y-122962500D01*
X43232428Y-122848214D01*
X43261000Y-122791071D01*
X43318142Y-122733928D01*
X43432428Y-122705357D01*
X43632428Y-122705357D01*
X43746714Y-122733928D01*
X43803857Y-122791071D01*
X43832428Y-122848214D01*
X43832428Y-122962500D01*
X40372357Y-92032142D02*
X40572357Y-92032142D01*
X40658071Y-92346428D02*
X40372357Y-92346428D01*
X40372357Y-91746428D01*
X40658071Y-91746428D01*
X40858071Y-91746428D02*
X41258071Y-92346428D01*
X41258071Y-91746428D02*
X40858071Y-92346428D01*
X41400928Y-91746428D02*
X41743785Y-91746428D01*
X41572357Y-92346428D02*
X41572357Y-91746428D01*
X42058071Y-91746428D02*
X42115214Y-91746428D01*
X42172357Y-91775000D01*
X42200928Y-91803571D01*
X42229500Y-91860714D01*
X42258071Y-91975000D01*
X42258071Y-92117857D01*
X42229500Y-92232142D01*
X42200928Y-92289285D01*
X42172357Y-92317857D01*
X42115214Y-92346428D01*
X42058071Y-92346428D01*
X42000928Y-92317857D01*
X41972357Y-92289285D01*
X41943785Y-92232142D01*
X41915214Y-92117857D01*
X41915214Y-91975000D01*
X41943785Y-91860714D01*
X41972357Y-91803571D01*
X42000928Y-91775000D01*
X42058071Y-91746428D01*
X40372357Y-102192142D02*
X40572357Y-102192142D01*
X40658071Y-102506428D02*
X40372357Y-102506428D01*
X40372357Y-101906428D01*
X40658071Y-101906428D01*
X40858071Y-101906428D02*
X41258071Y-102506428D01*
X41258071Y-101906428D02*
X40858071Y-102506428D01*
X41400928Y-101906428D02*
X41743785Y-101906428D01*
X41572357Y-102506428D02*
X41572357Y-101906428D01*
X42200928Y-102106428D02*
X42200928Y-102506428D01*
X42058071Y-101877857D02*
X41915214Y-102306428D01*
X42286642Y-102306428D01*
X40372357Y-94572142D02*
X40572357Y-94572142D01*
X40658071Y-94886428D02*
X40372357Y-94886428D01*
X40372357Y-94286428D01*
X40658071Y-94286428D01*
X40858071Y-94286428D02*
X41258071Y-94886428D01*
X41258071Y-94286428D02*
X40858071Y-94886428D01*
X41400928Y-94286428D02*
X41743785Y-94286428D01*
X41572357Y-94886428D02*
X41572357Y-94286428D01*
X42258071Y-94886428D02*
X41915214Y-94886428D01*
X42086642Y-94886428D02*
X42086642Y-94286428D01*
X42029500Y-94372142D01*
X41972357Y-94429285D01*
X41915214Y-94457857D01*
X40372357Y-99652142D02*
X40572357Y-99652142D01*
X40658071Y-99966428D02*
X40372357Y-99966428D01*
X40372357Y-99366428D01*
X40658071Y-99366428D01*
X40858071Y-99366428D02*
X41258071Y-99966428D01*
X41258071Y-99366428D02*
X40858071Y-99966428D01*
X41400928Y-99366428D02*
X41743785Y-99366428D01*
X41572357Y-99966428D02*
X41572357Y-99366428D01*
X41886642Y-99366428D02*
X42258071Y-99366428D01*
X42058071Y-99595000D01*
X42143785Y-99595000D01*
X42200928Y-99623571D01*
X42229500Y-99652142D01*
X42258071Y-99709285D01*
X42258071Y-99852142D01*
X42229500Y-99909285D01*
X42200928Y-99937857D01*
X42143785Y-99966428D01*
X41972357Y-99966428D01*
X41915214Y-99937857D01*
X41886642Y-99909285D01*
X40372357Y-97112142D02*
X40572357Y-97112142D01*
X40658071Y-97426428D02*
X40372357Y-97426428D01*
X40372357Y-96826428D01*
X40658071Y-96826428D01*
X40858071Y-96826428D02*
X41258071Y-97426428D01*
X41258071Y-96826428D02*
X40858071Y-97426428D01*
X41400928Y-96826428D02*
X41743785Y-96826428D01*
X41572357Y-97426428D02*
X41572357Y-96826428D01*
X41915214Y-96883571D02*
X41943785Y-96855000D01*
X42000928Y-96826428D01*
X42143785Y-96826428D01*
X42200928Y-96855000D01*
X42229500Y-96883571D01*
X42258071Y-96940714D01*
X42258071Y-96997857D01*
X42229500Y-97083571D01*
X41886642Y-97426428D01*
X42258071Y-97426428D01*
X42271428Y-127600000D02*
X41985714Y-127800000D01*
X42271428Y-127942857D02*
X41671428Y-127942857D01*
X41671428Y-127714285D01*
X41700000Y-127657142D01*
X41728571Y-127628571D01*
X41785714Y-127600000D01*
X41871428Y-127600000D01*
X41928571Y-127628571D01*
X41957142Y-127657142D01*
X41985714Y-127714285D01*
X41985714Y-127942857D01*
X42271428Y-127028571D02*
X42271428Y-127371428D01*
X42271428Y-127200000D02*
X41671428Y-127200000D01*
X41757142Y-127257142D01*
X41814285Y-127314285D01*
X41842857Y-127371428D01*
X86768642Y-101906428D02*
X86968642Y-102506428D01*
X87168642Y-101906428D01*
X87711500Y-102449285D02*
X87682928Y-102477857D01*
X87597214Y-102506428D01*
X87540071Y-102506428D01*
X87454357Y-102477857D01*
X87397214Y-102420714D01*
X87368642Y-102363571D01*
X87340071Y-102249285D01*
X87340071Y-102163571D01*
X87368642Y-102049285D01*
X87397214Y-101992142D01*
X87454357Y-101935000D01*
X87540071Y-101906428D01*
X87597214Y-101906428D01*
X87682928Y-101935000D01*
X87711500Y-101963571D01*
X88311500Y-102449285D02*
X88282928Y-102477857D01*
X88197214Y-102506428D01*
X88140071Y-102506428D01*
X88054357Y-102477857D01*
X87997214Y-102420714D01*
X87968642Y-102363571D01*
X87940071Y-102249285D01*
X87940071Y-102163571D01*
X87968642Y-102049285D01*
X87997214Y-101992142D01*
X88054357Y-101935000D01*
X88140071Y-101906428D01*
X88197214Y-101906428D01*
X88282928Y-101935000D01*
X88311500Y-101963571D01*
X88425785Y-102563571D02*
X88882928Y-102563571D01*
X89340071Y-101935000D02*
X89282928Y-101906428D01*
X89197214Y-101906428D01*
X89111500Y-101935000D01*
X89054357Y-101992142D01*
X89025785Y-102049285D01*
X88997214Y-102163571D01*
X88997214Y-102249285D01*
X89025785Y-102363571D01*
X89054357Y-102420714D01*
X89111500Y-102477857D01*
X89197214Y-102506428D01*
X89254357Y-102506428D01*
X89340071Y-102477857D01*
X89368642Y-102449285D01*
X89368642Y-102249285D01*
X89254357Y-102249285D01*
X89825785Y-102192142D02*
X89911500Y-102220714D01*
X89940071Y-102249285D01*
X89968642Y-102306428D01*
X89968642Y-102392142D01*
X89940071Y-102449285D01*
X89911500Y-102477857D01*
X89854357Y-102506428D01*
X89625785Y-102506428D01*
X89625785Y-101906428D01*
X89825785Y-101906428D01*
X89882928Y-101935000D01*
X89911500Y-101963571D01*
X89940071Y-102020714D01*
X89940071Y-102077857D01*
X89911500Y-102135000D01*
X89882928Y-102163571D01*
X89825785Y-102192142D01*
X89625785Y-102192142D01*
X90197214Y-102335000D02*
X90482928Y-102335000D01*
X90140071Y-102506428D02*
X90340071Y-101906428D01*
X90540071Y-102506428D01*
X86768642Y-99366428D02*
X86968642Y-99966428D01*
X87168642Y-99366428D01*
X87711500Y-99909285D02*
X87682928Y-99937857D01*
X87597214Y-99966428D01*
X87540071Y-99966428D01*
X87454357Y-99937857D01*
X87397214Y-99880714D01*
X87368642Y-99823571D01*
X87340071Y-99709285D01*
X87340071Y-99623571D01*
X87368642Y-99509285D01*
X87397214Y-99452142D01*
X87454357Y-99395000D01*
X87540071Y-99366428D01*
X87597214Y-99366428D01*
X87682928Y-99395000D01*
X87711500Y-99423571D01*
X88311500Y-99909285D02*
X88282928Y-99937857D01*
X88197214Y-99966428D01*
X88140071Y-99966428D01*
X88054357Y-99937857D01*
X87997214Y-99880714D01*
X87968642Y-99823571D01*
X87940071Y-99709285D01*
X87940071Y-99623571D01*
X87968642Y-99509285D01*
X87997214Y-99452142D01*
X88054357Y-99395000D01*
X88140071Y-99366428D01*
X88197214Y-99366428D01*
X88282928Y-99395000D01*
X88311500Y-99423571D01*
X88425785Y-100023571D02*
X88882928Y-100023571D01*
X89340071Y-99395000D02*
X89282928Y-99366428D01*
X89197214Y-99366428D01*
X89111500Y-99395000D01*
X89054357Y-99452142D01*
X89025785Y-99509285D01*
X88997214Y-99623571D01*
X88997214Y-99709285D01*
X89025785Y-99823571D01*
X89054357Y-99880714D01*
X89111500Y-99937857D01*
X89197214Y-99966428D01*
X89254357Y-99966428D01*
X89340071Y-99937857D01*
X89368642Y-99909285D01*
X89368642Y-99709285D01*
X89254357Y-99709285D01*
X89825785Y-99652142D02*
X89911500Y-99680714D01*
X89940071Y-99709285D01*
X89968642Y-99766428D01*
X89968642Y-99852142D01*
X89940071Y-99909285D01*
X89911500Y-99937857D01*
X89854357Y-99966428D01*
X89625785Y-99966428D01*
X89625785Y-99366428D01*
X89825785Y-99366428D01*
X89882928Y-99395000D01*
X89911500Y-99423571D01*
X89940071Y-99480714D01*
X89940071Y-99537857D01*
X89911500Y-99595000D01*
X89882928Y-99623571D01*
X89825785Y-99652142D01*
X89625785Y-99652142D01*
X90197214Y-99795000D02*
X90482928Y-99795000D01*
X90140071Y-99966428D02*
X90340071Y-99366428D01*
X90540071Y-99966428D01*
X86768642Y-96826428D02*
X86968642Y-97426428D01*
X87168642Y-96826428D01*
X87711500Y-97369285D02*
X87682928Y-97397857D01*
X87597214Y-97426428D01*
X87540071Y-97426428D01*
X87454357Y-97397857D01*
X87397214Y-97340714D01*
X87368642Y-97283571D01*
X87340071Y-97169285D01*
X87340071Y-97083571D01*
X87368642Y-96969285D01*
X87397214Y-96912142D01*
X87454357Y-96855000D01*
X87540071Y-96826428D01*
X87597214Y-96826428D01*
X87682928Y-96855000D01*
X87711500Y-96883571D01*
X88311500Y-97369285D02*
X88282928Y-97397857D01*
X88197214Y-97426428D01*
X88140071Y-97426428D01*
X88054357Y-97397857D01*
X87997214Y-97340714D01*
X87968642Y-97283571D01*
X87940071Y-97169285D01*
X87940071Y-97083571D01*
X87968642Y-96969285D01*
X87997214Y-96912142D01*
X88054357Y-96855000D01*
X88140071Y-96826428D01*
X88197214Y-96826428D01*
X88282928Y-96855000D01*
X88311500Y-96883571D01*
X88425785Y-97483571D02*
X88882928Y-97483571D01*
X89368642Y-97369285D02*
X89340071Y-97397857D01*
X89254357Y-97426428D01*
X89197214Y-97426428D01*
X89111500Y-97397857D01*
X89054357Y-97340714D01*
X89025785Y-97283571D01*
X88997214Y-97169285D01*
X88997214Y-97083571D01*
X89025785Y-96969285D01*
X89054357Y-96912142D01*
X89111500Y-96855000D01*
X89197214Y-96826428D01*
X89254357Y-96826428D01*
X89340071Y-96855000D01*
X89368642Y-96883571D01*
X89597214Y-97255000D02*
X89882928Y-97255000D01*
X89540071Y-97426428D02*
X89740071Y-96826428D01*
X89940071Y-97426428D01*
X90482928Y-97426428D02*
X90282928Y-97140714D01*
X90140071Y-97426428D02*
X90140071Y-96826428D01*
X90368642Y-96826428D01*
X90425785Y-96855000D01*
X90454357Y-96883571D01*
X90482928Y-96940714D01*
X90482928Y-97026428D01*
X90454357Y-97083571D01*
X90425785Y-97112142D01*
X90368642Y-97140714D01*
X90140071Y-97140714D01*
X90654357Y-96826428D02*
X90997214Y-96826428D01*
X90825785Y-97426428D02*
X90825785Y-96826428D01*
X86768642Y-94286428D02*
X86968642Y-94886428D01*
X87168642Y-94286428D01*
X87368642Y-94886428D02*
X87368642Y-94286428D01*
X87654357Y-94886428D02*
X87654357Y-94286428D01*
X87997214Y-94886428D01*
X87997214Y-94286428D01*
X86768642Y-91746428D02*
X86968642Y-92346428D01*
X87168642Y-91746428D01*
X87482928Y-91746428D02*
X87597214Y-91746428D01*
X87654357Y-91775000D01*
X87711500Y-91832142D01*
X87740071Y-91946428D01*
X87740071Y-92146428D01*
X87711500Y-92260714D01*
X87654357Y-92317857D01*
X87597214Y-92346428D01*
X87482928Y-92346428D01*
X87425785Y-92317857D01*
X87368642Y-92260714D01*
X87340071Y-92146428D01*
X87340071Y-91946428D01*
X87368642Y-91832142D01*
X87425785Y-91775000D01*
X87482928Y-91746428D01*
X87997214Y-91746428D02*
X87997214Y-92232142D01*
X88025785Y-92289285D01*
X88054357Y-92317857D01*
X88111500Y-92346428D01*
X88225785Y-92346428D01*
X88282928Y-92317857D01*
X88311500Y-92289285D01*
X88340071Y-92232142D01*
X88340071Y-91746428D01*
X88540071Y-91746428D02*
X88882928Y-91746428D01*
X88711500Y-92346428D02*
X88711500Y-91746428D01*
X87168642Y-89235000D02*
X87111500Y-89206428D01*
X87025785Y-89206428D01*
X86940071Y-89235000D01*
X86882928Y-89292142D01*
X86854357Y-89349285D01*
X86825785Y-89463571D01*
X86825785Y-89549285D01*
X86854357Y-89663571D01*
X86882928Y-89720714D01*
X86940071Y-89777857D01*
X87025785Y-89806428D01*
X87082928Y-89806428D01*
X87168642Y-89777857D01*
X87197214Y-89749285D01*
X87197214Y-89549285D01*
X87082928Y-89549285D01*
X87454357Y-89806428D02*
X87454357Y-89206428D01*
X87797214Y-89806428D01*
X87797214Y-89206428D01*
X88082928Y-89806428D02*
X88082928Y-89206428D01*
X88225785Y-89206428D01*
X88311500Y-89235000D01*
X88368642Y-89292142D01*
X88397214Y-89349285D01*
X88425785Y-89463571D01*
X88425785Y-89549285D01*
X88397214Y-89663571D01*
X88368642Y-89720714D01*
X88311500Y-89777857D01*
X88225785Y-89806428D01*
X88082928Y-89806428D01*
X83714285Y-127625000D02*
X83742857Y-127653571D01*
X83771428Y-127739285D01*
X83771428Y-127796428D01*
X83742857Y-127882142D01*
X83685714Y-127939285D01*
X83628571Y-127967857D01*
X83514285Y-127996428D01*
X83428571Y-127996428D01*
X83314285Y-127967857D01*
X83257142Y-127939285D01*
X83200000Y-127882142D01*
X83171428Y-127796428D01*
X83171428Y-127739285D01*
X83200000Y-127653571D01*
X83228571Y-127625000D01*
X83771428Y-127053571D02*
X83771428Y-127396428D01*
X83771428Y-127225000D02*
X83171428Y-127225000D01*
X83257142Y-127282142D01*
X83314285Y-127339285D01*
X83342857Y-127396428D01*
M02*
