G04 #@! TF.GenerationSoftware,KiCad,Pcbnew,(5.1.5)-3*
G04 #@! TF.CreationDate,2022-01-30T10:55:24+01:00*
G04 #@! TF.ProjectId,pcb,7063622e-6b69-4636-9164-5f7063625858,rev?*
G04 #@! TF.SameCoordinates,Original*
G04 #@! TF.FileFunction,Copper,L1,Top*
G04 #@! TF.FilePolarity,Positive*
%FSLAX46Y46*%
G04 Gerber Fmt 4.6, Leading zero omitted, Abs format (unit mm)*
G04 Created by KiCad (PCBNEW (5.1.5)-3) date 2022-01-30 10:55:24*
%MOMM*%
%LPD*%
G04 APERTURE LIST*
%ADD10C,1.700000*%
%ADD11O,1.700000X1.700000*%
%ADD12R,1.700000X1.700000*%
%ADD13C,6.400000*%
%ADD14C,0.100000*%
%ADD15C,4.500000*%
%ADD16C,0.800000*%
%ADD17C,0.750000*%
%ADD18C,0.250000*%
%ADD19C,0.254000*%
G04 APERTURE END LIST*
D10*
X46101000Y-117475000D03*
D11*
X68961000Y-117475000D03*
X53721000Y-117475000D03*
X63881000Y-117475000D03*
X51181000Y-117475000D03*
D12*
X76581000Y-117475000D03*
D11*
X74041000Y-117475000D03*
X48641000Y-117475000D03*
D10*
X66421000Y-117475000D03*
X56261000Y-117475000D03*
D11*
X58801000Y-117475000D03*
D10*
X79121000Y-117475000D03*
D11*
X61341000Y-117475000D03*
X71501000Y-117475000D03*
D12*
X79121000Y-102235000D03*
D11*
X76581000Y-102235000D03*
X68961000Y-102235000D03*
D10*
X66421000Y-102235000D03*
D11*
X74041000Y-102235000D03*
X71501000Y-102235000D03*
X58801000Y-102235000D03*
X56261000Y-102235000D03*
D10*
X51181000Y-102235000D03*
X48641000Y-102235000D03*
D11*
X61341000Y-102235000D03*
X53721000Y-102235000D03*
X46101000Y-102235000D03*
D10*
X63881000Y-102235000D03*
D13*
X73000000Y-136500000D03*
X52000000Y-136500000D03*
D11*
X46101000Y-128778000D03*
X76581000Y-128778000D03*
X56261000Y-128778000D03*
X71501000Y-128778000D03*
D10*
X58801000Y-128778000D03*
D11*
X53721000Y-128778000D03*
X51181000Y-128778000D03*
D10*
X48641000Y-128778000D03*
D11*
X66421000Y-128778000D03*
X74041000Y-128778000D03*
D10*
X81661000Y-128778000D03*
D11*
X63881000Y-128778000D03*
D12*
X43561000Y-128778000D03*
D10*
X68961000Y-128778000D03*
D11*
X61341000Y-128778000D03*
D10*
X79121000Y-128778000D03*
D11*
X71501000Y-126238000D03*
D10*
X66421000Y-126238000D03*
D11*
X79121000Y-126238000D03*
X61341000Y-126238000D03*
X58801000Y-126238000D03*
X63881000Y-126238000D03*
X46101000Y-126238000D03*
X56261000Y-126238000D03*
X48641000Y-126238000D03*
X76581000Y-126238000D03*
D10*
X68961000Y-126238000D03*
D11*
X43561000Y-126238000D03*
D10*
X53721000Y-126238000D03*
X81661000Y-126238000D03*
X51181000Y-126238000D03*
D11*
X74041000Y-126238000D03*
X38354000Y-102235000D03*
D10*
X38354000Y-92075000D03*
D11*
X38354000Y-94615000D03*
X38354000Y-97155000D03*
X38354000Y-99695000D03*
G04 #@! TA.AperFunction,SMDPad,CuDef*
D14*
G36*
X40974505Y-125926204D02*
G01*
X40998773Y-125929804D01*
X41022572Y-125935765D01*
X41045671Y-125944030D01*
X41067850Y-125954520D01*
X41088893Y-125967132D01*
X41108599Y-125981747D01*
X41126777Y-125998223D01*
X41143253Y-126016401D01*
X41157868Y-126036107D01*
X41170480Y-126057150D01*
X41180970Y-126079329D01*
X41189235Y-126102428D01*
X41195196Y-126126227D01*
X41198796Y-126150495D01*
X41200000Y-126174999D01*
X41200000Y-126825001D01*
X41198796Y-126849505D01*
X41195196Y-126873773D01*
X41189235Y-126897572D01*
X41180970Y-126920671D01*
X41170480Y-126942850D01*
X41157868Y-126963893D01*
X41143253Y-126983599D01*
X41126777Y-127001777D01*
X41108599Y-127018253D01*
X41088893Y-127032868D01*
X41067850Y-127045480D01*
X41045671Y-127055970D01*
X41022572Y-127064235D01*
X40998773Y-127070196D01*
X40974505Y-127073796D01*
X40950001Y-127075000D01*
X40049999Y-127075000D01*
X40025495Y-127073796D01*
X40001227Y-127070196D01*
X39977428Y-127064235D01*
X39954329Y-127055970D01*
X39932150Y-127045480D01*
X39911107Y-127032868D01*
X39891401Y-127018253D01*
X39873223Y-127001777D01*
X39856747Y-126983599D01*
X39842132Y-126963893D01*
X39829520Y-126942850D01*
X39819030Y-126920671D01*
X39810765Y-126897572D01*
X39804804Y-126873773D01*
X39801204Y-126849505D01*
X39800000Y-126825001D01*
X39800000Y-126174999D01*
X39801204Y-126150495D01*
X39804804Y-126126227D01*
X39810765Y-126102428D01*
X39819030Y-126079329D01*
X39829520Y-126057150D01*
X39842132Y-126036107D01*
X39856747Y-126016401D01*
X39873223Y-125998223D01*
X39891401Y-125981747D01*
X39911107Y-125967132D01*
X39932150Y-125954520D01*
X39954329Y-125944030D01*
X39977428Y-125935765D01*
X40001227Y-125929804D01*
X40025495Y-125926204D01*
X40049999Y-125925000D01*
X40950001Y-125925000D01*
X40974505Y-125926204D01*
G37*
G04 #@! TD.AperFunction*
G04 #@! TA.AperFunction,SMDPad,CuDef*
G36*
X40974505Y-127976204D02*
G01*
X40998773Y-127979804D01*
X41022572Y-127985765D01*
X41045671Y-127994030D01*
X41067850Y-128004520D01*
X41088893Y-128017132D01*
X41108599Y-128031747D01*
X41126777Y-128048223D01*
X41143253Y-128066401D01*
X41157868Y-128086107D01*
X41170480Y-128107150D01*
X41180970Y-128129329D01*
X41189235Y-128152428D01*
X41195196Y-128176227D01*
X41198796Y-128200495D01*
X41200000Y-128224999D01*
X41200000Y-128875001D01*
X41198796Y-128899505D01*
X41195196Y-128923773D01*
X41189235Y-128947572D01*
X41180970Y-128970671D01*
X41170480Y-128992850D01*
X41157868Y-129013893D01*
X41143253Y-129033599D01*
X41126777Y-129051777D01*
X41108599Y-129068253D01*
X41088893Y-129082868D01*
X41067850Y-129095480D01*
X41045671Y-129105970D01*
X41022572Y-129114235D01*
X40998773Y-129120196D01*
X40974505Y-129123796D01*
X40950001Y-129125000D01*
X40049999Y-129125000D01*
X40025495Y-129123796D01*
X40001227Y-129120196D01*
X39977428Y-129114235D01*
X39954329Y-129105970D01*
X39932150Y-129095480D01*
X39911107Y-129082868D01*
X39891401Y-129068253D01*
X39873223Y-129051777D01*
X39856747Y-129033599D01*
X39842132Y-129013893D01*
X39829520Y-128992850D01*
X39819030Y-128970671D01*
X39810765Y-128947572D01*
X39804804Y-128923773D01*
X39801204Y-128899505D01*
X39800000Y-128875001D01*
X39800000Y-128224999D01*
X39801204Y-128200495D01*
X39804804Y-128176227D01*
X39810765Y-128152428D01*
X39819030Y-128129329D01*
X39829520Y-128107150D01*
X39842132Y-128086107D01*
X39856747Y-128066401D01*
X39873223Y-128048223D01*
X39891401Y-128031747D01*
X39911107Y-128017132D01*
X39932150Y-128004520D01*
X39954329Y-127994030D01*
X39977428Y-127985765D01*
X40001227Y-127979804D01*
X40025495Y-127976204D01*
X40049999Y-127975000D01*
X40950001Y-127975000D01*
X40974505Y-127976204D01*
G37*
G04 #@! TD.AperFunction*
D11*
X84963000Y-92075000D03*
D10*
X84963000Y-102235000D03*
D12*
X84963000Y-89535000D03*
D11*
X84963000Y-94615000D03*
X84963000Y-97155000D03*
X84963000Y-99695000D03*
D15*
X49500000Y-74975000D03*
X75500000Y-74975000D03*
G04 #@! TA.AperFunction,SMDPad,CuDef*
D14*
G36*
X85474505Y-125926204D02*
G01*
X85498773Y-125929804D01*
X85522572Y-125935765D01*
X85545671Y-125944030D01*
X85567850Y-125954520D01*
X85588893Y-125967132D01*
X85608599Y-125981747D01*
X85626777Y-125998223D01*
X85643253Y-126016401D01*
X85657868Y-126036107D01*
X85670480Y-126057150D01*
X85680970Y-126079329D01*
X85689235Y-126102428D01*
X85695196Y-126126227D01*
X85698796Y-126150495D01*
X85700000Y-126174999D01*
X85700000Y-126825001D01*
X85698796Y-126849505D01*
X85695196Y-126873773D01*
X85689235Y-126897572D01*
X85680970Y-126920671D01*
X85670480Y-126942850D01*
X85657868Y-126963893D01*
X85643253Y-126983599D01*
X85626777Y-127001777D01*
X85608599Y-127018253D01*
X85588893Y-127032868D01*
X85567850Y-127045480D01*
X85545671Y-127055970D01*
X85522572Y-127064235D01*
X85498773Y-127070196D01*
X85474505Y-127073796D01*
X85450001Y-127075000D01*
X84549999Y-127075000D01*
X84525495Y-127073796D01*
X84501227Y-127070196D01*
X84477428Y-127064235D01*
X84454329Y-127055970D01*
X84432150Y-127045480D01*
X84411107Y-127032868D01*
X84391401Y-127018253D01*
X84373223Y-127001777D01*
X84356747Y-126983599D01*
X84342132Y-126963893D01*
X84329520Y-126942850D01*
X84319030Y-126920671D01*
X84310765Y-126897572D01*
X84304804Y-126873773D01*
X84301204Y-126849505D01*
X84300000Y-126825001D01*
X84300000Y-126174999D01*
X84301204Y-126150495D01*
X84304804Y-126126227D01*
X84310765Y-126102428D01*
X84319030Y-126079329D01*
X84329520Y-126057150D01*
X84342132Y-126036107D01*
X84356747Y-126016401D01*
X84373223Y-125998223D01*
X84391401Y-125981747D01*
X84411107Y-125967132D01*
X84432150Y-125954520D01*
X84454329Y-125944030D01*
X84477428Y-125935765D01*
X84501227Y-125929804D01*
X84525495Y-125926204D01*
X84549999Y-125925000D01*
X85450001Y-125925000D01*
X85474505Y-125926204D01*
G37*
G04 #@! TD.AperFunction*
G04 #@! TA.AperFunction,SMDPad,CuDef*
G36*
X85474505Y-127976204D02*
G01*
X85498773Y-127979804D01*
X85522572Y-127985765D01*
X85545671Y-127994030D01*
X85567850Y-128004520D01*
X85588893Y-128017132D01*
X85608599Y-128031747D01*
X85626777Y-128048223D01*
X85643253Y-128066401D01*
X85657868Y-128086107D01*
X85670480Y-128107150D01*
X85680970Y-128129329D01*
X85689235Y-128152428D01*
X85695196Y-128176227D01*
X85698796Y-128200495D01*
X85700000Y-128224999D01*
X85700000Y-128875001D01*
X85698796Y-128899505D01*
X85695196Y-128923773D01*
X85689235Y-128947572D01*
X85680970Y-128970671D01*
X85670480Y-128992850D01*
X85657868Y-129013893D01*
X85643253Y-129033599D01*
X85626777Y-129051777D01*
X85608599Y-129068253D01*
X85588893Y-129082868D01*
X85567850Y-129095480D01*
X85545671Y-129105970D01*
X85522572Y-129114235D01*
X85498773Y-129120196D01*
X85474505Y-129123796D01*
X85450001Y-129125000D01*
X84549999Y-129125000D01*
X84525495Y-129123796D01*
X84501227Y-129120196D01*
X84477428Y-129114235D01*
X84454329Y-129105970D01*
X84432150Y-129095480D01*
X84411107Y-129082868D01*
X84391401Y-129068253D01*
X84373223Y-129051777D01*
X84356747Y-129033599D01*
X84342132Y-129013893D01*
X84329520Y-128992850D01*
X84319030Y-128970671D01*
X84310765Y-128947572D01*
X84304804Y-128923773D01*
X84301204Y-128899505D01*
X84300000Y-128875001D01*
X84300000Y-128224999D01*
X84301204Y-128200495D01*
X84304804Y-128176227D01*
X84310765Y-128152428D01*
X84319030Y-128129329D01*
X84329520Y-128107150D01*
X84342132Y-128086107D01*
X84356747Y-128066401D01*
X84373223Y-128048223D01*
X84391401Y-128031747D01*
X84411107Y-128017132D01*
X84432150Y-128004520D01*
X84454329Y-127994030D01*
X84477428Y-127985765D01*
X84501227Y-127979804D01*
X84525495Y-127976204D01*
X84549999Y-127975000D01*
X85450001Y-127975000D01*
X85474505Y-127976204D01*
G37*
G04 #@! TD.AperFunction*
D16*
X39000000Y-169750000D03*
X76000000Y-169750000D03*
X47500000Y-169750000D03*
X85000000Y-169750000D03*
X83250000Y-129250000D03*
X86492080Y-128600200D03*
D17*
X81923000Y-126500000D02*
X81661000Y-126238000D01*
X85000000Y-126500000D02*
X81923000Y-126500000D01*
D18*
X85000000Y-102272000D02*
X84963000Y-102235000D01*
D17*
X85000000Y-126500000D02*
X85000000Y-102272000D01*
X84963000Y-101032919D02*
X84963000Y-99695000D01*
X84963000Y-102235000D02*
X84963000Y-101032919D01*
D18*
X61341000Y-102235000D02*
X61341000Y-115697000D01*
X72865999Y-127602999D02*
X73191001Y-127928001D01*
X72865999Y-125863997D02*
X72865999Y-127602999D01*
X63342988Y-118675990D02*
X65677992Y-118675990D01*
X62705999Y-118039001D02*
X63342988Y-118675990D01*
X65677992Y-118675990D02*
X72865999Y-125863997D01*
X62705999Y-117061999D02*
X62705999Y-118039001D01*
X73191001Y-127928001D02*
X74041000Y-128778000D01*
X61341000Y-115697000D02*
X62705999Y-117061999D01*
X70651001Y-125388001D02*
X71501000Y-126238000D01*
X64389000Y-119126000D02*
X70651001Y-125388001D01*
X62992000Y-119126000D02*
X64389000Y-119126000D01*
X61341000Y-117475000D02*
X62992000Y-119126000D01*
X63031001Y-127928001D02*
X63881000Y-128778000D01*
X51181000Y-102235000D02*
X51181000Y-114554000D01*
X62705999Y-127602999D02*
X63031001Y-127928001D01*
X62705999Y-125863997D02*
X62705999Y-127602999D01*
X52356001Y-115729001D02*
X52356001Y-117849003D01*
X59397002Y-122555000D02*
X62705999Y-125863997D01*
X51181000Y-114554000D02*
X52356001Y-115729001D01*
X52356001Y-117849003D02*
X57061998Y-122555000D01*
X57061998Y-122555000D02*
X59397002Y-122555000D01*
X67785999Y-127602999D02*
X68111001Y-127928001D01*
X56261000Y-102235000D02*
X56261000Y-114300000D01*
X56261000Y-114300000D02*
X57625999Y-115664999D01*
X57625999Y-118039001D02*
X60109998Y-120523000D01*
X57625999Y-115664999D02*
X57625999Y-118039001D01*
X68111001Y-127928001D02*
X68961000Y-128778000D01*
X60109998Y-120523000D02*
X62445002Y-120523000D01*
X67785999Y-125863997D02*
X67785999Y-127602999D01*
X62445002Y-120523000D02*
X67785999Y-125863997D01*
X56261000Y-117475000D02*
X59759011Y-120973011D01*
X61156011Y-120973011D02*
X65571001Y-125388001D01*
X65571001Y-125388001D02*
X66421000Y-126238000D01*
X59759011Y-120973011D02*
X61156011Y-120973011D01*
X53721000Y-117475000D02*
X58235011Y-121989011D01*
X63031001Y-125388001D02*
X63881000Y-126238000D01*
X59632011Y-121989011D02*
X63031001Y-125388001D01*
X58235011Y-121989011D02*
X59632011Y-121989011D01*
X62749022Y-120026022D02*
X68111001Y-125388001D01*
X68111001Y-125388001D02*
X68961000Y-126238000D01*
X58801000Y-117475000D02*
X61352022Y-120026022D01*
X61352022Y-120026022D02*
X62749022Y-120026022D01*
X65571001Y-127928001D02*
X66421000Y-128778000D01*
X53721000Y-102235000D02*
X53721000Y-114300000D01*
X53721000Y-114300000D02*
X55085999Y-115664999D01*
X60921002Y-121539000D02*
X65245999Y-125863997D01*
X65245999Y-127602999D02*
X65571001Y-127928001D01*
X58585998Y-121539000D02*
X60921002Y-121539000D01*
X55085999Y-115664999D02*
X55085999Y-118039001D01*
X55085999Y-118039001D02*
X58585998Y-121539000D01*
X65245999Y-125863997D02*
X65245999Y-127602999D01*
X51181000Y-117475000D02*
X56711011Y-123005011D01*
X58108011Y-123005011D02*
X60491001Y-125388001D01*
X60491001Y-125388001D02*
X61341000Y-126238000D01*
X56711011Y-123005011D02*
X58108011Y-123005011D01*
X70651001Y-127928001D02*
X71501000Y-128778000D01*
X61703009Y-119576011D02*
X64038013Y-119576011D01*
X70325999Y-125863997D02*
X70325999Y-127602999D01*
X60165999Y-118039001D02*
X61703009Y-119576011D01*
X70325999Y-127602999D02*
X70651001Y-127928001D01*
X64038013Y-119576011D02*
X70325999Y-125863997D01*
X58801000Y-102235000D02*
X58801000Y-114427000D01*
X60165999Y-115791999D02*
X60165999Y-118039001D01*
X58801000Y-114427000D02*
X60165999Y-115791999D01*
X57531000Y-127508000D02*
X57951001Y-127928001D01*
X46101000Y-102235000D02*
X46101000Y-115316000D01*
X57531000Y-125768998D02*
X57531000Y-127508000D01*
X57951001Y-127928001D02*
X58801000Y-128778000D01*
X46101000Y-115316000D02*
X47465999Y-116680999D01*
X47465999Y-116680999D02*
X47465999Y-118039001D01*
X47465999Y-118039001D02*
X54013998Y-124587000D01*
X54013998Y-124587000D02*
X56349002Y-124587000D01*
X56349002Y-124587000D02*
X57531000Y-125768998D01*
X60491001Y-127928001D02*
X61341000Y-128778000D01*
X48641000Y-102235000D02*
X48641000Y-114427000D01*
X48641000Y-114427000D02*
X50005999Y-115791999D01*
X60165999Y-127602999D02*
X60491001Y-127928001D01*
X50005999Y-115791999D02*
X50005999Y-118077999D01*
X55499000Y-123571000D02*
X57873002Y-123571000D01*
X57873002Y-123571000D02*
X60165999Y-125863997D01*
X50005999Y-118077999D02*
X55499000Y-123571000D01*
X60165999Y-125863997D02*
X60165999Y-127602999D01*
X48641000Y-117475000D02*
X55187011Y-124021011D01*
X55187011Y-124021011D02*
X56584011Y-124021011D01*
X56584011Y-124021011D02*
X57951001Y-125388001D01*
X57951001Y-125388001D02*
X58801000Y-126238000D01*
X55411001Y-125388001D02*
X56261000Y-126238000D01*
X55060011Y-125037011D02*
X55411001Y-125388001D01*
X46101000Y-117475000D02*
X53663011Y-125037011D01*
X53663011Y-125037011D02*
X55060011Y-125037011D01*
X40762000Y-126238000D02*
X40500000Y-126500000D01*
X43561000Y-126238000D02*
X40762000Y-126238000D01*
X42418000Y-98171000D02*
X38354000Y-102235000D01*
X62357000Y-98171000D02*
X42418000Y-98171000D01*
X66421000Y-102235000D02*
X62357000Y-98171000D01*
X42545000Y-96266000D02*
X70612000Y-96266000D01*
X38354000Y-92075000D02*
X42545000Y-96266000D01*
X70612000Y-96266000D02*
X76581000Y-102235000D01*
X40455011Y-96716011D02*
X68522011Y-96716011D01*
X73191001Y-101385001D02*
X74041000Y-102235000D01*
X68522011Y-96716011D02*
X73191001Y-101385001D01*
X38354000Y-94615000D02*
X40455011Y-96716011D01*
X39567103Y-97166022D02*
X66432022Y-97166022D01*
X39556081Y-97155000D02*
X39567103Y-97166022D01*
X38354000Y-97155000D02*
X39556081Y-97155000D01*
X70651001Y-101385001D02*
X71501000Y-102235000D01*
X66432022Y-97166022D02*
X70651001Y-101385001D01*
X40328011Y-97720989D02*
X39203999Y-98845001D01*
X39203999Y-98845001D02*
X38354000Y-99695000D01*
X64446989Y-97720989D02*
X40328011Y-97720989D01*
X68961000Y-102235000D02*
X64446989Y-97720989D01*
D19*
G36*
X92340001Y-104590000D02*
G01*
X88032419Y-104590000D01*
X88000000Y-104586807D01*
X87967581Y-104590000D01*
X87870617Y-104599550D01*
X87746207Y-104637290D01*
X87631550Y-104698575D01*
X87531052Y-104781052D01*
X87448575Y-104881550D01*
X87387290Y-104996207D01*
X87349550Y-105120617D01*
X87336807Y-105250000D01*
X87340001Y-105282430D01*
X87340000Y-151032418D01*
X87340001Y-151032428D01*
X87340000Y-167340000D01*
X87032419Y-167340000D01*
X87000000Y-167336807D01*
X86967581Y-167340000D01*
X86870617Y-167349550D01*
X86746207Y-167387290D01*
X86631550Y-167448575D01*
X86531052Y-167531052D01*
X86448575Y-167631550D01*
X86387290Y-167746207D01*
X86349550Y-167870617D01*
X86336807Y-168000000D01*
X86340001Y-168032429D01*
X86340000Y-175840000D01*
X38660000Y-175840000D01*
X38660000Y-168032418D01*
X38663193Y-168000000D01*
X38650450Y-167870617D01*
X38612710Y-167746207D01*
X38551425Y-167631550D01*
X38468948Y-167531052D01*
X38368450Y-167448575D01*
X38253793Y-167387290D01*
X38129383Y-167349550D01*
X38032419Y-167340000D01*
X38000000Y-167336807D01*
X37967581Y-167340000D01*
X37660000Y-167340000D01*
X37660000Y-139200881D01*
X49478724Y-139200881D01*
X49838912Y-139690548D01*
X50502882Y-140050849D01*
X51224385Y-140274694D01*
X51975695Y-140353480D01*
X52727938Y-140284178D01*
X53452208Y-140069452D01*
X54120670Y-139717555D01*
X54161088Y-139690548D01*
X54521276Y-139200881D01*
X70478724Y-139200881D01*
X70838912Y-139690548D01*
X71502882Y-140050849D01*
X72224385Y-140274694D01*
X72975695Y-140353480D01*
X73727938Y-140284178D01*
X74452208Y-140069452D01*
X75120670Y-139717555D01*
X75161088Y-139690548D01*
X75521276Y-139200881D01*
X73000000Y-136679605D01*
X70478724Y-139200881D01*
X54521276Y-139200881D01*
X52000000Y-136679605D01*
X49478724Y-139200881D01*
X37660000Y-139200881D01*
X37660000Y-136475695D01*
X48146520Y-136475695D01*
X48215822Y-137227938D01*
X48430548Y-137952208D01*
X48782445Y-138620670D01*
X48809452Y-138661088D01*
X49299119Y-139021276D01*
X51820395Y-136500000D01*
X52179605Y-136500000D01*
X54700881Y-139021276D01*
X55190548Y-138661088D01*
X55550849Y-137997118D01*
X55774694Y-137275615D01*
X55853480Y-136524305D01*
X55849002Y-136475695D01*
X69146520Y-136475695D01*
X69215822Y-137227938D01*
X69430548Y-137952208D01*
X69782445Y-138620670D01*
X69809452Y-138661088D01*
X70299119Y-139021276D01*
X72820395Y-136500000D01*
X73179605Y-136500000D01*
X75700881Y-139021276D01*
X76190548Y-138661088D01*
X76550849Y-137997118D01*
X76774694Y-137275615D01*
X76853480Y-136524305D01*
X76784178Y-135772062D01*
X76569452Y-135047792D01*
X76217555Y-134379330D01*
X76190548Y-134338912D01*
X75700881Y-133978724D01*
X73179605Y-136500000D01*
X72820395Y-136500000D01*
X70299119Y-133978724D01*
X69809452Y-134338912D01*
X69449151Y-135002882D01*
X69225306Y-135724385D01*
X69146520Y-136475695D01*
X55849002Y-136475695D01*
X55784178Y-135772062D01*
X55569452Y-135047792D01*
X55217555Y-134379330D01*
X55190548Y-134338912D01*
X54700881Y-133978724D01*
X52179605Y-136500000D01*
X51820395Y-136500000D01*
X49299119Y-133978724D01*
X48809452Y-134338912D01*
X48449151Y-135002882D01*
X48225306Y-135724385D01*
X48146520Y-136475695D01*
X37660000Y-136475695D01*
X37660000Y-133799119D01*
X49478724Y-133799119D01*
X52000000Y-136320395D01*
X54521276Y-133799119D01*
X70478724Y-133799119D01*
X73000000Y-136320395D01*
X75521276Y-133799119D01*
X75161088Y-133309452D01*
X74497118Y-132949151D01*
X73775615Y-132725306D01*
X73024305Y-132646520D01*
X72272062Y-132715822D01*
X71547792Y-132930548D01*
X70879330Y-133282445D01*
X70838912Y-133309452D01*
X70478724Y-133799119D01*
X54521276Y-133799119D01*
X54161088Y-133309452D01*
X53497118Y-132949151D01*
X52775615Y-132725306D01*
X52024305Y-132646520D01*
X51272062Y-132715822D01*
X50547792Y-132930548D01*
X49879330Y-133282445D01*
X49838912Y-133309452D01*
X49478724Y-133799119D01*
X37660000Y-133799119D01*
X37660000Y-129125000D01*
X39161928Y-129125000D01*
X39174188Y-129249482D01*
X39210498Y-129369180D01*
X39269463Y-129479494D01*
X39348815Y-129576185D01*
X39445506Y-129655537D01*
X39555820Y-129714502D01*
X39675518Y-129750812D01*
X39800000Y-129763072D01*
X40214250Y-129760000D01*
X40373000Y-129601250D01*
X40373000Y-128677000D01*
X40627000Y-128677000D01*
X40627000Y-129601250D01*
X40785750Y-129760000D01*
X41200000Y-129763072D01*
X41324482Y-129750812D01*
X41444180Y-129714502D01*
X41554494Y-129655537D01*
X41588048Y-129628000D01*
X42072928Y-129628000D01*
X42085188Y-129752482D01*
X42121498Y-129872180D01*
X42180463Y-129982494D01*
X42259815Y-130079185D01*
X42356506Y-130158537D01*
X42466820Y-130217502D01*
X42586518Y-130253812D01*
X42711000Y-130266072D01*
X43275250Y-130263000D01*
X43434000Y-130104250D01*
X43434000Y-128905000D01*
X42234750Y-128905000D01*
X42076000Y-129063750D01*
X42072928Y-129628000D01*
X41588048Y-129628000D01*
X41651185Y-129576185D01*
X41730537Y-129479494D01*
X41789502Y-129369180D01*
X41825812Y-129249482D01*
X41838072Y-129125000D01*
X41835000Y-128835750D01*
X41676250Y-128677000D01*
X40627000Y-128677000D01*
X40373000Y-128677000D01*
X39323750Y-128677000D01*
X39165000Y-128835750D01*
X39161928Y-129125000D01*
X37660000Y-129125000D01*
X37660000Y-105282419D01*
X37663193Y-105250000D01*
X37650450Y-105120617D01*
X37612710Y-104996207D01*
X37551425Y-104881550D01*
X37468948Y-104781052D01*
X37368450Y-104698575D01*
X37253793Y-104637290D01*
X37129383Y-104599550D01*
X37032419Y-104590000D01*
X37000000Y-104586807D01*
X36967581Y-104590000D01*
X32660000Y-104590000D01*
X32660000Y-91928740D01*
X36869000Y-91928740D01*
X36869000Y-92221260D01*
X36926068Y-92508158D01*
X37038010Y-92778411D01*
X37200525Y-93021632D01*
X37407368Y-93228475D01*
X37581760Y-93345000D01*
X37407368Y-93461525D01*
X37200525Y-93668368D01*
X37038010Y-93911589D01*
X36926068Y-94181842D01*
X36869000Y-94468740D01*
X36869000Y-94761260D01*
X36926068Y-95048158D01*
X37038010Y-95318411D01*
X37200525Y-95561632D01*
X37407368Y-95768475D01*
X37581760Y-95885000D01*
X37407368Y-96001525D01*
X37200525Y-96208368D01*
X37038010Y-96451589D01*
X36926068Y-96721842D01*
X36869000Y-97008740D01*
X36869000Y-97301260D01*
X36926068Y-97588158D01*
X37038010Y-97858411D01*
X37200525Y-98101632D01*
X37407368Y-98308475D01*
X37581760Y-98425000D01*
X37407368Y-98541525D01*
X37200525Y-98748368D01*
X37038010Y-98991589D01*
X36926068Y-99261842D01*
X36869000Y-99548740D01*
X36869000Y-99841260D01*
X36926068Y-100128158D01*
X37038010Y-100398411D01*
X37200525Y-100641632D01*
X37407368Y-100848475D01*
X37581760Y-100965000D01*
X37407368Y-101081525D01*
X37200525Y-101288368D01*
X37038010Y-101531589D01*
X36926068Y-101801842D01*
X36869000Y-102088740D01*
X36869000Y-102381260D01*
X36926068Y-102668158D01*
X37038010Y-102938411D01*
X37200525Y-103181632D01*
X37407368Y-103388475D01*
X37650589Y-103550990D01*
X37920842Y-103662932D01*
X38207740Y-103720000D01*
X38500260Y-103720000D01*
X38787158Y-103662932D01*
X39057411Y-103550990D01*
X39300632Y-103388475D01*
X39507475Y-103181632D01*
X39669990Y-102938411D01*
X39781932Y-102668158D01*
X39839000Y-102381260D01*
X39839000Y-102088740D01*
X39795209Y-101868592D01*
X42732802Y-98931000D01*
X62042199Y-98931000D01*
X63861198Y-100750000D01*
X63734740Y-100750000D01*
X63447842Y-100807068D01*
X63177589Y-100919010D01*
X62934368Y-101081525D01*
X62727525Y-101288368D01*
X62611000Y-101462760D01*
X62494475Y-101288368D01*
X62287632Y-101081525D01*
X62044411Y-100919010D01*
X61774158Y-100807068D01*
X61487260Y-100750000D01*
X61194740Y-100750000D01*
X60907842Y-100807068D01*
X60637589Y-100919010D01*
X60394368Y-101081525D01*
X60187525Y-101288368D01*
X60071000Y-101462760D01*
X59954475Y-101288368D01*
X59747632Y-101081525D01*
X59504411Y-100919010D01*
X59234158Y-100807068D01*
X58947260Y-100750000D01*
X58654740Y-100750000D01*
X58367842Y-100807068D01*
X58097589Y-100919010D01*
X57854368Y-101081525D01*
X57647525Y-101288368D01*
X57531000Y-101462760D01*
X57414475Y-101288368D01*
X57207632Y-101081525D01*
X56964411Y-100919010D01*
X56694158Y-100807068D01*
X56407260Y-100750000D01*
X56114740Y-100750000D01*
X55827842Y-100807068D01*
X55557589Y-100919010D01*
X55314368Y-101081525D01*
X55107525Y-101288368D01*
X54991000Y-101462760D01*
X54874475Y-101288368D01*
X54667632Y-101081525D01*
X54424411Y-100919010D01*
X54154158Y-100807068D01*
X53867260Y-100750000D01*
X53574740Y-100750000D01*
X53287842Y-100807068D01*
X53017589Y-100919010D01*
X52774368Y-101081525D01*
X52567525Y-101288368D01*
X52451000Y-101462760D01*
X52334475Y-101288368D01*
X52127632Y-101081525D01*
X51884411Y-100919010D01*
X51614158Y-100807068D01*
X51327260Y-100750000D01*
X51034740Y-100750000D01*
X50747842Y-100807068D01*
X50477589Y-100919010D01*
X50234368Y-101081525D01*
X50027525Y-101288368D01*
X49911000Y-101462760D01*
X49794475Y-101288368D01*
X49587632Y-101081525D01*
X49344411Y-100919010D01*
X49074158Y-100807068D01*
X48787260Y-100750000D01*
X48494740Y-100750000D01*
X48207842Y-100807068D01*
X47937589Y-100919010D01*
X47694368Y-101081525D01*
X47487525Y-101288368D01*
X47371000Y-101462760D01*
X47254475Y-101288368D01*
X47047632Y-101081525D01*
X46804411Y-100919010D01*
X46534158Y-100807068D01*
X46247260Y-100750000D01*
X45954740Y-100750000D01*
X45667842Y-100807068D01*
X45397589Y-100919010D01*
X45154368Y-101081525D01*
X44947525Y-101288368D01*
X44785010Y-101531589D01*
X44673068Y-101801842D01*
X44616000Y-102088740D01*
X44616000Y-102381260D01*
X44673068Y-102668158D01*
X44785010Y-102938411D01*
X44947525Y-103181632D01*
X45154368Y-103388475D01*
X45341000Y-103513179D01*
X45341001Y-115278668D01*
X45337324Y-115316000D01*
X45341001Y-115353333D01*
X45349218Y-115436755D01*
X45351998Y-115464985D01*
X45395454Y-115608246D01*
X45466026Y-115740276D01*
X45537201Y-115827002D01*
X45561000Y-115856001D01*
X45589998Y-115879799D01*
X45742430Y-116032231D01*
X45667842Y-116047068D01*
X45397589Y-116159010D01*
X45154368Y-116321525D01*
X44947525Y-116528368D01*
X44785010Y-116771589D01*
X44673068Y-117041842D01*
X44616000Y-117328740D01*
X44616000Y-117621260D01*
X44673068Y-117908158D01*
X44785010Y-118178411D01*
X44947525Y-118421632D01*
X45154368Y-118628475D01*
X45397589Y-118790990D01*
X45667842Y-118902932D01*
X45954740Y-118960000D01*
X46247260Y-118960000D01*
X46467408Y-118916209D01*
X52705046Y-125153847D01*
X52567525Y-125291368D01*
X52451000Y-125465760D01*
X52334475Y-125291368D01*
X52127632Y-125084525D01*
X51884411Y-124922010D01*
X51614158Y-124810068D01*
X51327260Y-124753000D01*
X51034740Y-124753000D01*
X50747842Y-124810068D01*
X50477589Y-124922010D01*
X50234368Y-125084525D01*
X50027525Y-125291368D01*
X49911000Y-125465760D01*
X49794475Y-125291368D01*
X49587632Y-125084525D01*
X49344411Y-124922010D01*
X49074158Y-124810068D01*
X48787260Y-124753000D01*
X48494740Y-124753000D01*
X48207842Y-124810068D01*
X47937589Y-124922010D01*
X47694368Y-125084525D01*
X47487525Y-125291368D01*
X47371000Y-125465760D01*
X47254475Y-125291368D01*
X47047632Y-125084525D01*
X46804411Y-124922010D01*
X46534158Y-124810068D01*
X46247260Y-124753000D01*
X45954740Y-124753000D01*
X45667842Y-124810068D01*
X45397589Y-124922010D01*
X45154368Y-125084525D01*
X44947525Y-125291368D01*
X44831000Y-125465760D01*
X44714475Y-125291368D01*
X44507632Y-125084525D01*
X44264411Y-124922010D01*
X43994158Y-124810068D01*
X43707260Y-124753000D01*
X43414740Y-124753000D01*
X43127842Y-124810068D01*
X42857589Y-124922010D01*
X42614368Y-125084525D01*
X42407525Y-125291368D01*
X42282822Y-125478000D01*
X41493839Y-125478000D01*
X41443387Y-125436595D01*
X41289851Y-125354528D01*
X41123255Y-125303992D01*
X40950001Y-125286928D01*
X40049999Y-125286928D01*
X39876745Y-125303992D01*
X39710149Y-125354528D01*
X39556613Y-125436595D01*
X39422038Y-125547038D01*
X39311595Y-125681613D01*
X39229528Y-125835149D01*
X39178992Y-126001745D01*
X39161928Y-126174999D01*
X39161928Y-126825001D01*
X39178992Y-126998255D01*
X39229528Y-127164851D01*
X39311595Y-127318387D01*
X39422038Y-127452962D01*
X39428594Y-127458342D01*
X39348815Y-127523815D01*
X39269463Y-127620506D01*
X39210498Y-127730820D01*
X39174188Y-127850518D01*
X39161928Y-127975000D01*
X39165000Y-128264250D01*
X39323750Y-128423000D01*
X40373000Y-128423000D01*
X40373000Y-128403000D01*
X40627000Y-128403000D01*
X40627000Y-128423000D01*
X41676250Y-128423000D01*
X41835000Y-128264250D01*
X41838072Y-127975000D01*
X41825812Y-127850518D01*
X41789502Y-127730820D01*
X41730537Y-127620506D01*
X41651185Y-127523815D01*
X41571406Y-127458342D01*
X41577962Y-127452962D01*
X41688405Y-127318387D01*
X41770472Y-127164851D01*
X41821008Y-126998255D01*
X41821033Y-126998000D01*
X42282822Y-126998000D01*
X42407525Y-127184632D01*
X42539380Y-127316487D01*
X42466820Y-127338498D01*
X42356506Y-127397463D01*
X42259815Y-127476815D01*
X42180463Y-127573506D01*
X42121498Y-127683820D01*
X42085188Y-127803518D01*
X42072928Y-127928000D01*
X42076000Y-128492250D01*
X42234750Y-128651000D01*
X43434000Y-128651000D01*
X43434000Y-128631000D01*
X43688000Y-128631000D01*
X43688000Y-128651000D01*
X43708000Y-128651000D01*
X43708000Y-128905000D01*
X43688000Y-128905000D01*
X43688000Y-130104250D01*
X43846750Y-130263000D01*
X44411000Y-130266072D01*
X44535482Y-130253812D01*
X44655180Y-130217502D01*
X44765494Y-130158537D01*
X44862185Y-130079185D01*
X44941537Y-129982494D01*
X45000502Y-129872180D01*
X45022513Y-129799620D01*
X45154368Y-129931475D01*
X45397589Y-130093990D01*
X45667842Y-130205932D01*
X45954740Y-130263000D01*
X46247260Y-130263000D01*
X46534158Y-130205932D01*
X46804411Y-130093990D01*
X47047632Y-129931475D01*
X47254475Y-129724632D01*
X47371000Y-129550240D01*
X47487525Y-129724632D01*
X47694368Y-129931475D01*
X47937589Y-130093990D01*
X48207842Y-130205932D01*
X48494740Y-130263000D01*
X48787260Y-130263000D01*
X49074158Y-130205932D01*
X49344411Y-130093990D01*
X49587632Y-129931475D01*
X49794475Y-129724632D01*
X49911000Y-129550240D01*
X50027525Y-129724632D01*
X50234368Y-129931475D01*
X50477589Y-130093990D01*
X50747842Y-130205932D01*
X51034740Y-130263000D01*
X51327260Y-130263000D01*
X51614158Y-130205932D01*
X51884411Y-130093990D01*
X52127632Y-129931475D01*
X52334475Y-129724632D01*
X52451000Y-129550240D01*
X52567525Y-129724632D01*
X52774368Y-129931475D01*
X53017589Y-130093990D01*
X53287842Y-130205932D01*
X53574740Y-130263000D01*
X53867260Y-130263000D01*
X54154158Y-130205932D01*
X54424411Y-130093990D01*
X54667632Y-129931475D01*
X54874475Y-129724632D01*
X54991000Y-129550240D01*
X55107525Y-129724632D01*
X55314368Y-129931475D01*
X55557589Y-130093990D01*
X55827842Y-130205932D01*
X56114740Y-130263000D01*
X56407260Y-130263000D01*
X56694158Y-130205932D01*
X56964411Y-130093990D01*
X57207632Y-129931475D01*
X57414475Y-129724632D01*
X57531000Y-129550240D01*
X57647525Y-129724632D01*
X57854368Y-129931475D01*
X58097589Y-130093990D01*
X58367842Y-130205932D01*
X58654740Y-130263000D01*
X58947260Y-130263000D01*
X59234158Y-130205932D01*
X59504411Y-130093990D01*
X59747632Y-129931475D01*
X59954475Y-129724632D01*
X60071000Y-129550240D01*
X60187525Y-129724632D01*
X60394368Y-129931475D01*
X60637589Y-130093990D01*
X60907842Y-130205932D01*
X61194740Y-130263000D01*
X61487260Y-130263000D01*
X61774158Y-130205932D01*
X62044411Y-130093990D01*
X62287632Y-129931475D01*
X62494475Y-129724632D01*
X62611000Y-129550240D01*
X62727525Y-129724632D01*
X62934368Y-129931475D01*
X63177589Y-130093990D01*
X63447842Y-130205932D01*
X63734740Y-130263000D01*
X64027260Y-130263000D01*
X64314158Y-130205932D01*
X64584411Y-130093990D01*
X64827632Y-129931475D01*
X65034475Y-129724632D01*
X65151000Y-129550240D01*
X65267525Y-129724632D01*
X65474368Y-129931475D01*
X65717589Y-130093990D01*
X65987842Y-130205932D01*
X66274740Y-130263000D01*
X66567260Y-130263000D01*
X66854158Y-130205932D01*
X67124411Y-130093990D01*
X67367632Y-129931475D01*
X67574475Y-129724632D01*
X67691000Y-129550240D01*
X67807525Y-129724632D01*
X68014368Y-129931475D01*
X68257589Y-130093990D01*
X68527842Y-130205932D01*
X68814740Y-130263000D01*
X69107260Y-130263000D01*
X69394158Y-130205932D01*
X69664411Y-130093990D01*
X69907632Y-129931475D01*
X70114475Y-129724632D01*
X70231000Y-129550240D01*
X70347525Y-129724632D01*
X70554368Y-129931475D01*
X70797589Y-130093990D01*
X71067842Y-130205932D01*
X71354740Y-130263000D01*
X71647260Y-130263000D01*
X71934158Y-130205932D01*
X72204411Y-130093990D01*
X72447632Y-129931475D01*
X72654475Y-129724632D01*
X72771000Y-129550240D01*
X72887525Y-129724632D01*
X73094368Y-129931475D01*
X73337589Y-130093990D01*
X73607842Y-130205932D01*
X73894740Y-130263000D01*
X74187260Y-130263000D01*
X74474158Y-130205932D01*
X74744411Y-130093990D01*
X74987632Y-129931475D01*
X75194475Y-129724632D01*
X75311000Y-129550240D01*
X75427525Y-129724632D01*
X75634368Y-129931475D01*
X75877589Y-130093990D01*
X76147842Y-130205932D01*
X76434740Y-130263000D01*
X76727260Y-130263000D01*
X77014158Y-130205932D01*
X77284411Y-130093990D01*
X77527632Y-129931475D01*
X77734475Y-129724632D01*
X77851000Y-129550240D01*
X77967525Y-129724632D01*
X78174368Y-129931475D01*
X78417589Y-130093990D01*
X78687842Y-130205932D01*
X78974740Y-130263000D01*
X79267260Y-130263000D01*
X79554158Y-130205932D01*
X79824411Y-130093990D01*
X80067632Y-129931475D01*
X80274475Y-129724632D01*
X80391000Y-129550240D01*
X80507525Y-129724632D01*
X80714368Y-129931475D01*
X80957589Y-130093990D01*
X81227842Y-130205932D01*
X81514740Y-130263000D01*
X81807260Y-130263000D01*
X82094158Y-130205932D01*
X82364411Y-130093990D01*
X82607632Y-129931475D01*
X82814475Y-129724632D01*
X82976990Y-129481411D01*
X83088932Y-129211158D01*
X83106070Y-129125000D01*
X83661928Y-129125000D01*
X83674188Y-129249482D01*
X83710498Y-129369180D01*
X83769463Y-129479494D01*
X83848815Y-129576185D01*
X83945506Y-129655537D01*
X84055820Y-129714502D01*
X84175518Y-129750812D01*
X84300000Y-129763072D01*
X84714250Y-129760000D01*
X84873000Y-129601250D01*
X84873000Y-128677000D01*
X85127000Y-128677000D01*
X85127000Y-129601250D01*
X85285750Y-129760000D01*
X85700000Y-129763072D01*
X85824482Y-129750812D01*
X85944180Y-129714502D01*
X86054494Y-129655537D01*
X86151185Y-129576185D01*
X86230537Y-129479494D01*
X86289502Y-129369180D01*
X86325812Y-129249482D01*
X86338072Y-129125000D01*
X86335000Y-128835750D01*
X86176250Y-128677000D01*
X85127000Y-128677000D01*
X84873000Y-128677000D01*
X83823750Y-128677000D01*
X83665000Y-128835750D01*
X83661928Y-129125000D01*
X83106070Y-129125000D01*
X83146000Y-128924260D01*
X83146000Y-128631740D01*
X83088932Y-128344842D01*
X82976990Y-128074589D01*
X82814475Y-127831368D01*
X82607632Y-127624525D01*
X82436233Y-127510000D01*
X83865649Y-127510000D01*
X83848815Y-127523815D01*
X83769463Y-127620506D01*
X83710498Y-127730820D01*
X83674188Y-127850518D01*
X83661928Y-127975000D01*
X83665000Y-128264250D01*
X83823750Y-128423000D01*
X84873000Y-128423000D01*
X84873000Y-128403000D01*
X85127000Y-128403000D01*
X85127000Y-128423000D01*
X86176250Y-128423000D01*
X86335000Y-128264250D01*
X86338072Y-127975000D01*
X86325812Y-127850518D01*
X86289502Y-127730820D01*
X86230537Y-127620506D01*
X86151185Y-127523815D01*
X86071406Y-127458342D01*
X86077962Y-127452962D01*
X86188405Y-127318387D01*
X86270472Y-127164851D01*
X86321008Y-126998255D01*
X86338072Y-126825001D01*
X86338072Y-126174999D01*
X86321008Y-126001745D01*
X86270472Y-125835149D01*
X86188405Y-125681613D01*
X86077962Y-125547038D01*
X86010000Y-125491263D01*
X86010000Y-103288107D01*
X86116475Y-103181632D01*
X86278990Y-102938411D01*
X86390932Y-102668158D01*
X86448000Y-102381260D01*
X86448000Y-102088740D01*
X86390932Y-101801842D01*
X86278990Y-101531589D01*
X86116475Y-101288368D01*
X85973000Y-101144893D01*
X85973000Y-100785107D01*
X86116475Y-100641632D01*
X86278990Y-100398411D01*
X86390932Y-100128158D01*
X86448000Y-99841260D01*
X86448000Y-99548740D01*
X86390932Y-99261842D01*
X86278990Y-98991589D01*
X86116475Y-98748368D01*
X85909632Y-98541525D01*
X85735240Y-98425000D01*
X85909632Y-98308475D01*
X86116475Y-98101632D01*
X86278990Y-97858411D01*
X86390932Y-97588158D01*
X86448000Y-97301260D01*
X86448000Y-97008740D01*
X86390932Y-96721842D01*
X86278990Y-96451589D01*
X86116475Y-96208368D01*
X85909632Y-96001525D01*
X85735240Y-95885000D01*
X85909632Y-95768475D01*
X86116475Y-95561632D01*
X86278990Y-95318411D01*
X86390932Y-95048158D01*
X86448000Y-94761260D01*
X86448000Y-94468740D01*
X86390932Y-94181842D01*
X86278990Y-93911589D01*
X86116475Y-93668368D01*
X85909632Y-93461525D01*
X85735240Y-93345000D01*
X85909632Y-93228475D01*
X86116475Y-93021632D01*
X86278990Y-92778411D01*
X86390932Y-92508158D01*
X86448000Y-92221260D01*
X86448000Y-91928740D01*
X86390932Y-91641842D01*
X86278990Y-91371589D01*
X86116475Y-91128368D01*
X85984620Y-90996513D01*
X86057180Y-90974502D01*
X86167494Y-90915537D01*
X86264185Y-90836185D01*
X86343537Y-90739494D01*
X86402502Y-90629180D01*
X86438812Y-90509482D01*
X86451072Y-90385000D01*
X86448000Y-89820750D01*
X86289250Y-89662000D01*
X85090000Y-89662000D01*
X85090000Y-89682000D01*
X84836000Y-89682000D01*
X84836000Y-89662000D01*
X83636750Y-89662000D01*
X83478000Y-89820750D01*
X83474928Y-90385000D01*
X83487188Y-90509482D01*
X83523498Y-90629180D01*
X83582463Y-90739494D01*
X83661815Y-90836185D01*
X83758506Y-90915537D01*
X83868820Y-90974502D01*
X83941380Y-90996513D01*
X83809525Y-91128368D01*
X83647010Y-91371589D01*
X83535068Y-91641842D01*
X83478000Y-91928740D01*
X83478000Y-92221260D01*
X83535068Y-92508158D01*
X83647010Y-92778411D01*
X83809525Y-93021632D01*
X84016368Y-93228475D01*
X84190760Y-93345000D01*
X84016368Y-93461525D01*
X83809525Y-93668368D01*
X83647010Y-93911589D01*
X83535068Y-94181842D01*
X83478000Y-94468740D01*
X83478000Y-94761260D01*
X83535068Y-95048158D01*
X83647010Y-95318411D01*
X83809525Y-95561632D01*
X84016368Y-95768475D01*
X84190760Y-95885000D01*
X84016368Y-96001525D01*
X83809525Y-96208368D01*
X83647010Y-96451589D01*
X83535068Y-96721842D01*
X83478000Y-97008740D01*
X83478000Y-97301260D01*
X83535068Y-97588158D01*
X83647010Y-97858411D01*
X83809525Y-98101632D01*
X84016368Y-98308475D01*
X84190760Y-98425000D01*
X84016368Y-98541525D01*
X83809525Y-98748368D01*
X83647010Y-98991589D01*
X83535068Y-99261842D01*
X83478000Y-99548740D01*
X83478000Y-99841260D01*
X83535068Y-100128158D01*
X83647010Y-100398411D01*
X83809525Y-100641632D01*
X83953000Y-100785107D01*
X83953000Y-101082526D01*
X83953001Y-101082535D01*
X83953001Y-101144892D01*
X83809525Y-101288368D01*
X83647010Y-101531589D01*
X83535068Y-101801842D01*
X83478000Y-102088740D01*
X83478000Y-102381260D01*
X83535068Y-102668158D01*
X83647010Y-102938411D01*
X83809525Y-103181632D01*
X83990001Y-103362108D01*
X83990000Y-125490000D01*
X82947197Y-125490000D01*
X82814475Y-125291368D01*
X82607632Y-125084525D01*
X82364411Y-124922010D01*
X82094158Y-124810068D01*
X81807260Y-124753000D01*
X81514740Y-124753000D01*
X81227842Y-124810068D01*
X80957589Y-124922010D01*
X80714368Y-125084525D01*
X80507525Y-125291368D01*
X80391000Y-125465760D01*
X80274475Y-125291368D01*
X80067632Y-125084525D01*
X79824411Y-124922010D01*
X79554158Y-124810068D01*
X79267260Y-124753000D01*
X78974740Y-124753000D01*
X78687842Y-124810068D01*
X78417589Y-124922010D01*
X78174368Y-125084525D01*
X77967525Y-125291368D01*
X77851000Y-125465760D01*
X77734475Y-125291368D01*
X77527632Y-125084525D01*
X77284411Y-124922010D01*
X77014158Y-124810068D01*
X76727260Y-124753000D01*
X76434740Y-124753000D01*
X76147842Y-124810068D01*
X75877589Y-124922010D01*
X75634368Y-125084525D01*
X75427525Y-125291368D01*
X75311000Y-125465760D01*
X75194475Y-125291368D01*
X74987632Y-125084525D01*
X74744411Y-124922010D01*
X74474158Y-124810068D01*
X74187260Y-124753000D01*
X73894740Y-124753000D01*
X73607842Y-124810068D01*
X73337589Y-124922010D01*
X73134508Y-125057704D01*
X66942955Y-118866151D01*
X67124411Y-118790990D01*
X67367632Y-118628475D01*
X67574475Y-118421632D01*
X67691000Y-118247240D01*
X67807525Y-118421632D01*
X68014368Y-118628475D01*
X68257589Y-118790990D01*
X68527842Y-118902932D01*
X68814740Y-118960000D01*
X69107260Y-118960000D01*
X69394158Y-118902932D01*
X69664411Y-118790990D01*
X69907632Y-118628475D01*
X70114475Y-118421632D01*
X70231000Y-118247240D01*
X70347525Y-118421632D01*
X70554368Y-118628475D01*
X70797589Y-118790990D01*
X71067842Y-118902932D01*
X71354740Y-118960000D01*
X71647260Y-118960000D01*
X71934158Y-118902932D01*
X72204411Y-118790990D01*
X72447632Y-118628475D01*
X72654475Y-118421632D01*
X72771000Y-118247240D01*
X72887525Y-118421632D01*
X73094368Y-118628475D01*
X73337589Y-118790990D01*
X73607842Y-118902932D01*
X73894740Y-118960000D01*
X74187260Y-118960000D01*
X74474158Y-118902932D01*
X74744411Y-118790990D01*
X74987632Y-118628475D01*
X75119487Y-118496620D01*
X75141498Y-118569180D01*
X75200463Y-118679494D01*
X75279815Y-118776185D01*
X75376506Y-118855537D01*
X75486820Y-118914502D01*
X75606518Y-118950812D01*
X75731000Y-118963072D01*
X76295250Y-118960000D01*
X76454000Y-118801250D01*
X76454000Y-117602000D01*
X76434000Y-117602000D01*
X76434000Y-117348000D01*
X76454000Y-117348000D01*
X76454000Y-116148750D01*
X76708000Y-116148750D01*
X76708000Y-117348000D01*
X76728000Y-117348000D01*
X76728000Y-117602000D01*
X76708000Y-117602000D01*
X76708000Y-118801250D01*
X76866750Y-118960000D01*
X77431000Y-118963072D01*
X77555482Y-118950812D01*
X77675180Y-118914502D01*
X77785494Y-118855537D01*
X77882185Y-118776185D01*
X77961537Y-118679494D01*
X78020502Y-118569180D01*
X78042513Y-118496620D01*
X78174368Y-118628475D01*
X78417589Y-118790990D01*
X78687842Y-118902932D01*
X78974740Y-118960000D01*
X79267260Y-118960000D01*
X79554158Y-118902932D01*
X79824411Y-118790990D01*
X80067632Y-118628475D01*
X80274475Y-118421632D01*
X80436990Y-118178411D01*
X80548932Y-117908158D01*
X80606000Y-117621260D01*
X80606000Y-117328740D01*
X80548932Y-117041842D01*
X80436990Y-116771589D01*
X80274475Y-116528368D01*
X80067632Y-116321525D01*
X79824411Y-116159010D01*
X79554158Y-116047068D01*
X79267260Y-115990000D01*
X78974740Y-115990000D01*
X78687842Y-116047068D01*
X78417589Y-116159010D01*
X78174368Y-116321525D01*
X78042513Y-116453380D01*
X78020502Y-116380820D01*
X77961537Y-116270506D01*
X77882185Y-116173815D01*
X77785494Y-116094463D01*
X77675180Y-116035498D01*
X77555482Y-115999188D01*
X77431000Y-115986928D01*
X76866750Y-115990000D01*
X76708000Y-116148750D01*
X76454000Y-116148750D01*
X76295250Y-115990000D01*
X75731000Y-115986928D01*
X75606518Y-115999188D01*
X75486820Y-116035498D01*
X75376506Y-116094463D01*
X75279815Y-116173815D01*
X75200463Y-116270506D01*
X75141498Y-116380820D01*
X75119487Y-116453380D01*
X74987632Y-116321525D01*
X74744411Y-116159010D01*
X74474158Y-116047068D01*
X74187260Y-115990000D01*
X73894740Y-115990000D01*
X73607842Y-116047068D01*
X73337589Y-116159010D01*
X73094368Y-116321525D01*
X72887525Y-116528368D01*
X72771000Y-116702760D01*
X72654475Y-116528368D01*
X72447632Y-116321525D01*
X72204411Y-116159010D01*
X71934158Y-116047068D01*
X71647260Y-115990000D01*
X71354740Y-115990000D01*
X71067842Y-116047068D01*
X70797589Y-116159010D01*
X70554368Y-116321525D01*
X70347525Y-116528368D01*
X70231000Y-116702760D01*
X70114475Y-116528368D01*
X69907632Y-116321525D01*
X69664411Y-116159010D01*
X69394158Y-116047068D01*
X69107260Y-115990000D01*
X68814740Y-115990000D01*
X68527842Y-116047068D01*
X68257589Y-116159010D01*
X68014368Y-116321525D01*
X67807525Y-116528368D01*
X67691000Y-116702760D01*
X67574475Y-116528368D01*
X67367632Y-116321525D01*
X67124411Y-116159010D01*
X66854158Y-116047068D01*
X66567260Y-115990000D01*
X66274740Y-115990000D01*
X65987842Y-116047068D01*
X65717589Y-116159010D01*
X65474368Y-116321525D01*
X65267525Y-116528368D01*
X65151000Y-116702760D01*
X65034475Y-116528368D01*
X64827632Y-116321525D01*
X64584411Y-116159010D01*
X64314158Y-116047068D01*
X64027260Y-115990000D01*
X63734740Y-115990000D01*
X63447842Y-116047068D01*
X63177589Y-116159010D01*
X62997886Y-116279084D01*
X62101000Y-115382199D01*
X62101000Y-103513178D01*
X62287632Y-103388475D01*
X62494475Y-103181632D01*
X62611000Y-103007240D01*
X62727525Y-103181632D01*
X62934368Y-103388475D01*
X63177589Y-103550990D01*
X63447842Y-103662932D01*
X63734740Y-103720000D01*
X64027260Y-103720000D01*
X64314158Y-103662932D01*
X64584411Y-103550990D01*
X64827632Y-103388475D01*
X65034475Y-103181632D01*
X65151000Y-103007240D01*
X65267525Y-103181632D01*
X65474368Y-103388475D01*
X65717589Y-103550990D01*
X65987842Y-103662932D01*
X66274740Y-103720000D01*
X66567260Y-103720000D01*
X66854158Y-103662932D01*
X67124411Y-103550990D01*
X67367632Y-103388475D01*
X67574475Y-103181632D01*
X67691000Y-103007240D01*
X67807525Y-103181632D01*
X68014368Y-103388475D01*
X68257589Y-103550990D01*
X68527842Y-103662932D01*
X68814740Y-103720000D01*
X69107260Y-103720000D01*
X69394158Y-103662932D01*
X69664411Y-103550990D01*
X69907632Y-103388475D01*
X70114475Y-103181632D01*
X70231000Y-103007240D01*
X70347525Y-103181632D01*
X70554368Y-103388475D01*
X70797589Y-103550990D01*
X71067842Y-103662932D01*
X71354740Y-103720000D01*
X71647260Y-103720000D01*
X71934158Y-103662932D01*
X72204411Y-103550990D01*
X72447632Y-103388475D01*
X72654475Y-103181632D01*
X72771000Y-103007240D01*
X72887525Y-103181632D01*
X73094368Y-103388475D01*
X73337589Y-103550990D01*
X73607842Y-103662932D01*
X73894740Y-103720000D01*
X74187260Y-103720000D01*
X74474158Y-103662932D01*
X74744411Y-103550990D01*
X74987632Y-103388475D01*
X75194475Y-103181632D01*
X75311000Y-103007240D01*
X75427525Y-103181632D01*
X75634368Y-103388475D01*
X75877589Y-103550990D01*
X76147842Y-103662932D01*
X76434740Y-103720000D01*
X76727260Y-103720000D01*
X77014158Y-103662932D01*
X77284411Y-103550990D01*
X77527632Y-103388475D01*
X77659487Y-103256620D01*
X77681498Y-103329180D01*
X77740463Y-103439494D01*
X77819815Y-103536185D01*
X77916506Y-103615537D01*
X78026820Y-103674502D01*
X78146518Y-103710812D01*
X78271000Y-103723072D01*
X78835250Y-103720000D01*
X78994000Y-103561250D01*
X78994000Y-102362000D01*
X79248000Y-102362000D01*
X79248000Y-103561250D01*
X79406750Y-103720000D01*
X79971000Y-103723072D01*
X80095482Y-103710812D01*
X80215180Y-103674502D01*
X80325494Y-103615537D01*
X80422185Y-103536185D01*
X80501537Y-103439494D01*
X80560502Y-103329180D01*
X80596812Y-103209482D01*
X80609072Y-103085000D01*
X80606000Y-102520750D01*
X80447250Y-102362000D01*
X79248000Y-102362000D01*
X78994000Y-102362000D01*
X78974000Y-102362000D01*
X78974000Y-102108000D01*
X78994000Y-102108000D01*
X78994000Y-100908750D01*
X79248000Y-100908750D01*
X79248000Y-102108000D01*
X80447250Y-102108000D01*
X80606000Y-101949250D01*
X80609072Y-101385000D01*
X80596812Y-101260518D01*
X80560502Y-101140820D01*
X80501537Y-101030506D01*
X80422185Y-100933815D01*
X80325494Y-100854463D01*
X80215180Y-100795498D01*
X80095482Y-100759188D01*
X79971000Y-100746928D01*
X79406750Y-100750000D01*
X79248000Y-100908750D01*
X78994000Y-100908750D01*
X78835250Y-100750000D01*
X78271000Y-100746928D01*
X78146518Y-100759188D01*
X78026820Y-100795498D01*
X77916506Y-100854463D01*
X77819815Y-100933815D01*
X77740463Y-101030506D01*
X77681498Y-101140820D01*
X77659487Y-101213380D01*
X77527632Y-101081525D01*
X77284411Y-100919010D01*
X77014158Y-100807068D01*
X76727260Y-100750000D01*
X76434740Y-100750000D01*
X76214592Y-100793790D01*
X71175804Y-95755003D01*
X71152001Y-95725999D01*
X71036276Y-95631026D01*
X70904247Y-95560454D01*
X70760986Y-95516997D01*
X70649333Y-95506000D01*
X70649322Y-95506000D01*
X70612000Y-95502324D01*
X70574678Y-95506000D01*
X42859802Y-95506000D01*
X39795209Y-92441408D01*
X39839000Y-92221260D01*
X39839000Y-91928740D01*
X39781932Y-91641842D01*
X39669990Y-91371589D01*
X39507475Y-91128368D01*
X39300632Y-90921525D01*
X39057411Y-90759010D01*
X38787158Y-90647068D01*
X38500260Y-90590000D01*
X38207740Y-90590000D01*
X37920842Y-90647068D01*
X37650589Y-90759010D01*
X37407368Y-90921525D01*
X37200525Y-91128368D01*
X37038010Y-91371589D01*
X36926068Y-91641842D01*
X36869000Y-91928740D01*
X32660000Y-91928740D01*
X32660000Y-88685000D01*
X83474928Y-88685000D01*
X83478000Y-89249250D01*
X83636750Y-89408000D01*
X84836000Y-89408000D01*
X84836000Y-88208750D01*
X85090000Y-88208750D01*
X85090000Y-89408000D01*
X86289250Y-89408000D01*
X86448000Y-89249250D01*
X86451072Y-88685000D01*
X86438812Y-88560518D01*
X86402502Y-88440820D01*
X86343537Y-88330506D01*
X86264185Y-88233815D01*
X86167494Y-88154463D01*
X86057180Y-88095498D01*
X85937482Y-88059188D01*
X85813000Y-88046928D01*
X85248750Y-88050000D01*
X85090000Y-88208750D01*
X84836000Y-88208750D01*
X84677250Y-88050000D01*
X84113000Y-88046928D01*
X83988518Y-88059188D01*
X83868820Y-88095498D01*
X83758506Y-88154463D01*
X83661815Y-88233815D01*
X83582463Y-88330506D01*
X83523498Y-88440820D01*
X83487188Y-88560518D01*
X83474928Y-88685000D01*
X32660000Y-88685000D01*
X32660000Y-77000340D01*
X47654265Y-77000340D01*
X47900416Y-77392704D01*
X48402822Y-77658312D01*
X48947393Y-77820801D01*
X49513199Y-77873928D01*
X50078498Y-77815652D01*
X50621566Y-77648210D01*
X51099584Y-77392704D01*
X51345735Y-77000340D01*
X73654265Y-77000340D01*
X73900416Y-77392704D01*
X74402822Y-77658312D01*
X74947393Y-77820801D01*
X75513199Y-77873928D01*
X76078498Y-77815652D01*
X76621566Y-77648210D01*
X77099584Y-77392704D01*
X77345735Y-77000340D01*
X75500000Y-75154605D01*
X73654265Y-77000340D01*
X51345735Y-77000340D01*
X49500000Y-75154605D01*
X47654265Y-77000340D01*
X32660000Y-77000340D01*
X32660000Y-74988199D01*
X46601072Y-74988199D01*
X46659348Y-75553498D01*
X46826790Y-76096566D01*
X47082296Y-76574584D01*
X47474660Y-76820735D01*
X49320395Y-74975000D01*
X49679605Y-74975000D01*
X51525340Y-76820735D01*
X51917704Y-76574584D01*
X52183312Y-76072178D01*
X52345801Y-75527607D01*
X52396449Y-74988199D01*
X72601072Y-74988199D01*
X72659348Y-75553498D01*
X72826790Y-76096566D01*
X73082296Y-76574584D01*
X73474660Y-76820735D01*
X75320395Y-74975000D01*
X75679605Y-74975000D01*
X77525340Y-76820735D01*
X77917704Y-76574584D01*
X78183312Y-76072178D01*
X78345801Y-75527607D01*
X78398928Y-74961801D01*
X78340652Y-74396502D01*
X78173210Y-73853434D01*
X77917704Y-73375416D01*
X77525340Y-73129265D01*
X75679605Y-74975000D01*
X75320395Y-74975000D01*
X73474660Y-73129265D01*
X73082296Y-73375416D01*
X72816688Y-73877822D01*
X72654199Y-74422393D01*
X72601072Y-74988199D01*
X52396449Y-74988199D01*
X52398928Y-74961801D01*
X52340652Y-74396502D01*
X52173210Y-73853434D01*
X51917704Y-73375416D01*
X51525340Y-73129265D01*
X49679605Y-74975000D01*
X49320395Y-74975000D01*
X47474660Y-73129265D01*
X47082296Y-73375416D01*
X46816688Y-73877822D01*
X46654199Y-74422393D01*
X46601072Y-74988199D01*
X32660000Y-74988199D01*
X32660000Y-72949660D01*
X47654265Y-72949660D01*
X49500000Y-74795395D01*
X51345735Y-72949660D01*
X73654265Y-72949660D01*
X75500000Y-74795395D01*
X77345735Y-72949660D01*
X77099584Y-72557296D01*
X76597178Y-72291688D01*
X76052607Y-72129199D01*
X75486801Y-72076072D01*
X74921502Y-72134348D01*
X74378434Y-72301790D01*
X73900416Y-72557296D01*
X73654265Y-72949660D01*
X51345735Y-72949660D01*
X51099584Y-72557296D01*
X50597178Y-72291688D01*
X50052607Y-72129199D01*
X49486801Y-72076072D01*
X48921502Y-72134348D01*
X48378434Y-72301790D01*
X47900416Y-72557296D01*
X47654265Y-72949660D01*
X32660000Y-72949660D01*
X32660000Y-58910000D01*
X92340000Y-58910000D01*
X92340001Y-104590000D01*
G37*
X92340001Y-104590000D02*
X88032419Y-104590000D01*
X88000000Y-104586807D01*
X87967581Y-104590000D01*
X87870617Y-104599550D01*
X87746207Y-104637290D01*
X87631550Y-104698575D01*
X87531052Y-104781052D01*
X87448575Y-104881550D01*
X87387290Y-104996207D01*
X87349550Y-105120617D01*
X87336807Y-105250000D01*
X87340001Y-105282430D01*
X87340000Y-151032418D01*
X87340001Y-151032428D01*
X87340000Y-167340000D01*
X87032419Y-167340000D01*
X87000000Y-167336807D01*
X86967581Y-167340000D01*
X86870617Y-167349550D01*
X86746207Y-167387290D01*
X86631550Y-167448575D01*
X86531052Y-167531052D01*
X86448575Y-167631550D01*
X86387290Y-167746207D01*
X86349550Y-167870617D01*
X86336807Y-168000000D01*
X86340001Y-168032429D01*
X86340000Y-175840000D01*
X38660000Y-175840000D01*
X38660000Y-168032418D01*
X38663193Y-168000000D01*
X38650450Y-167870617D01*
X38612710Y-167746207D01*
X38551425Y-167631550D01*
X38468948Y-167531052D01*
X38368450Y-167448575D01*
X38253793Y-167387290D01*
X38129383Y-167349550D01*
X38032419Y-167340000D01*
X38000000Y-167336807D01*
X37967581Y-167340000D01*
X37660000Y-167340000D01*
X37660000Y-139200881D01*
X49478724Y-139200881D01*
X49838912Y-139690548D01*
X50502882Y-140050849D01*
X51224385Y-140274694D01*
X51975695Y-140353480D01*
X52727938Y-140284178D01*
X53452208Y-140069452D01*
X54120670Y-139717555D01*
X54161088Y-139690548D01*
X54521276Y-139200881D01*
X70478724Y-139200881D01*
X70838912Y-139690548D01*
X71502882Y-140050849D01*
X72224385Y-140274694D01*
X72975695Y-140353480D01*
X73727938Y-140284178D01*
X74452208Y-140069452D01*
X75120670Y-139717555D01*
X75161088Y-139690548D01*
X75521276Y-139200881D01*
X73000000Y-136679605D01*
X70478724Y-139200881D01*
X54521276Y-139200881D01*
X52000000Y-136679605D01*
X49478724Y-139200881D01*
X37660000Y-139200881D01*
X37660000Y-136475695D01*
X48146520Y-136475695D01*
X48215822Y-137227938D01*
X48430548Y-137952208D01*
X48782445Y-138620670D01*
X48809452Y-138661088D01*
X49299119Y-139021276D01*
X51820395Y-136500000D01*
X52179605Y-136500000D01*
X54700881Y-139021276D01*
X55190548Y-138661088D01*
X55550849Y-137997118D01*
X55774694Y-137275615D01*
X55853480Y-136524305D01*
X55849002Y-136475695D01*
X69146520Y-136475695D01*
X69215822Y-137227938D01*
X69430548Y-137952208D01*
X69782445Y-138620670D01*
X69809452Y-138661088D01*
X70299119Y-139021276D01*
X72820395Y-136500000D01*
X73179605Y-136500000D01*
X75700881Y-139021276D01*
X76190548Y-138661088D01*
X76550849Y-137997118D01*
X76774694Y-137275615D01*
X76853480Y-136524305D01*
X76784178Y-135772062D01*
X76569452Y-135047792D01*
X76217555Y-134379330D01*
X76190548Y-134338912D01*
X75700881Y-133978724D01*
X73179605Y-136500000D01*
X72820395Y-136500000D01*
X70299119Y-133978724D01*
X69809452Y-134338912D01*
X69449151Y-135002882D01*
X69225306Y-135724385D01*
X69146520Y-136475695D01*
X55849002Y-136475695D01*
X55784178Y-135772062D01*
X55569452Y-135047792D01*
X55217555Y-134379330D01*
X55190548Y-134338912D01*
X54700881Y-133978724D01*
X52179605Y-136500000D01*
X51820395Y-136500000D01*
X49299119Y-133978724D01*
X48809452Y-134338912D01*
X48449151Y-135002882D01*
X48225306Y-135724385D01*
X48146520Y-136475695D01*
X37660000Y-136475695D01*
X37660000Y-133799119D01*
X49478724Y-133799119D01*
X52000000Y-136320395D01*
X54521276Y-133799119D01*
X70478724Y-133799119D01*
X73000000Y-136320395D01*
X75521276Y-133799119D01*
X75161088Y-133309452D01*
X74497118Y-132949151D01*
X73775615Y-132725306D01*
X73024305Y-132646520D01*
X72272062Y-132715822D01*
X71547792Y-132930548D01*
X70879330Y-133282445D01*
X70838912Y-133309452D01*
X70478724Y-133799119D01*
X54521276Y-133799119D01*
X54161088Y-133309452D01*
X53497118Y-132949151D01*
X52775615Y-132725306D01*
X52024305Y-132646520D01*
X51272062Y-132715822D01*
X50547792Y-132930548D01*
X49879330Y-133282445D01*
X49838912Y-133309452D01*
X49478724Y-133799119D01*
X37660000Y-133799119D01*
X37660000Y-129125000D01*
X39161928Y-129125000D01*
X39174188Y-129249482D01*
X39210498Y-129369180D01*
X39269463Y-129479494D01*
X39348815Y-129576185D01*
X39445506Y-129655537D01*
X39555820Y-129714502D01*
X39675518Y-129750812D01*
X39800000Y-129763072D01*
X40214250Y-129760000D01*
X40373000Y-129601250D01*
X40373000Y-128677000D01*
X40627000Y-128677000D01*
X40627000Y-129601250D01*
X40785750Y-129760000D01*
X41200000Y-129763072D01*
X41324482Y-129750812D01*
X41444180Y-129714502D01*
X41554494Y-129655537D01*
X41588048Y-129628000D01*
X42072928Y-129628000D01*
X42085188Y-129752482D01*
X42121498Y-129872180D01*
X42180463Y-129982494D01*
X42259815Y-130079185D01*
X42356506Y-130158537D01*
X42466820Y-130217502D01*
X42586518Y-130253812D01*
X42711000Y-130266072D01*
X43275250Y-130263000D01*
X43434000Y-130104250D01*
X43434000Y-128905000D01*
X42234750Y-128905000D01*
X42076000Y-129063750D01*
X42072928Y-129628000D01*
X41588048Y-129628000D01*
X41651185Y-129576185D01*
X41730537Y-129479494D01*
X41789502Y-129369180D01*
X41825812Y-129249482D01*
X41838072Y-129125000D01*
X41835000Y-128835750D01*
X41676250Y-128677000D01*
X40627000Y-128677000D01*
X40373000Y-128677000D01*
X39323750Y-128677000D01*
X39165000Y-128835750D01*
X39161928Y-129125000D01*
X37660000Y-129125000D01*
X37660000Y-105282419D01*
X37663193Y-105250000D01*
X37650450Y-105120617D01*
X37612710Y-104996207D01*
X37551425Y-104881550D01*
X37468948Y-104781052D01*
X37368450Y-104698575D01*
X37253793Y-104637290D01*
X37129383Y-104599550D01*
X37032419Y-104590000D01*
X37000000Y-104586807D01*
X36967581Y-104590000D01*
X32660000Y-104590000D01*
X32660000Y-91928740D01*
X36869000Y-91928740D01*
X36869000Y-92221260D01*
X36926068Y-92508158D01*
X37038010Y-92778411D01*
X37200525Y-93021632D01*
X37407368Y-93228475D01*
X37581760Y-93345000D01*
X37407368Y-93461525D01*
X37200525Y-93668368D01*
X37038010Y-93911589D01*
X36926068Y-94181842D01*
X36869000Y-94468740D01*
X36869000Y-94761260D01*
X36926068Y-95048158D01*
X37038010Y-95318411D01*
X37200525Y-95561632D01*
X37407368Y-95768475D01*
X37581760Y-95885000D01*
X37407368Y-96001525D01*
X37200525Y-96208368D01*
X37038010Y-96451589D01*
X36926068Y-96721842D01*
X36869000Y-97008740D01*
X36869000Y-97301260D01*
X36926068Y-97588158D01*
X37038010Y-97858411D01*
X37200525Y-98101632D01*
X37407368Y-98308475D01*
X37581760Y-98425000D01*
X37407368Y-98541525D01*
X37200525Y-98748368D01*
X37038010Y-98991589D01*
X36926068Y-99261842D01*
X36869000Y-99548740D01*
X36869000Y-99841260D01*
X36926068Y-100128158D01*
X37038010Y-100398411D01*
X37200525Y-100641632D01*
X37407368Y-100848475D01*
X37581760Y-100965000D01*
X37407368Y-101081525D01*
X37200525Y-101288368D01*
X37038010Y-101531589D01*
X36926068Y-101801842D01*
X36869000Y-102088740D01*
X36869000Y-102381260D01*
X36926068Y-102668158D01*
X37038010Y-102938411D01*
X37200525Y-103181632D01*
X37407368Y-103388475D01*
X37650589Y-103550990D01*
X37920842Y-103662932D01*
X38207740Y-103720000D01*
X38500260Y-103720000D01*
X38787158Y-103662932D01*
X39057411Y-103550990D01*
X39300632Y-103388475D01*
X39507475Y-103181632D01*
X39669990Y-102938411D01*
X39781932Y-102668158D01*
X39839000Y-102381260D01*
X39839000Y-102088740D01*
X39795209Y-101868592D01*
X42732802Y-98931000D01*
X62042199Y-98931000D01*
X63861198Y-100750000D01*
X63734740Y-100750000D01*
X63447842Y-100807068D01*
X63177589Y-100919010D01*
X62934368Y-101081525D01*
X62727525Y-101288368D01*
X62611000Y-101462760D01*
X62494475Y-101288368D01*
X62287632Y-101081525D01*
X62044411Y-100919010D01*
X61774158Y-100807068D01*
X61487260Y-100750000D01*
X61194740Y-100750000D01*
X60907842Y-100807068D01*
X60637589Y-100919010D01*
X60394368Y-101081525D01*
X60187525Y-101288368D01*
X60071000Y-101462760D01*
X59954475Y-101288368D01*
X59747632Y-101081525D01*
X59504411Y-100919010D01*
X59234158Y-100807068D01*
X58947260Y-100750000D01*
X58654740Y-100750000D01*
X58367842Y-100807068D01*
X58097589Y-100919010D01*
X57854368Y-101081525D01*
X57647525Y-101288368D01*
X57531000Y-101462760D01*
X57414475Y-101288368D01*
X57207632Y-101081525D01*
X56964411Y-100919010D01*
X56694158Y-100807068D01*
X56407260Y-100750000D01*
X56114740Y-100750000D01*
X55827842Y-100807068D01*
X55557589Y-100919010D01*
X55314368Y-101081525D01*
X55107525Y-101288368D01*
X54991000Y-101462760D01*
X54874475Y-101288368D01*
X54667632Y-101081525D01*
X54424411Y-100919010D01*
X54154158Y-100807068D01*
X53867260Y-100750000D01*
X53574740Y-100750000D01*
X53287842Y-100807068D01*
X53017589Y-100919010D01*
X52774368Y-101081525D01*
X52567525Y-101288368D01*
X52451000Y-101462760D01*
X52334475Y-101288368D01*
X52127632Y-101081525D01*
X51884411Y-100919010D01*
X51614158Y-100807068D01*
X51327260Y-100750000D01*
X51034740Y-100750000D01*
X50747842Y-100807068D01*
X50477589Y-100919010D01*
X50234368Y-101081525D01*
X50027525Y-101288368D01*
X49911000Y-101462760D01*
X49794475Y-101288368D01*
X49587632Y-101081525D01*
X49344411Y-100919010D01*
X49074158Y-100807068D01*
X48787260Y-100750000D01*
X48494740Y-100750000D01*
X48207842Y-100807068D01*
X47937589Y-100919010D01*
X47694368Y-101081525D01*
X47487525Y-101288368D01*
X47371000Y-101462760D01*
X47254475Y-101288368D01*
X47047632Y-101081525D01*
X46804411Y-100919010D01*
X46534158Y-100807068D01*
X46247260Y-100750000D01*
X45954740Y-100750000D01*
X45667842Y-100807068D01*
X45397589Y-100919010D01*
X45154368Y-101081525D01*
X44947525Y-101288368D01*
X44785010Y-101531589D01*
X44673068Y-101801842D01*
X44616000Y-102088740D01*
X44616000Y-102381260D01*
X44673068Y-102668158D01*
X44785010Y-102938411D01*
X44947525Y-103181632D01*
X45154368Y-103388475D01*
X45341000Y-103513179D01*
X45341001Y-115278668D01*
X45337324Y-115316000D01*
X45341001Y-115353333D01*
X45349218Y-115436755D01*
X45351998Y-115464985D01*
X45395454Y-115608246D01*
X45466026Y-115740276D01*
X45537201Y-115827002D01*
X45561000Y-115856001D01*
X45589998Y-115879799D01*
X45742430Y-116032231D01*
X45667842Y-116047068D01*
X45397589Y-116159010D01*
X45154368Y-116321525D01*
X44947525Y-116528368D01*
X44785010Y-116771589D01*
X44673068Y-117041842D01*
X44616000Y-117328740D01*
X44616000Y-117621260D01*
X44673068Y-117908158D01*
X44785010Y-118178411D01*
X44947525Y-118421632D01*
X45154368Y-118628475D01*
X45397589Y-118790990D01*
X45667842Y-118902932D01*
X45954740Y-118960000D01*
X46247260Y-118960000D01*
X46467408Y-118916209D01*
X52705046Y-125153847D01*
X52567525Y-125291368D01*
X52451000Y-125465760D01*
X52334475Y-125291368D01*
X52127632Y-125084525D01*
X51884411Y-124922010D01*
X51614158Y-124810068D01*
X51327260Y-124753000D01*
X51034740Y-124753000D01*
X50747842Y-124810068D01*
X50477589Y-124922010D01*
X50234368Y-125084525D01*
X50027525Y-125291368D01*
X49911000Y-125465760D01*
X49794475Y-125291368D01*
X49587632Y-125084525D01*
X49344411Y-124922010D01*
X49074158Y-124810068D01*
X48787260Y-124753000D01*
X48494740Y-124753000D01*
X48207842Y-124810068D01*
X47937589Y-124922010D01*
X47694368Y-125084525D01*
X47487525Y-125291368D01*
X47371000Y-125465760D01*
X47254475Y-125291368D01*
X47047632Y-125084525D01*
X46804411Y-124922010D01*
X46534158Y-124810068D01*
X46247260Y-124753000D01*
X45954740Y-124753000D01*
X45667842Y-124810068D01*
X45397589Y-124922010D01*
X45154368Y-125084525D01*
X44947525Y-125291368D01*
X44831000Y-125465760D01*
X44714475Y-125291368D01*
X44507632Y-125084525D01*
X44264411Y-124922010D01*
X43994158Y-124810068D01*
X43707260Y-124753000D01*
X43414740Y-124753000D01*
X43127842Y-124810068D01*
X42857589Y-124922010D01*
X42614368Y-125084525D01*
X42407525Y-125291368D01*
X42282822Y-125478000D01*
X41493839Y-125478000D01*
X41443387Y-125436595D01*
X41289851Y-125354528D01*
X41123255Y-125303992D01*
X40950001Y-125286928D01*
X40049999Y-125286928D01*
X39876745Y-125303992D01*
X39710149Y-125354528D01*
X39556613Y-125436595D01*
X39422038Y-125547038D01*
X39311595Y-125681613D01*
X39229528Y-125835149D01*
X39178992Y-126001745D01*
X39161928Y-126174999D01*
X39161928Y-126825001D01*
X39178992Y-126998255D01*
X39229528Y-127164851D01*
X39311595Y-127318387D01*
X39422038Y-127452962D01*
X39428594Y-127458342D01*
X39348815Y-127523815D01*
X39269463Y-127620506D01*
X39210498Y-127730820D01*
X39174188Y-127850518D01*
X39161928Y-127975000D01*
X39165000Y-128264250D01*
X39323750Y-128423000D01*
X40373000Y-128423000D01*
X40373000Y-128403000D01*
X40627000Y-128403000D01*
X40627000Y-128423000D01*
X41676250Y-128423000D01*
X41835000Y-128264250D01*
X41838072Y-127975000D01*
X41825812Y-127850518D01*
X41789502Y-127730820D01*
X41730537Y-127620506D01*
X41651185Y-127523815D01*
X41571406Y-127458342D01*
X41577962Y-127452962D01*
X41688405Y-127318387D01*
X41770472Y-127164851D01*
X41821008Y-126998255D01*
X41821033Y-126998000D01*
X42282822Y-126998000D01*
X42407525Y-127184632D01*
X42539380Y-127316487D01*
X42466820Y-127338498D01*
X42356506Y-127397463D01*
X42259815Y-127476815D01*
X42180463Y-127573506D01*
X42121498Y-127683820D01*
X42085188Y-127803518D01*
X42072928Y-127928000D01*
X42076000Y-128492250D01*
X42234750Y-128651000D01*
X43434000Y-128651000D01*
X43434000Y-128631000D01*
X43688000Y-128631000D01*
X43688000Y-128651000D01*
X43708000Y-128651000D01*
X43708000Y-128905000D01*
X43688000Y-128905000D01*
X43688000Y-130104250D01*
X43846750Y-130263000D01*
X44411000Y-130266072D01*
X44535482Y-130253812D01*
X44655180Y-130217502D01*
X44765494Y-130158537D01*
X44862185Y-130079185D01*
X44941537Y-129982494D01*
X45000502Y-129872180D01*
X45022513Y-129799620D01*
X45154368Y-129931475D01*
X45397589Y-130093990D01*
X45667842Y-130205932D01*
X45954740Y-130263000D01*
X46247260Y-130263000D01*
X46534158Y-130205932D01*
X46804411Y-130093990D01*
X47047632Y-129931475D01*
X47254475Y-129724632D01*
X47371000Y-129550240D01*
X47487525Y-129724632D01*
X47694368Y-129931475D01*
X47937589Y-130093990D01*
X48207842Y-130205932D01*
X48494740Y-130263000D01*
X48787260Y-130263000D01*
X49074158Y-130205932D01*
X49344411Y-130093990D01*
X49587632Y-129931475D01*
X49794475Y-129724632D01*
X49911000Y-129550240D01*
X50027525Y-129724632D01*
X50234368Y-129931475D01*
X50477589Y-130093990D01*
X50747842Y-130205932D01*
X51034740Y-130263000D01*
X51327260Y-130263000D01*
X51614158Y-130205932D01*
X51884411Y-130093990D01*
X52127632Y-129931475D01*
X52334475Y-129724632D01*
X52451000Y-129550240D01*
X52567525Y-129724632D01*
X52774368Y-129931475D01*
X53017589Y-130093990D01*
X53287842Y-130205932D01*
X53574740Y-130263000D01*
X53867260Y-130263000D01*
X54154158Y-130205932D01*
X54424411Y-130093990D01*
X54667632Y-129931475D01*
X54874475Y-129724632D01*
X54991000Y-129550240D01*
X55107525Y-129724632D01*
X55314368Y-129931475D01*
X55557589Y-130093990D01*
X55827842Y-130205932D01*
X56114740Y-130263000D01*
X56407260Y-130263000D01*
X56694158Y-130205932D01*
X56964411Y-130093990D01*
X57207632Y-129931475D01*
X57414475Y-129724632D01*
X57531000Y-129550240D01*
X57647525Y-129724632D01*
X57854368Y-129931475D01*
X58097589Y-130093990D01*
X58367842Y-130205932D01*
X58654740Y-130263000D01*
X58947260Y-130263000D01*
X59234158Y-130205932D01*
X59504411Y-130093990D01*
X59747632Y-129931475D01*
X59954475Y-129724632D01*
X60071000Y-129550240D01*
X60187525Y-129724632D01*
X60394368Y-129931475D01*
X60637589Y-130093990D01*
X60907842Y-130205932D01*
X61194740Y-130263000D01*
X61487260Y-130263000D01*
X61774158Y-130205932D01*
X62044411Y-130093990D01*
X62287632Y-129931475D01*
X62494475Y-129724632D01*
X62611000Y-129550240D01*
X62727525Y-129724632D01*
X62934368Y-129931475D01*
X63177589Y-130093990D01*
X63447842Y-130205932D01*
X63734740Y-130263000D01*
X64027260Y-130263000D01*
X64314158Y-130205932D01*
X64584411Y-130093990D01*
X64827632Y-129931475D01*
X65034475Y-129724632D01*
X65151000Y-129550240D01*
X65267525Y-129724632D01*
X65474368Y-129931475D01*
X65717589Y-130093990D01*
X65987842Y-130205932D01*
X66274740Y-130263000D01*
X66567260Y-130263000D01*
X66854158Y-130205932D01*
X67124411Y-130093990D01*
X67367632Y-129931475D01*
X67574475Y-129724632D01*
X67691000Y-129550240D01*
X67807525Y-129724632D01*
X68014368Y-129931475D01*
X68257589Y-130093990D01*
X68527842Y-130205932D01*
X68814740Y-130263000D01*
X69107260Y-130263000D01*
X69394158Y-130205932D01*
X69664411Y-130093990D01*
X69907632Y-129931475D01*
X70114475Y-129724632D01*
X70231000Y-129550240D01*
X70347525Y-129724632D01*
X70554368Y-129931475D01*
X70797589Y-130093990D01*
X71067842Y-130205932D01*
X71354740Y-130263000D01*
X71647260Y-130263000D01*
X71934158Y-130205932D01*
X72204411Y-130093990D01*
X72447632Y-129931475D01*
X72654475Y-129724632D01*
X72771000Y-129550240D01*
X72887525Y-129724632D01*
X73094368Y-129931475D01*
X73337589Y-130093990D01*
X73607842Y-130205932D01*
X73894740Y-130263000D01*
X74187260Y-130263000D01*
X74474158Y-130205932D01*
X74744411Y-130093990D01*
X74987632Y-129931475D01*
X75194475Y-129724632D01*
X75311000Y-129550240D01*
X75427525Y-129724632D01*
X75634368Y-129931475D01*
X75877589Y-130093990D01*
X76147842Y-130205932D01*
X76434740Y-130263000D01*
X76727260Y-130263000D01*
X77014158Y-130205932D01*
X77284411Y-130093990D01*
X77527632Y-129931475D01*
X77734475Y-129724632D01*
X77851000Y-129550240D01*
X77967525Y-129724632D01*
X78174368Y-129931475D01*
X78417589Y-130093990D01*
X78687842Y-130205932D01*
X78974740Y-130263000D01*
X79267260Y-130263000D01*
X79554158Y-130205932D01*
X79824411Y-130093990D01*
X80067632Y-129931475D01*
X80274475Y-129724632D01*
X80391000Y-129550240D01*
X80507525Y-129724632D01*
X80714368Y-129931475D01*
X80957589Y-130093990D01*
X81227842Y-130205932D01*
X81514740Y-130263000D01*
X81807260Y-130263000D01*
X82094158Y-130205932D01*
X82364411Y-130093990D01*
X82607632Y-129931475D01*
X82814475Y-129724632D01*
X82976990Y-129481411D01*
X83088932Y-129211158D01*
X83106070Y-129125000D01*
X83661928Y-129125000D01*
X83674188Y-129249482D01*
X83710498Y-129369180D01*
X83769463Y-129479494D01*
X83848815Y-129576185D01*
X83945506Y-129655537D01*
X84055820Y-129714502D01*
X84175518Y-129750812D01*
X84300000Y-129763072D01*
X84714250Y-129760000D01*
X84873000Y-129601250D01*
X84873000Y-128677000D01*
X85127000Y-128677000D01*
X85127000Y-129601250D01*
X85285750Y-129760000D01*
X85700000Y-129763072D01*
X85824482Y-129750812D01*
X85944180Y-129714502D01*
X86054494Y-129655537D01*
X86151185Y-129576185D01*
X86230537Y-129479494D01*
X86289502Y-129369180D01*
X86325812Y-129249482D01*
X86338072Y-129125000D01*
X86335000Y-128835750D01*
X86176250Y-128677000D01*
X85127000Y-128677000D01*
X84873000Y-128677000D01*
X83823750Y-128677000D01*
X83665000Y-128835750D01*
X83661928Y-129125000D01*
X83106070Y-129125000D01*
X83146000Y-128924260D01*
X83146000Y-128631740D01*
X83088932Y-128344842D01*
X82976990Y-128074589D01*
X82814475Y-127831368D01*
X82607632Y-127624525D01*
X82436233Y-127510000D01*
X83865649Y-127510000D01*
X83848815Y-127523815D01*
X83769463Y-127620506D01*
X83710498Y-127730820D01*
X83674188Y-127850518D01*
X83661928Y-127975000D01*
X83665000Y-128264250D01*
X83823750Y-128423000D01*
X84873000Y-128423000D01*
X84873000Y-128403000D01*
X85127000Y-128403000D01*
X85127000Y-128423000D01*
X86176250Y-128423000D01*
X86335000Y-128264250D01*
X86338072Y-127975000D01*
X86325812Y-127850518D01*
X86289502Y-127730820D01*
X86230537Y-127620506D01*
X86151185Y-127523815D01*
X86071406Y-127458342D01*
X86077962Y-127452962D01*
X86188405Y-127318387D01*
X86270472Y-127164851D01*
X86321008Y-126998255D01*
X86338072Y-126825001D01*
X86338072Y-126174999D01*
X86321008Y-126001745D01*
X86270472Y-125835149D01*
X86188405Y-125681613D01*
X86077962Y-125547038D01*
X86010000Y-125491263D01*
X86010000Y-103288107D01*
X86116475Y-103181632D01*
X86278990Y-102938411D01*
X86390932Y-102668158D01*
X86448000Y-102381260D01*
X86448000Y-102088740D01*
X86390932Y-101801842D01*
X86278990Y-101531589D01*
X86116475Y-101288368D01*
X85973000Y-101144893D01*
X85973000Y-100785107D01*
X86116475Y-100641632D01*
X86278990Y-100398411D01*
X86390932Y-100128158D01*
X86448000Y-99841260D01*
X86448000Y-99548740D01*
X86390932Y-99261842D01*
X86278990Y-98991589D01*
X86116475Y-98748368D01*
X85909632Y-98541525D01*
X85735240Y-98425000D01*
X85909632Y-98308475D01*
X86116475Y-98101632D01*
X86278990Y-97858411D01*
X86390932Y-97588158D01*
X86448000Y-97301260D01*
X86448000Y-97008740D01*
X86390932Y-96721842D01*
X86278990Y-96451589D01*
X86116475Y-96208368D01*
X85909632Y-96001525D01*
X85735240Y-95885000D01*
X85909632Y-95768475D01*
X86116475Y-95561632D01*
X86278990Y-95318411D01*
X86390932Y-95048158D01*
X86448000Y-94761260D01*
X86448000Y-94468740D01*
X86390932Y-94181842D01*
X86278990Y-93911589D01*
X86116475Y-93668368D01*
X85909632Y-93461525D01*
X85735240Y-93345000D01*
X85909632Y-93228475D01*
X86116475Y-93021632D01*
X86278990Y-92778411D01*
X86390932Y-92508158D01*
X86448000Y-92221260D01*
X86448000Y-91928740D01*
X86390932Y-91641842D01*
X86278990Y-91371589D01*
X86116475Y-91128368D01*
X85984620Y-90996513D01*
X86057180Y-90974502D01*
X86167494Y-90915537D01*
X86264185Y-90836185D01*
X86343537Y-90739494D01*
X86402502Y-90629180D01*
X86438812Y-90509482D01*
X86451072Y-90385000D01*
X86448000Y-89820750D01*
X86289250Y-89662000D01*
X85090000Y-89662000D01*
X85090000Y-89682000D01*
X84836000Y-89682000D01*
X84836000Y-89662000D01*
X83636750Y-89662000D01*
X83478000Y-89820750D01*
X83474928Y-90385000D01*
X83487188Y-90509482D01*
X83523498Y-90629180D01*
X83582463Y-90739494D01*
X83661815Y-90836185D01*
X83758506Y-90915537D01*
X83868820Y-90974502D01*
X83941380Y-90996513D01*
X83809525Y-91128368D01*
X83647010Y-91371589D01*
X83535068Y-91641842D01*
X83478000Y-91928740D01*
X83478000Y-92221260D01*
X83535068Y-92508158D01*
X83647010Y-92778411D01*
X83809525Y-93021632D01*
X84016368Y-93228475D01*
X84190760Y-93345000D01*
X84016368Y-93461525D01*
X83809525Y-93668368D01*
X83647010Y-93911589D01*
X83535068Y-94181842D01*
X83478000Y-94468740D01*
X83478000Y-94761260D01*
X83535068Y-95048158D01*
X83647010Y-95318411D01*
X83809525Y-95561632D01*
X84016368Y-95768475D01*
X84190760Y-95885000D01*
X84016368Y-96001525D01*
X83809525Y-96208368D01*
X83647010Y-96451589D01*
X83535068Y-96721842D01*
X83478000Y-97008740D01*
X83478000Y-97301260D01*
X83535068Y-97588158D01*
X83647010Y-97858411D01*
X83809525Y-98101632D01*
X84016368Y-98308475D01*
X84190760Y-98425000D01*
X84016368Y-98541525D01*
X83809525Y-98748368D01*
X83647010Y-98991589D01*
X83535068Y-99261842D01*
X83478000Y-99548740D01*
X83478000Y-99841260D01*
X83535068Y-100128158D01*
X83647010Y-100398411D01*
X83809525Y-100641632D01*
X83953000Y-100785107D01*
X83953000Y-101082526D01*
X83953001Y-101082535D01*
X83953001Y-101144892D01*
X83809525Y-101288368D01*
X83647010Y-101531589D01*
X83535068Y-101801842D01*
X83478000Y-102088740D01*
X83478000Y-102381260D01*
X83535068Y-102668158D01*
X83647010Y-102938411D01*
X83809525Y-103181632D01*
X83990001Y-103362108D01*
X83990000Y-125490000D01*
X82947197Y-125490000D01*
X82814475Y-125291368D01*
X82607632Y-125084525D01*
X82364411Y-124922010D01*
X82094158Y-124810068D01*
X81807260Y-124753000D01*
X81514740Y-124753000D01*
X81227842Y-124810068D01*
X80957589Y-124922010D01*
X80714368Y-125084525D01*
X80507525Y-125291368D01*
X80391000Y-125465760D01*
X80274475Y-125291368D01*
X80067632Y-125084525D01*
X79824411Y-124922010D01*
X79554158Y-124810068D01*
X79267260Y-124753000D01*
X78974740Y-124753000D01*
X78687842Y-124810068D01*
X78417589Y-124922010D01*
X78174368Y-125084525D01*
X77967525Y-125291368D01*
X77851000Y-125465760D01*
X77734475Y-125291368D01*
X77527632Y-125084525D01*
X77284411Y-124922010D01*
X77014158Y-124810068D01*
X76727260Y-124753000D01*
X76434740Y-124753000D01*
X76147842Y-124810068D01*
X75877589Y-124922010D01*
X75634368Y-125084525D01*
X75427525Y-125291368D01*
X75311000Y-125465760D01*
X75194475Y-125291368D01*
X74987632Y-125084525D01*
X74744411Y-124922010D01*
X74474158Y-124810068D01*
X74187260Y-124753000D01*
X73894740Y-124753000D01*
X73607842Y-124810068D01*
X73337589Y-124922010D01*
X73134508Y-125057704D01*
X66942955Y-118866151D01*
X67124411Y-118790990D01*
X67367632Y-118628475D01*
X67574475Y-118421632D01*
X67691000Y-118247240D01*
X67807525Y-118421632D01*
X68014368Y-118628475D01*
X68257589Y-118790990D01*
X68527842Y-118902932D01*
X68814740Y-118960000D01*
X69107260Y-118960000D01*
X69394158Y-118902932D01*
X69664411Y-118790990D01*
X69907632Y-118628475D01*
X70114475Y-118421632D01*
X70231000Y-118247240D01*
X70347525Y-118421632D01*
X70554368Y-118628475D01*
X70797589Y-118790990D01*
X71067842Y-118902932D01*
X71354740Y-118960000D01*
X71647260Y-118960000D01*
X71934158Y-118902932D01*
X72204411Y-118790990D01*
X72447632Y-118628475D01*
X72654475Y-118421632D01*
X72771000Y-118247240D01*
X72887525Y-118421632D01*
X73094368Y-118628475D01*
X73337589Y-118790990D01*
X73607842Y-118902932D01*
X73894740Y-118960000D01*
X74187260Y-118960000D01*
X74474158Y-118902932D01*
X74744411Y-118790990D01*
X74987632Y-118628475D01*
X75119487Y-118496620D01*
X75141498Y-118569180D01*
X75200463Y-118679494D01*
X75279815Y-118776185D01*
X75376506Y-118855537D01*
X75486820Y-118914502D01*
X75606518Y-118950812D01*
X75731000Y-118963072D01*
X76295250Y-118960000D01*
X76454000Y-118801250D01*
X76454000Y-117602000D01*
X76434000Y-117602000D01*
X76434000Y-117348000D01*
X76454000Y-117348000D01*
X76454000Y-116148750D01*
X76708000Y-116148750D01*
X76708000Y-117348000D01*
X76728000Y-117348000D01*
X76728000Y-117602000D01*
X76708000Y-117602000D01*
X76708000Y-118801250D01*
X76866750Y-118960000D01*
X77431000Y-118963072D01*
X77555482Y-118950812D01*
X77675180Y-118914502D01*
X77785494Y-118855537D01*
X77882185Y-118776185D01*
X77961537Y-118679494D01*
X78020502Y-118569180D01*
X78042513Y-118496620D01*
X78174368Y-118628475D01*
X78417589Y-118790990D01*
X78687842Y-118902932D01*
X78974740Y-118960000D01*
X79267260Y-118960000D01*
X79554158Y-118902932D01*
X79824411Y-118790990D01*
X80067632Y-118628475D01*
X80274475Y-118421632D01*
X80436990Y-118178411D01*
X80548932Y-117908158D01*
X80606000Y-117621260D01*
X80606000Y-117328740D01*
X80548932Y-117041842D01*
X80436990Y-116771589D01*
X80274475Y-116528368D01*
X80067632Y-116321525D01*
X79824411Y-116159010D01*
X79554158Y-116047068D01*
X79267260Y-115990000D01*
X78974740Y-115990000D01*
X78687842Y-116047068D01*
X78417589Y-116159010D01*
X78174368Y-116321525D01*
X78042513Y-116453380D01*
X78020502Y-116380820D01*
X77961537Y-116270506D01*
X77882185Y-116173815D01*
X77785494Y-116094463D01*
X77675180Y-116035498D01*
X77555482Y-115999188D01*
X77431000Y-115986928D01*
X76866750Y-115990000D01*
X76708000Y-116148750D01*
X76454000Y-116148750D01*
X76295250Y-115990000D01*
X75731000Y-115986928D01*
X75606518Y-115999188D01*
X75486820Y-116035498D01*
X75376506Y-116094463D01*
X75279815Y-116173815D01*
X75200463Y-116270506D01*
X75141498Y-116380820D01*
X75119487Y-116453380D01*
X74987632Y-116321525D01*
X74744411Y-116159010D01*
X74474158Y-116047068D01*
X74187260Y-115990000D01*
X73894740Y-115990000D01*
X73607842Y-116047068D01*
X73337589Y-116159010D01*
X73094368Y-116321525D01*
X72887525Y-116528368D01*
X72771000Y-116702760D01*
X72654475Y-116528368D01*
X72447632Y-116321525D01*
X72204411Y-116159010D01*
X71934158Y-116047068D01*
X71647260Y-115990000D01*
X71354740Y-115990000D01*
X71067842Y-116047068D01*
X70797589Y-116159010D01*
X70554368Y-116321525D01*
X70347525Y-116528368D01*
X70231000Y-116702760D01*
X70114475Y-116528368D01*
X69907632Y-116321525D01*
X69664411Y-116159010D01*
X69394158Y-116047068D01*
X69107260Y-115990000D01*
X68814740Y-115990000D01*
X68527842Y-116047068D01*
X68257589Y-116159010D01*
X68014368Y-116321525D01*
X67807525Y-116528368D01*
X67691000Y-116702760D01*
X67574475Y-116528368D01*
X67367632Y-116321525D01*
X67124411Y-116159010D01*
X66854158Y-116047068D01*
X66567260Y-115990000D01*
X66274740Y-115990000D01*
X65987842Y-116047068D01*
X65717589Y-116159010D01*
X65474368Y-116321525D01*
X65267525Y-116528368D01*
X65151000Y-116702760D01*
X65034475Y-116528368D01*
X64827632Y-116321525D01*
X64584411Y-116159010D01*
X64314158Y-116047068D01*
X64027260Y-115990000D01*
X63734740Y-115990000D01*
X63447842Y-116047068D01*
X63177589Y-116159010D01*
X62997886Y-116279084D01*
X62101000Y-115382199D01*
X62101000Y-103513178D01*
X62287632Y-103388475D01*
X62494475Y-103181632D01*
X62611000Y-103007240D01*
X62727525Y-103181632D01*
X62934368Y-103388475D01*
X63177589Y-103550990D01*
X63447842Y-103662932D01*
X63734740Y-103720000D01*
X64027260Y-103720000D01*
X64314158Y-103662932D01*
X64584411Y-103550990D01*
X64827632Y-103388475D01*
X65034475Y-103181632D01*
X65151000Y-103007240D01*
X65267525Y-103181632D01*
X65474368Y-103388475D01*
X65717589Y-103550990D01*
X65987842Y-103662932D01*
X66274740Y-103720000D01*
X66567260Y-103720000D01*
X66854158Y-103662932D01*
X67124411Y-103550990D01*
X67367632Y-103388475D01*
X67574475Y-103181632D01*
X67691000Y-103007240D01*
X67807525Y-103181632D01*
X68014368Y-103388475D01*
X68257589Y-103550990D01*
X68527842Y-103662932D01*
X68814740Y-103720000D01*
X69107260Y-103720000D01*
X69394158Y-103662932D01*
X69664411Y-103550990D01*
X69907632Y-103388475D01*
X70114475Y-103181632D01*
X70231000Y-103007240D01*
X70347525Y-103181632D01*
X70554368Y-103388475D01*
X70797589Y-103550990D01*
X71067842Y-103662932D01*
X71354740Y-103720000D01*
X71647260Y-103720000D01*
X71934158Y-103662932D01*
X72204411Y-103550990D01*
X72447632Y-103388475D01*
X72654475Y-103181632D01*
X72771000Y-103007240D01*
X72887525Y-103181632D01*
X73094368Y-103388475D01*
X73337589Y-103550990D01*
X73607842Y-103662932D01*
X73894740Y-103720000D01*
X74187260Y-103720000D01*
X74474158Y-103662932D01*
X74744411Y-103550990D01*
X74987632Y-103388475D01*
X75194475Y-103181632D01*
X75311000Y-103007240D01*
X75427525Y-103181632D01*
X75634368Y-103388475D01*
X75877589Y-103550990D01*
X76147842Y-103662932D01*
X76434740Y-103720000D01*
X76727260Y-103720000D01*
X77014158Y-103662932D01*
X77284411Y-103550990D01*
X77527632Y-103388475D01*
X77659487Y-103256620D01*
X77681498Y-103329180D01*
X77740463Y-103439494D01*
X77819815Y-103536185D01*
X77916506Y-103615537D01*
X78026820Y-103674502D01*
X78146518Y-103710812D01*
X78271000Y-103723072D01*
X78835250Y-103720000D01*
X78994000Y-103561250D01*
X78994000Y-102362000D01*
X79248000Y-102362000D01*
X79248000Y-103561250D01*
X79406750Y-103720000D01*
X79971000Y-103723072D01*
X80095482Y-103710812D01*
X80215180Y-103674502D01*
X80325494Y-103615537D01*
X80422185Y-103536185D01*
X80501537Y-103439494D01*
X80560502Y-103329180D01*
X80596812Y-103209482D01*
X80609072Y-103085000D01*
X80606000Y-102520750D01*
X80447250Y-102362000D01*
X79248000Y-102362000D01*
X78994000Y-102362000D01*
X78974000Y-102362000D01*
X78974000Y-102108000D01*
X78994000Y-102108000D01*
X78994000Y-100908750D01*
X79248000Y-100908750D01*
X79248000Y-102108000D01*
X80447250Y-102108000D01*
X80606000Y-101949250D01*
X80609072Y-101385000D01*
X80596812Y-101260518D01*
X80560502Y-101140820D01*
X80501537Y-101030506D01*
X80422185Y-100933815D01*
X80325494Y-100854463D01*
X80215180Y-100795498D01*
X80095482Y-100759188D01*
X79971000Y-100746928D01*
X79406750Y-100750000D01*
X79248000Y-100908750D01*
X78994000Y-100908750D01*
X78835250Y-100750000D01*
X78271000Y-100746928D01*
X78146518Y-100759188D01*
X78026820Y-100795498D01*
X77916506Y-100854463D01*
X77819815Y-100933815D01*
X77740463Y-101030506D01*
X77681498Y-101140820D01*
X77659487Y-101213380D01*
X77527632Y-101081525D01*
X77284411Y-100919010D01*
X77014158Y-100807068D01*
X76727260Y-100750000D01*
X76434740Y-100750000D01*
X76214592Y-100793790D01*
X71175804Y-95755003D01*
X71152001Y-95725999D01*
X71036276Y-95631026D01*
X70904247Y-95560454D01*
X70760986Y-95516997D01*
X70649333Y-95506000D01*
X70649322Y-95506000D01*
X70612000Y-95502324D01*
X70574678Y-95506000D01*
X42859802Y-95506000D01*
X39795209Y-92441408D01*
X39839000Y-92221260D01*
X39839000Y-91928740D01*
X39781932Y-91641842D01*
X39669990Y-91371589D01*
X39507475Y-91128368D01*
X39300632Y-90921525D01*
X39057411Y-90759010D01*
X38787158Y-90647068D01*
X38500260Y-90590000D01*
X38207740Y-90590000D01*
X37920842Y-90647068D01*
X37650589Y-90759010D01*
X37407368Y-90921525D01*
X37200525Y-91128368D01*
X37038010Y-91371589D01*
X36926068Y-91641842D01*
X36869000Y-91928740D01*
X32660000Y-91928740D01*
X32660000Y-88685000D01*
X83474928Y-88685000D01*
X83478000Y-89249250D01*
X83636750Y-89408000D01*
X84836000Y-89408000D01*
X84836000Y-88208750D01*
X85090000Y-88208750D01*
X85090000Y-89408000D01*
X86289250Y-89408000D01*
X86448000Y-89249250D01*
X86451072Y-88685000D01*
X86438812Y-88560518D01*
X86402502Y-88440820D01*
X86343537Y-88330506D01*
X86264185Y-88233815D01*
X86167494Y-88154463D01*
X86057180Y-88095498D01*
X85937482Y-88059188D01*
X85813000Y-88046928D01*
X85248750Y-88050000D01*
X85090000Y-88208750D01*
X84836000Y-88208750D01*
X84677250Y-88050000D01*
X84113000Y-88046928D01*
X83988518Y-88059188D01*
X83868820Y-88095498D01*
X83758506Y-88154463D01*
X83661815Y-88233815D01*
X83582463Y-88330506D01*
X83523498Y-88440820D01*
X83487188Y-88560518D01*
X83474928Y-88685000D01*
X32660000Y-88685000D01*
X32660000Y-77000340D01*
X47654265Y-77000340D01*
X47900416Y-77392704D01*
X48402822Y-77658312D01*
X48947393Y-77820801D01*
X49513199Y-77873928D01*
X50078498Y-77815652D01*
X50621566Y-77648210D01*
X51099584Y-77392704D01*
X51345735Y-77000340D01*
X73654265Y-77000340D01*
X73900416Y-77392704D01*
X74402822Y-77658312D01*
X74947393Y-77820801D01*
X75513199Y-77873928D01*
X76078498Y-77815652D01*
X76621566Y-77648210D01*
X77099584Y-77392704D01*
X77345735Y-77000340D01*
X75500000Y-75154605D01*
X73654265Y-77000340D01*
X51345735Y-77000340D01*
X49500000Y-75154605D01*
X47654265Y-77000340D01*
X32660000Y-77000340D01*
X32660000Y-74988199D01*
X46601072Y-74988199D01*
X46659348Y-75553498D01*
X46826790Y-76096566D01*
X47082296Y-76574584D01*
X47474660Y-76820735D01*
X49320395Y-74975000D01*
X49679605Y-74975000D01*
X51525340Y-76820735D01*
X51917704Y-76574584D01*
X52183312Y-76072178D01*
X52345801Y-75527607D01*
X52396449Y-74988199D01*
X72601072Y-74988199D01*
X72659348Y-75553498D01*
X72826790Y-76096566D01*
X73082296Y-76574584D01*
X73474660Y-76820735D01*
X75320395Y-74975000D01*
X75679605Y-74975000D01*
X77525340Y-76820735D01*
X77917704Y-76574584D01*
X78183312Y-76072178D01*
X78345801Y-75527607D01*
X78398928Y-74961801D01*
X78340652Y-74396502D01*
X78173210Y-73853434D01*
X77917704Y-73375416D01*
X77525340Y-73129265D01*
X75679605Y-74975000D01*
X75320395Y-74975000D01*
X73474660Y-73129265D01*
X73082296Y-73375416D01*
X72816688Y-73877822D01*
X72654199Y-74422393D01*
X72601072Y-74988199D01*
X52396449Y-74988199D01*
X52398928Y-74961801D01*
X52340652Y-74396502D01*
X52173210Y-73853434D01*
X51917704Y-73375416D01*
X51525340Y-73129265D01*
X49679605Y-74975000D01*
X49320395Y-74975000D01*
X47474660Y-73129265D01*
X47082296Y-73375416D01*
X46816688Y-73877822D01*
X46654199Y-74422393D01*
X46601072Y-74988199D01*
X32660000Y-74988199D01*
X32660000Y-72949660D01*
X47654265Y-72949660D01*
X49500000Y-74795395D01*
X51345735Y-72949660D01*
X73654265Y-72949660D01*
X75500000Y-74795395D01*
X77345735Y-72949660D01*
X77099584Y-72557296D01*
X76597178Y-72291688D01*
X76052607Y-72129199D01*
X75486801Y-72076072D01*
X74921502Y-72134348D01*
X74378434Y-72301790D01*
X73900416Y-72557296D01*
X73654265Y-72949660D01*
X51345735Y-72949660D01*
X51099584Y-72557296D01*
X50597178Y-72291688D01*
X50052607Y-72129199D01*
X49486801Y-72076072D01*
X48921502Y-72134348D01*
X48378434Y-72301790D01*
X47900416Y-72557296D01*
X47654265Y-72949660D01*
X32660000Y-72949660D01*
X32660000Y-58910000D01*
X92340000Y-58910000D01*
X92340001Y-104590000D01*
M02*
