G04 #@! TF.GenerationSoftware,KiCad,Pcbnew,(5.1.5)-3*
G04 #@! TF.CreationDate,2022-01-30T10:55:24+01:00*
G04 #@! TF.ProjectId,pcb,7063622e-6b69-4636-9164-5f7063625858,rev?*
G04 #@! TF.SameCoordinates,Original*
G04 #@! TF.FileFunction,Paste,Top*
G04 #@! TF.FilePolarity,Positive*
%FSLAX46Y46*%
G04 Gerber Fmt 4.6, Leading zero omitted, Abs format (unit mm)*
G04 Created by KiCad (PCBNEW (5.1.5)-3) date 2022-01-30 10:55:24*
%MOMM*%
%LPD*%
G04 APERTURE LIST*
%ADD10C,0.100000*%
G04 APERTURE END LIST*
D10*
G36*
X40974505Y-125926204D02*
G01*
X40998773Y-125929804D01*
X41022572Y-125935765D01*
X41045671Y-125944030D01*
X41067850Y-125954520D01*
X41088893Y-125967132D01*
X41108599Y-125981747D01*
X41126777Y-125998223D01*
X41143253Y-126016401D01*
X41157868Y-126036107D01*
X41170480Y-126057150D01*
X41180970Y-126079329D01*
X41189235Y-126102428D01*
X41195196Y-126126227D01*
X41198796Y-126150495D01*
X41200000Y-126174999D01*
X41200000Y-126825001D01*
X41198796Y-126849505D01*
X41195196Y-126873773D01*
X41189235Y-126897572D01*
X41180970Y-126920671D01*
X41170480Y-126942850D01*
X41157868Y-126963893D01*
X41143253Y-126983599D01*
X41126777Y-127001777D01*
X41108599Y-127018253D01*
X41088893Y-127032868D01*
X41067850Y-127045480D01*
X41045671Y-127055970D01*
X41022572Y-127064235D01*
X40998773Y-127070196D01*
X40974505Y-127073796D01*
X40950001Y-127075000D01*
X40049999Y-127075000D01*
X40025495Y-127073796D01*
X40001227Y-127070196D01*
X39977428Y-127064235D01*
X39954329Y-127055970D01*
X39932150Y-127045480D01*
X39911107Y-127032868D01*
X39891401Y-127018253D01*
X39873223Y-127001777D01*
X39856747Y-126983599D01*
X39842132Y-126963893D01*
X39829520Y-126942850D01*
X39819030Y-126920671D01*
X39810765Y-126897572D01*
X39804804Y-126873773D01*
X39801204Y-126849505D01*
X39800000Y-126825001D01*
X39800000Y-126174999D01*
X39801204Y-126150495D01*
X39804804Y-126126227D01*
X39810765Y-126102428D01*
X39819030Y-126079329D01*
X39829520Y-126057150D01*
X39842132Y-126036107D01*
X39856747Y-126016401D01*
X39873223Y-125998223D01*
X39891401Y-125981747D01*
X39911107Y-125967132D01*
X39932150Y-125954520D01*
X39954329Y-125944030D01*
X39977428Y-125935765D01*
X40001227Y-125929804D01*
X40025495Y-125926204D01*
X40049999Y-125925000D01*
X40950001Y-125925000D01*
X40974505Y-125926204D01*
G37*
G36*
X40974505Y-127976204D02*
G01*
X40998773Y-127979804D01*
X41022572Y-127985765D01*
X41045671Y-127994030D01*
X41067850Y-128004520D01*
X41088893Y-128017132D01*
X41108599Y-128031747D01*
X41126777Y-128048223D01*
X41143253Y-128066401D01*
X41157868Y-128086107D01*
X41170480Y-128107150D01*
X41180970Y-128129329D01*
X41189235Y-128152428D01*
X41195196Y-128176227D01*
X41198796Y-128200495D01*
X41200000Y-128224999D01*
X41200000Y-128875001D01*
X41198796Y-128899505D01*
X41195196Y-128923773D01*
X41189235Y-128947572D01*
X41180970Y-128970671D01*
X41170480Y-128992850D01*
X41157868Y-129013893D01*
X41143253Y-129033599D01*
X41126777Y-129051777D01*
X41108599Y-129068253D01*
X41088893Y-129082868D01*
X41067850Y-129095480D01*
X41045671Y-129105970D01*
X41022572Y-129114235D01*
X40998773Y-129120196D01*
X40974505Y-129123796D01*
X40950001Y-129125000D01*
X40049999Y-129125000D01*
X40025495Y-129123796D01*
X40001227Y-129120196D01*
X39977428Y-129114235D01*
X39954329Y-129105970D01*
X39932150Y-129095480D01*
X39911107Y-129082868D01*
X39891401Y-129068253D01*
X39873223Y-129051777D01*
X39856747Y-129033599D01*
X39842132Y-129013893D01*
X39829520Y-128992850D01*
X39819030Y-128970671D01*
X39810765Y-128947572D01*
X39804804Y-128923773D01*
X39801204Y-128899505D01*
X39800000Y-128875001D01*
X39800000Y-128224999D01*
X39801204Y-128200495D01*
X39804804Y-128176227D01*
X39810765Y-128152428D01*
X39819030Y-128129329D01*
X39829520Y-128107150D01*
X39842132Y-128086107D01*
X39856747Y-128066401D01*
X39873223Y-128048223D01*
X39891401Y-128031747D01*
X39911107Y-128017132D01*
X39932150Y-128004520D01*
X39954329Y-127994030D01*
X39977428Y-127985765D01*
X40001227Y-127979804D01*
X40025495Y-127976204D01*
X40049999Y-127975000D01*
X40950001Y-127975000D01*
X40974505Y-127976204D01*
G37*
G36*
X85474505Y-125926204D02*
G01*
X85498773Y-125929804D01*
X85522572Y-125935765D01*
X85545671Y-125944030D01*
X85567850Y-125954520D01*
X85588893Y-125967132D01*
X85608599Y-125981747D01*
X85626777Y-125998223D01*
X85643253Y-126016401D01*
X85657868Y-126036107D01*
X85670480Y-126057150D01*
X85680970Y-126079329D01*
X85689235Y-126102428D01*
X85695196Y-126126227D01*
X85698796Y-126150495D01*
X85700000Y-126174999D01*
X85700000Y-126825001D01*
X85698796Y-126849505D01*
X85695196Y-126873773D01*
X85689235Y-126897572D01*
X85680970Y-126920671D01*
X85670480Y-126942850D01*
X85657868Y-126963893D01*
X85643253Y-126983599D01*
X85626777Y-127001777D01*
X85608599Y-127018253D01*
X85588893Y-127032868D01*
X85567850Y-127045480D01*
X85545671Y-127055970D01*
X85522572Y-127064235D01*
X85498773Y-127070196D01*
X85474505Y-127073796D01*
X85450001Y-127075000D01*
X84549999Y-127075000D01*
X84525495Y-127073796D01*
X84501227Y-127070196D01*
X84477428Y-127064235D01*
X84454329Y-127055970D01*
X84432150Y-127045480D01*
X84411107Y-127032868D01*
X84391401Y-127018253D01*
X84373223Y-127001777D01*
X84356747Y-126983599D01*
X84342132Y-126963893D01*
X84329520Y-126942850D01*
X84319030Y-126920671D01*
X84310765Y-126897572D01*
X84304804Y-126873773D01*
X84301204Y-126849505D01*
X84300000Y-126825001D01*
X84300000Y-126174999D01*
X84301204Y-126150495D01*
X84304804Y-126126227D01*
X84310765Y-126102428D01*
X84319030Y-126079329D01*
X84329520Y-126057150D01*
X84342132Y-126036107D01*
X84356747Y-126016401D01*
X84373223Y-125998223D01*
X84391401Y-125981747D01*
X84411107Y-125967132D01*
X84432150Y-125954520D01*
X84454329Y-125944030D01*
X84477428Y-125935765D01*
X84501227Y-125929804D01*
X84525495Y-125926204D01*
X84549999Y-125925000D01*
X85450001Y-125925000D01*
X85474505Y-125926204D01*
G37*
G36*
X85474505Y-127976204D02*
G01*
X85498773Y-127979804D01*
X85522572Y-127985765D01*
X85545671Y-127994030D01*
X85567850Y-128004520D01*
X85588893Y-128017132D01*
X85608599Y-128031747D01*
X85626777Y-128048223D01*
X85643253Y-128066401D01*
X85657868Y-128086107D01*
X85670480Y-128107150D01*
X85680970Y-128129329D01*
X85689235Y-128152428D01*
X85695196Y-128176227D01*
X85698796Y-128200495D01*
X85700000Y-128224999D01*
X85700000Y-128875001D01*
X85698796Y-128899505D01*
X85695196Y-128923773D01*
X85689235Y-128947572D01*
X85680970Y-128970671D01*
X85670480Y-128992850D01*
X85657868Y-129013893D01*
X85643253Y-129033599D01*
X85626777Y-129051777D01*
X85608599Y-129068253D01*
X85588893Y-129082868D01*
X85567850Y-129095480D01*
X85545671Y-129105970D01*
X85522572Y-129114235D01*
X85498773Y-129120196D01*
X85474505Y-129123796D01*
X85450001Y-129125000D01*
X84549999Y-129125000D01*
X84525495Y-129123796D01*
X84501227Y-129120196D01*
X84477428Y-129114235D01*
X84454329Y-129105970D01*
X84432150Y-129095480D01*
X84411107Y-129082868D01*
X84391401Y-129068253D01*
X84373223Y-129051777D01*
X84356747Y-129033599D01*
X84342132Y-129013893D01*
X84329520Y-128992850D01*
X84319030Y-128970671D01*
X84310765Y-128947572D01*
X84304804Y-128923773D01*
X84301204Y-128899505D01*
X84300000Y-128875001D01*
X84300000Y-128224999D01*
X84301204Y-128200495D01*
X84304804Y-128176227D01*
X84310765Y-128152428D01*
X84319030Y-128129329D01*
X84329520Y-128107150D01*
X84342132Y-128086107D01*
X84356747Y-128066401D01*
X84373223Y-128048223D01*
X84391401Y-128031747D01*
X84411107Y-128017132D01*
X84432150Y-128004520D01*
X84454329Y-127994030D01*
X84477428Y-127985765D01*
X84501227Y-127979804D01*
X84525495Y-127976204D01*
X84549999Y-127975000D01*
X85450001Y-127975000D01*
X85474505Y-127976204D01*
G37*
M02*
