G04 #@! TF.GenerationSoftware,KiCad,Pcbnew,(5.1.5)-3*
G04 #@! TF.CreationDate,2022-01-30T10:55:24+01:00*
G04 #@! TF.ProjectId,pcb,7063622e-6b69-4636-9164-5f7063625858,rev?*
G04 #@! TF.SameCoordinates,Original*
G04 #@! TF.FileFunction,Copper,L2,Bot*
G04 #@! TF.FilePolarity,Positive*
%FSLAX46Y46*%
G04 Gerber Fmt 4.6, Leading zero omitted, Abs format (unit mm)*
G04 Created by KiCad (PCBNEW (5.1.5)-3) date 2022-01-30 10:55:24*
%MOMM*%
%LPD*%
G04 APERTURE LIST*
%ADD10C,1.700000*%
%ADD11O,1.700000X1.700000*%
%ADD12R,1.700000X1.700000*%
%ADD13C,6.400000*%
%ADD14C,4.500000*%
%ADD15R,4.500000X3.000000*%
%ADD16R,0.800000X3.000000*%
%ADD17R,1.500000X5.500000*%
%ADD18R,1.000000X5.000000*%
%ADD19C,0.800000*%
%ADD20C,0.750000*%
%ADD21C,0.250000*%
%ADD22C,0.254000*%
G04 APERTURE END LIST*
D10*
X46101000Y-117475000D03*
D11*
X68961000Y-117475000D03*
X53721000Y-117475000D03*
X63881000Y-117475000D03*
X51181000Y-117475000D03*
D12*
X76581000Y-117475000D03*
D11*
X74041000Y-117475000D03*
X48641000Y-117475000D03*
D10*
X66421000Y-117475000D03*
X56261000Y-117475000D03*
D11*
X58801000Y-117475000D03*
D10*
X79121000Y-117475000D03*
D11*
X61341000Y-117475000D03*
X71501000Y-117475000D03*
D12*
X79121000Y-102235000D03*
D11*
X76581000Y-102235000D03*
X68961000Y-102235000D03*
D10*
X66421000Y-102235000D03*
D11*
X74041000Y-102235000D03*
X71501000Y-102235000D03*
X58801000Y-102235000D03*
X56261000Y-102235000D03*
D10*
X51181000Y-102235000D03*
X48641000Y-102235000D03*
D11*
X61341000Y-102235000D03*
X53721000Y-102235000D03*
X46101000Y-102235000D03*
D10*
X63881000Y-102235000D03*
D13*
X73000000Y-136500000D03*
X52000000Y-136500000D03*
D11*
X46101000Y-128778000D03*
X76581000Y-128778000D03*
X56261000Y-128778000D03*
X71501000Y-128778000D03*
D10*
X58801000Y-128778000D03*
D11*
X53721000Y-128778000D03*
X51181000Y-128778000D03*
D10*
X48641000Y-128778000D03*
D11*
X66421000Y-128778000D03*
X74041000Y-128778000D03*
D10*
X81661000Y-128778000D03*
D11*
X63881000Y-128778000D03*
D12*
X43561000Y-128778000D03*
D10*
X68961000Y-128778000D03*
D11*
X61341000Y-128778000D03*
D10*
X79121000Y-128778000D03*
D11*
X71501000Y-126238000D03*
D10*
X66421000Y-126238000D03*
D11*
X79121000Y-126238000D03*
X61341000Y-126238000D03*
X58801000Y-126238000D03*
X63881000Y-126238000D03*
X46101000Y-126238000D03*
X56261000Y-126238000D03*
X48641000Y-126238000D03*
X76581000Y-126238000D03*
D10*
X68961000Y-126238000D03*
D11*
X43561000Y-126238000D03*
D10*
X53721000Y-126238000D03*
X81661000Y-126238000D03*
X51181000Y-126238000D03*
D11*
X74041000Y-126238000D03*
X38354000Y-102235000D03*
D10*
X38354000Y-92075000D03*
D11*
X38354000Y-94615000D03*
X38354000Y-97155000D03*
X38354000Y-99695000D03*
X84963000Y-92075000D03*
D10*
X84963000Y-102235000D03*
D12*
X84963000Y-89535000D03*
D11*
X84963000Y-94615000D03*
X84963000Y-97155000D03*
X84963000Y-99695000D03*
D14*
X49500000Y-74975000D03*
X75500000Y-74975000D03*
D15*
X49500000Y-62225000D03*
X75500000Y-62225000D03*
D16*
X46750000Y-82600000D03*
X42250000Y-82600000D03*
X43750000Y-82600000D03*
X45250000Y-82600000D03*
X48250000Y-82600000D03*
X39250000Y-82600000D03*
X40750000Y-82600000D03*
X51250000Y-82600000D03*
X49750000Y-82600000D03*
X54250000Y-82600000D03*
X55750000Y-82600000D03*
X52750000Y-82600000D03*
X61750000Y-82600000D03*
X57250000Y-82600000D03*
X58750000Y-82600000D03*
X60250000Y-82600000D03*
X63250000Y-82600000D03*
X66250000Y-82600000D03*
X64750000Y-82600000D03*
X69250000Y-82600000D03*
X70750000Y-82600000D03*
X67750000Y-82600000D03*
X73750000Y-82600000D03*
X72250000Y-82600000D03*
X76750000Y-82600000D03*
X78250000Y-82600000D03*
X75250000Y-82600000D03*
X81250000Y-82600000D03*
X79750000Y-82600000D03*
X82750000Y-82600000D03*
X84250000Y-82600000D03*
X85750000Y-82600000D03*
D17*
X86000000Y-173250000D03*
D18*
X84250000Y-173000000D03*
X82750000Y-173000000D03*
X79750000Y-173000000D03*
X81250000Y-173000000D03*
X75250000Y-173000000D03*
X73750000Y-173000000D03*
X76750000Y-173000000D03*
X78250000Y-173000000D03*
X63250000Y-173000000D03*
X69250000Y-173000000D03*
X67750000Y-173000000D03*
X64750000Y-173000000D03*
X70750000Y-173000000D03*
X66250000Y-173000000D03*
X61750000Y-173000000D03*
X72250000Y-173000000D03*
X51250000Y-173000000D03*
X52750000Y-173000000D03*
X57250000Y-173000000D03*
X48250000Y-173000000D03*
X49750000Y-173000000D03*
X54250000Y-173000000D03*
X60250000Y-173000000D03*
X58750000Y-173000000D03*
X55750000Y-173000000D03*
X45250000Y-173000000D03*
X43750000Y-173000000D03*
X46750000Y-173000000D03*
X42250000Y-173000000D03*
X40750000Y-173000000D03*
D17*
X39000000Y-173250000D03*
D19*
X39000000Y-169750000D03*
X76000000Y-169750000D03*
X47500000Y-169750000D03*
X85000000Y-169750000D03*
X83250000Y-129250000D03*
X86492080Y-128600200D03*
D20*
X86000000Y-130577000D02*
X81661000Y-126238000D01*
X86000000Y-173250000D02*
X86000000Y-130577000D01*
D21*
X80811001Y-127928001D02*
X81661000Y-128778000D01*
X80485999Y-125697999D02*
X80485999Y-126802001D01*
X84250000Y-82600000D02*
X84250000Y-85676000D01*
X80485999Y-126802001D02*
X80811001Y-127127003D01*
X73152000Y-112421038D02*
X73152000Y-116624998D01*
X75216001Y-110357037D02*
X73152000Y-112421038D01*
X75216001Y-94709999D02*
X75216001Y-110357037D01*
X73152000Y-116624998D02*
X72865999Y-116910999D01*
X72865999Y-116910999D02*
X72865999Y-118077999D01*
X72865999Y-118077999D02*
X80485999Y-125697999D01*
X84250000Y-85676000D02*
X75216001Y-94709999D01*
X80811001Y-127127003D02*
X80811001Y-127928001D01*
X80750000Y-129689000D02*
X81661000Y-128778000D01*
X80750000Y-166500000D02*
X80750000Y-129689000D01*
X84250000Y-170000000D02*
X80750000Y-166500000D01*
X84250000Y-173000000D02*
X84250000Y-170000000D01*
X72350999Y-116625001D02*
X71501000Y-117475000D01*
X72676001Y-116299999D02*
X72350999Y-116625001D01*
X72676001Y-96487999D02*
X72676001Y-116299999D01*
X82750000Y-82600000D02*
X82750000Y-86414000D01*
X82750000Y-86414000D02*
X72676001Y-96487999D01*
X79121000Y-125095000D02*
X79121000Y-126238000D01*
X71501000Y-117475000D02*
X79121000Y-125095000D01*
X80299989Y-166686400D02*
X80299989Y-127416989D01*
X80299989Y-127416989D02*
X79970999Y-127087999D01*
X79970999Y-127087999D02*
X79121000Y-126238000D01*
X82750000Y-173000000D02*
X82750000Y-169136410D01*
X82750000Y-169136410D02*
X80299989Y-166686400D01*
X79750000Y-82600000D02*
X79750000Y-87890000D01*
X67270999Y-116625001D02*
X66421000Y-117475000D01*
X67596001Y-116299999D02*
X67270999Y-116625001D01*
X67596001Y-100043999D02*
X67596001Y-116299999D01*
X79750000Y-87890000D02*
X67596001Y-100043999D01*
X66421000Y-117475000D02*
X68199000Y-119253000D01*
X69596000Y-119253000D02*
X76581000Y-126238000D01*
X68199000Y-119253000D02*
X69596000Y-119253000D01*
X79750000Y-173000000D02*
X79750000Y-167409232D01*
X77945999Y-129342001D02*
X77945999Y-127602999D01*
X77430999Y-127087999D02*
X76581000Y-126238000D01*
X79250000Y-166909232D02*
X79250000Y-130646002D01*
X77945999Y-127602999D02*
X77430999Y-127087999D01*
X79250000Y-130646002D02*
X77945999Y-129342001D01*
X79750000Y-167409232D02*
X79250000Y-166909232D01*
X81250000Y-87150590D02*
X70136001Y-98264589D01*
X70136001Y-116299999D02*
X69810999Y-116625001D01*
X70136001Y-98264589D02*
X70136001Y-116299999D01*
X81250000Y-82600000D02*
X81250000Y-87150590D01*
X69810999Y-116625001D02*
X68961000Y-117475000D01*
X79121000Y-128141590D02*
X79121000Y-128778000D01*
X70739000Y-119253000D02*
X71335002Y-119253000D01*
X68961000Y-117475000D02*
X70739000Y-119253000D01*
X71335002Y-119253000D02*
X77945999Y-125863997D01*
X77945999Y-125863997D02*
X77945999Y-126966589D01*
X77945999Y-126966589D02*
X79121000Y-128141590D01*
X79750000Y-166772821D02*
X79750000Y-129407000D01*
X79750000Y-129407000D02*
X79121000Y-128778000D01*
X81250000Y-168272821D02*
X79750000Y-166772821D01*
X81250000Y-173000000D02*
X81250000Y-168272821D01*
X75250000Y-82600000D02*
X75250000Y-87000000D01*
X61341000Y-100909000D02*
X61341000Y-102235000D01*
X75250000Y-87000000D02*
X61341000Y-100909000D01*
X73191001Y-129627999D02*
X74041000Y-128778000D01*
X66040000Y-136779000D02*
X73191001Y-129627999D01*
X66040000Y-161040000D02*
X66040000Y-136779000D01*
X75250000Y-170250000D02*
X66040000Y-161040000D01*
X75250000Y-173000000D02*
X75250000Y-170250000D01*
X72676001Y-127413001D02*
X72350999Y-127087999D01*
X73750000Y-173000000D02*
X73750000Y-169386410D01*
X73750000Y-169386410D02*
X65589989Y-161226400D01*
X65589989Y-161226400D02*
X65589989Y-136592600D01*
X65589989Y-136592600D02*
X72676001Y-129506588D01*
X72676001Y-129506588D02*
X72676001Y-127413001D01*
X72350999Y-127087999D02*
X71501000Y-126238000D01*
X73750000Y-87000000D02*
X59976001Y-100773999D01*
X59976001Y-116110001D02*
X61341000Y-117475000D01*
X73750000Y-82600000D02*
X73750000Y-87000000D01*
X59976001Y-100773999D02*
X59976001Y-116110001D01*
X76750000Y-82600000D02*
X76750000Y-86750000D01*
X62516001Y-116110001D02*
X63031001Y-116625001D01*
X62516001Y-100983999D02*
X62516001Y-116110001D01*
X63031001Y-116625001D02*
X63881000Y-117475000D01*
X76750000Y-86750000D02*
X62516001Y-100983999D01*
X68072000Y-120269000D02*
X73191001Y-125388001D01*
X66675000Y-120269000D02*
X68072000Y-120269000D01*
X63881000Y-117475000D02*
X66675000Y-120269000D01*
X73191001Y-125388001D02*
X74041000Y-126238000D01*
X74890999Y-127087999D02*
X74041000Y-126238000D01*
X75216001Y-127413001D02*
X74890999Y-127087999D01*
X75216001Y-129216001D02*
X75216001Y-127413001D01*
X76750000Y-173000000D02*
X76750000Y-168250000D01*
X76750000Y-168250000D02*
X78250000Y-166750000D01*
X78250000Y-166750000D02*
X78250000Y-132250000D01*
X78250000Y-132250000D02*
X75216001Y-129216001D01*
X78250000Y-82600000D02*
X78250000Y-86500000D01*
X63881000Y-100869000D02*
X63881000Y-102235000D01*
X78250000Y-86500000D02*
X63881000Y-100869000D01*
X63881000Y-103251000D02*
X63881000Y-103437081D01*
X63881000Y-102235000D02*
X63881000Y-103251000D01*
X67025987Y-119818989D02*
X69360991Y-119818989D01*
X75405999Y-125863997D02*
X75405999Y-126966589D01*
X69360991Y-119818989D02*
X75405999Y-125863997D01*
X75731001Y-127928001D02*
X76581000Y-128778000D01*
X75405999Y-126966589D02*
X75731001Y-127291591D01*
X65245999Y-118039001D02*
X67025987Y-119818989D01*
X65245999Y-116299999D02*
X65245999Y-118039001D01*
X63881000Y-114935000D02*
X65245999Y-116299999D01*
X63881000Y-103251000D02*
X63881000Y-114935000D01*
X75731001Y-127291591D02*
X75731001Y-127928001D01*
X78250000Y-173000000D02*
X78250000Y-167386410D01*
X78250000Y-167386410D02*
X78750000Y-166886410D01*
X77430999Y-129627999D02*
X76581000Y-128778000D01*
X78750000Y-130947000D02*
X77430999Y-129627999D01*
X78750000Y-166886410D02*
X78750000Y-130947000D01*
X63250000Y-82600000D02*
X63250000Y-88250000D01*
X51181000Y-100319000D02*
X51181000Y-102235000D01*
X63250000Y-88250000D02*
X51181000Y-100319000D01*
X63881000Y-129980081D02*
X63881000Y-128778000D01*
X63250000Y-173000000D02*
X63250000Y-163341288D01*
X63881000Y-133846712D02*
X63881000Y-129980081D01*
X62439912Y-135287800D02*
X63881000Y-133846712D01*
X62439912Y-162531200D02*
X62439912Y-135287800D01*
X63250000Y-163341288D02*
X62439912Y-162531200D01*
X69250000Y-166795643D02*
X64239956Y-161785600D01*
X69250000Y-173000000D02*
X69250000Y-166795643D01*
X68961000Y-129980081D02*
X68961000Y-128778000D01*
X68961000Y-131312356D02*
X68961000Y-129980081D01*
X64239956Y-136033400D02*
X68961000Y-131312356D01*
X64239956Y-161785600D02*
X64239956Y-136033400D01*
X69250000Y-87500000D02*
X56261000Y-100489000D01*
X69250000Y-82600000D02*
X69250000Y-87500000D01*
X56261000Y-100489000D02*
X56261000Y-102235000D01*
X67596001Y-127413001D02*
X67270999Y-127087999D01*
X67270999Y-127087999D02*
X66421000Y-126238000D01*
X67596001Y-132040944D02*
X67596001Y-127413001D01*
X63789945Y-135847000D02*
X67596001Y-132040944D01*
X63789945Y-161972000D02*
X63789945Y-135847000D01*
X67750000Y-165932055D02*
X63789945Y-161972000D01*
X67750000Y-173000000D02*
X67750000Y-165932055D01*
X67750000Y-87750000D02*
X54896001Y-100603999D01*
X67750000Y-82600000D02*
X67750000Y-87750000D01*
X54896001Y-100603999D02*
X54896001Y-116110001D01*
X54896001Y-116110001D02*
X55411001Y-116625001D01*
X55411001Y-116625001D02*
X56261000Y-117475000D01*
X64750000Y-82600000D02*
X64750000Y-88250000D01*
X52871001Y-116625001D02*
X53721000Y-117475000D01*
X52356001Y-116110001D02*
X52871001Y-116625001D01*
X52356001Y-100643999D02*
X52356001Y-116110001D01*
X64750000Y-88250000D02*
X52356001Y-100643999D01*
X64750000Y-173000000D02*
X64750000Y-164204877D01*
X64750000Y-164204877D02*
X62889923Y-162344800D01*
X64730999Y-127087999D02*
X63881000Y-126238000D01*
X65056001Y-127413001D02*
X64730999Y-127087999D01*
X65056001Y-133308122D02*
X65056001Y-127413001D01*
X62889923Y-135474200D02*
X65056001Y-133308122D01*
X62889923Y-162344800D02*
X62889923Y-135474200D01*
X69810999Y-127087999D02*
X68961000Y-126238000D01*
X70136001Y-130773766D02*
X70136001Y-127413001D01*
X70136001Y-127413001D02*
X69810999Y-127087999D01*
X64689967Y-136219800D02*
X70136001Y-130773766D01*
X64689967Y-161599200D02*
X64689967Y-136219800D01*
X70750000Y-167659232D02*
X64689967Y-161599200D01*
X70750000Y-173000000D02*
X70750000Y-167659232D01*
X70750000Y-87250000D02*
X57436001Y-100563999D01*
X70750000Y-82600000D02*
X70750000Y-87250000D01*
X57436001Y-116110001D02*
X57951001Y-116625001D01*
X57436001Y-100563999D02*
X57436001Y-116110001D01*
X57951001Y-116625001D02*
X58801000Y-117475000D01*
X63339934Y-135660600D02*
X66421000Y-132579534D01*
X66421000Y-129980081D02*
X66421000Y-128778000D01*
X66421000Y-132579534D02*
X66421000Y-129980081D01*
X63339934Y-162158400D02*
X63339934Y-135660600D01*
X66250000Y-165068466D02*
X63339934Y-162158400D01*
X66250000Y-173000000D02*
X66250000Y-165068466D01*
X66250000Y-88000000D02*
X53721000Y-100529000D01*
X66250000Y-82600000D02*
X66250000Y-88000000D01*
X53721000Y-100529000D02*
X53721000Y-102235000D01*
X61750000Y-82600000D02*
X61750000Y-88750000D01*
X49816001Y-116110001D02*
X50331001Y-116625001D01*
X50331001Y-116625001D02*
X51181000Y-117475000D01*
X49816001Y-100683999D02*
X49816001Y-116110001D01*
X61750000Y-88750000D02*
X49816001Y-100683999D01*
X61989901Y-135101400D02*
X62624901Y-134466400D01*
X62624901Y-134466400D02*
X62624901Y-127521901D01*
X61750000Y-162477699D02*
X61989901Y-162237798D01*
X61989901Y-162237798D02*
X61989901Y-135101400D01*
X62190999Y-127087999D02*
X61341000Y-126238000D01*
X62624901Y-127521901D02*
X62190999Y-127087999D01*
X61750000Y-173000000D02*
X61750000Y-162477699D01*
X71501000Y-129980081D02*
X71501000Y-128778000D01*
X72250000Y-173000000D02*
X72250000Y-168522821D01*
X71501000Y-130045178D02*
X71501000Y-129980081D01*
X65139978Y-136406200D02*
X71501000Y-130045178D01*
X65139978Y-161412800D02*
X65139978Y-136406200D01*
X72250000Y-168522821D02*
X65139978Y-161412800D01*
X72250000Y-87250000D02*
X58801000Y-100699000D01*
X72250000Y-82600000D02*
X72250000Y-87250000D01*
X58801000Y-100699000D02*
X58801000Y-102235000D01*
X51250000Y-82600000D02*
X51250000Y-86077181D01*
X51250000Y-86077181D02*
X43409077Y-93918104D01*
X50455178Y-124841000D02*
X51523002Y-124841000D01*
X52871001Y-127928001D02*
X53721000Y-128778000D01*
X52871001Y-127291591D02*
X52871001Y-127928001D01*
X52545999Y-125863997D02*
X52545999Y-126966589D01*
X43409077Y-93918104D02*
X43409077Y-117794899D01*
X43409077Y-117794899D02*
X50455178Y-124841000D01*
X51523002Y-124841000D02*
X52545999Y-125863997D01*
X52545999Y-126966589D02*
X52871001Y-127291591D01*
X53721000Y-129980081D02*
X53721000Y-128778000D01*
X58839824Y-135164002D02*
X53721000Y-130045178D01*
X53721000Y-130045178D02*
X53721000Y-129980081D01*
X58839824Y-160932998D02*
X58839824Y-135164002D01*
X51250000Y-168522822D02*
X58839824Y-160932998D01*
X51250000Y-173000000D02*
X51250000Y-168522822D01*
X52750000Y-82600000D02*
X52750000Y-85213590D01*
X43859088Y-94104502D02*
X43859088Y-117608500D01*
X50525598Y-124275010D02*
X51758010Y-124275010D01*
X52871001Y-125388001D02*
X53721000Y-126238000D01*
X51758010Y-124275010D02*
X52871001Y-125388001D01*
X43859088Y-117608500D02*
X50525598Y-124275010D01*
X52750000Y-85213590D02*
X43859088Y-94104502D01*
X59289835Y-134977602D02*
X54896001Y-130583768D01*
X52750000Y-173000000D02*
X52750000Y-167659233D01*
X54896001Y-127413001D02*
X54570999Y-127087999D01*
X54896001Y-130583768D02*
X54896001Y-127413001D01*
X54570999Y-127087999D02*
X53721000Y-126238000D01*
X59289835Y-161119398D02*
X59289835Y-134977602D01*
X52750000Y-167659233D02*
X59289835Y-161119398D01*
X46101000Y-102235000D02*
X46101000Y-99899000D01*
X57250000Y-88750000D02*
X57250000Y-82600000D01*
X46101000Y-99899000D02*
X57250000Y-88750000D01*
X58801000Y-132579534D02*
X58801000Y-129980081D01*
X60639868Y-161678598D02*
X60639868Y-134418402D01*
X57250000Y-165068464D02*
X60639868Y-161678598D01*
X57250000Y-173000000D02*
X57250000Y-165068464D01*
X60639868Y-134418402D02*
X58801000Y-132579534D01*
X58801000Y-129980081D02*
X58801000Y-128778000D01*
X42509055Y-93506535D02*
X42509055Y-118367053D01*
X48250000Y-87765590D02*
X42509055Y-93506535D01*
X50005999Y-126966589D02*
X50331001Y-127291591D01*
X50331001Y-127291591D02*
X50331001Y-127928001D01*
X50005999Y-125863997D02*
X50005999Y-126966589D01*
X48250000Y-82600000D02*
X48250000Y-87765590D01*
X42509055Y-118367053D02*
X50005999Y-125863997D01*
X50331001Y-127928001D02*
X51181000Y-128778000D01*
X52030999Y-129627999D02*
X51181000Y-128778000D01*
X57939802Y-160560198D02*
X57939802Y-135536802D01*
X48250000Y-170250000D02*
X57939802Y-160560198D01*
X57939802Y-135536802D02*
X52030999Y-129627999D01*
X48250000Y-173000000D02*
X48250000Y-170250000D01*
X49750000Y-82600000D02*
X49750000Y-86902000D01*
X42959066Y-93692934D02*
X42959066Y-118016066D01*
X50331001Y-125388001D02*
X51181000Y-126238000D01*
X42959066Y-118016066D02*
X50331001Y-125388001D01*
X49750000Y-86902000D02*
X42959066Y-93692934D01*
X52356001Y-129316591D02*
X52356001Y-127413001D01*
X49750000Y-173000000D02*
X49750000Y-169386411D01*
X49750000Y-169386411D02*
X58389813Y-160746598D01*
X52356001Y-127413001D02*
X52030999Y-127087999D01*
X52030999Y-127087999D02*
X51181000Y-126238000D01*
X58389813Y-160746598D02*
X58389813Y-135350403D01*
X58389813Y-135350403D02*
X52356001Y-129316591D01*
X55411001Y-127291591D02*
X55411001Y-127928001D01*
X55085999Y-126966589D02*
X55411001Y-127291591D01*
X55411001Y-127928001D02*
X56261000Y-128778000D01*
X55085999Y-125697999D02*
X55085999Y-126966589D01*
X53213000Y-123825000D02*
X55085999Y-125697999D01*
X54250000Y-84350000D02*
X44323000Y-94277000D01*
X54250000Y-82600000D02*
X54250000Y-84350000D01*
X44323000Y-94277000D02*
X44323000Y-117436002D01*
X44323000Y-117436002D02*
X50711998Y-123825000D01*
X50711998Y-123825000D02*
X53213000Y-123825000D01*
X56261000Y-129980081D02*
X56261000Y-128778000D01*
X54250000Y-173000000D02*
X54250000Y-166795640D01*
X54250000Y-166795640D02*
X59739846Y-161305798D01*
X56261000Y-131312356D02*
X56261000Y-129980081D01*
X59739846Y-134791202D02*
X56261000Y-131312356D01*
X59739846Y-161305798D02*
X59739846Y-134791202D01*
X60250000Y-82600000D02*
X60250000Y-88750000D01*
X48641000Y-100359000D02*
X48641000Y-102235000D01*
X60250000Y-88750000D02*
X48641000Y-100359000D01*
X60250000Y-173000000D02*
X60250000Y-163341288D01*
X61539890Y-130178971D02*
X61341000Y-129980081D01*
X61341000Y-129980081D02*
X61341000Y-128778000D01*
X60250000Y-163341288D02*
X61539890Y-162051398D01*
X61539890Y-162051398D02*
X61539890Y-130178971D01*
X47276001Y-99973999D02*
X47276001Y-116110001D01*
X58750000Y-82600000D02*
X58750000Y-88500000D01*
X47276001Y-116110001D02*
X48641000Y-117475000D01*
X58750000Y-88500000D02*
X47276001Y-99973999D01*
X59650999Y-127087999D02*
X58801000Y-126238000D01*
X58750000Y-173000000D02*
X58750000Y-164204877D01*
X58750000Y-164204877D02*
X61089879Y-161864998D01*
X61089879Y-161864998D02*
X61089879Y-134232002D01*
X60046077Y-127483077D02*
X59650999Y-127087999D01*
X60046077Y-133188200D02*
X60046077Y-127483077D01*
X61089879Y-134232002D02*
X60046077Y-133188200D01*
X55750000Y-88500000D02*
X55750000Y-82600000D01*
X44831000Y-99419000D02*
X55750000Y-88500000D01*
X46101000Y-117475000D02*
X44831000Y-116205000D01*
X44831000Y-116205000D02*
X44831000Y-99419000D01*
X57110999Y-127087999D02*
X56261000Y-126238000D01*
X57436001Y-131850946D02*
X57436001Y-127413001D01*
X55750000Y-173000000D02*
X55750000Y-165932052D01*
X55750000Y-165932052D02*
X60189857Y-161492198D01*
X60189857Y-161492198D02*
X60189857Y-134604802D01*
X60189857Y-134604802D02*
X57436001Y-131850946D01*
X57436001Y-127413001D02*
X57110999Y-127087999D01*
X47465999Y-125863997D02*
X47465999Y-126966589D01*
X41609033Y-93133737D02*
X41609033Y-120007031D01*
X45250000Y-82600000D02*
X45250000Y-89492770D01*
X45250000Y-89492770D02*
X41609033Y-93133737D01*
X47465999Y-126966589D02*
X48641000Y-128141590D01*
X48641000Y-128141590D02*
X48641000Y-128778000D01*
X41609033Y-120007031D02*
X47465999Y-125863997D01*
X48641000Y-129980081D02*
X48641000Y-128778000D01*
X48641000Y-130222590D02*
X48641000Y-129980081D01*
X46250000Y-132613590D02*
X48641000Y-130222590D01*
X46250000Y-166409231D02*
X46250000Y-132613590D01*
X45250000Y-167409231D02*
X46250000Y-166409231D01*
X45250000Y-173000000D02*
X45250000Y-167409231D01*
X43750000Y-82600000D02*
X43750000Y-90356360D01*
X45251001Y-125388001D02*
X46101000Y-126238000D01*
X41159022Y-121296022D02*
X45251001Y-125388001D01*
X41159022Y-92947338D02*
X41159022Y-121296022D01*
X43750000Y-90356360D02*
X41159022Y-92947338D01*
X47465999Y-127602999D02*
X46950999Y-127087999D01*
X43750000Y-173000000D02*
X43750000Y-168272820D01*
X45750000Y-166272820D02*
X45750000Y-132477180D01*
X43750000Y-168272820D02*
X45750000Y-166272820D01*
X46950999Y-127087999D02*
X46101000Y-126238000D01*
X45750000Y-132477180D02*
X47465999Y-130761181D01*
X47465999Y-130761181D02*
X47465999Y-127602999D01*
X47791001Y-125388001D02*
X48641000Y-126238000D01*
X46750000Y-82600000D02*
X46750000Y-88629180D01*
X42059044Y-93320136D02*
X42059044Y-119656044D01*
X42059044Y-119656044D02*
X47791001Y-125388001D01*
X46750000Y-88629180D02*
X42059044Y-93320136D01*
X49490999Y-127087999D02*
X48641000Y-126238000D01*
X46750000Y-132750000D02*
X49816001Y-129683999D01*
X49816001Y-127413001D02*
X49490999Y-127087999D01*
X46750000Y-173000000D02*
X46750000Y-132750000D01*
X49816001Y-129683999D02*
X49816001Y-127413001D01*
X44925999Y-126966589D02*
X45251001Y-127291591D01*
X42250000Y-82600000D02*
X42250000Y-91219950D01*
X45251001Y-127291591D02*
X45251001Y-127928001D01*
X44925999Y-125863997D02*
X44925999Y-126966589D01*
X45251001Y-127928001D02*
X46101000Y-128778000D01*
X40709011Y-121647009D02*
X44925999Y-125863997D01*
X40709011Y-92760939D02*
X40709011Y-121647009D01*
X42250000Y-91219950D02*
X40709011Y-92760939D01*
X45251001Y-129627999D02*
X46101000Y-128778000D01*
X42250000Y-173000000D02*
X42250000Y-169136410D01*
X42250000Y-169136410D02*
X45251001Y-166135409D01*
X45251001Y-166135409D02*
X45251001Y-129627999D01*
X40259000Y-122936000D02*
X42711001Y-125388001D01*
X40259000Y-92574540D02*
X40259000Y-122936000D01*
X40750000Y-92083540D02*
X40259000Y-92574540D01*
X40750000Y-82600000D02*
X40750000Y-92083540D01*
X42711001Y-125388001D02*
X43561000Y-126238000D01*
X44410999Y-127087999D02*
X43561000Y-126238000D01*
X40750000Y-170000000D02*
X44736001Y-166013999D01*
X44736001Y-127413001D02*
X44410999Y-127087999D01*
X40750000Y-173000000D02*
X40750000Y-170000000D01*
X44736001Y-166013999D02*
X44736001Y-127413001D01*
D20*
X87249000Y-86995000D02*
X85750000Y-85496000D01*
X85750000Y-85496000D02*
X85750000Y-82600000D01*
X84963000Y-97155000D02*
X87249000Y-94869000D01*
X87249000Y-94869000D02*
X87249000Y-86995000D01*
X74041000Y-117475000D02*
X74041000Y-112522000D01*
X74041000Y-112522000D02*
X81534000Y-105029000D01*
X81534000Y-95504000D02*
X84963000Y-92075000D01*
X81534000Y-105029000D02*
X81534000Y-95504000D01*
X79121000Y-117475000D02*
X79121000Y-109855000D01*
X79121000Y-109855000D02*
X83185000Y-105791000D01*
X83185000Y-96393000D02*
X84963000Y-94615000D01*
X83185000Y-105791000D02*
X83185000Y-96393000D01*
D22*
G36*
X92340001Y-104590000D02*
G01*
X88032419Y-104590000D01*
X88000000Y-104586807D01*
X87967581Y-104590000D01*
X87870617Y-104599550D01*
X87746207Y-104637290D01*
X87631550Y-104698575D01*
X87531052Y-104781052D01*
X87448575Y-104881550D01*
X87387290Y-104996207D01*
X87349550Y-105120617D01*
X87336807Y-105250000D01*
X87340001Y-105282430D01*
X87340000Y-130373000D01*
X86993563Y-130373000D01*
X86937632Y-130188620D01*
X86934801Y-130183323D01*
X86843847Y-130013160D01*
X86717633Y-129859367D01*
X86679100Y-129827744D01*
X83146000Y-126294645D01*
X83146000Y-126091740D01*
X83088932Y-125804842D01*
X82976990Y-125534589D01*
X82814475Y-125291368D01*
X82607632Y-125084525D01*
X82364411Y-124922010D01*
X82094158Y-124810068D01*
X81807260Y-124753000D01*
X81514740Y-124753000D01*
X81227842Y-124810068D01*
X80957589Y-124922010D01*
X80854017Y-124991215D01*
X74680333Y-118817532D01*
X74744411Y-118790990D01*
X74987632Y-118628475D01*
X75119487Y-118496620D01*
X75141498Y-118569180D01*
X75200463Y-118679494D01*
X75279815Y-118776185D01*
X75376506Y-118855537D01*
X75486820Y-118914502D01*
X75606518Y-118950812D01*
X75731000Y-118963072D01*
X76295250Y-118960000D01*
X76454000Y-118801250D01*
X76454000Y-117602000D01*
X76434000Y-117602000D01*
X76434000Y-117348000D01*
X76454000Y-117348000D01*
X76454000Y-116148750D01*
X76295250Y-115990000D01*
X75731000Y-115986928D01*
X75606518Y-115999188D01*
X75486820Y-116035498D01*
X75376506Y-116094463D01*
X75279815Y-116173815D01*
X75200463Y-116270506D01*
X75141498Y-116380820D01*
X75119487Y-116453380D01*
X75051000Y-116384893D01*
X75051000Y-112940355D01*
X78108825Y-109882530D01*
X78111001Y-109904618D01*
X78111000Y-116384893D01*
X78042513Y-116453380D01*
X78020502Y-116380820D01*
X77961537Y-116270506D01*
X77882185Y-116173815D01*
X77785494Y-116094463D01*
X77675180Y-116035498D01*
X77555482Y-115999188D01*
X77431000Y-115986928D01*
X76866750Y-115990000D01*
X76708000Y-116148750D01*
X76708000Y-117348000D01*
X76728000Y-117348000D01*
X76728000Y-117602000D01*
X76708000Y-117602000D01*
X76708000Y-118801250D01*
X76866750Y-118960000D01*
X77431000Y-118963072D01*
X77555482Y-118950812D01*
X77675180Y-118914502D01*
X77785494Y-118855537D01*
X77882185Y-118776185D01*
X77961537Y-118679494D01*
X78020502Y-118569180D01*
X78042513Y-118496620D01*
X78174368Y-118628475D01*
X78417589Y-118790990D01*
X78687842Y-118902932D01*
X78974740Y-118960000D01*
X79267260Y-118960000D01*
X79554158Y-118902932D01*
X79824411Y-118790990D01*
X80067632Y-118628475D01*
X80274475Y-118421632D01*
X80436990Y-118178411D01*
X80548932Y-117908158D01*
X80606000Y-117621260D01*
X80606000Y-117328740D01*
X80548932Y-117041842D01*
X80436990Y-116771589D01*
X80274475Y-116528368D01*
X80131000Y-116384893D01*
X80131000Y-110273355D01*
X83864100Y-106540256D01*
X83902633Y-106508633D01*
X84028847Y-106354840D01*
X84122632Y-106179380D01*
X84180385Y-105988994D01*
X84195000Y-105840608D01*
X84195000Y-105840607D01*
X84199886Y-105791000D01*
X84195000Y-105741392D01*
X84195000Y-103507833D01*
X84259589Y-103550990D01*
X84529842Y-103662932D01*
X84816740Y-103720000D01*
X85109260Y-103720000D01*
X85396158Y-103662932D01*
X85666411Y-103550990D01*
X85909632Y-103388475D01*
X86116475Y-103181632D01*
X86278990Y-102938411D01*
X86390932Y-102668158D01*
X86448000Y-102381260D01*
X86448000Y-102088740D01*
X86390932Y-101801842D01*
X86278990Y-101531589D01*
X86116475Y-101288368D01*
X85909632Y-101081525D01*
X85735240Y-100965000D01*
X85909632Y-100848475D01*
X86116475Y-100641632D01*
X86278990Y-100398411D01*
X86390932Y-100128158D01*
X86448000Y-99841260D01*
X86448000Y-99548740D01*
X86390932Y-99261842D01*
X86278990Y-98991589D01*
X86116475Y-98748368D01*
X85909632Y-98541525D01*
X85735240Y-98425000D01*
X85909632Y-98308475D01*
X86116475Y-98101632D01*
X86278990Y-97858411D01*
X86390932Y-97588158D01*
X86448000Y-97301260D01*
X86448000Y-97098355D01*
X87928094Y-95618261D01*
X87966633Y-95586633D01*
X88092847Y-95432840D01*
X88186632Y-95257380D01*
X88244385Y-95066994D01*
X88259000Y-94918608D01*
X88259000Y-94918606D01*
X88263886Y-94869001D01*
X88259000Y-94819396D01*
X88259000Y-87044604D01*
X88263886Y-86994999D01*
X88254429Y-86898986D01*
X88244385Y-86797006D01*
X88186632Y-86606620D01*
X88092847Y-86431160D01*
X87966633Y-86277367D01*
X87928094Y-86245739D01*
X86760000Y-85077645D01*
X86760000Y-84276607D01*
X86775812Y-84224482D01*
X86788072Y-84100000D01*
X86788072Y-81100000D01*
X86775812Y-80975518D01*
X86739502Y-80855820D01*
X86680537Y-80745506D01*
X86601185Y-80648815D01*
X86504494Y-80569463D01*
X86394180Y-80510498D01*
X86274482Y-80474188D01*
X86150000Y-80461928D01*
X85350000Y-80461928D01*
X85225518Y-80474188D01*
X85105820Y-80510498D01*
X85000000Y-80567061D01*
X84894180Y-80510498D01*
X84774482Y-80474188D01*
X84650000Y-80461928D01*
X83850000Y-80461928D01*
X83725518Y-80474188D01*
X83605820Y-80510498D01*
X83500000Y-80567061D01*
X83394180Y-80510498D01*
X83274482Y-80474188D01*
X83150000Y-80461928D01*
X82350000Y-80461928D01*
X82225518Y-80474188D01*
X82105820Y-80510498D01*
X82000000Y-80567061D01*
X81894180Y-80510498D01*
X81774482Y-80474188D01*
X81650000Y-80461928D01*
X80850000Y-80461928D01*
X80725518Y-80474188D01*
X80605820Y-80510498D01*
X80500000Y-80567061D01*
X80394180Y-80510498D01*
X80274482Y-80474188D01*
X80150000Y-80461928D01*
X79350000Y-80461928D01*
X79225518Y-80474188D01*
X79105820Y-80510498D01*
X79000000Y-80567061D01*
X78894180Y-80510498D01*
X78774482Y-80474188D01*
X78650000Y-80461928D01*
X77850000Y-80461928D01*
X77725518Y-80474188D01*
X77605820Y-80510498D01*
X77500000Y-80567061D01*
X77394180Y-80510498D01*
X77274482Y-80474188D01*
X77150000Y-80461928D01*
X76350000Y-80461928D01*
X76225518Y-80474188D01*
X76105820Y-80510498D01*
X76000000Y-80567061D01*
X75894180Y-80510498D01*
X75774482Y-80474188D01*
X75650000Y-80461928D01*
X74850000Y-80461928D01*
X74725518Y-80474188D01*
X74605820Y-80510498D01*
X74500000Y-80567061D01*
X74394180Y-80510498D01*
X74274482Y-80474188D01*
X74150000Y-80461928D01*
X73350000Y-80461928D01*
X73225518Y-80474188D01*
X73105820Y-80510498D01*
X73000000Y-80567061D01*
X72894180Y-80510498D01*
X72774482Y-80474188D01*
X72650000Y-80461928D01*
X71850000Y-80461928D01*
X71725518Y-80474188D01*
X71605820Y-80510498D01*
X71500000Y-80567061D01*
X71394180Y-80510498D01*
X71274482Y-80474188D01*
X71150000Y-80461928D01*
X70350000Y-80461928D01*
X70225518Y-80474188D01*
X70105820Y-80510498D01*
X70000000Y-80567061D01*
X69894180Y-80510498D01*
X69774482Y-80474188D01*
X69650000Y-80461928D01*
X68850000Y-80461928D01*
X68725518Y-80474188D01*
X68605820Y-80510498D01*
X68500000Y-80567061D01*
X68394180Y-80510498D01*
X68274482Y-80474188D01*
X68150000Y-80461928D01*
X67350000Y-80461928D01*
X67225518Y-80474188D01*
X67105820Y-80510498D01*
X67000000Y-80567061D01*
X66894180Y-80510498D01*
X66774482Y-80474188D01*
X66650000Y-80461928D01*
X65850000Y-80461928D01*
X65725518Y-80474188D01*
X65605820Y-80510498D01*
X65500000Y-80567061D01*
X65394180Y-80510498D01*
X65274482Y-80474188D01*
X65150000Y-80461928D01*
X64350000Y-80461928D01*
X64225518Y-80474188D01*
X64105820Y-80510498D01*
X64000000Y-80567061D01*
X63894180Y-80510498D01*
X63774482Y-80474188D01*
X63650000Y-80461928D01*
X62850000Y-80461928D01*
X62725518Y-80474188D01*
X62605820Y-80510498D01*
X62500000Y-80567061D01*
X62394180Y-80510498D01*
X62274482Y-80474188D01*
X62150000Y-80461928D01*
X61350000Y-80461928D01*
X61225518Y-80474188D01*
X61105820Y-80510498D01*
X61000000Y-80567061D01*
X60894180Y-80510498D01*
X60774482Y-80474188D01*
X60650000Y-80461928D01*
X59850000Y-80461928D01*
X59725518Y-80474188D01*
X59605820Y-80510498D01*
X59500000Y-80567061D01*
X59394180Y-80510498D01*
X59274482Y-80474188D01*
X59150000Y-80461928D01*
X58350000Y-80461928D01*
X58225518Y-80474188D01*
X58105820Y-80510498D01*
X58000000Y-80567061D01*
X57894180Y-80510498D01*
X57774482Y-80474188D01*
X57650000Y-80461928D01*
X56850000Y-80461928D01*
X56725518Y-80474188D01*
X56605820Y-80510498D01*
X56500000Y-80567061D01*
X56394180Y-80510498D01*
X56274482Y-80474188D01*
X56150000Y-80461928D01*
X55350000Y-80461928D01*
X55225518Y-80474188D01*
X55105820Y-80510498D01*
X55000000Y-80567061D01*
X54894180Y-80510498D01*
X54774482Y-80474188D01*
X54650000Y-80461928D01*
X53850000Y-80461928D01*
X53725518Y-80474188D01*
X53605820Y-80510498D01*
X53500000Y-80567061D01*
X53394180Y-80510498D01*
X53274482Y-80474188D01*
X53150000Y-80461928D01*
X52350000Y-80461928D01*
X52225518Y-80474188D01*
X52105820Y-80510498D01*
X52000000Y-80567061D01*
X51894180Y-80510498D01*
X51774482Y-80474188D01*
X51650000Y-80461928D01*
X50850000Y-80461928D01*
X50725518Y-80474188D01*
X50605820Y-80510498D01*
X50500000Y-80567061D01*
X50394180Y-80510498D01*
X50274482Y-80474188D01*
X50150000Y-80461928D01*
X49350000Y-80461928D01*
X49225518Y-80474188D01*
X49105820Y-80510498D01*
X49000000Y-80567061D01*
X48894180Y-80510498D01*
X48774482Y-80474188D01*
X48650000Y-80461928D01*
X47850000Y-80461928D01*
X47725518Y-80474188D01*
X47605820Y-80510498D01*
X47500000Y-80567061D01*
X47394180Y-80510498D01*
X47274482Y-80474188D01*
X47150000Y-80461928D01*
X46350000Y-80461928D01*
X46225518Y-80474188D01*
X46105820Y-80510498D01*
X46000000Y-80567061D01*
X45894180Y-80510498D01*
X45774482Y-80474188D01*
X45650000Y-80461928D01*
X44850000Y-80461928D01*
X44725518Y-80474188D01*
X44605820Y-80510498D01*
X44500000Y-80567061D01*
X44394180Y-80510498D01*
X44274482Y-80474188D01*
X44150000Y-80461928D01*
X43350000Y-80461928D01*
X43225518Y-80474188D01*
X43105820Y-80510498D01*
X43000000Y-80567061D01*
X42894180Y-80510498D01*
X42774482Y-80474188D01*
X42650000Y-80461928D01*
X41850000Y-80461928D01*
X41725518Y-80474188D01*
X41605820Y-80510498D01*
X41500000Y-80567061D01*
X41394180Y-80510498D01*
X41274482Y-80474188D01*
X41150000Y-80461928D01*
X40350000Y-80461928D01*
X40225518Y-80474188D01*
X40105820Y-80510498D01*
X40000000Y-80567061D01*
X39894180Y-80510498D01*
X39774482Y-80474188D01*
X39650000Y-80461928D01*
X39535750Y-80465000D01*
X39377000Y-80623750D01*
X39377000Y-82473000D01*
X39397000Y-82473000D01*
X39397000Y-82727000D01*
X39377000Y-82727000D01*
X39377000Y-84576250D01*
X39535750Y-84735000D01*
X39650000Y-84738072D01*
X39774482Y-84725812D01*
X39894180Y-84689502D01*
X39990000Y-84638284D01*
X39990001Y-91768738D01*
X39837507Y-91921232D01*
X39781932Y-91641842D01*
X39669990Y-91371589D01*
X39507475Y-91128368D01*
X39300632Y-90921525D01*
X39057411Y-90759010D01*
X38787158Y-90647068D01*
X38500260Y-90590000D01*
X38207740Y-90590000D01*
X37920842Y-90647068D01*
X37650589Y-90759010D01*
X37407368Y-90921525D01*
X37200525Y-91128368D01*
X37038010Y-91371589D01*
X36926068Y-91641842D01*
X36869000Y-91928740D01*
X36869000Y-92221260D01*
X36926068Y-92508158D01*
X37038010Y-92778411D01*
X37200525Y-93021632D01*
X37407368Y-93228475D01*
X37581760Y-93345000D01*
X37407368Y-93461525D01*
X37200525Y-93668368D01*
X37038010Y-93911589D01*
X36926068Y-94181842D01*
X36869000Y-94468740D01*
X36869000Y-94761260D01*
X36926068Y-95048158D01*
X37038010Y-95318411D01*
X37200525Y-95561632D01*
X37407368Y-95768475D01*
X37581760Y-95885000D01*
X37407368Y-96001525D01*
X37200525Y-96208368D01*
X37038010Y-96451589D01*
X36926068Y-96721842D01*
X36869000Y-97008740D01*
X36869000Y-97301260D01*
X36926068Y-97588158D01*
X37038010Y-97858411D01*
X37200525Y-98101632D01*
X37407368Y-98308475D01*
X37581760Y-98425000D01*
X37407368Y-98541525D01*
X37200525Y-98748368D01*
X37038010Y-98991589D01*
X36926068Y-99261842D01*
X36869000Y-99548740D01*
X36869000Y-99841260D01*
X36926068Y-100128158D01*
X37038010Y-100398411D01*
X37200525Y-100641632D01*
X37407368Y-100848475D01*
X37581760Y-100965000D01*
X37407368Y-101081525D01*
X37200525Y-101288368D01*
X37038010Y-101531589D01*
X36926068Y-101801842D01*
X36869000Y-102088740D01*
X36869000Y-102381260D01*
X36926068Y-102668158D01*
X37038010Y-102938411D01*
X37200525Y-103181632D01*
X37407368Y-103388475D01*
X37650589Y-103550990D01*
X37920842Y-103662932D01*
X38207740Y-103720000D01*
X38500260Y-103720000D01*
X38787158Y-103662932D01*
X39057411Y-103550990D01*
X39300632Y-103388475D01*
X39499000Y-103190107D01*
X39499001Y-122898667D01*
X39495324Y-122936000D01*
X39499001Y-122973333D01*
X39507668Y-123061324D01*
X39509998Y-123084985D01*
X39553454Y-123228246D01*
X39624026Y-123360276D01*
X39695201Y-123447002D01*
X39719000Y-123476001D01*
X39747998Y-123499799D01*
X42119790Y-125871592D01*
X42076000Y-126091740D01*
X42076000Y-126384260D01*
X42133068Y-126671158D01*
X42245010Y-126941411D01*
X42407525Y-127184632D01*
X42539380Y-127316487D01*
X42466820Y-127338498D01*
X42356506Y-127397463D01*
X42259815Y-127476815D01*
X42180463Y-127573506D01*
X42121498Y-127683820D01*
X42085188Y-127803518D01*
X42072928Y-127928000D01*
X42076000Y-128492250D01*
X42234750Y-128651000D01*
X43434000Y-128651000D01*
X43434000Y-128631000D01*
X43688000Y-128631000D01*
X43688000Y-128651000D01*
X43708000Y-128651000D01*
X43708000Y-128905000D01*
X43688000Y-128905000D01*
X43688000Y-130104250D01*
X43846750Y-130263000D01*
X43976002Y-130263704D01*
X43976001Y-165699197D01*
X40238998Y-169436201D01*
X40210000Y-169459999D01*
X40186203Y-169488996D01*
X40186201Y-169488998D01*
X40115026Y-169575724D01*
X40044454Y-169707754D01*
X40034977Y-169738997D01*
X40000998Y-169851014D01*
X39998716Y-169874188D01*
X39995091Y-169910985D01*
X39994180Y-169910498D01*
X39874482Y-169874188D01*
X39750000Y-169861928D01*
X39285750Y-169865000D01*
X39127000Y-170023750D01*
X39127000Y-173123000D01*
X39147000Y-173123000D01*
X39147000Y-173377000D01*
X39127000Y-173377000D01*
X39127000Y-173397000D01*
X38873000Y-173397000D01*
X38873000Y-173377000D01*
X38853000Y-173377000D01*
X38853000Y-173123000D01*
X38873000Y-173123000D01*
X38873000Y-170023750D01*
X38714250Y-169865000D01*
X38660000Y-169864641D01*
X38660000Y-168032418D01*
X38663193Y-168000000D01*
X38650450Y-167870617D01*
X38612710Y-167746207D01*
X38551425Y-167631550D01*
X38468948Y-167531052D01*
X38368450Y-167448575D01*
X38253793Y-167387290D01*
X38129383Y-167349550D01*
X38000000Y-167336807D01*
X37967581Y-167340000D01*
X37660000Y-167340000D01*
X37660000Y-129628000D01*
X42072928Y-129628000D01*
X42085188Y-129752482D01*
X42121498Y-129872180D01*
X42180463Y-129982494D01*
X42259815Y-130079185D01*
X42356506Y-130158537D01*
X42466820Y-130217502D01*
X42586518Y-130253812D01*
X42711000Y-130266072D01*
X43275250Y-130263000D01*
X43434000Y-130104250D01*
X43434000Y-128905000D01*
X42234750Y-128905000D01*
X42076000Y-129063750D01*
X42072928Y-129628000D01*
X37660000Y-129628000D01*
X37660000Y-105282419D01*
X37663193Y-105250000D01*
X37650450Y-105120617D01*
X37612710Y-104996207D01*
X37551425Y-104881550D01*
X37468948Y-104781052D01*
X37368450Y-104698575D01*
X37253793Y-104637290D01*
X37129383Y-104599550D01*
X37032419Y-104590000D01*
X37000000Y-104586807D01*
X36967581Y-104590000D01*
X32660000Y-104590000D01*
X32660000Y-84100000D01*
X38211928Y-84100000D01*
X38224188Y-84224482D01*
X38260498Y-84344180D01*
X38319463Y-84454494D01*
X38398815Y-84551185D01*
X38495506Y-84630537D01*
X38605820Y-84689502D01*
X38725518Y-84725812D01*
X38850000Y-84738072D01*
X38964250Y-84735000D01*
X39123000Y-84576250D01*
X39123000Y-82727000D01*
X38373750Y-82727000D01*
X38215000Y-82885750D01*
X38211928Y-84100000D01*
X32660000Y-84100000D01*
X32660000Y-81100000D01*
X38211928Y-81100000D01*
X38215000Y-82314250D01*
X38373750Y-82473000D01*
X39123000Y-82473000D01*
X39123000Y-80623750D01*
X38964250Y-80465000D01*
X38850000Y-80461928D01*
X38725518Y-80474188D01*
X38605820Y-80510498D01*
X38495506Y-80569463D01*
X38398815Y-80648815D01*
X38319463Y-80745506D01*
X38260498Y-80855820D01*
X38224188Y-80975518D01*
X38211928Y-81100000D01*
X32660000Y-81100000D01*
X32660000Y-77000340D01*
X47654265Y-77000340D01*
X47900416Y-77392704D01*
X48402822Y-77658312D01*
X48947393Y-77820801D01*
X49513199Y-77873928D01*
X50078498Y-77815652D01*
X50621566Y-77648210D01*
X51099584Y-77392704D01*
X51345735Y-77000340D01*
X73654265Y-77000340D01*
X73900416Y-77392704D01*
X74402822Y-77658312D01*
X74947393Y-77820801D01*
X75513199Y-77873928D01*
X76078498Y-77815652D01*
X76621566Y-77648210D01*
X77099584Y-77392704D01*
X77345735Y-77000340D01*
X75500000Y-75154605D01*
X73654265Y-77000340D01*
X51345735Y-77000340D01*
X49500000Y-75154605D01*
X47654265Y-77000340D01*
X32660000Y-77000340D01*
X32660000Y-74988199D01*
X46601072Y-74988199D01*
X46659348Y-75553498D01*
X46826790Y-76096566D01*
X47082296Y-76574584D01*
X47474660Y-76820735D01*
X49320395Y-74975000D01*
X49679605Y-74975000D01*
X51525340Y-76820735D01*
X51917704Y-76574584D01*
X52183312Y-76072178D01*
X52345801Y-75527607D01*
X52396449Y-74988199D01*
X72601072Y-74988199D01*
X72659348Y-75553498D01*
X72826790Y-76096566D01*
X73082296Y-76574584D01*
X73474660Y-76820735D01*
X75320395Y-74975000D01*
X75679605Y-74975000D01*
X77525340Y-76820735D01*
X77917704Y-76574584D01*
X78183312Y-76072178D01*
X78345801Y-75527607D01*
X78398928Y-74961801D01*
X78340652Y-74396502D01*
X78173210Y-73853434D01*
X77917704Y-73375416D01*
X77525340Y-73129265D01*
X75679605Y-74975000D01*
X75320395Y-74975000D01*
X73474660Y-73129265D01*
X73082296Y-73375416D01*
X72816688Y-73877822D01*
X72654199Y-74422393D01*
X72601072Y-74988199D01*
X52396449Y-74988199D01*
X52398928Y-74961801D01*
X52340652Y-74396502D01*
X52173210Y-73853434D01*
X51917704Y-73375416D01*
X51525340Y-73129265D01*
X49679605Y-74975000D01*
X49320395Y-74975000D01*
X47474660Y-73129265D01*
X47082296Y-73375416D01*
X46816688Y-73877822D01*
X46654199Y-74422393D01*
X46601072Y-74988199D01*
X32660000Y-74988199D01*
X32660000Y-72949660D01*
X47654265Y-72949660D01*
X49500000Y-74795395D01*
X51345735Y-72949660D01*
X73654265Y-72949660D01*
X75500000Y-74795395D01*
X77345735Y-72949660D01*
X77099584Y-72557296D01*
X76597178Y-72291688D01*
X76052607Y-72129199D01*
X75486801Y-72076072D01*
X74921502Y-72134348D01*
X74378434Y-72301790D01*
X73900416Y-72557296D01*
X73654265Y-72949660D01*
X51345735Y-72949660D01*
X51099584Y-72557296D01*
X50597178Y-72291688D01*
X50052607Y-72129199D01*
X49486801Y-72076072D01*
X48921502Y-72134348D01*
X48378434Y-72301790D01*
X47900416Y-72557296D01*
X47654265Y-72949660D01*
X32660000Y-72949660D01*
X32660000Y-63725000D01*
X46611928Y-63725000D01*
X46624188Y-63849482D01*
X46660498Y-63969180D01*
X46719463Y-64079494D01*
X46798815Y-64176185D01*
X46895506Y-64255537D01*
X47005820Y-64314502D01*
X47125518Y-64350812D01*
X47250000Y-64363072D01*
X49214250Y-64360000D01*
X49373000Y-64201250D01*
X49373000Y-62352000D01*
X49627000Y-62352000D01*
X49627000Y-64201250D01*
X49785750Y-64360000D01*
X51750000Y-64363072D01*
X51874482Y-64350812D01*
X51994180Y-64314502D01*
X52104494Y-64255537D01*
X52201185Y-64176185D01*
X52280537Y-64079494D01*
X52339502Y-63969180D01*
X52375812Y-63849482D01*
X52388072Y-63725000D01*
X72611928Y-63725000D01*
X72624188Y-63849482D01*
X72660498Y-63969180D01*
X72719463Y-64079494D01*
X72798815Y-64176185D01*
X72895506Y-64255537D01*
X73005820Y-64314502D01*
X73125518Y-64350812D01*
X73250000Y-64363072D01*
X75214250Y-64360000D01*
X75373000Y-64201250D01*
X75373000Y-62352000D01*
X75627000Y-62352000D01*
X75627000Y-64201250D01*
X75785750Y-64360000D01*
X77750000Y-64363072D01*
X77874482Y-64350812D01*
X77994180Y-64314502D01*
X78104494Y-64255537D01*
X78201185Y-64176185D01*
X78280537Y-64079494D01*
X78339502Y-63969180D01*
X78375812Y-63849482D01*
X78388072Y-63725000D01*
X78385000Y-62510750D01*
X78226250Y-62352000D01*
X75627000Y-62352000D01*
X75373000Y-62352000D01*
X72773750Y-62352000D01*
X72615000Y-62510750D01*
X72611928Y-63725000D01*
X52388072Y-63725000D01*
X52385000Y-62510750D01*
X52226250Y-62352000D01*
X49627000Y-62352000D01*
X49373000Y-62352000D01*
X46773750Y-62352000D01*
X46615000Y-62510750D01*
X46611928Y-63725000D01*
X32660000Y-63725000D01*
X32660000Y-60725000D01*
X46611928Y-60725000D01*
X46615000Y-61939250D01*
X46773750Y-62098000D01*
X49373000Y-62098000D01*
X49373000Y-60248750D01*
X49627000Y-60248750D01*
X49627000Y-62098000D01*
X52226250Y-62098000D01*
X52385000Y-61939250D01*
X52388072Y-60725000D01*
X72611928Y-60725000D01*
X72615000Y-61939250D01*
X72773750Y-62098000D01*
X75373000Y-62098000D01*
X75373000Y-60248750D01*
X75627000Y-60248750D01*
X75627000Y-62098000D01*
X78226250Y-62098000D01*
X78385000Y-61939250D01*
X78388072Y-60725000D01*
X78375812Y-60600518D01*
X78339502Y-60480820D01*
X78280537Y-60370506D01*
X78201185Y-60273815D01*
X78104494Y-60194463D01*
X77994180Y-60135498D01*
X77874482Y-60099188D01*
X77750000Y-60086928D01*
X75785750Y-60090000D01*
X75627000Y-60248750D01*
X75373000Y-60248750D01*
X75214250Y-60090000D01*
X73250000Y-60086928D01*
X73125518Y-60099188D01*
X73005820Y-60135498D01*
X72895506Y-60194463D01*
X72798815Y-60273815D01*
X72719463Y-60370506D01*
X72660498Y-60480820D01*
X72624188Y-60600518D01*
X72611928Y-60725000D01*
X52388072Y-60725000D01*
X52375812Y-60600518D01*
X52339502Y-60480820D01*
X52280537Y-60370506D01*
X52201185Y-60273815D01*
X52104494Y-60194463D01*
X51994180Y-60135498D01*
X51874482Y-60099188D01*
X51750000Y-60086928D01*
X49785750Y-60090000D01*
X49627000Y-60248750D01*
X49373000Y-60248750D01*
X49214250Y-60090000D01*
X47250000Y-60086928D01*
X47125518Y-60099188D01*
X47005820Y-60135498D01*
X46895506Y-60194463D01*
X46798815Y-60273815D01*
X46719463Y-60370506D01*
X46660498Y-60480820D01*
X46624188Y-60600518D01*
X46611928Y-60725000D01*
X32660000Y-60725000D01*
X32660000Y-58910000D01*
X92340000Y-58910000D01*
X92340001Y-104590000D01*
G37*
X92340001Y-104590000D02*
X88032419Y-104590000D01*
X88000000Y-104586807D01*
X87967581Y-104590000D01*
X87870617Y-104599550D01*
X87746207Y-104637290D01*
X87631550Y-104698575D01*
X87531052Y-104781052D01*
X87448575Y-104881550D01*
X87387290Y-104996207D01*
X87349550Y-105120617D01*
X87336807Y-105250000D01*
X87340001Y-105282430D01*
X87340000Y-130373000D01*
X86993563Y-130373000D01*
X86937632Y-130188620D01*
X86934801Y-130183323D01*
X86843847Y-130013160D01*
X86717633Y-129859367D01*
X86679100Y-129827744D01*
X83146000Y-126294645D01*
X83146000Y-126091740D01*
X83088932Y-125804842D01*
X82976990Y-125534589D01*
X82814475Y-125291368D01*
X82607632Y-125084525D01*
X82364411Y-124922010D01*
X82094158Y-124810068D01*
X81807260Y-124753000D01*
X81514740Y-124753000D01*
X81227842Y-124810068D01*
X80957589Y-124922010D01*
X80854017Y-124991215D01*
X74680333Y-118817532D01*
X74744411Y-118790990D01*
X74987632Y-118628475D01*
X75119487Y-118496620D01*
X75141498Y-118569180D01*
X75200463Y-118679494D01*
X75279815Y-118776185D01*
X75376506Y-118855537D01*
X75486820Y-118914502D01*
X75606518Y-118950812D01*
X75731000Y-118963072D01*
X76295250Y-118960000D01*
X76454000Y-118801250D01*
X76454000Y-117602000D01*
X76434000Y-117602000D01*
X76434000Y-117348000D01*
X76454000Y-117348000D01*
X76454000Y-116148750D01*
X76295250Y-115990000D01*
X75731000Y-115986928D01*
X75606518Y-115999188D01*
X75486820Y-116035498D01*
X75376506Y-116094463D01*
X75279815Y-116173815D01*
X75200463Y-116270506D01*
X75141498Y-116380820D01*
X75119487Y-116453380D01*
X75051000Y-116384893D01*
X75051000Y-112940355D01*
X78108825Y-109882530D01*
X78111001Y-109904618D01*
X78111000Y-116384893D01*
X78042513Y-116453380D01*
X78020502Y-116380820D01*
X77961537Y-116270506D01*
X77882185Y-116173815D01*
X77785494Y-116094463D01*
X77675180Y-116035498D01*
X77555482Y-115999188D01*
X77431000Y-115986928D01*
X76866750Y-115990000D01*
X76708000Y-116148750D01*
X76708000Y-117348000D01*
X76728000Y-117348000D01*
X76728000Y-117602000D01*
X76708000Y-117602000D01*
X76708000Y-118801250D01*
X76866750Y-118960000D01*
X77431000Y-118963072D01*
X77555482Y-118950812D01*
X77675180Y-118914502D01*
X77785494Y-118855537D01*
X77882185Y-118776185D01*
X77961537Y-118679494D01*
X78020502Y-118569180D01*
X78042513Y-118496620D01*
X78174368Y-118628475D01*
X78417589Y-118790990D01*
X78687842Y-118902932D01*
X78974740Y-118960000D01*
X79267260Y-118960000D01*
X79554158Y-118902932D01*
X79824411Y-118790990D01*
X80067632Y-118628475D01*
X80274475Y-118421632D01*
X80436990Y-118178411D01*
X80548932Y-117908158D01*
X80606000Y-117621260D01*
X80606000Y-117328740D01*
X80548932Y-117041842D01*
X80436990Y-116771589D01*
X80274475Y-116528368D01*
X80131000Y-116384893D01*
X80131000Y-110273355D01*
X83864100Y-106540256D01*
X83902633Y-106508633D01*
X84028847Y-106354840D01*
X84122632Y-106179380D01*
X84180385Y-105988994D01*
X84195000Y-105840608D01*
X84195000Y-105840607D01*
X84199886Y-105791000D01*
X84195000Y-105741392D01*
X84195000Y-103507833D01*
X84259589Y-103550990D01*
X84529842Y-103662932D01*
X84816740Y-103720000D01*
X85109260Y-103720000D01*
X85396158Y-103662932D01*
X85666411Y-103550990D01*
X85909632Y-103388475D01*
X86116475Y-103181632D01*
X86278990Y-102938411D01*
X86390932Y-102668158D01*
X86448000Y-102381260D01*
X86448000Y-102088740D01*
X86390932Y-101801842D01*
X86278990Y-101531589D01*
X86116475Y-101288368D01*
X85909632Y-101081525D01*
X85735240Y-100965000D01*
X85909632Y-100848475D01*
X86116475Y-100641632D01*
X86278990Y-100398411D01*
X86390932Y-100128158D01*
X86448000Y-99841260D01*
X86448000Y-99548740D01*
X86390932Y-99261842D01*
X86278990Y-98991589D01*
X86116475Y-98748368D01*
X85909632Y-98541525D01*
X85735240Y-98425000D01*
X85909632Y-98308475D01*
X86116475Y-98101632D01*
X86278990Y-97858411D01*
X86390932Y-97588158D01*
X86448000Y-97301260D01*
X86448000Y-97098355D01*
X87928094Y-95618261D01*
X87966633Y-95586633D01*
X88092847Y-95432840D01*
X88186632Y-95257380D01*
X88244385Y-95066994D01*
X88259000Y-94918608D01*
X88259000Y-94918606D01*
X88263886Y-94869001D01*
X88259000Y-94819396D01*
X88259000Y-87044604D01*
X88263886Y-86994999D01*
X88254429Y-86898986D01*
X88244385Y-86797006D01*
X88186632Y-86606620D01*
X88092847Y-86431160D01*
X87966633Y-86277367D01*
X87928094Y-86245739D01*
X86760000Y-85077645D01*
X86760000Y-84276607D01*
X86775812Y-84224482D01*
X86788072Y-84100000D01*
X86788072Y-81100000D01*
X86775812Y-80975518D01*
X86739502Y-80855820D01*
X86680537Y-80745506D01*
X86601185Y-80648815D01*
X86504494Y-80569463D01*
X86394180Y-80510498D01*
X86274482Y-80474188D01*
X86150000Y-80461928D01*
X85350000Y-80461928D01*
X85225518Y-80474188D01*
X85105820Y-80510498D01*
X85000000Y-80567061D01*
X84894180Y-80510498D01*
X84774482Y-80474188D01*
X84650000Y-80461928D01*
X83850000Y-80461928D01*
X83725518Y-80474188D01*
X83605820Y-80510498D01*
X83500000Y-80567061D01*
X83394180Y-80510498D01*
X83274482Y-80474188D01*
X83150000Y-80461928D01*
X82350000Y-80461928D01*
X82225518Y-80474188D01*
X82105820Y-80510498D01*
X82000000Y-80567061D01*
X81894180Y-80510498D01*
X81774482Y-80474188D01*
X81650000Y-80461928D01*
X80850000Y-80461928D01*
X80725518Y-80474188D01*
X80605820Y-80510498D01*
X80500000Y-80567061D01*
X80394180Y-80510498D01*
X80274482Y-80474188D01*
X80150000Y-80461928D01*
X79350000Y-80461928D01*
X79225518Y-80474188D01*
X79105820Y-80510498D01*
X79000000Y-80567061D01*
X78894180Y-80510498D01*
X78774482Y-80474188D01*
X78650000Y-80461928D01*
X77850000Y-80461928D01*
X77725518Y-80474188D01*
X77605820Y-80510498D01*
X77500000Y-80567061D01*
X77394180Y-80510498D01*
X77274482Y-80474188D01*
X77150000Y-80461928D01*
X76350000Y-80461928D01*
X76225518Y-80474188D01*
X76105820Y-80510498D01*
X76000000Y-80567061D01*
X75894180Y-80510498D01*
X75774482Y-80474188D01*
X75650000Y-80461928D01*
X74850000Y-80461928D01*
X74725518Y-80474188D01*
X74605820Y-80510498D01*
X74500000Y-80567061D01*
X74394180Y-80510498D01*
X74274482Y-80474188D01*
X74150000Y-80461928D01*
X73350000Y-80461928D01*
X73225518Y-80474188D01*
X73105820Y-80510498D01*
X73000000Y-80567061D01*
X72894180Y-80510498D01*
X72774482Y-80474188D01*
X72650000Y-80461928D01*
X71850000Y-80461928D01*
X71725518Y-80474188D01*
X71605820Y-80510498D01*
X71500000Y-80567061D01*
X71394180Y-80510498D01*
X71274482Y-80474188D01*
X71150000Y-80461928D01*
X70350000Y-80461928D01*
X70225518Y-80474188D01*
X70105820Y-80510498D01*
X70000000Y-80567061D01*
X69894180Y-80510498D01*
X69774482Y-80474188D01*
X69650000Y-80461928D01*
X68850000Y-80461928D01*
X68725518Y-80474188D01*
X68605820Y-80510498D01*
X68500000Y-80567061D01*
X68394180Y-80510498D01*
X68274482Y-80474188D01*
X68150000Y-80461928D01*
X67350000Y-80461928D01*
X67225518Y-80474188D01*
X67105820Y-80510498D01*
X67000000Y-80567061D01*
X66894180Y-80510498D01*
X66774482Y-80474188D01*
X66650000Y-80461928D01*
X65850000Y-80461928D01*
X65725518Y-80474188D01*
X65605820Y-80510498D01*
X65500000Y-80567061D01*
X65394180Y-80510498D01*
X65274482Y-80474188D01*
X65150000Y-80461928D01*
X64350000Y-80461928D01*
X64225518Y-80474188D01*
X64105820Y-80510498D01*
X64000000Y-80567061D01*
X63894180Y-80510498D01*
X63774482Y-80474188D01*
X63650000Y-80461928D01*
X62850000Y-80461928D01*
X62725518Y-80474188D01*
X62605820Y-80510498D01*
X62500000Y-80567061D01*
X62394180Y-80510498D01*
X62274482Y-80474188D01*
X62150000Y-80461928D01*
X61350000Y-80461928D01*
X61225518Y-80474188D01*
X61105820Y-80510498D01*
X61000000Y-80567061D01*
X60894180Y-80510498D01*
X60774482Y-80474188D01*
X60650000Y-80461928D01*
X59850000Y-80461928D01*
X59725518Y-80474188D01*
X59605820Y-80510498D01*
X59500000Y-80567061D01*
X59394180Y-80510498D01*
X59274482Y-80474188D01*
X59150000Y-80461928D01*
X58350000Y-80461928D01*
X58225518Y-80474188D01*
X58105820Y-80510498D01*
X58000000Y-80567061D01*
X57894180Y-80510498D01*
X57774482Y-80474188D01*
X57650000Y-80461928D01*
X56850000Y-80461928D01*
X56725518Y-80474188D01*
X56605820Y-80510498D01*
X56500000Y-80567061D01*
X56394180Y-80510498D01*
X56274482Y-80474188D01*
X56150000Y-80461928D01*
X55350000Y-80461928D01*
X55225518Y-80474188D01*
X55105820Y-80510498D01*
X55000000Y-80567061D01*
X54894180Y-80510498D01*
X54774482Y-80474188D01*
X54650000Y-80461928D01*
X53850000Y-80461928D01*
X53725518Y-80474188D01*
X53605820Y-80510498D01*
X53500000Y-80567061D01*
X53394180Y-80510498D01*
X53274482Y-80474188D01*
X53150000Y-80461928D01*
X52350000Y-80461928D01*
X52225518Y-80474188D01*
X52105820Y-80510498D01*
X52000000Y-80567061D01*
X51894180Y-80510498D01*
X51774482Y-80474188D01*
X51650000Y-80461928D01*
X50850000Y-80461928D01*
X50725518Y-80474188D01*
X50605820Y-80510498D01*
X50500000Y-80567061D01*
X50394180Y-80510498D01*
X50274482Y-80474188D01*
X50150000Y-80461928D01*
X49350000Y-80461928D01*
X49225518Y-80474188D01*
X49105820Y-80510498D01*
X49000000Y-80567061D01*
X48894180Y-80510498D01*
X48774482Y-80474188D01*
X48650000Y-80461928D01*
X47850000Y-80461928D01*
X47725518Y-80474188D01*
X47605820Y-80510498D01*
X47500000Y-80567061D01*
X47394180Y-80510498D01*
X47274482Y-80474188D01*
X47150000Y-80461928D01*
X46350000Y-80461928D01*
X46225518Y-80474188D01*
X46105820Y-80510498D01*
X46000000Y-80567061D01*
X45894180Y-80510498D01*
X45774482Y-80474188D01*
X45650000Y-80461928D01*
X44850000Y-80461928D01*
X44725518Y-80474188D01*
X44605820Y-80510498D01*
X44500000Y-80567061D01*
X44394180Y-80510498D01*
X44274482Y-80474188D01*
X44150000Y-80461928D01*
X43350000Y-80461928D01*
X43225518Y-80474188D01*
X43105820Y-80510498D01*
X43000000Y-80567061D01*
X42894180Y-80510498D01*
X42774482Y-80474188D01*
X42650000Y-80461928D01*
X41850000Y-80461928D01*
X41725518Y-80474188D01*
X41605820Y-80510498D01*
X41500000Y-80567061D01*
X41394180Y-80510498D01*
X41274482Y-80474188D01*
X41150000Y-80461928D01*
X40350000Y-80461928D01*
X40225518Y-80474188D01*
X40105820Y-80510498D01*
X40000000Y-80567061D01*
X39894180Y-80510498D01*
X39774482Y-80474188D01*
X39650000Y-80461928D01*
X39535750Y-80465000D01*
X39377000Y-80623750D01*
X39377000Y-82473000D01*
X39397000Y-82473000D01*
X39397000Y-82727000D01*
X39377000Y-82727000D01*
X39377000Y-84576250D01*
X39535750Y-84735000D01*
X39650000Y-84738072D01*
X39774482Y-84725812D01*
X39894180Y-84689502D01*
X39990000Y-84638284D01*
X39990001Y-91768738D01*
X39837507Y-91921232D01*
X39781932Y-91641842D01*
X39669990Y-91371589D01*
X39507475Y-91128368D01*
X39300632Y-90921525D01*
X39057411Y-90759010D01*
X38787158Y-90647068D01*
X38500260Y-90590000D01*
X38207740Y-90590000D01*
X37920842Y-90647068D01*
X37650589Y-90759010D01*
X37407368Y-90921525D01*
X37200525Y-91128368D01*
X37038010Y-91371589D01*
X36926068Y-91641842D01*
X36869000Y-91928740D01*
X36869000Y-92221260D01*
X36926068Y-92508158D01*
X37038010Y-92778411D01*
X37200525Y-93021632D01*
X37407368Y-93228475D01*
X37581760Y-93345000D01*
X37407368Y-93461525D01*
X37200525Y-93668368D01*
X37038010Y-93911589D01*
X36926068Y-94181842D01*
X36869000Y-94468740D01*
X36869000Y-94761260D01*
X36926068Y-95048158D01*
X37038010Y-95318411D01*
X37200525Y-95561632D01*
X37407368Y-95768475D01*
X37581760Y-95885000D01*
X37407368Y-96001525D01*
X37200525Y-96208368D01*
X37038010Y-96451589D01*
X36926068Y-96721842D01*
X36869000Y-97008740D01*
X36869000Y-97301260D01*
X36926068Y-97588158D01*
X37038010Y-97858411D01*
X37200525Y-98101632D01*
X37407368Y-98308475D01*
X37581760Y-98425000D01*
X37407368Y-98541525D01*
X37200525Y-98748368D01*
X37038010Y-98991589D01*
X36926068Y-99261842D01*
X36869000Y-99548740D01*
X36869000Y-99841260D01*
X36926068Y-100128158D01*
X37038010Y-100398411D01*
X37200525Y-100641632D01*
X37407368Y-100848475D01*
X37581760Y-100965000D01*
X37407368Y-101081525D01*
X37200525Y-101288368D01*
X37038010Y-101531589D01*
X36926068Y-101801842D01*
X36869000Y-102088740D01*
X36869000Y-102381260D01*
X36926068Y-102668158D01*
X37038010Y-102938411D01*
X37200525Y-103181632D01*
X37407368Y-103388475D01*
X37650589Y-103550990D01*
X37920842Y-103662932D01*
X38207740Y-103720000D01*
X38500260Y-103720000D01*
X38787158Y-103662932D01*
X39057411Y-103550990D01*
X39300632Y-103388475D01*
X39499000Y-103190107D01*
X39499001Y-122898667D01*
X39495324Y-122936000D01*
X39499001Y-122973333D01*
X39507668Y-123061324D01*
X39509998Y-123084985D01*
X39553454Y-123228246D01*
X39624026Y-123360276D01*
X39695201Y-123447002D01*
X39719000Y-123476001D01*
X39747998Y-123499799D01*
X42119790Y-125871592D01*
X42076000Y-126091740D01*
X42076000Y-126384260D01*
X42133068Y-126671158D01*
X42245010Y-126941411D01*
X42407525Y-127184632D01*
X42539380Y-127316487D01*
X42466820Y-127338498D01*
X42356506Y-127397463D01*
X42259815Y-127476815D01*
X42180463Y-127573506D01*
X42121498Y-127683820D01*
X42085188Y-127803518D01*
X42072928Y-127928000D01*
X42076000Y-128492250D01*
X42234750Y-128651000D01*
X43434000Y-128651000D01*
X43434000Y-128631000D01*
X43688000Y-128631000D01*
X43688000Y-128651000D01*
X43708000Y-128651000D01*
X43708000Y-128905000D01*
X43688000Y-128905000D01*
X43688000Y-130104250D01*
X43846750Y-130263000D01*
X43976002Y-130263704D01*
X43976001Y-165699197D01*
X40238998Y-169436201D01*
X40210000Y-169459999D01*
X40186203Y-169488996D01*
X40186201Y-169488998D01*
X40115026Y-169575724D01*
X40044454Y-169707754D01*
X40034977Y-169738997D01*
X40000998Y-169851014D01*
X39998716Y-169874188D01*
X39995091Y-169910985D01*
X39994180Y-169910498D01*
X39874482Y-169874188D01*
X39750000Y-169861928D01*
X39285750Y-169865000D01*
X39127000Y-170023750D01*
X39127000Y-173123000D01*
X39147000Y-173123000D01*
X39147000Y-173377000D01*
X39127000Y-173377000D01*
X39127000Y-173397000D01*
X38873000Y-173397000D01*
X38873000Y-173377000D01*
X38853000Y-173377000D01*
X38853000Y-173123000D01*
X38873000Y-173123000D01*
X38873000Y-170023750D01*
X38714250Y-169865000D01*
X38660000Y-169864641D01*
X38660000Y-168032418D01*
X38663193Y-168000000D01*
X38650450Y-167870617D01*
X38612710Y-167746207D01*
X38551425Y-167631550D01*
X38468948Y-167531052D01*
X38368450Y-167448575D01*
X38253793Y-167387290D01*
X38129383Y-167349550D01*
X38000000Y-167336807D01*
X37967581Y-167340000D01*
X37660000Y-167340000D01*
X37660000Y-129628000D01*
X42072928Y-129628000D01*
X42085188Y-129752482D01*
X42121498Y-129872180D01*
X42180463Y-129982494D01*
X42259815Y-130079185D01*
X42356506Y-130158537D01*
X42466820Y-130217502D01*
X42586518Y-130253812D01*
X42711000Y-130266072D01*
X43275250Y-130263000D01*
X43434000Y-130104250D01*
X43434000Y-128905000D01*
X42234750Y-128905000D01*
X42076000Y-129063750D01*
X42072928Y-129628000D01*
X37660000Y-129628000D01*
X37660000Y-105282419D01*
X37663193Y-105250000D01*
X37650450Y-105120617D01*
X37612710Y-104996207D01*
X37551425Y-104881550D01*
X37468948Y-104781052D01*
X37368450Y-104698575D01*
X37253793Y-104637290D01*
X37129383Y-104599550D01*
X37032419Y-104590000D01*
X37000000Y-104586807D01*
X36967581Y-104590000D01*
X32660000Y-104590000D01*
X32660000Y-84100000D01*
X38211928Y-84100000D01*
X38224188Y-84224482D01*
X38260498Y-84344180D01*
X38319463Y-84454494D01*
X38398815Y-84551185D01*
X38495506Y-84630537D01*
X38605820Y-84689502D01*
X38725518Y-84725812D01*
X38850000Y-84738072D01*
X38964250Y-84735000D01*
X39123000Y-84576250D01*
X39123000Y-82727000D01*
X38373750Y-82727000D01*
X38215000Y-82885750D01*
X38211928Y-84100000D01*
X32660000Y-84100000D01*
X32660000Y-81100000D01*
X38211928Y-81100000D01*
X38215000Y-82314250D01*
X38373750Y-82473000D01*
X39123000Y-82473000D01*
X39123000Y-80623750D01*
X38964250Y-80465000D01*
X38850000Y-80461928D01*
X38725518Y-80474188D01*
X38605820Y-80510498D01*
X38495506Y-80569463D01*
X38398815Y-80648815D01*
X38319463Y-80745506D01*
X38260498Y-80855820D01*
X38224188Y-80975518D01*
X38211928Y-81100000D01*
X32660000Y-81100000D01*
X32660000Y-77000340D01*
X47654265Y-77000340D01*
X47900416Y-77392704D01*
X48402822Y-77658312D01*
X48947393Y-77820801D01*
X49513199Y-77873928D01*
X50078498Y-77815652D01*
X50621566Y-77648210D01*
X51099584Y-77392704D01*
X51345735Y-77000340D01*
X73654265Y-77000340D01*
X73900416Y-77392704D01*
X74402822Y-77658312D01*
X74947393Y-77820801D01*
X75513199Y-77873928D01*
X76078498Y-77815652D01*
X76621566Y-77648210D01*
X77099584Y-77392704D01*
X77345735Y-77000340D01*
X75500000Y-75154605D01*
X73654265Y-77000340D01*
X51345735Y-77000340D01*
X49500000Y-75154605D01*
X47654265Y-77000340D01*
X32660000Y-77000340D01*
X32660000Y-74988199D01*
X46601072Y-74988199D01*
X46659348Y-75553498D01*
X46826790Y-76096566D01*
X47082296Y-76574584D01*
X47474660Y-76820735D01*
X49320395Y-74975000D01*
X49679605Y-74975000D01*
X51525340Y-76820735D01*
X51917704Y-76574584D01*
X52183312Y-76072178D01*
X52345801Y-75527607D01*
X52396449Y-74988199D01*
X72601072Y-74988199D01*
X72659348Y-75553498D01*
X72826790Y-76096566D01*
X73082296Y-76574584D01*
X73474660Y-76820735D01*
X75320395Y-74975000D01*
X75679605Y-74975000D01*
X77525340Y-76820735D01*
X77917704Y-76574584D01*
X78183312Y-76072178D01*
X78345801Y-75527607D01*
X78398928Y-74961801D01*
X78340652Y-74396502D01*
X78173210Y-73853434D01*
X77917704Y-73375416D01*
X77525340Y-73129265D01*
X75679605Y-74975000D01*
X75320395Y-74975000D01*
X73474660Y-73129265D01*
X73082296Y-73375416D01*
X72816688Y-73877822D01*
X72654199Y-74422393D01*
X72601072Y-74988199D01*
X52396449Y-74988199D01*
X52398928Y-74961801D01*
X52340652Y-74396502D01*
X52173210Y-73853434D01*
X51917704Y-73375416D01*
X51525340Y-73129265D01*
X49679605Y-74975000D01*
X49320395Y-74975000D01*
X47474660Y-73129265D01*
X47082296Y-73375416D01*
X46816688Y-73877822D01*
X46654199Y-74422393D01*
X46601072Y-74988199D01*
X32660000Y-74988199D01*
X32660000Y-72949660D01*
X47654265Y-72949660D01*
X49500000Y-74795395D01*
X51345735Y-72949660D01*
X73654265Y-72949660D01*
X75500000Y-74795395D01*
X77345735Y-72949660D01*
X77099584Y-72557296D01*
X76597178Y-72291688D01*
X76052607Y-72129199D01*
X75486801Y-72076072D01*
X74921502Y-72134348D01*
X74378434Y-72301790D01*
X73900416Y-72557296D01*
X73654265Y-72949660D01*
X51345735Y-72949660D01*
X51099584Y-72557296D01*
X50597178Y-72291688D01*
X50052607Y-72129199D01*
X49486801Y-72076072D01*
X48921502Y-72134348D01*
X48378434Y-72301790D01*
X47900416Y-72557296D01*
X47654265Y-72949660D01*
X32660000Y-72949660D01*
X32660000Y-63725000D01*
X46611928Y-63725000D01*
X46624188Y-63849482D01*
X46660498Y-63969180D01*
X46719463Y-64079494D01*
X46798815Y-64176185D01*
X46895506Y-64255537D01*
X47005820Y-64314502D01*
X47125518Y-64350812D01*
X47250000Y-64363072D01*
X49214250Y-64360000D01*
X49373000Y-64201250D01*
X49373000Y-62352000D01*
X49627000Y-62352000D01*
X49627000Y-64201250D01*
X49785750Y-64360000D01*
X51750000Y-64363072D01*
X51874482Y-64350812D01*
X51994180Y-64314502D01*
X52104494Y-64255537D01*
X52201185Y-64176185D01*
X52280537Y-64079494D01*
X52339502Y-63969180D01*
X52375812Y-63849482D01*
X52388072Y-63725000D01*
X72611928Y-63725000D01*
X72624188Y-63849482D01*
X72660498Y-63969180D01*
X72719463Y-64079494D01*
X72798815Y-64176185D01*
X72895506Y-64255537D01*
X73005820Y-64314502D01*
X73125518Y-64350812D01*
X73250000Y-64363072D01*
X75214250Y-64360000D01*
X75373000Y-64201250D01*
X75373000Y-62352000D01*
X75627000Y-62352000D01*
X75627000Y-64201250D01*
X75785750Y-64360000D01*
X77750000Y-64363072D01*
X77874482Y-64350812D01*
X77994180Y-64314502D01*
X78104494Y-64255537D01*
X78201185Y-64176185D01*
X78280537Y-64079494D01*
X78339502Y-63969180D01*
X78375812Y-63849482D01*
X78388072Y-63725000D01*
X78385000Y-62510750D01*
X78226250Y-62352000D01*
X75627000Y-62352000D01*
X75373000Y-62352000D01*
X72773750Y-62352000D01*
X72615000Y-62510750D01*
X72611928Y-63725000D01*
X52388072Y-63725000D01*
X52385000Y-62510750D01*
X52226250Y-62352000D01*
X49627000Y-62352000D01*
X49373000Y-62352000D01*
X46773750Y-62352000D01*
X46615000Y-62510750D01*
X46611928Y-63725000D01*
X32660000Y-63725000D01*
X32660000Y-60725000D01*
X46611928Y-60725000D01*
X46615000Y-61939250D01*
X46773750Y-62098000D01*
X49373000Y-62098000D01*
X49373000Y-60248750D01*
X49627000Y-60248750D01*
X49627000Y-62098000D01*
X52226250Y-62098000D01*
X52385000Y-61939250D01*
X52388072Y-60725000D01*
X72611928Y-60725000D01*
X72615000Y-61939250D01*
X72773750Y-62098000D01*
X75373000Y-62098000D01*
X75373000Y-60248750D01*
X75627000Y-60248750D01*
X75627000Y-62098000D01*
X78226250Y-62098000D01*
X78385000Y-61939250D01*
X78388072Y-60725000D01*
X78375812Y-60600518D01*
X78339502Y-60480820D01*
X78280537Y-60370506D01*
X78201185Y-60273815D01*
X78104494Y-60194463D01*
X77994180Y-60135498D01*
X77874482Y-60099188D01*
X77750000Y-60086928D01*
X75785750Y-60090000D01*
X75627000Y-60248750D01*
X75373000Y-60248750D01*
X75214250Y-60090000D01*
X73250000Y-60086928D01*
X73125518Y-60099188D01*
X73005820Y-60135498D01*
X72895506Y-60194463D01*
X72798815Y-60273815D01*
X72719463Y-60370506D01*
X72660498Y-60480820D01*
X72624188Y-60600518D01*
X72611928Y-60725000D01*
X52388072Y-60725000D01*
X52375812Y-60600518D01*
X52339502Y-60480820D01*
X52280537Y-60370506D01*
X52201185Y-60273815D01*
X52104494Y-60194463D01*
X51994180Y-60135498D01*
X51874482Y-60099188D01*
X51750000Y-60086928D01*
X49785750Y-60090000D01*
X49627000Y-60248750D01*
X49373000Y-60248750D01*
X49214250Y-60090000D01*
X47250000Y-60086928D01*
X47125518Y-60099188D01*
X47005820Y-60135498D01*
X46895506Y-60194463D01*
X46798815Y-60273815D01*
X46719463Y-60370506D01*
X46660498Y-60480820D01*
X46624188Y-60600518D01*
X46611928Y-60725000D01*
X32660000Y-60725000D01*
X32660000Y-58910000D01*
X92340000Y-58910000D01*
X92340001Y-104590000D01*
G36*
X50477589Y-130093990D02*
G01*
X50747842Y-130205932D01*
X51034740Y-130263000D01*
X51327260Y-130263000D01*
X51547408Y-130219209D01*
X57179803Y-135851605D01*
X57179802Y-160245395D01*
X47738998Y-169686201D01*
X47710000Y-169709999D01*
X47686202Y-169738997D01*
X47686201Y-169738998D01*
X47615026Y-169825724D01*
X47582078Y-169887365D01*
X47510000Y-169909230D01*
X47510000Y-139200881D01*
X49478724Y-139200881D01*
X49838912Y-139690548D01*
X50502882Y-140050849D01*
X51224385Y-140274694D01*
X51975695Y-140353480D01*
X52727938Y-140284178D01*
X53452208Y-140069452D01*
X54120670Y-139717555D01*
X54161088Y-139690548D01*
X54521276Y-139200881D01*
X52000000Y-136679605D01*
X49478724Y-139200881D01*
X47510000Y-139200881D01*
X47510000Y-136475695D01*
X48146520Y-136475695D01*
X48215822Y-137227938D01*
X48430548Y-137952208D01*
X48782445Y-138620670D01*
X48809452Y-138661088D01*
X49299119Y-139021276D01*
X51820395Y-136500000D01*
X52179605Y-136500000D01*
X54700881Y-139021276D01*
X55190548Y-138661088D01*
X55550849Y-137997118D01*
X55774694Y-137275615D01*
X55853480Y-136524305D01*
X55784178Y-135772062D01*
X55569452Y-135047792D01*
X55217555Y-134379330D01*
X55190548Y-134338912D01*
X54700881Y-133978724D01*
X52179605Y-136500000D01*
X51820395Y-136500000D01*
X49299119Y-133978724D01*
X48809452Y-134338912D01*
X48449151Y-135002882D01*
X48225306Y-135724385D01*
X48146520Y-136475695D01*
X47510000Y-136475695D01*
X47510000Y-133799119D01*
X49478724Y-133799119D01*
X52000000Y-136320395D01*
X54521276Y-133799119D01*
X54161088Y-133309452D01*
X53497118Y-132949151D01*
X52775615Y-132725306D01*
X52024305Y-132646520D01*
X51272062Y-132715822D01*
X50547792Y-132930548D01*
X49879330Y-133282445D01*
X49838912Y-133309452D01*
X49478724Y-133799119D01*
X47510000Y-133799119D01*
X47510000Y-133064801D01*
X50327005Y-130247797D01*
X50356002Y-130224000D01*
X50450975Y-130108275D01*
X50463605Y-130084646D01*
X50477589Y-130093990D01*
G37*
X50477589Y-130093990D02*
X50747842Y-130205932D01*
X51034740Y-130263000D01*
X51327260Y-130263000D01*
X51547408Y-130219209D01*
X57179803Y-135851605D01*
X57179802Y-160245395D01*
X47738998Y-169686201D01*
X47710000Y-169709999D01*
X47686202Y-169738997D01*
X47686201Y-169738998D01*
X47615026Y-169825724D01*
X47582078Y-169887365D01*
X47510000Y-169909230D01*
X47510000Y-139200881D01*
X49478724Y-139200881D01*
X49838912Y-139690548D01*
X50502882Y-140050849D01*
X51224385Y-140274694D01*
X51975695Y-140353480D01*
X52727938Y-140284178D01*
X53452208Y-140069452D01*
X54120670Y-139717555D01*
X54161088Y-139690548D01*
X54521276Y-139200881D01*
X52000000Y-136679605D01*
X49478724Y-139200881D01*
X47510000Y-139200881D01*
X47510000Y-136475695D01*
X48146520Y-136475695D01*
X48215822Y-137227938D01*
X48430548Y-137952208D01*
X48782445Y-138620670D01*
X48809452Y-138661088D01*
X49299119Y-139021276D01*
X51820395Y-136500000D01*
X52179605Y-136500000D01*
X54700881Y-139021276D01*
X55190548Y-138661088D01*
X55550849Y-137997118D01*
X55774694Y-137275615D01*
X55853480Y-136524305D01*
X55784178Y-135772062D01*
X55569452Y-135047792D01*
X55217555Y-134379330D01*
X55190548Y-134338912D01*
X54700881Y-133978724D01*
X52179605Y-136500000D01*
X51820395Y-136500000D01*
X49299119Y-133978724D01*
X48809452Y-134338912D01*
X48449151Y-135002882D01*
X48225306Y-135724385D01*
X48146520Y-136475695D01*
X47510000Y-136475695D01*
X47510000Y-133799119D01*
X49478724Y-133799119D01*
X52000000Y-136320395D01*
X54521276Y-133799119D01*
X54161088Y-133309452D01*
X53497118Y-132949151D01*
X52775615Y-132725306D01*
X52024305Y-132646520D01*
X51272062Y-132715822D01*
X50547792Y-132930548D01*
X49879330Y-133282445D01*
X49838912Y-133309452D01*
X49478724Y-133799119D01*
X47510000Y-133799119D01*
X47510000Y-133064801D01*
X50327005Y-130247797D01*
X50356002Y-130224000D01*
X50450975Y-130108275D01*
X50463605Y-130084646D01*
X50477589Y-130093990D01*
G36*
X77490001Y-132564803D02*
G01*
X77490000Y-166435198D01*
X76238998Y-167686201D01*
X76210000Y-167709999D01*
X76186202Y-167738997D01*
X76186201Y-167738998D01*
X76115026Y-167825724D01*
X76044454Y-167957754D01*
X76018230Y-168044206D01*
X76000998Y-168101014D01*
X75999642Y-168114778D01*
X75986324Y-168250000D01*
X75990001Y-168287332D01*
X75990001Y-169909230D01*
X75917923Y-169887366D01*
X75884974Y-169825723D01*
X75813799Y-169738997D01*
X75790001Y-169709999D01*
X75761003Y-169686201D01*
X66800000Y-160725199D01*
X66800000Y-139200881D01*
X70478724Y-139200881D01*
X70838912Y-139690548D01*
X71502882Y-140050849D01*
X72224385Y-140274694D01*
X72975695Y-140353480D01*
X73727938Y-140284178D01*
X74452208Y-140069452D01*
X75120670Y-139717555D01*
X75161088Y-139690548D01*
X75521276Y-139200881D01*
X73000000Y-136679605D01*
X70478724Y-139200881D01*
X66800000Y-139200881D01*
X66800000Y-137093801D01*
X67418106Y-136475695D01*
X69146520Y-136475695D01*
X69215822Y-137227938D01*
X69430548Y-137952208D01*
X69782445Y-138620670D01*
X69809452Y-138661088D01*
X70299119Y-139021276D01*
X72820395Y-136500000D01*
X73179605Y-136500000D01*
X75700881Y-139021276D01*
X76190548Y-138661088D01*
X76550849Y-137997118D01*
X76774694Y-137275615D01*
X76853480Y-136524305D01*
X76784178Y-135772062D01*
X76569452Y-135047792D01*
X76217555Y-134379330D01*
X76190548Y-134338912D01*
X75700881Y-133978724D01*
X73179605Y-136500000D01*
X72820395Y-136500000D01*
X70299119Y-133978724D01*
X69809452Y-134338912D01*
X69449151Y-135002882D01*
X69225306Y-135724385D01*
X69146520Y-136475695D01*
X67418106Y-136475695D01*
X70094682Y-133799119D01*
X70478724Y-133799119D01*
X73000000Y-136320395D01*
X75521276Y-133799119D01*
X75161088Y-133309452D01*
X74497118Y-132949151D01*
X73775615Y-132725306D01*
X73024305Y-132646520D01*
X72272062Y-132715822D01*
X71547792Y-132930548D01*
X70879330Y-133282445D01*
X70838912Y-133309452D01*
X70478724Y-133799119D01*
X70094682Y-133799119D01*
X73674592Y-130219210D01*
X73894740Y-130263000D01*
X74187260Y-130263000D01*
X74474158Y-130205932D01*
X74744411Y-130093990D01*
X74909128Y-129983929D01*
X77490001Y-132564803D01*
G37*
X77490001Y-132564803D02*
X77490000Y-166435198D01*
X76238998Y-167686201D01*
X76210000Y-167709999D01*
X76186202Y-167738997D01*
X76186201Y-167738998D01*
X76115026Y-167825724D01*
X76044454Y-167957754D01*
X76018230Y-168044206D01*
X76000998Y-168101014D01*
X75999642Y-168114778D01*
X75986324Y-168250000D01*
X75990001Y-168287332D01*
X75990001Y-169909230D01*
X75917923Y-169887366D01*
X75884974Y-169825723D01*
X75813799Y-169738997D01*
X75790001Y-169709999D01*
X75761003Y-169686201D01*
X66800000Y-160725199D01*
X66800000Y-139200881D01*
X70478724Y-139200881D01*
X70838912Y-139690548D01*
X71502882Y-140050849D01*
X72224385Y-140274694D01*
X72975695Y-140353480D01*
X73727938Y-140284178D01*
X74452208Y-140069452D01*
X75120670Y-139717555D01*
X75161088Y-139690548D01*
X75521276Y-139200881D01*
X73000000Y-136679605D01*
X70478724Y-139200881D01*
X66800000Y-139200881D01*
X66800000Y-137093801D01*
X67418106Y-136475695D01*
X69146520Y-136475695D01*
X69215822Y-137227938D01*
X69430548Y-137952208D01*
X69782445Y-138620670D01*
X69809452Y-138661088D01*
X70299119Y-139021276D01*
X72820395Y-136500000D01*
X73179605Y-136500000D01*
X75700881Y-139021276D01*
X76190548Y-138661088D01*
X76550849Y-137997118D01*
X76774694Y-137275615D01*
X76853480Y-136524305D01*
X76784178Y-135772062D01*
X76569452Y-135047792D01*
X76217555Y-134379330D01*
X76190548Y-134338912D01*
X75700881Y-133978724D01*
X73179605Y-136500000D01*
X72820395Y-136500000D01*
X70299119Y-133978724D01*
X69809452Y-134338912D01*
X69449151Y-135002882D01*
X69225306Y-135724385D01*
X69146520Y-136475695D01*
X67418106Y-136475695D01*
X70094682Y-133799119D01*
X70478724Y-133799119D01*
X73000000Y-136320395D01*
X75521276Y-133799119D01*
X75161088Y-133309452D01*
X74497118Y-132949151D01*
X73775615Y-132725306D01*
X73024305Y-132646520D01*
X72272062Y-132715822D01*
X71547792Y-132930548D01*
X70879330Y-133282445D01*
X70838912Y-133309452D01*
X70478724Y-133799119D01*
X70094682Y-133799119D01*
X73674592Y-130219210D01*
X73894740Y-130263000D01*
X74187260Y-130263000D01*
X74474158Y-130205932D01*
X74744411Y-130093990D01*
X74909128Y-129983929D01*
X77490001Y-132564803D01*
G36*
X84990001Y-130995357D02*
G01*
X84990000Y-169821335D01*
X84955546Y-169707753D01*
X84884974Y-169575724D01*
X84871811Y-169559685D01*
X84813799Y-169488996D01*
X84813795Y-169488992D01*
X84790001Y-169459999D01*
X84761008Y-169436205D01*
X81510000Y-166185199D01*
X81510000Y-130262057D01*
X81514740Y-130263000D01*
X81807260Y-130263000D01*
X82094158Y-130205932D01*
X82364411Y-130093990D01*
X82607632Y-129931475D01*
X82814475Y-129724632D01*
X82976990Y-129481411D01*
X83088932Y-129211158D01*
X83108322Y-129113678D01*
X84990001Y-130995357D01*
G37*
X84990001Y-130995357D02*
X84990000Y-169821335D01*
X84955546Y-169707753D01*
X84884974Y-169575724D01*
X84871811Y-169559685D01*
X84813799Y-169488996D01*
X84813795Y-169488992D01*
X84790001Y-169459999D01*
X84761008Y-169436205D01*
X81510000Y-166185199D01*
X81510000Y-130262057D01*
X81514740Y-130263000D01*
X81807260Y-130263000D01*
X82094158Y-130205932D01*
X82364411Y-130093990D01*
X82607632Y-129931475D01*
X82814475Y-129724632D01*
X82976990Y-129481411D01*
X83088932Y-129211158D01*
X83108322Y-129113678D01*
X84990001Y-130995357D01*
G36*
X85032367Y-86213633D02*
G01*
X85070906Y-86245261D01*
X86239001Y-87413356D01*
X86239001Y-88213147D01*
X86167494Y-88154463D01*
X86057180Y-88095498D01*
X85937482Y-88059188D01*
X85813000Y-88046928D01*
X85248750Y-88050000D01*
X85090000Y-88208750D01*
X85090000Y-89408000D01*
X85110000Y-89408000D01*
X85110000Y-89662000D01*
X85090000Y-89662000D01*
X85090000Y-89682000D01*
X84836000Y-89682000D01*
X84836000Y-89662000D01*
X83636750Y-89662000D01*
X83478000Y-89820750D01*
X83474928Y-90385000D01*
X83487188Y-90509482D01*
X83523498Y-90629180D01*
X83582463Y-90739494D01*
X83661815Y-90836185D01*
X83758506Y-90915537D01*
X83868820Y-90974502D01*
X83941380Y-90996513D01*
X83809525Y-91128368D01*
X83647010Y-91371589D01*
X83535068Y-91641842D01*
X83478000Y-91928740D01*
X83478000Y-92131645D01*
X80854901Y-94754744D01*
X80816368Y-94786367D01*
X80784745Y-94824900D01*
X80784744Y-94824901D01*
X80690154Y-94940160D01*
X80596368Y-95115621D01*
X80538615Y-95306006D01*
X80519114Y-95504000D01*
X80524001Y-95553618D01*
X80524000Y-101072531D01*
X80501537Y-101030506D01*
X80422185Y-100933815D01*
X80325494Y-100854463D01*
X80215180Y-100795498D01*
X80095482Y-100759188D01*
X79971000Y-100746928D01*
X79406750Y-100750000D01*
X79248000Y-100908750D01*
X79248000Y-102108000D01*
X79268000Y-102108000D01*
X79268000Y-102362000D01*
X79248000Y-102362000D01*
X79248000Y-103561250D01*
X79406750Y-103720000D01*
X79971000Y-103723072D01*
X80095482Y-103710812D01*
X80215180Y-103674502D01*
X80325494Y-103615537D01*
X80422185Y-103536185D01*
X80501537Y-103439494D01*
X80524000Y-103397469D01*
X80524000Y-104610645D01*
X75976001Y-109158644D01*
X75976001Y-103591753D01*
X76147842Y-103662932D01*
X76434740Y-103720000D01*
X76727260Y-103720000D01*
X77014158Y-103662932D01*
X77284411Y-103550990D01*
X77527632Y-103388475D01*
X77659487Y-103256620D01*
X77681498Y-103329180D01*
X77740463Y-103439494D01*
X77819815Y-103536185D01*
X77916506Y-103615537D01*
X78026820Y-103674502D01*
X78146518Y-103710812D01*
X78271000Y-103723072D01*
X78835250Y-103720000D01*
X78994000Y-103561250D01*
X78994000Y-102362000D01*
X78974000Y-102362000D01*
X78974000Y-102108000D01*
X78994000Y-102108000D01*
X78994000Y-100908750D01*
X78835250Y-100750000D01*
X78271000Y-100746928D01*
X78146518Y-100759188D01*
X78026820Y-100795498D01*
X77916506Y-100854463D01*
X77819815Y-100933815D01*
X77740463Y-101030506D01*
X77681498Y-101140820D01*
X77659487Y-101213380D01*
X77527632Y-101081525D01*
X77284411Y-100919010D01*
X77014158Y-100807068D01*
X76727260Y-100750000D01*
X76434740Y-100750000D01*
X76147842Y-100807068D01*
X75976001Y-100878247D01*
X75976001Y-95024800D01*
X82315801Y-88685000D01*
X83474928Y-88685000D01*
X83478000Y-89249250D01*
X83636750Y-89408000D01*
X84836000Y-89408000D01*
X84836000Y-88208750D01*
X84677250Y-88050000D01*
X84113000Y-88046928D01*
X83988518Y-88059188D01*
X83868820Y-88095498D01*
X83758506Y-88154463D01*
X83661815Y-88233815D01*
X83582463Y-88330506D01*
X83523498Y-88440820D01*
X83487188Y-88560518D01*
X83474928Y-88685000D01*
X82315801Y-88685000D01*
X84761003Y-86239799D01*
X84790001Y-86216001D01*
X84823568Y-86175099D01*
X84884974Y-86100277D01*
X84906417Y-86060161D01*
X85032367Y-86213633D01*
G37*
X85032367Y-86213633D02*
X85070906Y-86245261D01*
X86239001Y-87413356D01*
X86239001Y-88213147D01*
X86167494Y-88154463D01*
X86057180Y-88095498D01*
X85937482Y-88059188D01*
X85813000Y-88046928D01*
X85248750Y-88050000D01*
X85090000Y-88208750D01*
X85090000Y-89408000D01*
X85110000Y-89408000D01*
X85110000Y-89662000D01*
X85090000Y-89662000D01*
X85090000Y-89682000D01*
X84836000Y-89682000D01*
X84836000Y-89662000D01*
X83636750Y-89662000D01*
X83478000Y-89820750D01*
X83474928Y-90385000D01*
X83487188Y-90509482D01*
X83523498Y-90629180D01*
X83582463Y-90739494D01*
X83661815Y-90836185D01*
X83758506Y-90915537D01*
X83868820Y-90974502D01*
X83941380Y-90996513D01*
X83809525Y-91128368D01*
X83647010Y-91371589D01*
X83535068Y-91641842D01*
X83478000Y-91928740D01*
X83478000Y-92131645D01*
X80854901Y-94754744D01*
X80816368Y-94786367D01*
X80784745Y-94824900D01*
X80784744Y-94824901D01*
X80690154Y-94940160D01*
X80596368Y-95115621D01*
X80538615Y-95306006D01*
X80519114Y-95504000D01*
X80524001Y-95553618D01*
X80524000Y-101072531D01*
X80501537Y-101030506D01*
X80422185Y-100933815D01*
X80325494Y-100854463D01*
X80215180Y-100795498D01*
X80095482Y-100759188D01*
X79971000Y-100746928D01*
X79406750Y-100750000D01*
X79248000Y-100908750D01*
X79248000Y-102108000D01*
X79268000Y-102108000D01*
X79268000Y-102362000D01*
X79248000Y-102362000D01*
X79248000Y-103561250D01*
X79406750Y-103720000D01*
X79971000Y-103723072D01*
X80095482Y-103710812D01*
X80215180Y-103674502D01*
X80325494Y-103615537D01*
X80422185Y-103536185D01*
X80501537Y-103439494D01*
X80524000Y-103397469D01*
X80524000Y-104610645D01*
X75976001Y-109158644D01*
X75976001Y-103591753D01*
X76147842Y-103662932D01*
X76434740Y-103720000D01*
X76727260Y-103720000D01*
X77014158Y-103662932D01*
X77284411Y-103550990D01*
X77527632Y-103388475D01*
X77659487Y-103256620D01*
X77681498Y-103329180D01*
X77740463Y-103439494D01*
X77819815Y-103536185D01*
X77916506Y-103615537D01*
X78026820Y-103674502D01*
X78146518Y-103710812D01*
X78271000Y-103723072D01*
X78835250Y-103720000D01*
X78994000Y-103561250D01*
X78994000Y-102362000D01*
X78974000Y-102362000D01*
X78974000Y-102108000D01*
X78994000Y-102108000D01*
X78994000Y-100908750D01*
X78835250Y-100750000D01*
X78271000Y-100746928D01*
X78146518Y-100759188D01*
X78026820Y-100795498D01*
X77916506Y-100854463D01*
X77819815Y-100933815D01*
X77740463Y-101030506D01*
X77681498Y-101140820D01*
X77659487Y-101213380D01*
X77527632Y-101081525D01*
X77284411Y-100919010D01*
X77014158Y-100807068D01*
X76727260Y-100750000D01*
X76434740Y-100750000D01*
X76147842Y-100807068D01*
X75976001Y-100878247D01*
X75976001Y-95024800D01*
X82315801Y-88685000D01*
X83474928Y-88685000D01*
X83478000Y-89249250D01*
X83636750Y-89408000D01*
X84836000Y-89408000D01*
X84836000Y-88208750D01*
X84677250Y-88050000D01*
X84113000Y-88046928D01*
X83988518Y-88059188D01*
X83868820Y-88095498D01*
X83758506Y-88154463D01*
X83661815Y-88233815D01*
X83582463Y-88330506D01*
X83523498Y-88440820D01*
X83487188Y-88560518D01*
X83474928Y-88685000D01*
X82315801Y-88685000D01*
X84761003Y-86239799D01*
X84790001Y-86216001D01*
X84823568Y-86175099D01*
X84884974Y-86100277D01*
X84906417Y-86060161D01*
X85032367Y-86213633D01*
M02*
