G04 #@! TF.GenerationSoftware,KiCad,Pcbnew,(5.1.5)-3*
G04 #@! TF.CreationDate,2022-01-30T10:55:24+01:00*
G04 #@! TF.ProjectId,pcb,7063622e-6b69-4636-9164-5f7063625858,rev?*
G04 #@! TF.SameCoordinates,Original*
G04 #@! TF.FileFunction,Soldermask,Top*
G04 #@! TF.FilePolarity,Negative*
%FSLAX46Y46*%
G04 Gerber Fmt 4.6, Leading zero omitted, Abs format (unit mm)*
G04 Created by KiCad (PCBNEW (5.1.5)-3) date 2022-01-30 10:55:24*
%MOMM*%
%LPD*%
G04 APERTURE LIST*
%ADD10C,0.100000*%
G04 APERTURE END LIST*
D10*
G36*
X73634239Y-133311467D02*
G01*
X73948282Y-133373934D01*
X74539926Y-133619001D01*
X75072392Y-133974784D01*
X75525216Y-134427608D01*
X75880999Y-134960074D01*
X76126066Y-135551718D01*
X76251000Y-136179804D01*
X76251000Y-136820196D01*
X76126066Y-137448282D01*
X75880999Y-138039926D01*
X75525216Y-138572392D01*
X75072392Y-139025216D01*
X74539926Y-139380999D01*
X73948282Y-139626066D01*
X73634239Y-139688533D01*
X73320197Y-139751000D01*
X72679803Y-139751000D01*
X72365761Y-139688533D01*
X72051718Y-139626066D01*
X71460074Y-139380999D01*
X70927608Y-139025216D01*
X70474784Y-138572392D01*
X70119001Y-138039926D01*
X69873934Y-137448282D01*
X69749000Y-136820196D01*
X69749000Y-136179804D01*
X69873934Y-135551718D01*
X70119001Y-134960074D01*
X70474784Y-134427608D01*
X70927608Y-133974784D01*
X71460074Y-133619001D01*
X72051718Y-133373934D01*
X72365761Y-133311467D01*
X72679803Y-133249000D01*
X73320197Y-133249000D01*
X73634239Y-133311467D01*
G37*
G36*
X52634239Y-133311467D02*
G01*
X52948282Y-133373934D01*
X53539926Y-133619001D01*
X54072392Y-133974784D01*
X54525216Y-134427608D01*
X54880999Y-134960074D01*
X55126066Y-135551718D01*
X55251000Y-136179804D01*
X55251000Y-136820196D01*
X55126066Y-137448282D01*
X54880999Y-138039926D01*
X54525216Y-138572392D01*
X54072392Y-139025216D01*
X53539926Y-139380999D01*
X52948282Y-139626066D01*
X52634239Y-139688533D01*
X52320197Y-139751000D01*
X51679803Y-139751000D01*
X51365761Y-139688533D01*
X51051718Y-139626066D01*
X50460074Y-139380999D01*
X49927608Y-139025216D01*
X49474784Y-138572392D01*
X49119001Y-138039926D01*
X48873934Y-137448282D01*
X48749000Y-136820196D01*
X48749000Y-136179804D01*
X48873934Y-135551718D01*
X49119001Y-134960074D01*
X49474784Y-134427608D01*
X49927608Y-133974784D01*
X50460074Y-133619001D01*
X51051718Y-133373934D01*
X51365761Y-133311467D01*
X51679803Y-133249000D01*
X52320197Y-133249000D01*
X52634239Y-133311467D01*
G37*
G36*
X56374512Y-127881927D02*
G01*
X56523812Y-127911624D01*
X56687784Y-127979544D01*
X56835354Y-128078147D01*
X56960853Y-128203646D01*
X57059456Y-128351216D01*
X57127376Y-128515188D01*
X57162000Y-128689259D01*
X57162000Y-128866741D01*
X57127376Y-129040812D01*
X57059456Y-129204784D01*
X56960853Y-129352354D01*
X56835354Y-129477853D01*
X56687784Y-129576456D01*
X56523812Y-129644376D01*
X56374512Y-129674073D01*
X56349742Y-129679000D01*
X56172258Y-129679000D01*
X56147488Y-129674073D01*
X55998188Y-129644376D01*
X55834216Y-129576456D01*
X55686646Y-129477853D01*
X55561147Y-129352354D01*
X55462544Y-129204784D01*
X55394624Y-129040812D01*
X55360000Y-128866741D01*
X55360000Y-128689259D01*
X55394624Y-128515188D01*
X55462544Y-128351216D01*
X55561147Y-128203646D01*
X55686646Y-128078147D01*
X55834216Y-127979544D01*
X55998188Y-127911624D01*
X56147488Y-127881927D01*
X56172258Y-127877000D01*
X56349742Y-127877000D01*
X56374512Y-127881927D01*
G37*
G36*
X79234512Y-127881927D02*
G01*
X79383812Y-127911624D01*
X79547784Y-127979544D01*
X79695354Y-128078147D01*
X79820853Y-128203646D01*
X79919456Y-128351216D01*
X79987376Y-128515188D01*
X80022000Y-128689259D01*
X80022000Y-128866741D01*
X79987376Y-129040812D01*
X79919456Y-129204784D01*
X79820853Y-129352354D01*
X79695354Y-129477853D01*
X79547784Y-129576456D01*
X79383812Y-129644376D01*
X79234512Y-129674073D01*
X79209742Y-129679000D01*
X79032258Y-129679000D01*
X79007488Y-129674073D01*
X78858188Y-129644376D01*
X78694216Y-129576456D01*
X78546646Y-129477853D01*
X78421147Y-129352354D01*
X78322544Y-129204784D01*
X78254624Y-129040812D01*
X78220000Y-128866741D01*
X78220000Y-128689259D01*
X78254624Y-128515188D01*
X78322544Y-128351216D01*
X78421147Y-128203646D01*
X78546646Y-128078147D01*
X78694216Y-127979544D01*
X78858188Y-127911624D01*
X79007488Y-127881927D01*
X79032258Y-127877000D01*
X79209742Y-127877000D01*
X79234512Y-127881927D01*
G37*
G36*
X46214512Y-127881927D02*
G01*
X46363812Y-127911624D01*
X46527784Y-127979544D01*
X46675354Y-128078147D01*
X46800853Y-128203646D01*
X46899456Y-128351216D01*
X46967376Y-128515188D01*
X47002000Y-128689259D01*
X47002000Y-128866741D01*
X46967376Y-129040812D01*
X46899456Y-129204784D01*
X46800853Y-129352354D01*
X46675354Y-129477853D01*
X46527784Y-129576456D01*
X46363812Y-129644376D01*
X46214512Y-129674073D01*
X46189742Y-129679000D01*
X46012258Y-129679000D01*
X45987488Y-129674073D01*
X45838188Y-129644376D01*
X45674216Y-129576456D01*
X45526646Y-129477853D01*
X45401147Y-129352354D01*
X45302544Y-129204784D01*
X45234624Y-129040812D01*
X45200000Y-128866741D01*
X45200000Y-128689259D01*
X45234624Y-128515188D01*
X45302544Y-128351216D01*
X45401147Y-128203646D01*
X45526646Y-128078147D01*
X45674216Y-127979544D01*
X45838188Y-127911624D01*
X45987488Y-127881927D01*
X46012258Y-127877000D01*
X46189742Y-127877000D01*
X46214512Y-127881927D01*
G37*
G36*
X76694512Y-127881927D02*
G01*
X76843812Y-127911624D01*
X77007784Y-127979544D01*
X77155354Y-128078147D01*
X77280853Y-128203646D01*
X77379456Y-128351216D01*
X77447376Y-128515188D01*
X77482000Y-128689259D01*
X77482000Y-128866741D01*
X77447376Y-129040812D01*
X77379456Y-129204784D01*
X77280853Y-129352354D01*
X77155354Y-129477853D01*
X77007784Y-129576456D01*
X76843812Y-129644376D01*
X76694512Y-129674073D01*
X76669742Y-129679000D01*
X76492258Y-129679000D01*
X76467488Y-129674073D01*
X76318188Y-129644376D01*
X76154216Y-129576456D01*
X76006646Y-129477853D01*
X75881147Y-129352354D01*
X75782544Y-129204784D01*
X75714624Y-129040812D01*
X75680000Y-128866741D01*
X75680000Y-128689259D01*
X75714624Y-128515188D01*
X75782544Y-128351216D01*
X75881147Y-128203646D01*
X76006646Y-128078147D01*
X76154216Y-127979544D01*
X76318188Y-127911624D01*
X76467488Y-127881927D01*
X76492258Y-127877000D01*
X76669742Y-127877000D01*
X76694512Y-127881927D01*
G37*
G36*
X71614512Y-127881927D02*
G01*
X71763812Y-127911624D01*
X71927784Y-127979544D01*
X72075354Y-128078147D01*
X72200853Y-128203646D01*
X72299456Y-128351216D01*
X72367376Y-128515188D01*
X72402000Y-128689259D01*
X72402000Y-128866741D01*
X72367376Y-129040812D01*
X72299456Y-129204784D01*
X72200853Y-129352354D01*
X72075354Y-129477853D01*
X71927784Y-129576456D01*
X71763812Y-129644376D01*
X71614512Y-129674073D01*
X71589742Y-129679000D01*
X71412258Y-129679000D01*
X71387488Y-129674073D01*
X71238188Y-129644376D01*
X71074216Y-129576456D01*
X70926646Y-129477853D01*
X70801147Y-129352354D01*
X70702544Y-129204784D01*
X70634624Y-129040812D01*
X70600000Y-128866741D01*
X70600000Y-128689259D01*
X70634624Y-128515188D01*
X70702544Y-128351216D01*
X70801147Y-128203646D01*
X70926646Y-128078147D01*
X71074216Y-127979544D01*
X71238188Y-127911624D01*
X71387488Y-127881927D01*
X71412258Y-127877000D01*
X71589742Y-127877000D01*
X71614512Y-127881927D01*
G37*
G36*
X58914512Y-127881927D02*
G01*
X59063812Y-127911624D01*
X59227784Y-127979544D01*
X59375354Y-128078147D01*
X59500853Y-128203646D01*
X59599456Y-128351216D01*
X59667376Y-128515188D01*
X59702000Y-128689259D01*
X59702000Y-128866741D01*
X59667376Y-129040812D01*
X59599456Y-129204784D01*
X59500853Y-129352354D01*
X59375354Y-129477853D01*
X59227784Y-129576456D01*
X59063812Y-129644376D01*
X58914512Y-129674073D01*
X58889742Y-129679000D01*
X58712258Y-129679000D01*
X58687488Y-129674073D01*
X58538188Y-129644376D01*
X58374216Y-129576456D01*
X58226646Y-129477853D01*
X58101147Y-129352354D01*
X58002544Y-129204784D01*
X57934624Y-129040812D01*
X57900000Y-128866741D01*
X57900000Y-128689259D01*
X57934624Y-128515188D01*
X58002544Y-128351216D01*
X58101147Y-128203646D01*
X58226646Y-128078147D01*
X58374216Y-127979544D01*
X58538188Y-127911624D01*
X58687488Y-127881927D01*
X58712258Y-127877000D01*
X58889742Y-127877000D01*
X58914512Y-127881927D01*
G37*
G36*
X53834512Y-127881927D02*
G01*
X53983812Y-127911624D01*
X54147784Y-127979544D01*
X54295354Y-128078147D01*
X54420853Y-128203646D01*
X54519456Y-128351216D01*
X54587376Y-128515188D01*
X54622000Y-128689259D01*
X54622000Y-128866741D01*
X54587376Y-129040812D01*
X54519456Y-129204784D01*
X54420853Y-129352354D01*
X54295354Y-129477853D01*
X54147784Y-129576456D01*
X53983812Y-129644376D01*
X53834512Y-129674073D01*
X53809742Y-129679000D01*
X53632258Y-129679000D01*
X53607488Y-129674073D01*
X53458188Y-129644376D01*
X53294216Y-129576456D01*
X53146646Y-129477853D01*
X53021147Y-129352354D01*
X52922544Y-129204784D01*
X52854624Y-129040812D01*
X52820000Y-128866741D01*
X52820000Y-128689259D01*
X52854624Y-128515188D01*
X52922544Y-128351216D01*
X53021147Y-128203646D01*
X53146646Y-128078147D01*
X53294216Y-127979544D01*
X53458188Y-127911624D01*
X53607488Y-127881927D01*
X53632258Y-127877000D01*
X53809742Y-127877000D01*
X53834512Y-127881927D01*
G37*
G36*
X48754512Y-127881927D02*
G01*
X48903812Y-127911624D01*
X49067784Y-127979544D01*
X49215354Y-128078147D01*
X49340853Y-128203646D01*
X49439456Y-128351216D01*
X49507376Y-128515188D01*
X49542000Y-128689259D01*
X49542000Y-128866741D01*
X49507376Y-129040812D01*
X49439456Y-129204784D01*
X49340853Y-129352354D01*
X49215354Y-129477853D01*
X49067784Y-129576456D01*
X48903812Y-129644376D01*
X48754512Y-129674073D01*
X48729742Y-129679000D01*
X48552258Y-129679000D01*
X48527488Y-129674073D01*
X48378188Y-129644376D01*
X48214216Y-129576456D01*
X48066646Y-129477853D01*
X47941147Y-129352354D01*
X47842544Y-129204784D01*
X47774624Y-129040812D01*
X47740000Y-128866741D01*
X47740000Y-128689259D01*
X47774624Y-128515188D01*
X47842544Y-128351216D01*
X47941147Y-128203646D01*
X48066646Y-128078147D01*
X48214216Y-127979544D01*
X48378188Y-127911624D01*
X48527488Y-127881927D01*
X48552258Y-127877000D01*
X48729742Y-127877000D01*
X48754512Y-127881927D01*
G37*
G36*
X74154512Y-127881927D02*
G01*
X74303812Y-127911624D01*
X74467784Y-127979544D01*
X74615354Y-128078147D01*
X74740853Y-128203646D01*
X74839456Y-128351216D01*
X74907376Y-128515188D01*
X74942000Y-128689259D01*
X74942000Y-128866741D01*
X74907376Y-129040812D01*
X74839456Y-129204784D01*
X74740853Y-129352354D01*
X74615354Y-129477853D01*
X74467784Y-129576456D01*
X74303812Y-129644376D01*
X74154512Y-129674073D01*
X74129742Y-129679000D01*
X73952258Y-129679000D01*
X73927488Y-129674073D01*
X73778188Y-129644376D01*
X73614216Y-129576456D01*
X73466646Y-129477853D01*
X73341147Y-129352354D01*
X73242544Y-129204784D01*
X73174624Y-129040812D01*
X73140000Y-128866741D01*
X73140000Y-128689259D01*
X73174624Y-128515188D01*
X73242544Y-128351216D01*
X73341147Y-128203646D01*
X73466646Y-128078147D01*
X73614216Y-127979544D01*
X73778188Y-127911624D01*
X73927488Y-127881927D01*
X73952258Y-127877000D01*
X74129742Y-127877000D01*
X74154512Y-127881927D01*
G37*
G36*
X81774512Y-127881927D02*
G01*
X81923812Y-127911624D01*
X82087784Y-127979544D01*
X82235354Y-128078147D01*
X82360853Y-128203646D01*
X82459456Y-128351216D01*
X82527376Y-128515188D01*
X82562000Y-128689259D01*
X82562000Y-128866741D01*
X82527376Y-129040812D01*
X82459456Y-129204784D01*
X82360853Y-129352354D01*
X82235354Y-129477853D01*
X82087784Y-129576456D01*
X81923812Y-129644376D01*
X81774512Y-129674073D01*
X81749742Y-129679000D01*
X81572258Y-129679000D01*
X81547488Y-129674073D01*
X81398188Y-129644376D01*
X81234216Y-129576456D01*
X81086646Y-129477853D01*
X80961147Y-129352354D01*
X80862544Y-129204784D01*
X80794624Y-129040812D01*
X80760000Y-128866741D01*
X80760000Y-128689259D01*
X80794624Y-128515188D01*
X80862544Y-128351216D01*
X80961147Y-128203646D01*
X81086646Y-128078147D01*
X81234216Y-127979544D01*
X81398188Y-127911624D01*
X81547488Y-127881927D01*
X81572258Y-127877000D01*
X81749742Y-127877000D01*
X81774512Y-127881927D01*
G37*
G36*
X63994512Y-127881927D02*
G01*
X64143812Y-127911624D01*
X64307784Y-127979544D01*
X64455354Y-128078147D01*
X64580853Y-128203646D01*
X64679456Y-128351216D01*
X64747376Y-128515188D01*
X64782000Y-128689259D01*
X64782000Y-128866741D01*
X64747376Y-129040812D01*
X64679456Y-129204784D01*
X64580853Y-129352354D01*
X64455354Y-129477853D01*
X64307784Y-129576456D01*
X64143812Y-129644376D01*
X63994512Y-129674073D01*
X63969742Y-129679000D01*
X63792258Y-129679000D01*
X63767488Y-129674073D01*
X63618188Y-129644376D01*
X63454216Y-129576456D01*
X63306646Y-129477853D01*
X63181147Y-129352354D01*
X63082544Y-129204784D01*
X63014624Y-129040812D01*
X62980000Y-128866741D01*
X62980000Y-128689259D01*
X63014624Y-128515188D01*
X63082544Y-128351216D01*
X63181147Y-128203646D01*
X63306646Y-128078147D01*
X63454216Y-127979544D01*
X63618188Y-127911624D01*
X63767488Y-127881927D01*
X63792258Y-127877000D01*
X63969742Y-127877000D01*
X63994512Y-127881927D01*
G37*
G36*
X51294512Y-127881927D02*
G01*
X51443812Y-127911624D01*
X51607784Y-127979544D01*
X51755354Y-128078147D01*
X51880853Y-128203646D01*
X51979456Y-128351216D01*
X52047376Y-128515188D01*
X52082000Y-128689259D01*
X52082000Y-128866741D01*
X52047376Y-129040812D01*
X51979456Y-129204784D01*
X51880853Y-129352354D01*
X51755354Y-129477853D01*
X51607784Y-129576456D01*
X51443812Y-129644376D01*
X51294512Y-129674073D01*
X51269742Y-129679000D01*
X51092258Y-129679000D01*
X51067488Y-129674073D01*
X50918188Y-129644376D01*
X50754216Y-129576456D01*
X50606646Y-129477853D01*
X50481147Y-129352354D01*
X50382544Y-129204784D01*
X50314624Y-129040812D01*
X50280000Y-128866741D01*
X50280000Y-128689259D01*
X50314624Y-128515188D01*
X50382544Y-128351216D01*
X50481147Y-128203646D01*
X50606646Y-128078147D01*
X50754216Y-127979544D01*
X50918188Y-127911624D01*
X51067488Y-127881927D01*
X51092258Y-127877000D01*
X51269742Y-127877000D01*
X51294512Y-127881927D01*
G37*
G36*
X44462000Y-129679000D02*
G01*
X42660000Y-129679000D01*
X42660000Y-127877000D01*
X44462000Y-127877000D01*
X44462000Y-129679000D01*
G37*
G36*
X69074512Y-127881927D02*
G01*
X69223812Y-127911624D01*
X69387784Y-127979544D01*
X69535354Y-128078147D01*
X69660853Y-128203646D01*
X69759456Y-128351216D01*
X69827376Y-128515188D01*
X69862000Y-128689259D01*
X69862000Y-128866741D01*
X69827376Y-129040812D01*
X69759456Y-129204784D01*
X69660853Y-129352354D01*
X69535354Y-129477853D01*
X69387784Y-129576456D01*
X69223812Y-129644376D01*
X69074512Y-129674073D01*
X69049742Y-129679000D01*
X68872258Y-129679000D01*
X68847488Y-129674073D01*
X68698188Y-129644376D01*
X68534216Y-129576456D01*
X68386646Y-129477853D01*
X68261147Y-129352354D01*
X68162544Y-129204784D01*
X68094624Y-129040812D01*
X68060000Y-128866741D01*
X68060000Y-128689259D01*
X68094624Y-128515188D01*
X68162544Y-128351216D01*
X68261147Y-128203646D01*
X68386646Y-128078147D01*
X68534216Y-127979544D01*
X68698188Y-127911624D01*
X68847488Y-127881927D01*
X68872258Y-127877000D01*
X69049742Y-127877000D01*
X69074512Y-127881927D01*
G37*
G36*
X61454512Y-127881927D02*
G01*
X61603812Y-127911624D01*
X61767784Y-127979544D01*
X61915354Y-128078147D01*
X62040853Y-128203646D01*
X62139456Y-128351216D01*
X62207376Y-128515188D01*
X62242000Y-128689259D01*
X62242000Y-128866741D01*
X62207376Y-129040812D01*
X62139456Y-129204784D01*
X62040853Y-129352354D01*
X61915354Y-129477853D01*
X61767784Y-129576456D01*
X61603812Y-129644376D01*
X61454512Y-129674073D01*
X61429742Y-129679000D01*
X61252258Y-129679000D01*
X61227488Y-129674073D01*
X61078188Y-129644376D01*
X60914216Y-129576456D01*
X60766646Y-129477853D01*
X60641147Y-129352354D01*
X60542544Y-129204784D01*
X60474624Y-129040812D01*
X60440000Y-128866741D01*
X60440000Y-128689259D01*
X60474624Y-128515188D01*
X60542544Y-128351216D01*
X60641147Y-128203646D01*
X60766646Y-128078147D01*
X60914216Y-127979544D01*
X61078188Y-127911624D01*
X61227488Y-127881927D01*
X61252258Y-127877000D01*
X61429742Y-127877000D01*
X61454512Y-127881927D01*
G37*
G36*
X66534512Y-127881927D02*
G01*
X66683812Y-127911624D01*
X66847784Y-127979544D01*
X66995354Y-128078147D01*
X67120853Y-128203646D01*
X67219456Y-128351216D01*
X67287376Y-128515188D01*
X67322000Y-128689259D01*
X67322000Y-128866741D01*
X67287376Y-129040812D01*
X67219456Y-129204784D01*
X67120853Y-129352354D01*
X66995354Y-129477853D01*
X66847784Y-129576456D01*
X66683812Y-129644376D01*
X66534512Y-129674073D01*
X66509742Y-129679000D01*
X66332258Y-129679000D01*
X66307488Y-129674073D01*
X66158188Y-129644376D01*
X65994216Y-129576456D01*
X65846646Y-129477853D01*
X65721147Y-129352354D01*
X65622544Y-129204784D01*
X65554624Y-129040812D01*
X65520000Y-128866741D01*
X65520000Y-128689259D01*
X65554624Y-128515188D01*
X65622544Y-128351216D01*
X65721147Y-128203646D01*
X65846646Y-128078147D01*
X65994216Y-127979544D01*
X66158188Y-127911624D01*
X66307488Y-127881927D01*
X66332258Y-127877000D01*
X66509742Y-127877000D01*
X66534512Y-127881927D01*
G37*
G36*
X41088674Y-127928465D02*
G01*
X41126367Y-127939899D01*
X41161103Y-127958466D01*
X41191548Y-127983452D01*
X41216534Y-128013897D01*
X41235101Y-128048633D01*
X41246535Y-128086326D01*
X41251000Y-128131661D01*
X41251000Y-128968339D01*
X41246535Y-129013674D01*
X41235101Y-129051367D01*
X41216534Y-129086103D01*
X41191548Y-129116548D01*
X41161103Y-129141534D01*
X41126367Y-129160101D01*
X41088674Y-129171535D01*
X41043339Y-129176000D01*
X39956661Y-129176000D01*
X39911326Y-129171535D01*
X39873633Y-129160101D01*
X39838897Y-129141534D01*
X39808452Y-129116548D01*
X39783466Y-129086103D01*
X39764899Y-129051367D01*
X39753465Y-129013674D01*
X39749000Y-128968339D01*
X39749000Y-128131661D01*
X39753465Y-128086326D01*
X39764899Y-128048633D01*
X39783466Y-128013897D01*
X39808452Y-127983452D01*
X39838897Y-127958466D01*
X39873633Y-127939899D01*
X39911326Y-127928465D01*
X39956661Y-127924000D01*
X41043339Y-127924000D01*
X41088674Y-127928465D01*
G37*
G36*
X85588674Y-127928465D02*
G01*
X85626367Y-127939899D01*
X85661103Y-127958466D01*
X85691548Y-127983452D01*
X85716534Y-128013897D01*
X85735101Y-128048633D01*
X85746535Y-128086326D01*
X85751000Y-128131661D01*
X85751000Y-128968339D01*
X85746535Y-129013674D01*
X85735101Y-129051367D01*
X85716534Y-129086103D01*
X85691548Y-129116548D01*
X85661103Y-129141534D01*
X85626367Y-129160101D01*
X85588674Y-129171535D01*
X85543339Y-129176000D01*
X84456661Y-129176000D01*
X84411326Y-129171535D01*
X84373633Y-129160101D01*
X84338897Y-129141534D01*
X84308452Y-129116548D01*
X84283466Y-129086103D01*
X84264899Y-129051367D01*
X84253465Y-129013674D01*
X84249000Y-128968339D01*
X84249000Y-128131661D01*
X84253465Y-128086326D01*
X84264899Y-128048633D01*
X84283466Y-128013897D01*
X84308452Y-127983452D01*
X84338897Y-127958466D01*
X84373633Y-127939899D01*
X84411326Y-127928465D01*
X84456661Y-127924000D01*
X85543339Y-127924000D01*
X85588674Y-127928465D01*
G37*
G36*
X81774512Y-125341927D02*
G01*
X81923812Y-125371624D01*
X82087784Y-125439544D01*
X82235354Y-125538147D01*
X82360853Y-125663646D01*
X82459456Y-125811216D01*
X82527376Y-125975188D01*
X82562000Y-126149259D01*
X82562000Y-126326741D01*
X82527376Y-126500812D01*
X82459456Y-126664784D01*
X82360853Y-126812354D01*
X82235354Y-126937853D01*
X82087784Y-127036456D01*
X81923812Y-127104376D01*
X81774512Y-127134073D01*
X81749742Y-127139000D01*
X81572258Y-127139000D01*
X81547488Y-127134073D01*
X81398188Y-127104376D01*
X81234216Y-127036456D01*
X81086646Y-126937853D01*
X80961147Y-126812354D01*
X80862544Y-126664784D01*
X80794624Y-126500812D01*
X80760000Y-126326741D01*
X80760000Y-126149259D01*
X80794624Y-125975188D01*
X80862544Y-125811216D01*
X80961147Y-125663646D01*
X81086646Y-125538147D01*
X81234216Y-125439544D01*
X81398188Y-125371624D01*
X81547488Y-125341927D01*
X81572258Y-125337000D01*
X81749742Y-125337000D01*
X81774512Y-125341927D01*
G37*
G36*
X43674512Y-125341927D02*
G01*
X43823812Y-125371624D01*
X43987784Y-125439544D01*
X44135354Y-125538147D01*
X44260853Y-125663646D01*
X44359456Y-125811216D01*
X44427376Y-125975188D01*
X44462000Y-126149259D01*
X44462000Y-126326741D01*
X44427376Y-126500812D01*
X44359456Y-126664784D01*
X44260853Y-126812354D01*
X44135354Y-126937853D01*
X43987784Y-127036456D01*
X43823812Y-127104376D01*
X43674512Y-127134073D01*
X43649742Y-127139000D01*
X43472258Y-127139000D01*
X43447488Y-127134073D01*
X43298188Y-127104376D01*
X43134216Y-127036456D01*
X42986646Y-126937853D01*
X42861147Y-126812354D01*
X42762544Y-126664784D01*
X42694624Y-126500812D01*
X42660000Y-126326741D01*
X42660000Y-126149259D01*
X42694624Y-125975188D01*
X42762544Y-125811216D01*
X42861147Y-125663646D01*
X42986646Y-125538147D01*
X43134216Y-125439544D01*
X43298188Y-125371624D01*
X43447488Y-125341927D01*
X43472258Y-125337000D01*
X43649742Y-125337000D01*
X43674512Y-125341927D01*
G37*
G36*
X46214512Y-125341927D02*
G01*
X46363812Y-125371624D01*
X46527784Y-125439544D01*
X46675354Y-125538147D01*
X46800853Y-125663646D01*
X46899456Y-125811216D01*
X46967376Y-125975188D01*
X47002000Y-126149259D01*
X47002000Y-126326741D01*
X46967376Y-126500812D01*
X46899456Y-126664784D01*
X46800853Y-126812354D01*
X46675354Y-126937853D01*
X46527784Y-127036456D01*
X46363812Y-127104376D01*
X46214512Y-127134073D01*
X46189742Y-127139000D01*
X46012258Y-127139000D01*
X45987488Y-127134073D01*
X45838188Y-127104376D01*
X45674216Y-127036456D01*
X45526646Y-126937853D01*
X45401147Y-126812354D01*
X45302544Y-126664784D01*
X45234624Y-126500812D01*
X45200000Y-126326741D01*
X45200000Y-126149259D01*
X45234624Y-125975188D01*
X45302544Y-125811216D01*
X45401147Y-125663646D01*
X45526646Y-125538147D01*
X45674216Y-125439544D01*
X45838188Y-125371624D01*
X45987488Y-125341927D01*
X46012258Y-125337000D01*
X46189742Y-125337000D01*
X46214512Y-125341927D01*
G37*
G36*
X48754512Y-125341927D02*
G01*
X48903812Y-125371624D01*
X49067784Y-125439544D01*
X49215354Y-125538147D01*
X49340853Y-125663646D01*
X49439456Y-125811216D01*
X49507376Y-125975188D01*
X49542000Y-126149259D01*
X49542000Y-126326741D01*
X49507376Y-126500812D01*
X49439456Y-126664784D01*
X49340853Y-126812354D01*
X49215354Y-126937853D01*
X49067784Y-127036456D01*
X48903812Y-127104376D01*
X48754512Y-127134073D01*
X48729742Y-127139000D01*
X48552258Y-127139000D01*
X48527488Y-127134073D01*
X48378188Y-127104376D01*
X48214216Y-127036456D01*
X48066646Y-126937853D01*
X47941147Y-126812354D01*
X47842544Y-126664784D01*
X47774624Y-126500812D01*
X47740000Y-126326741D01*
X47740000Y-126149259D01*
X47774624Y-125975188D01*
X47842544Y-125811216D01*
X47941147Y-125663646D01*
X48066646Y-125538147D01*
X48214216Y-125439544D01*
X48378188Y-125371624D01*
X48527488Y-125341927D01*
X48552258Y-125337000D01*
X48729742Y-125337000D01*
X48754512Y-125341927D01*
G37*
G36*
X51294512Y-125341927D02*
G01*
X51443812Y-125371624D01*
X51607784Y-125439544D01*
X51755354Y-125538147D01*
X51880853Y-125663646D01*
X51979456Y-125811216D01*
X52047376Y-125975188D01*
X52082000Y-126149259D01*
X52082000Y-126326741D01*
X52047376Y-126500812D01*
X51979456Y-126664784D01*
X51880853Y-126812354D01*
X51755354Y-126937853D01*
X51607784Y-127036456D01*
X51443812Y-127104376D01*
X51294512Y-127134073D01*
X51269742Y-127139000D01*
X51092258Y-127139000D01*
X51067488Y-127134073D01*
X50918188Y-127104376D01*
X50754216Y-127036456D01*
X50606646Y-126937853D01*
X50481147Y-126812354D01*
X50382544Y-126664784D01*
X50314624Y-126500812D01*
X50280000Y-126326741D01*
X50280000Y-126149259D01*
X50314624Y-125975188D01*
X50382544Y-125811216D01*
X50481147Y-125663646D01*
X50606646Y-125538147D01*
X50754216Y-125439544D01*
X50918188Y-125371624D01*
X51067488Y-125341927D01*
X51092258Y-125337000D01*
X51269742Y-125337000D01*
X51294512Y-125341927D01*
G37*
G36*
X53834512Y-125341927D02*
G01*
X53983812Y-125371624D01*
X54147784Y-125439544D01*
X54295354Y-125538147D01*
X54420853Y-125663646D01*
X54519456Y-125811216D01*
X54587376Y-125975188D01*
X54622000Y-126149259D01*
X54622000Y-126326741D01*
X54587376Y-126500812D01*
X54519456Y-126664784D01*
X54420853Y-126812354D01*
X54295354Y-126937853D01*
X54147784Y-127036456D01*
X53983812Y-127104376D01*
X53834512Y-127134073D01*
X53809742Y-127139000D01*
X53632258Y-127139000D01*
X53607488Y-127134073D01*
X53458188Y-127104376D01*
X53294216Y-127036456D01*
X53146646Y-126937853D01*
X53021147Y-126812354D01*
X52922544Y-126664784D01*
X52854624Y-126500812D01*
X52820000Y-126326741D01*
X52820000Y-126149259D01*
X52854624Y-125975188D01*
X52922544Y-125811216D01*
X53021147Y-125663646D01*
X53146646Y-125538147D01*
X53294216Y-125439544D01*
X53458188Y-125371624D01*
X53607488Y-125341927D01*
X53632258Y-125337000D01*
X53809742Y-125337000D01*
X53834512Y-125341927D01*
G37*
G36*
X56374512Y-125341927D02*
G01*
X56523812Y-125371624D01*
X56687784Y-125439544D01*
X56835354Y-125538147D01*
X56960853Y-125663646D01*
X57059456Y-125811216D01*
X57127376Y-125975188D01*
X57162000Y-126149259D01*
X57162000Y-126326741D01*
X57127376Y-126500812D01*
X57059456Y-126664784D01*
X56960853Y-126812354D01*
X56835354Y-126937853D01*
X56687784Y-127036456D01*
X56523812Y-127104376D01*
X56374512Y-127134073D01*
X56349742Y-127139000D01*
X56172258Y-127139000D01*
X56147488Y-127134073D01*
X55998188Y-127104376D01*
X55834216Y-127036456D01*
X55686646Y-126937853D01*
X55561147Y-126812354D01*
X55462544Y-126664784D01*
X55394624Y-126500812D01*
X55360000Y-126326741D01*
X55360000Y-126149259D01*
X55394624Y-125975188D01*
X55462544Y-125811216D01*
X55561147Y-125663646D01*
X55686646Y-125538147D01*
X55834216Y-125439544D01*
X55998188Y-125371624D01*
X56147488Y-125341927D01*
X56172258Y-125337000D01*
X56349742Y-125337000D01*
X56374512Y-125341927D01*
G37*
G36*
X58914512Y-125341927D02*
G01*
X59063812Y-125371624D01*
X59227784Y-125439544D01*
X59375354Y-125538147D01*
X59500853Y-125663646D01*
X59599456Y-125811216D01*
X59667376Y-125975188D01*
X59702000Y-126149259D01*
X59702000Y-126326741D01*
X59667376Y-126500812D01*
X59599456Y-126664784D01*
X59500853Y-126812354D01*
X59375354Y-126937853D01*
X59227784Y-127036456D01*
X59063812Y-127104376D01*
X58914512Y-127134073D01*
X58889742Y-127139000D01*
X58712258Y-127139000D01*
X58687488Y-127134073D01*
X58538188Y-127104376D01*
X58374216Y-127036456D01*
X58226646Y-126937853D01*
X58101147Y-126812354D01*
X58002544Y-126664784D01*
X57934624Y-126500812D01*
X57900000Y-126326741D01*
X57900000Y-126149259D01*
X57934624Y-125975188D01*
X58002544Y-125811216D01*
X58101147Y-125663646D01*
X58226646Y-125538147D01*
X58374216Y-125439544D01*
X58538188Y-125371624D01*
X58687488Y-125341927D01*
X58712258Y-125337000D01*
X58889742Y-125337000D01*
X58914512Y-125341927D01*
G37*
G36*
X63994512Y-125341927D02*
G01*
X64143812Y-125371624D01*
X64307784Y-125439544D01*
X64455354Y-125538147D01*
X64580853Y-125663646D01*
X64679456Y-125811216D01*
X64747376Y-125975188D01*
X64782000Y-126149259D01*
X64782000Y-126326741D01*
X64747376Y-126500812D01*
X64679456Y-126664784D01*
X64580853Y-126812354D01*
X64455354Y-126937853D01*
X64307784Y-127036456D01*
X64143812Y-127104376D01*
X63994512Y-127134073D01*
X63969742Y-127139000D01*
X63792258Y-127139000D01*
X63767488Y-127134073D01*
X63618188Y-127104376D01*
X63454216Y-127036456D01*
X63306646Y-126937853D01*
X63181147Y-126812354D01*
X63082544Y-126664784D01*
X63014624Y-126500812D01*
X62980000Y-126326741D01*
X62980000Y-126149259D01*
X63014624Y-125975188D01*
X63082544Y-125811216D01*
X63181147Y-125663646D01*
X63306646Y-125538147D01*
X63454216Y-125439544D01*
X63618188Y-125371624D01*
X63767488Y-125341927D01*
X63792258Y-125337000D01*
X63969742Y-125337000D01*
X63994512Y-125341927D01*
G37*
G36*
X66534512Y-125341927D02*
G01*
X66683812Y-125371624D01*
X66847784Y-125439544D01*
X66995354Y-125538147D01*
X67120853Y-125663646D01*
X67219456Y-125811216D01*
X67287376Y-125975188D01*
X67322000Y-126149259D01*
X67322000Y-126326741D01*
X67287376Y-126500812D01*
X67219456Y-126664784D01*
X67120853Y-126812354D01*
X66995354Y-126937853D01*
X66847784Y-127036456D01*
X66683812Y-127104376D01*
X66534512Y-127134073D01*
X66509742Y-127139000D01*
X66332258Y-127139000D01*
X66307488Y-127134073D01*
X66158188Y-127104376D01*
X65994216Y-127036456D01*
X65846646Y-126937853D01*
X65721147Y-126812354D01*
X65622544Y-126664784D01*
X65554624Y-126500812D01*
X65520000Y-126326741D01*
X65520000Y-126149259D01*
X65554624Y-125975188D01*
X65622544Y-125811216D01*
X65721147Y-125663646D01*
X65846646Y-125538147D01*
X65994216Y-125439544D01*
X66158188Y-125371624D01*
X66307488Y-125341927D01*
X66332258Y-125337000D01*
X66509742Y-125337000D01*
X66534512Y-125341927D01*
G37*
G36*
X69074512Y-125341927D02*
G01*
X69223812Y-125371624D01*
X69387784Y-125439544D01*
X69535354Y-125538147D01*
X69660853Y-125663646D01*
X69759456Y-125811216D01*
X69827376Y-125975188D01*
X69862000Y-126149259D01*
X69862000Y-126326741D01*
X69827376Y-126500812D01*
X69759456Y-126664784D01*
X69660853Y-126812354D01*
X69535354Y-126937853D01*
X69387784Y-127036456D01*
X69223812Y-127104376D01*
X69074512Y-127134073D01*
X69049742Y-127139000D01*
X68872258Y-127139000D01*
X68847488Y-127134073D01*
X68698188Y-127104376D01*
X68534216Y-127036456D01*
X68386646Y-126937853D01*
X68261147Y-126812354D01*
X68162544Y-126664784D01*
X68094624Y-126500812D01*
X68060000Y-126326741D01*
X68060000Y-126149259D01*
X68094624Y-125975188D01*
X68162544Y-125811216D01*
X68261147Y-125663646D01*
X68386646Y-125538147D01*
X68534216Y-125439544D01*
X68698188Y-125371624D01*
X68847488Y-125341927D01*
X68872258Y-125337000D01*
X69049742Y-125337000D01*
X69074512Y-125341927D01*
G37*
G36*
X74154512Y-125341927D02*
G01*
X74303812Y-125371624D01*
X74467784Y-125439544D01*
X74615354Y-125538147D01*
X74740853Y-125663646D01*
X74839456Y-125811216D01*
X74907376Y-125975188D01*
X74942000Y-126149259D01*
X74942000Y-126326741D01*
X74907376Y-126500812D01*
X74839456Y-126664784D01*
X74740853Y-126812354D01*
X74615354Y-126937853D01*
X74467784Y-127036456D01*
X74303812Y-127104376D01*
X74154512Y-127134073D01*
X74129742Y-127139000D01*
X73952258Y-127139000D01*
X73927488Y-127134073D01*
X73778188Y-127104376D01*
X73614216Y-127036456D01*
X73466646Y-126937853D01*
X73341147Y-126812354D01*
X73242544Y-126664784D01*
X73174624Y-126500812D01*
X73140000Y-126326741D01*
X73140000Y-126149259D01*
X73174624Y-125975188D01*
X73242544Y-125811216D01*
X73341147Y-125663646D01*
X73466646Y-125538147D01*
X73614216Y-125439544D01*
X73778188Y-125371624D01*
X73927488Y-125341927D01*
X73952258Y-125337000D01*
X74129742Y-125337000D01*
X74154512Y-125341927D01*
G37*
G36*
X79234512Y-125341927D02*
G01*
X79383812Y-125371624D01*
X79547784Y-125439544D01*
X79695354Y-125538147D01*
X79820853Y-125663646D01*
X79919456Y-125811216D01*
X79987376Y-125975188D01*
X80022000Y-126149259D01*
X80022000Y-126326741D01*
X79987376Y-126500812D01*
X79919456Y-126664784D01*
X79820853Y-126812354D01*
X79695354Y-126937853D01*
X79547784Y-127036456D01*
X79383812Y-127104376D01*
X79234512Y-127134073D01*
X79209742Y-127139000D01*
X79032258Y-127139000D01*
X79007488Y-127134073D01*
X78858188Y-127104376D01*
X78694216Y-127036456D01*
X78546646Y-126937853D01*
X78421147Y-126812354D01*
X78322544Y-126664784D01*
X78254624Y-126500812D01*
X78220000Y-126326741D01*
X78220000Y-126149259D01*
X78254624Y-125975188D01*
X78322544Y-125811216D01*
X78421147Y-125663646D01*
X78546646Y-125538147D01*
X78694216Y-125439544D01*
X78858188Y-125371624D01*
X79007488Y-125341927D01*
X79032258Y-125337000D01*
X79209742Y-125337000D01*
X79234512Y-125341927D01*
G37*
G36*
X71614512Y-125341927D02*
G01*
X71763812Y-125371624D01*
X71927784Y-125439544D01*
X72075354Y-125538147D01*
X72200853Y-125663646D01*
X72299456Y-125811216D01*
X72367376Y-125975188D01*
X72402000Y-126149259D01*
X72402000Y-126326741D01*
X72367376Y-126500812D01*
X72299456Y-126664784D01*
X72200853Y-126812354D01*
X72075354Y-126937853D01*
X71927784Y-127036456D01*
X71763812Y-127104376D01*
X71614512Y-127134073D01*
X71589742Y-127139000D01*
X71412258Y-127139000D01*
X71387488Y-127134073D01*
X71238188Y-127104376D01*
X71074216Y-127036456D01*
X70926646Y-126937853D01*
X70801147Y-126812354D01*
X70702544Y-126664784D01*
X70634624Y-126500812D01*
X70600000Y-126326741D01*
X70600000Y-126149259D01*
X70634624Y-125975188D01*
X70702544Y-125811216D01*
X70801147Y-125663646D01*
X70926646Y-125538147D01*
X71074216Y-125439544D01*
X71238188Y-125371624D01*
X71387488Y-125341927D01*
X71412258Y-125337000D01*
X71589742Y-125337000D01*
X71614512Y-125341927D01*
G37*
G36*
X76694512Y-125341927D02*
G01*
X76843812Y-125371624D01*
X77007784Y-125439544D01*
X77155354Y-125538147D01*
X77280853Y-125663646D01*
X77379456Y-125811216D01*
X77447376Y-125975188D01*
X77482000Y-126149259D01*
X77482000Y-126326741D01*
X77447376Y-126500812D01*
X77379456Y-126664784D01*
X77280853Y-126812354D01*
X77155354Y-126937853D01*
X77007784Y-127036456D01*
X76843812Y-127104376D01*
X76694512Y-127134073D01*
X76669742Y-127139000D01*
X76492258Y-127139000D01*
X76467488Y-127134073D01*
X76318188Y-127104376D01*
X76154216Y-127036456D01*
X76006646Y-126937853D01*
X75881147Y-126812354D01*
X75782544Y-126664784D01*
X75714624Y-126500812D01*
X75680000Y-126326741D01*
X75680000Y-126149259D01*
X75714624Y-125975188D01*
X75782544Y-125811216D01*
X75881147Y-125663646D01*
X76006646Y-125538147D01*
X76154216Y-125439544D01*
X76318188Y-125371624D01*
X76467488Y-125341927D01*
X76492258Y-125337000D01*
X76669742Y-125337000D01*
X76694512Y-125341927D01*
G37*
G36*
X61454512Y-125341927D02*
G01*
X61603812Y-125371624D01*
X61767784Y-125439544D01*
X61915354Y-125538147D01*
X62040853Y-125663646D01*
X62139456Y-125811216D01*
X62207376Y-125975188D01*
X62242000Y-126149259D01*
X62242000Y-126326741D01*
X62207376Y-126500812D01*
X62139456Y-126664784D01*
X62040853Y-126812354D01*
X61915354Y-126937853D01*
X61767784Y-127036456D01*
X61603812Y-127104376D01*
X61454512Y-127134073D01*
X61429742Y-127139000D01*
X61252258Y-127139000D01*
X61227488Y-127134073D01*
X61078188Y-127104376D01*
X60914216Y-127036456D01*
X60766646Y-126937853D01*
X60641147Y-126812354D01*
X60542544Y-126664784D01*
X60474624Y-126500812D01*
X60440000Y-126326741D01*
X60440000Y-126149259D01*
X60474624Y-125975188D01*
X60542544Y-125811216D01*
X60641147Y-125663646D01*
X60766646Y-125538147D01*
X60914216Y-125439544D01*
X61078188Y-125371624D01*
X61227488Y-125341927D01*
X61252258Y-125337000D01*
X61429742Y-125337000D01*
X61454512Y-125341927D01*
G37*
G36*
X85588674Y-125878465D02*
G01*
X85626367Y-125889899D01*
X85661103Y-125908466D01*
X85691548Y-125933452D01*
X85716534Y-125963897D01*
X85735101Y-125998633D01*
X85746535Y-126036326D01*
X85751000Y-126081661D01*
X85751000Y-126918339D01*
X85746535Y-126963674D01*
X85735101Y-127001367D01*
X85716534Y-127036103D01*
X85691548Y-127066548D01*
X85661103Y-127091534D01*
X85626367Y-127110101D01*
X85588674Y-127121535D01*
X85543339Y-127126000D01*
X84456661Y-127126000D01*
X84411326Y-127121535D01*
X84373633Y-127110101D01*
X84338897Y-127091534D01*
X84308452Y-127066548D01*
X84283466Y-127036103D01*
X84264899Y-127001367D01*
X84253465Y-126963674D01*
X84249000Y-126918339D01*
X84249000Y-126081661D01*
X84253465Y-126036326D01*
X84264899Y-125998633D01*
X84283466Y-125963897D01*
X84308452Y-125933452D01*
X84338897Y-125908466D01*
X84373633Y-125889899D01*
X84411326Y-125878465D01*
X84456661Y-125874000D01*
X85543339Y-125874000D01*
X85588674Y-125878465D01*
G37*
G36*
X41088674Y-125878465D02*
G01*
X41126367Y-125889899D01*
X41161103Y-125908466D01*
X41191548Y-125933452D01*
X41216534Y-125963897D01*
X41235101Y-125998633D01*
X41246535Y-126036326D01*
X41251000Y-126081661D01*
X41251000Y-126918339D01*
X41246535Y-126963674D01*
X41235101Y-127001367D01*
X41216534Y-127036103D01*
X41191548Y-127066548D01*
X41161103Y-127091534D01*
X41126367Y-127110101D01*
X41088674Y-127121535D01*
X41043339Y-127126000D01*
X39956661Y-127126000D01*
X39911326Y-127121535D01*
X39873633Y-127110101D01*
X39838897Y-127091534D01*
X39808452Y-127066548D01*
X39783466Y-127036103D01*
X39764899Y-127001367D01*
X39753465Y-126963674D01*
X39749000Y-126918339D01*
X39749000Y-126081661D01*
X39753465Y-126036326D01*
X39764899Y-125998633D01*
X39783466Y-125963897D01*
X39808452Y-125933452D01*
X39838897Y-125908466D01*
X39873633Y-125889899D01*
X39911326Y-125878465D01*
X39956661Y-125874000D01*
X41043339Y-125874000D01*
X41088674Y-125878465D01*
G37*
G36*
X46214512Y-116578927D02*
G01*
X46363812Y-116608624D01*
X46527784Y-116676544D01*
X46675354Y-116775147D01*
X46800853Y-116900646D01*
X46899456Y-117048216D01*
X46967376Y-117212188D01*
X47002000Y-117386259D01*
X47002000Y-117563741D01*
X46967376Y-117737812D01*
X46899456Y-117901784D01*
X46800853Y-118049354D01*
X46675354Y-118174853D01*
X46527784Y-118273456D01*
X46363812Y-118341376D01*
X46214512Y-118371073D01*
X46189742Y-118376000D01*
X46012258Y-118376000D01*
X45987488Y-118371073D01*
X45838188Y-118341376D01*
X45674216Y-118273456D01*
X45526646Y-118174853D01*
X45401147Y-118049354D01*
X45302544Y-117901784D01*
X45234624Y-117737812D01*
X45200000Y-117563741D01*
X45200000Y-117386259D01*
X45234624Y-117212188D01*
X45302544Y-117048216D01*
X45401147Y-116900646D01*
X45526646Y-116775147D01*
X45674216Y-116676544D01*
X45838188Y-116608624D01*
X45987488Y-116578927D01*
X46012258Y-116574000D01*
X46189742Y-116574000D01*
X46214512Y-116578927D01*
G37*
G36*
X71614512Y-116578927D02*
G01*
X71763812Y-116608624D01*
X71927784Y-116676544D01*
X72075354Y-116775147D01*
X72200853Y-116900646D01*
X72299456Y-117048216D01*
X72367376Y-117212188D01*
X72402000Y-117386259D01*
X72402000Y-117563741D01*
X72367376Y-117737812D01*
X72299456Y-117901784D01*
X72200853Y-118049354D01*
X72075354Y-118174853D01*
X71927784Y-118273456D01*
X71763812Y-118341376D01*
X71614512Y-118371073D01*
X71589742Y-118376000D01*
X71412258Y-118376000D01*
X71387488Y-118371073D01*
X71238188Y-118341376D01*
X71074216Y-118273456D01*
X70926646Y-118174853D01*
X70801147Y-118049354D01*
X70702544Y-117901784D01*
X70634624Y-117737812D01*
X70600000Y-117563741D01*
X70600000Y-117386259D01*
X70634624Y-117212188D01*
X70702544Y-117048216D01*
X70801147Y-116900646D01*
X70926646Y-116775147D01*
X71074216Y-116676544D01*
X71238188Y-116608624D01*
X71387488Y-116578927D01*
X71412258Y-116574000D01*
X71589742Y-116574000D01*
X71614512Y-116578927D01*
G37*
G36*
X53834512Y-116578927D02*
G01*
X53983812Y-116608624D01*
X54147784Y-116676544D01*
X54295354Y-116775147D01*
X54420853Y-116900646D01*
X54519456Y-117048216D01*
X54587376Y-117212188D01*
X54622000Y-117386259D01*
X54622000Y-117563741D01*
X54587376Y-117737812D01*
X54519456Y-117901784D01*
X54420853Y-118049354D01*
X54295354Y-118174853D01*
X54147784Y-118273456D01*
X53983812Y-118341376D01*
X53834512Y-118371073D01*
X53809742Y-118376000D01*
X53632258Y-118376000D01*
X53607488Y-118371073D01*
X53458188Y-118341376D01*
X53294216Y-118273456D01*
X53146646Y-118174853D01*
X53021147Y-118049354D01*
X52922544Y-117901784D01*
X52854624Y-117737812D01*
X52820000Y-117563741D01*
X52820000Y-117386259D01*
X52854624Y-117212188D01*
X52922544Y-117048216D01*
X53021147Y-116900646D01*
X53146646Y-116775147D01*
X53294216Y-116676544D01*
X53458188Y-116608624D01*
X53607488Y-116578927D01*
X53632258Y-116574000D01*
X53809742Y-116574000D01*
X53834512Y-116578927D01*
G37*
G36*
X63994512Y-116578927D02*
G01*
X64143812Y-116608624D01*
X64307784Y-116676544D01*
X64455354Y-116775147D01*
X64580853Y-116900646D01*
X64679456Y-117048216D01*
X64747376Y-117212188D01*
X64782000Y-117386259D01*
X64782000Y-117563741D01*
X64747376Y-117737812D01*
X64679456Y-117901784D01*
X64580853Y-118049354D01*
X64455354Y-118174853D01*
X64307784Y-118273456D01*
X64143812Y-118341376D01*
X63994512Y-118371073D01*
X63969742Y-118376000D01*
X63792258Y-118376000D01*
X63767488Y-118371073D01*
X63618188Y-118341376D01*
X63454216Y-118273456D01*
X63306646Y-118174853D01*
X63181147Y-118049354D01*
X63082544Y-117901784D01*
X63014624Y-117737812D01*
X62980000Y-117563741D01*
X62980000Y-117386259D01*
X63014624Y-117212188D01*
X63082544Y-117048216D01*
X63181147Y-116900646D01*
X63306646Y-116775147D01*
X63454216Y-116676544D01*
X63618188Y-116608624D01*
X63767488Y-116578927D01*
X63792258Y-116574000D01*
X63969742Y-116574000D01*
X63994512Y-116578927D01*
G37*
G36*
X69074512Y-116578927D02*
G01*
X69223812Y-116608624D01*
X69387784Y-116676544D01*
X69535354Y-116775147D01*
X69660853Y-116900646D01*
X69759456Y-117048216D01*
X69827376Y-117212188D01*
X69862000Y-117386259D01*
X69862000Y-117563741D01*
X69827376Y-117737812D01*
X69759456Y-117901784D01*
X69660853Y-118049354D01*
X69535354Y-118174853D01*
X69387784Y-118273456D01*
X69223812Y-118341376D01*
X69074512Y-118371073D01*
X69049742Y-118376000D01*
X68872258Y-118376000D01*
X68847488Y-118371073D01*
X68698188Y-118341376D01*
X68534216Y-118273456D01*
X68386646Y-118174853D01*
X68261147Y-118049354D01*
X68162544Y-117901784D01*
X68094624Y-117737812D01*
X68060000Y-117563741D01*
X68060000Y-117386259D01*
X68094624Y-117212188D01*
X68162544Y-117048216D01*
X68261147Y-116900646D01*
X68386646Y-116775147D01*
X68534216Y-116676544D01*
X68698188Y-116608624D01*
X68847488Y-116578927D01*
X68872258Y-116574000D01*
X69049742Y-116574000D01*
X69074512Y-116578927D01*
G37*
G36*
X51294512Y-116578927D02*
G01*
X51443812Y-116608624D01*
X51607784Y-116676544D01*
X51755354Y-116775147D01*
X51880853Y-116900646D01*
X51979456Y-117048216D01*
X52047376Y-117212188D01*
X52082000Y-117386259D01*
X52082000Y-117563741D01*
X52047376Y-117737812D01*
X51979456Y-117901784D01*
X51880853Y-118049354D01*
X51755354Y-118174853D01*
X51607784Y-118273456D01*
X51443812Y-118341376D01*
X51294512Y-118371073D01*
X51269742Y-118376000D01*
X51092258Y-118376000D01*
X51067488Y-118371073D01*
X50918188Y-118341376D01*
X50754216Y-118273456D01*
X50606646Y-118174853D01*
X50481147Y-118049354D01*
X50382544Y-117901784D01*
X50314624Y-117737812D01*
X50280000Y-117563741D01*
X50280000Y-117386259D01*
X50314624Y-117212188D01*
X50382544Y-117048216D01*
X50481147Y-116900646D01*
X50606646Y-116775147D01*
X50754216Y-116676544D01*
X50918188Y-116608624D01*
X51067488Y-116578927D01*
X51092258Y-116574000D01*
X51269742Y-116574000D01*
X51294512Y-116578927D01*
G37*
G36*
X74154512Y-116578927D02*
G01*
X74303812Y-116608624D01*
X74467784Y-116676544D01*
X74615354Y-116775147D01*
X74740853Y-116900646D01*
X74839456Y-117048216D01*
X74907376Y-117212188D01*
X74942000Y-117386259D01*
X74942000Y-117563741D01*
X74907376Y-117737812D01*
X74839456Y-117901784D01*
X74740853Y-118049354D01*
X74615354Y-118174853D01*
X74467784Y-118273456D01*
X74303812Y-118341376D01*
X74154512Y-118371073D01*
X74129742Y-118376000D01*
X73952258Y-118376000D01*
X73927488Y-118371073D01*
X73778188Y-118341376D01*
X73614216Y-118273456D01*
X73466646Y-118174853D01*
X73341147Y-118049354D01*
X73242544Y-117901784D01*
X73174624Y-117737812D01*
X73140000Y-117563741D01*
X73140000Y-117386259D01*
X73174624Y-117212188D01*
X73242544Y-117048216D01*
X73341147Y-116900646D01*
X73466646Y-116775147D01*
X73614216Y-116676544D01*
X73778188Y-116608624D01*
X73927488Y-116578927D01*
X73952258Y-116574000D01*
X74129742Y-116574000D01*
X74154512Y-116578927D01*
G37*
G36*
X66534512Y-116578927D02*
G01*
X66683812Y-116608624D01*
X66847784Y-116676544D01*
X66995354Y-116775147D01*
X67120853Y-116900646D01*
X67219456Y-117048216D01*
X67287376Y-117212188D01*
X67322000Y-117386259D01*
X67322000Y-117563741D01*
X67287376Y-117737812D01*
X67219456Y-117901784D01*
X67120853Y-118049354D01*
X66995354Y-118174853D01*
X66847784Y-118273456D01*
X66683812Y-118341376D01*
X66534512Y-118371073D01*
X66509742Y-118376000D01*
X66332258Y-118376000D01*
X66307488Y-118371073D01*
X66158188Y-118341376D01*
X65994216Y-118273456D01*
X65846646Y-118174853D01*
X65721147Y-118049354D01*
X65622544Y-117901784D01*
X65554624Y-117737812D01*
X65520000Y-117563741D01*
X65520000Y-117386259D01*
X65554624Y-117212188D01*
X65622544Y-117048216D01*
X65721147Y-116900646D01*
X65846646Y-116775147D01*
X65994216Y-116676544D01*
X66158188Y-116608624D01*
X66307488Y-116578927D01*
X66332258Y-116574000D01*
X66509742Y-116574000D01*
X66534512Y-116578927D01*
G37*
G36*
X56374512Y-116578927D02*
G01*
X56523812Y-116608624D01*
X56687784Y-116676544D01*
X56835354Y-116775147D01*
X56960853Y-116900646D01*
X57059456Y-117048216D01*
X57127376Y-117212188D01*
X57162000Y-117386259D01*
X57162000Y-117563741D01*
X57127376Y-117737812D01*
X57059456Y-117901784D01*
X56960853Y-118049354D01*
X56835354Y-118174853D01*
X56687784Y-118273456D01*
X56523812Y-118341376D01*
X56374512Y-118371073D01*
X56349742Y-118376000D01*
X56172258Y-118376000D01*
X56147488Y-118371073D01*
X55998188Y-118341376D01*
X55834216Y-118273456D01*
X55686646Y-118174853D01*
X55561147Y-118049354D01*
X55462544Y-117901784D01*
X55394624Y-117737812D01*
X55360000Y-117563741D01*
X55360000Y-117386259D01*
X55394624Y-117212188D01*
X55462544Y-117048216D01*
X55561147Y-116900646D01*
X55686646Y-116775147D01*
X55834216Y-116676544D01*
X55998188Y-116608624D01*
X56147488Y-116578927D01*
X56172258Y-116574000D01*
X56349742Y-116574000D01*
X56374512Y-116578927D01*
G37*
G36*
X58914512Y-116578927D02*
G01*
X59063812Y-116608624D01*
X59227784Y-116676544D01*
X59375354Y-116775147D01*
X59500853Y-116900646D01*
X59599456Y-117048216D01*
X59667376Y-117212188D01*
X59702000Y-117386259D01*
X59702000Y-117563741D01*
X59667376Y-117737812D01*
X59599456Y-117901784D01*
X59500853Y-118049354D01*
X59375354Y-118174853D01*
X59227784Y-118273456D01*
X59063812Y-118341376D01*
X58914512Y-118371073D01*
X58889742Y-118376000D01*
X58712258Y-118376000D01*
X58687488Y-118371073D01*
X58538188Y-118341376D01*
X58374216Y-118273456D01*
X58226646Y-118174853D01*
X58101147Y-118049354D01*
X58002544Y-117901784D01*
X57934624Y-117737812D01*
X57900000Y-117563741D01*
X57900000Y-117386259D01*
X57934624Y-117212188D01*
X58002544Y-117048216D01*
X58101147Y-116900646D01*
X58226646Y-116775147D01*
X58374216Y-116676544D01*
X58538188Y-116608624D01*
X58687488Y-116578927D01*
X58712258Y-116574000D01*
X58889742Y-116574000D01*
X58914512Y-116578927D01*
G37*
G36*
X79234512Y-116578927D02*
G01*
X79383812Y-116608624D01*
X79547784Y-116676544D01*
X79695354Y-116775147D01*
X79820853Y-116900646D01*
X79919456Y-117048216D01*
X79987376Y-117212188D01*
X80022000Y-117386259D01*
X80022000Y-117563741D01*
X79987376Y-117737812D01*
X79919456Y-117901784D01*
X79820853Y-118049354D01*
X79695354Y-118174853D01*
X79547784Y-118273456D01*
X79383812Y-118341376D01*
X79234512Y-118371073D01*
X79209742Y-118376000D01*
X79032258Y-118376000D01*
X79007488Y-118371073D01*
X78858188Y-118341376D01*
X78694216Y-118273456D01*
X78546646Y-118174853D01*
X78421147Y-118049354D01*
X78322544Y-117901784D01*
X78254624Y-117737812D01*
X78220000Y-117563741D01*
X78220000Y-117386259D01*
X78254624Y-117212188D01*
X78322544Y-117048216D01*
X78421147Y-116900646D01*
X78546646Y-116775147D01*
X78694216Y-116676544D01*
X78858188Y-116608624D01*
X79007488Y-116578927D01*
X79032258Y-116574000D01*
X79209742Y-116574000D01*
X79234512Y-116578927D01*
G37*
G36*
X61454512Y-116578927D02*
G01*
X61603812Y-116608624D01*
X61767784Y-116676544D01*
X61915354Y-116775147D01*
X62040853Y-116900646D01*
X62139456Y-117048216D01*
X62207376Y-117212188D01*
X62242000Y-117386259D01*
X62242000Y-117563741D01*
X62207376Y-117737812D01*
X62139456Y-117901784D01*
X62040853Y-118049354D01*
X61915354Y-118174853D01*
X61767784Y-118273456D01*
X61603812Y-118341376D01*
X61454512Y-118371073D01*
X61429742Y-118376000D01*
X61252258Y-118376000D01*
X61227488Y-118371073D01*
X61078188Y-118341376D01*
X60914216Y-118273456D01*
X60766646Y-118174853D01*
X60641147Y-118049354D01*
X60542544Y-117901784D01*
X60474624Y-117737812D01*
X60440000Y-117563741D01*
X60440000Y-117386259D01*
X60474624Y-117212188D01*
X60542544Y-117048216D01*
X60641147Y-116900646D01*
X60766646Y-116775147D01*
X60914216Y-116676544D01*
X61078188Y-116608624D01*
X61227488Y-116578927D01*
X61252258Y-116574000D01*
X61429742Y-116574000D01*
X61454512Y-116578927D01*
G37*
G36*
X77482000Y-118376000D02*
G01*
X75680000Y-118376000D01*
X75680000Y-116574000D01*
X77482000Y-116574000D01*
X77482000Y-118376000D01*
G37*
G36*
X48754512Y-116578927D02*
G01*
X48903812Y-116608624D01*
X49067784Y-116676544D01*
X49215354Y-116775147D01*
X49340853Y-116900646D01*
X49439456Y-117048216D01*
X49507376Y-117212188D01*
X49542000Y-117386259D01*
X49542000Y-117563741D01*
X49507376Y-117737812D01*
X49439456Y-117901784D01*
X49340853Y-118049354D01*
X49215354Y-118174853D01*
X49067784Y-118273456D01*
X48903812Y-118341376D01*
X48754512Y-118371073D01*
X48729742Y-118376000D01*
X48552258Y-118376000D01*
X48527488Y-118371073D01*
X48378188Y-118341376D01*
X48214216Y-118273456D01*
X48066646Y-118174853D01*
X47941147Y-118049354D01*
X47842544Y-117901784D01*
X47774624Y-117737812D01*
X47740000Y-117563741D01*
X47740000Y-117386259D01*
X47774624Y-117212188D01*
X47842544Y-117048216D01*
X47941147Y-116900646D01*
X48066646Y-116775147D01*
X48214216Y-116676544D01*
X48378188Y-116608624D01*
X48527488Y-116578927D01*
X48552258Y-116574000D01*
X48729742Y-116574000D01*
X48754512Y-116578927D01*
G37*
G36*
X38467512Y-101338927D02*
G01*
X38616812Y-101368624D01*
X38780784Y-101436544D01*
X38928354Y-101535147D01*
X39053853Y-101660646D01*
X39152456Y-101808216D01*
X39220376Y-101972188D01*
X39255000Y-102146259D01*
X39255000Y-102323741D01*
X39220376Y-102497812D01*
X39152456Y-102661784D01*
X39053853Y-102809354D01*
X38928354Y-102934853D01*
X38780784Y-103033456D01*
X38616812Y-103101376D01*
X38467512Y-103131073D01*
X38442742Y-103136000D01*
X38265258Y-103136000D01*
X38240488Y-103131073D01*
X38091188Y-103101376D01*
X37927216Y-103033456D01*
X37779646Y-102934853D01*
X37654147Y-102809354D01*
X37555544Y-102661784D01*
X37487624Y-102497812D01*
X37453000Y-102323741D01*
X37453000Y-102146259D01*
X37487624Y-101972188D01*
X37555544Y-101808216D01*
X37654147Y-101660646D01*
X37779646Y-101535147D01*
X37927216Y-101436544D01*
X38091188Y-101368624D01*
X38240488Y-101338927D01*
X38265258Y-101334000D01*
X38442742Y-101334000D01*
X38467512Y-101338927D01*
G37*
G36*
X46214512Y-101338927D02*
G01*
X46363812Y-101368624D01*
X46527784Y-101436544D01*
X46675354Y-101535147D01*
X46800853Y-101660646D01*
X46899456Y-101808216D01*
X46967376Y-101972188D01*
X47002000Y-102146259D01*
X47002000Y-102323741D01*
X46967376Y-102497812D01*
X46899456Y-102661784D01*
X46800853Y-102809354D01*
X46675354Y-102934853D01*
X46527784Y-103033456D01*
X46363812Y-103101376D01*
X46214512Y-103131073D01*
X46189742Y-103136000D01*
X46012258Y-103136000D01*
X45987488Y-103131073D01*
X45838188Y-103101376D01*
X45674216Y-103033456D01*
X45526646Y-102934853D01*
X45401147Y-102809354D01*
X45302544Y-102661784D01*
X45234624Y-102497812D01*
X45200000Y-102323741D01*
X45200000Y-102146259D01*
X45234624Y-101972188D01*
X45302544Y-101808216D01*
X45401147Y-101660646D01*
X45526646Y-101535147D01*
X45674216Y-101436544D01*
X45838188Y-101368624D01*
X45987488Y-101338927D01*
X46012258Y-101334000D01*
X46189742Y-101334000D01*
X46214512Y-101338927D01*
G37*
G36*
X53834512Y-101338927D02*
G01*
X53983812Y-101368624D01*
X54147784Y-101436544D01*
X54295354Y-101535147D01*
X54420853Y-101660646D01*
X54519456Y-101808216D01*
X54587376Y-101972188D01*
X54622000Y-102146259D01*
X54622000Y-102323741D01*
X54587376Y-102497812D01*
X54519456Y-102661784D01*
X54420853Y-102809354D01*
X54295354Y-102934853D01*
X54147784Y-103033456D01*
X53983812Y-103101376D01*
X53834512Y-103131073D01*
X53809742Y-103136000D01*
X53632258Y-103136000D01*
X53607488Y-103131073D01*
X53458188Y-103101376D01*
X53294216Y-103033456D01*
X53146646Y-102934853D01*
X53021147Y-102809354D01*
X52922544Y-102661784D01*
X52854624Y-102497812D01*
X52820000Y-102323741D01*
X52820000Y-102146259D01*
X52854624Y-101972188D01*
X52922544Y-101808216D01*
X53021147Y-101660646D01*
X53146646Y-101535147D01*
X53294216Y-101436544D01*
X53458188Y-101368624D01*
X53607488Y-101338927D01*
X53632258Y-101334000D01*
X53809742Y-101334000D01*
X53834512Y-101338927D01*
G37*
G36*
X48754512Y-101338927D02*
G01*
X48903812Y-101368624D01*
X49067784Y-101436544D01*
X49215354Y-101535147D01*
X49340853Y-101660646D01*
X49439456Y-101808216D01*
X49507376Y-101972188D01*
X49542000Y-102146259D01*
X49542000Y-102323741D01*
X49507376Y-102497812D01*
X49439456Y-102661784D01*
X49340853Y-102809354D01*
X49215354Y-102934853D01*
X49067784Y-103033456D01*
X48903812Y-103101376D01*
X48754512Y-103131073D01*
X48729742Y-103136000D01*
X48552258Y-103136000D01*
X48527488Y-103131073D01*
X48378188Y-103101376D01*
X48214216Y-103033456D01*
X48066646Y-102934853D01*
X47941147Y-102809354D01*
X47842544Y-102661784D01*
X47774624Y-102497812D01*
X47740000Y-102323741D01*
X47740000Y-102146259D01*
X47774624Y-101972188D01*
X47842544Y-101808216D01*
X47941147Y-101660646D01*
X48066646Y-101535147D01*
X48214216Y-101436544D01*
X48378188Y-101368624D01*
X48527488Y-101338927D01*
X48552258Y-101334000D01*
X48729742Y-101334000D01*
X48754512Y-101338927D01*
G37*
G36*
X51294512Y-101338927D02*
G01*
X51443812Y-101368624D01*
X51607784Y-101436544D01*
X51755354Y-101535147D01*
X51880853Y-101660646D01*
X51979456Y-101808216D01*
X52047376Y-101972188D01*
X52082000Y-102146259D01*
X52082000Y-102323741D01*
X52047376Y-102497812D01*
X51979456Y-102661784D01*
X51880853Y-102809354D01*
X51755354Y-102934853D01*
X51607784Y-103033456D01*
X51443812Y-103101376D01*
X51294512Y-103131073D01*
X51269742Y-103136000D01*
X51092258Y-103136000D01*
X51067488Y-103131073D01*
X50918188Y-103101376D01*
X50754216Y-103033456D01*
X50606646Y-102934853D01*
X50481147Y-102809354D01*
X50382544Y-102661784D01*
X50314624Y-102497812D01*
X50280000Y-102323741D01*
X50280000Y-102146259D01*
X50314624Y-101972188D01*
X50382544Y-101808216D01*
X50481147Y-101660646D01*
X50606646Y-101535147D01*
X50754216Y-101436544D01*
X50918188Y-101368624D01*
X51067488Y-101338927D01*
X51092258Y-101334000D01*
X51269742Y-101334000D01*
X51294512Y-101338927D01*
G37*
G36*
X56374512Y-101338927D02*
G01*
X56523812Y-101368624D01*
X56687784Y-101436544D01*
X56835354Y-101535147D01*
X56960853Y-101660646D01*
X57059456Y-101808216D01*
X57127376Y-101972188D01*
X57162000Y-102146259D01*
X57162000Y-102323741D01*
X57127376Y-102497812D01*
X57059456Y-102661784D01*
X56960853Y-102809354D01*
X56835354Y-102934853D01*
X56687784Y-103033456D01*
X56523812Y-103101376D01*
X56374512Y-103131073D01*
X56349742Y-103136000D01*
X56172258Y-103136000D01*
X56147488Y-103131073D01*
X55998188Y-103101376D01*
X55834216Y-103033456D01*
X55686646Y-102934853D01*
X55561147Y-102809354D01*
X55462544Y-102661784D01*
X55394624Y-102497812D01*
X55360000Y-102323741D01*
X55360000Y-102146259D01*
X55394624Y-101972188D01*
X55462544Y-101808216D01*
X55561147Y-101660646D01*
X55686646Y-101535147D01*
X55834216Y-101436544D01*
X55998188Y-101368624D01*
X56147488Y-101338927D01*
X56172258Y-101334000D01*
X56349742Y-101334000D01*
X56374512Y-101338927D01*
G37*
G36*
X85076512Y-101338927D02*
G01*
X85225812Y-101368624D01*
X85389784Y-101436544D01*
X85537354Y-101535147D01*
X85662853Y-101660646D01*
X85761456Y-101808216D01*
X85829376Y-101972188D01*
X85864000Y-102146259D01*
X85864000Y-102323741D01*
X85829376Y-102497812D01*
X85761456Y-102661784D01*
X85662853Y-102809354D01*
X85537354Y-102934853D01*
X85389784Y-103033456D01*
X85225812Y-103101376D01*
X85076512Y-103131073D01*
X85051742Y-103136000D01*
X84874258Y-103136000D01*
X84849488Y-103131073D01*
X84700188Y-103101376D01*
X84536216Y-103033456D01*
X84388646Y-102934853D01*
X84263147Y-102809354D01*
X84164544Y-102661784D01*
X84096624Y-102497812D01*
X84062000Y-102323741D01*
X84062000Y-102146259D01*
X84096624Y-101972188D01*
X84164544Y-101808216D01*
X84263147Y-101660646D01*
X84388646Y-101535147D01*
X84536216Y-101436544D01*
X84700188Y-101368624D01*
X84849488Y-101338927D01*
X84874258Y-101334000D01*
X85051742Y-101334000D01*
X85076512Y-101338927D01*
G37*
G36*
X80022000Y-103136000D02*
G01*
X78220000Y-103136000D01*
X78220000Y-101334000D01*
X80022000Y-101334000D01*
X80022000Y-103136000D01*
G37*
G36*
X58914512Y-101338927D02*
G01*
X59063812Y-101368624D01*
X59227784Y-101436544D01*
X59375354Y-101535147D01*
X59500853Y-101660646D01*
X59599456Y-101808216D01*
X59667376Y-101972188D01*
X59702000Y-102146259D01*
X59702000Y-102323741D01*
X59667376Y-102497812D01*
X59599456Y-102661784D01*
X59500853Y-102809354D01*
X59375354Y-102934853D01*
X59227784Y-103033456D01*
X59063812Y-103101376D01*
X58914512Y-103131073D01*
X58889742Y-103136000D01*
X58712258Y-103136000D01*
X58687488Y-103131073D01*
X58538188Y-103101376D01*
X58374216Y-103033456D01*
X58226646Y-102934853D01*
X58101147Y-102809354D01*
X58002544Y-102661784D01*
X57934624Y-102497812D01*
X57900000Y-102323741D01*
X57900000Y-102146259D01*
X57934624Y-101972188D01*
X58002544Y-101808216D01*
X58101147Y-101660646D01*
X58226646Y-101535147D01*
X58374216Y-101436544D01*
X58538188Y-101368624D01*
X58687488Y-101338927D01*
X58712258Y-101334000D01*
X58889742Y-101334000D01*
X58914512Y-101338927D01*
G37*
G36*
X71614512Y-101338927D02*
G01*
X71763812Y-101368624D01*
X71927784Y-101436544D01*
X72075354Y-101535147D01*
X72200853Y-101660646D01*
X72299456Y-101808216D01*
X72367376Y-101972188D01*
X72402000Y-102146259D01*
X72402000Y-102323741D01*
X72367376Y-102497812D01*
X72299456Y-102661784D01*
X72200853Y-102809354D01*
X72075354Y-102934853D01*
X71927784Y-103033456D01*
X71763812Y-103101376D01*
X71614512Y-103131073D01*
X71589742Y-103136000D01*
X71412258Y-103136000D01*
X71387488Y-103131073D01*
X71238188Y-103101376D01*
X71074216Y-103033456D01*
X70926646Y-102934853D01*
X70801147Y-102809354D01*
X70702544Y-102661784D01*
X70634624Y-102497812D01*
X70600000Y-102323741D01*
X70600000Y-102146259D01*
X70634624Y-101972188D01*
X70702544Y-101808216D01*
X70801147Y-101660646D01*
X70926646Y-101535147D01*
X71074216Y-101436544D01*
X71238188Y-101368624D01*
X71387488Y-101338927D01*
X71412258Y-101334000D01*
X71589742Y-101334000D01*
X71614512Y-101338927D01*
G37*
G36*
X69074512Y-101338927D02*
G01*
X69223812Y-101368624D01*
X69387784Y-101436544D01*
X69535354Y-101535147D01*
X69660853Y-101660646D01*
X69759456Y-101808216D01*
X69827376Y-101972188D01*
X69862000Y-102146259D01*
X69862000Y-102323741D01*
X69827376Y-102497812D01*
X69759456Y-102661784D01*
X69660853Y-102809354D01*
X69535354Y-102934853D01*
X69387784Y-103033456D01*
X69223812Y-103101376D01*
X69074512Y-103131073D01*
X69049742Y-103136000D01*
X68872258Y-103136000D01*
X68847488Y-103131073D01*
X68698188Y-103101376D01*
X68534216Y-103033456D01*
X68386646Y-102934853D01*
X68261147Y-102809354D01*
X68162544Y-102661784D01*
X68094624Y-102497812D01*
X68060000Y-102323741D01*
X68060000Y-102146259D01*
X68094624Y-101972188D01*
X68162544Y-101808216D01*
X68261147Y-101660646D01*
X68386646Y-101535147D01*
X68534216Y-101436544D01*
X68698188Y-101368624D01*
X68847488Y-101338927D01*
X68872258Y-101334000D01*
X69049742Y-101334000D01*
X69074512Y-101338927D01*
G37*
G36*
X66534512Y-101338927D02*
G01*
X66683812Y-101368624D01*
X66847784Y-101436544D01*
X66995354Y-101535147D01*
X67120853Y-101660646D01*
X67219456Y-101808216D01*
X67287376Y-101972188D01*
X67322000Y-102146259D01*
X67322000Y-102323741D01*
X67287376Y-102497812D01*
X67219456Y-102661784D01*
X67120853Y-102809354D01*
X66995354Y-102934853D01*
X66847784Y-103033456D01*
X66683812Y-103101376D01*
X66534512Y-103131073D01*
X66509742Y-103136000D01*
X66332258Y-103136000D01*
X66307488Y-103131073D01*
X66158188Y-103101376D01*
X65994216Y-103033456D01*
X65846646Y-102934853D01*
X65721147Y-102809354D01*
X65622544Y-102661784D01*
X65554624Y-102497812D01*
X65520000Y-102323741D01*
X65520000Y-102146259D01*
X65554624Y-101972188D01*
X65622544Y-101808216D01*
X65721147Y-101660646D01*
X65846646Y-101535147D01*
X65994216Y-101436544D01*
X66158188Y-101368624D01*
X66307488Y-101338927D01*
X66332258Y-101334000D01*
X66509742Y-101334000D01*
X66534512Y-101338927D01*
G37*
G36*
X63994512Y-101338927D02*
G01*
X64143812Y-101368624D01*
X64307784Y-101436544D01*
X64455354Y-101535147D01*
X64580853Y-101660646D01*
X64679456Y-101808216D01*
X64747376Y-101972188D01*
X64782000Y-102146259D01*
X64782000Y-102323741D01*
X64747376Y-102497812D01*
X64679456Y-102661784D01*
X64580853Y-102809354D01*
X64455354Y-102934853D01*
X64307784Y-103033456D01*
X64143812Y-103101376D01*
X63994512Y-103131073D01*
X63969742Y-103136000D01*
X63792258Y-103136000D01*
X63767488Y-103131073D01*
X63618188Y-103101376D01*
X63454216Y-103033456D01*
X63306646Y-102934853D01*
X63181147Y-102809354D01*
X63082544Y-102661784D01*
X63014624Y-102497812D01*
X62980000Y-102323741D01*
X62980000Y-102146259D01*
X63014624Y-101972188D01*
X63082544Y-101808216D01*
X63181147Y-101660646D01*
X63306646Y-101535147D01*
X63454216Y-101436544D01*
X63618188Y-101368624D01*
X63767488Y-101338927D01*
X63792258Y-101334000D01*
X63969742Y-101334000D01*
X63994512Y-101338927D01*
G37*
G36*
X74154512Y-101338927D02*
G01*
X74303812Y-101368624D01*
X74467784Y-101436544D01*
X74615354Y-101535147D01*
X74740853Y-101660646D01*
X74839456Y-101808216D01*
X74907376Y-101972188D01*
X74942000Y-102146259D01*
X74942000Y-102323741D01*
X74907376Y-102497812D01*
X74839456Y-102661784D01*
X74740853Y-102809354D01*
X74615354Y-102934853D01*
X74467784Y-103033456D01*
X74303812Y-103101376D01*
X74154512Y-103131073D01*
X74129742Y-103136000D01*
X73952258Y-103136000D01*
X73927488Y-103131073D01*
X73778188Y-103101376D01*
X73614216Y-103033456D01*
X73466646Y-102934853D01*
X73341147Y-102809354D01*
X73242544Y-102661784D01*
X73174624Y-102497812D01*
X73140000Y-102323741D01*
X73140000Y-102146259D01*
X73174624Y-101972188D01*
X73242544Y-101808216D01*
X73341147Y-101660646D01*
X73466646Y-101535147D01*
X73614216Y-101436544D01*
X73778188Y-101368624D01*
X73927488Y-101338927D01*
X73952258Y-101334000D01*
X74129742Y-101334000D01*
X74154512Y-101338927D01*
G37*
G36*
X61454512Y-101338927D02*
G01*
X61603812Y-101368624D01*
X61767784Y-101436544D01*
X61915354Y-101535147D01*
X62040853Y-101660646D01*
X62139456Y-101808216D01*
X62207376Y-101972188D01*
X62242000Y-102146259D01*
X62242000Y-102323741D01*
X62207376Y-102497812D01*
X62139456Y-102661784D01*
X62040853Y-102809354D01*
X61915354Y-102934853D01*
X61767784Y-103033456D01*
X61603812Y-103101376D01*
X61454512Y-103131073D01*
X61429742Y-103136000D01*
X61252258Y-103136000D01*
X61227488Y-103131073D01*
X61078188Y-103101376D01*
X60914216Y-103033456D01*
X60766646Y-102934853D01*
X60641147Y-102809354D01*
X60542544Y-102661784D01*
X60474624Y-102497812D01*
X60440000Y-102323741D01*
X60440000Y-102146259D01*
X60474624Y-101972188D01*
X60542544Y-101808216D01*
X60641147Y-101660646D01*
X60766646Y-101535147D01*
X60914216Y-101436544D01*
X61078188Y-101368624D01*
X61227488Y-101338927D01*
X61252258Y-101334000D01*
X61429742Y-101334000D01*
X61454512Y-101338927D01*
G37*
G36*
X76694512Y-101338927D02*
G01*
X76843812Y-101368624D01*
X77007784Y-101436544D01*
X77155354Y-101535147D01*
X77280853Y-101660646D01*
X77379456Y-101808216D01*
X77447376Y-101972188D01*
X77482000Y-102146259D01*
X77482000Y-102323741D01*
X77447376Y-102497812D01*
X77379456Y-102661784D01*
X77280853Y-102809354D01*
X77155354Y-102934853D01*
X77007784Y-103033456D01*
X76843812Y-103101376D01*
X76694512Y-103131073D01*
X76669742Y-103136000D01*
X76492258Y-103136000D01*
X76467488Y-103131073D01*
X76318188Y-103101376D01*
X76154216Y-103033456D01*
X76006646Y-102934853D01*
X75881147Y-102809354D01*
X75782544Y-102661784D01*
X75714624Y-102497812D01*
X75680000Y-102323741D01*
X75680000Y-102146259D01*
X75714624Y-101972188D01*
X75782544Y-101808216D01*
X75881147Y-101660646D01*
X76006646Y-101535147D01*
X76154216Y-101436544D01*
X76318188Y-101368624D01*
X76467488Y-101338927D01*
X76492258Y-101334000D01*
X76669742Y-101334000D01*
X76694512Y-101338927D01*
G37*
G36*
X38467512Y-98798927D02*
G01*
X38616812Y-98828624D01*
X38780784Y-98896544D01*
X38928354Y-98995147D01*
X39053853Y-99120646D01*
X39152456Y-99268216D01*
X39220376Y-99432188D01*
X39255000Y-99606259D01*
X39255000Y-99783741D01*
X39220376Y-99957812D01*
X39152456Y-100121784D01*
X39053853Y-100269354D01*
X38928354Y-100394853D01*
X38780784Y-100493456D01*
X38616812Y-100561376D01*
X38467512Y-100591073D01*
X38442742Y-100596000D01*
X38265258Y-100596000D01*
X38240488Y-100591073D01*
X38091188Y-100561376D01*
X37927216Y-100493456D01*
X37779646Y-100394853D01*
X37654147Y-100269354D01*
X37555544Y-100121784D01*
X37487624Y-99957812D01*
X37453000Y-99783741D01*
X37453000Y-99606259D01*
X37487624Y-99432188D01*
X37555544Y-99268216D01*
X37654147Y-99120646D01*
X37779646Y-98995147D01*
X37927216Y-98896544D01*
X38091188Y-98828624D01*
X38240488Y-98798927D01*
X38265258Y-98794000D01*
X38442742Y-98794000D01*
X38467512Y-98798927D01*
G37*
G36*
X85076512Y-98798927D02*
G01*
X85225812Y-98828624D01*
X85389784Y-98896544D01*
X85537354Y-98995147D01*
X85662853Y-99120646D01*
X85761456Y-99268216D01*
X85829376Y-99432188D01*
X85864000Y-99606259D01*
X85864000Y-99783741D01*
X85829376Y-99957812D01*
X85761456Y-100121784D01*
X85662853Y-100269354D01*
X85537354Y-100394853D01*
X85389784Y-100493456D01*
X85225812Y-100561376D01*
X85076512Y-100591073D01*
X85051742Y-100596000D01*
X84874258Y-100596000D01*
X84849488Y-100591073D01*
X84700188Y-100561376D01*
X84536216Y-100493456D01*
X84388646Y-100394853D01*
X84263147Y-100269354D01*
X84164544Y-100121784D01*
X84096624Y-99957812D01*
X84062000Y-99783741D01*
X84062000Y-99606259D01*
X84096624Y-99432188D01*
X84164544Y-99268216D01*
X84263147Y-99120646D01*
X84388646Y-98995147D01*
X84536216Y-98896544D01*
X84700188Y-98828624D01*
X84849488Y-98798927D01*
X84874258Y-98794000D01*
X85051742Y-98794000D01*
X85076512Y-98798927D01*
G37*
G36*
X38467512Y-96258927D02*
G01*
X38616812Y-96288624D01*
X38780784Y-96356544D01*
X38928354Y-96455147D01*
X39053853Y-96580646D01*
X39152456Y-96728216D01*
X39220376Y-96892188D01*
X39255000Y-97066259D01*
X39255000Y-97243741D01*
X39220376Y-97417812D01*
X39152456Y-97581784D01*
X39053853Y-97729354D01*
X38928354Y-97854853D01*
X38780784Y-97953456D01*
X38616812Y-98021376D01*
X38467512Y-98051073D01*
X38442742Y-98056000D01*
X38265258Y-98056000D01*
X38240488Y-98051073D01*
X38091188Y-98021376D01*
X37927216Y-97953456D01*
X37779646Y-97854853D01*
X37654147Y-97729354D01*
X37555544Y-97581784D01*
X37487624Y-97417812D01*
X37453000Y-97243741D01*
X37453000Y-97066259D01*
X37487624Y-96892188D01*
X37555544Y-96728216D01*
X37654147Y-96580646D01*
X37779646Y-96455147D01*
X37927216Y-96356544D01*
X38091188Y-96288624D01*
X38240488Y-96258927D01*
X38265258Y-96254000D01*
X38442742Y-96254000D01*
X38467512Y-96258927D01*
G37*
G36*
X85076512Y-96258927D02*
G01*
X85225812Y-96288624D01*
X85389784Y-96356544D01*
X85537354Y-96455147D01*
X85662853Y-96580646D01*
X85761456Y-96728216D01*
X85829376Y-96892188D01*
X85864000Y-97066259D01*
X85864000Y-97243741D01*
X85829376Y-97417812D01*
X85761456Y-97581784D01*
X85662853Y-97729354D01*
X85537354Y-97854853D01*
X85389784Y-97953456D01*
X85225812Y-98021376D01*
X85076512Y-98051073D01*
X85051742Y-98056000D01*
X84874258Y-98056000D01*
X84849488Y-98051073D01*
X84700188Y-98021376D01*
X84536216Y-97953456D01*
X84388646Y-97854853D01*
X84263147Y-97729354D01*
X84164544Y-97581784D01*
X84096624Y-97417812D01*
X84062000Y-97243741D01*
X84062000Y-97066259D01*
X84096624Y-96892188D01*
X84164544Y-96728216D01*
X84263147Y-96580646D01*
X84388646Y-96455147D01*
X84536216Y-96356544D01*
X84700188Y-96288624D01*
X84849488Y-96258927D01*
X84874258Y-96254000D01*
X85051742Y-96254000D01*
X85076512Y-96258927D01*
G37*
G36*
X38467512Y-93718927D02*
G01*
X38616812Y-93748624D01*
X38780784Y-93816544D01*
X38928354Y-93915147D01*
X39053853Y-94040646D01*
X39152456Y-94188216D01*
X39220376Y-94352188D01*
X39255000Y-94526259D01*
X39255000Y-94703741D01*
X39220376Y-94877812D01*
X39152456Y-95041784D01*
X39053853Y-95189354D01*
X38928354Y-95314853D01*
X38780784Y-95413456D01*
X38616812Y-95481376D01*
X38467512Y-95511073D01*
X38442742Y-95516000D01*
X38265258Y-95516000D01*
X38240488Y-95511073D01*
X38091188Y-95481376D01*
X37927216Y-95413456D01*
X37779646Y-95314853D01*
X37654147Y-95189354D01*
X37555544Y-95041784D01*
X37487624Y-94877812D01*
X37453000Y-94703741D01*
X37453000Y-94526259D01*
X37487624Y-94352188D01*
X37555544Y-94188216D01*
X37654147Y-94040646D01*
X37779646Y-93915147D01*
X37927216Y-93816544D01*
X38091188Y-93748624D01*
X38240488Y-93718927D01*
X38265258Y-93714000D01*
X38442742Y-93714000D01*
X38467512Y-93718927D01*
G37*
G36*
X85076512Y-93718927D02*
G01*
X85225812Y-93748624D01*
X85389784Y-93816544D01*
X85537354Y-93915147D01*
X85662853Y-94040646D01*
X85761456Y-94188216D01*
X85829376Y-94352188D01*
X85864000Y-94526259D01*
X85864000Y-94703741D01*
X85829376Y-94877812D01*
X85761456Y-95041784D01*
X85662853Y-95189354D01*
X85537354Y-95314853D01*
X85389784Y-95413456D01*
X85225812Y-95481376D01*
X85076512Y-95511073D01*
X85051742Y-95516000D01*
X84874258Y-95516000D01*
X84849488Y-95511073D01*
X84700188Y-95481376D01*
X84536216Y-95413456D01*
X84388646Y-95314853D01*
X84263147Y-95189354D01*
X84164544Y-95041784D01*
X84096624Y-94877812D01*
X84062000Y-94703741D01*
X84062000Y-94526259D01*
X84096624Y-94352188D01*
X84164544Y-94188216D01*
X84263147Y-94040646D01*
X84388646Y-93915147D01*
X84536216Y-93816544D01*
X84700188Y-93748624D01*
X84849488Y-93718927D01*
X84874258Y-93714000D01*
X85051742Y-93714000D01*
X85076512Y-93718927D01*
G37*
G36*
X38467512Y-91178927D02*
G01*
X38616812Y-91208624D01*
X38780784Y-91276544D01*
X38928354Y-91375147D01*
X39053853Y-91500646D01*
X39152456Y-91648216D01*
X39220376Y-91812188D01*
X39255000Y-91986259D01*
X39255000Y-92163741D01*
X39220376Y-92337812D01*
X39152456Y-92501784D01*
X39053853Y-92649354D01*
X38928354Y-92774853D01*
X38780784Y-92873456D01*
X38616812Y-92941376D01*
X38467512Y-92971073D01*
X38442742Y-92976000D01*
X38265258Y-92976000D01*
X38240488Y-92971073D01*
X38091188Y-92941376D01*
X37927216Y-92873456D01*
X37779646Y-92774853D01*
X37654147Y-92649354D01*
X37555544Y-92501784D01*
X37487624Y-92337812D01*
X37453000Y-92163741D01*
X37453000Y-91986259D01*
X37487624Y-91812188D01*
X37555544Y-91648216D01*
X37654147Y-91500646D01*
X37779646Y-91375147D01*
X37927216Y-91276544D01*
X38091188Y-91208624D01*
X38240488Y-91178927D01*
X38265258Y-91174000D01*
X38442742Y-91174000D01*
X38467512Y-91178927D01*
G37*
G36*
X85076512Y-91178927D02*
G01*
X85225812Y-91208624D01*
X85389784Y-91276544D01*
X85537354Y-91375147D01*
X85662853Y-91500646D01*
X85761456Y-91648216D01*
X85829376Y-91812188D01*
X85864000Y-91986259D01*
X85864000Y-92163741D01*
X85829376Y-92337812D01*
X85761456Y-92501784D01*
X85662853Y-92649354D01*
X85537354Y-92774853D01*
X85389784Y-92873456D01*
X85225812Y-92941376D01*
X85076512Y-92971073D01*
X85051742Y-92976000D01*
X84874258Y-92976000D01*
X84849488Y-92971073D01*
X84700188Y-92941376D01*
X84536216Y-92873456D01*
X84388646Y-92774853D01*
X84263147Y-92649354D01*
X84164544Y-92501784D01*
X84096624Y-92337812D01*
X84062000Y-92163741D01*
X84062000Y-91986259D01*
X84096624Y-91812188D01*
X84164544Y-91648216D01*
X84263147Y-91500646D01*
X84388646Y-91375147D01*
X84536216Y-91276544D01*
X84700188Y-91208624D01*
X84849488Y-91178927D01*
X84874258Y-91174000D01*
X85051742Y-91174000D01*
X85076512Y-91178927D01*
G37*
G36*
X85864000Y-90436000D02*
G01*
X84062000Y-90436000D01*
X84062000Y-88634000D01*
X85864000Y-88634000D01*
X85864000Y-90436000D01*
G37*
G36*
X49948903Y-72718213D02*
G01*
X50171177Y-72762426D01*
X50589932Y-72935880D01*
X50966802Y-73187696D01*
X51287304Y-73508198D01*
X51539120Y-73885068D01*
X51712574Y-74303823D01*
X51801000Y-74748371D01*
X51801000Y-75201629D01*
X51712574Y-75646177D01*
X51539120Y-76064932D01*
X51287304Y-76441802D01*
X50966802Y-76762304D01*
X50589932Y-77014120D01*
X50171177Y-77187574D01*
X49948903Y-77231787D01*
X49726630Y-77276000D01*
X49273370Y-77276000D01*
X49051097Y-77231787D01*
X48828823Y-77187574D01*
X48410068Y-77014120D01*
X48033198Y-76762304D01*
X47712696Y-76441802D01*
X47460880Y-76064932D01*
X47287426Y-75646177D01*
X47199000Y-75201629D01*
X47199000Y-74748371D01*
X47287426Y-74303823D01*
X47460880Y-73885068D01*
X47712696Y-73508198D01*
X48033198Y-73187696D01*
X48410068Y-72935880D01*
X48828823Y-72762426D01*
X49051097Y-72718213D01*
X49273370Y-72674000D01*
X49726630Y-72674000D01*
X49948903Y-72718213D01*
G37*
G36*
X75948903Y-72718213D02*
G01*
X76171177Y-72762426D01*
X76589932Y-72935880D01*
X76966802Y-73187696D01*
X77287304Y-73508198D01*
X77539120Y-73885068D01*
X77712574Y-74303823D01*
X77801000Y-74748371D01*
X77801000Y-75201629D01*
X77712574Y-75646177D01*
X77539120Y-76064932D01*
X77287304Y-76441802D01*
X76966802Y-76762304D01*
X76589932Y-77014120D01*
X76171177Y-77187574D01*
X75948903Y-77231787D01*
X75726630Y-77276000D01*
X75273370Y-77276000D01*
X75051097Y-77231787D01*
X74828823Y-77187574D01*
X74410068Y-77014120D01*
X74033198Y-76762304D01*
X73712696Y-76441802D01*
X73460880Y-76064932D01*
X73287426Y-75646177D01*
X73199000Y-75201629D01*
X73199000Y-74748371D01*
X73287426Y-74303823D01*
X73460880Y-73885068D01*
X73712696Y-73508198D01*
X74033198Y-73187696D01*
X74410068Y-72935880D01*
X74828823Y-72762426D01*
X75051097Y-72718213D01*
X75273370Y-72674000D01*
X75726630Y-72674000D01*
X75948903Y-72718213D01*
G37*
M02*
